<svg width="41" height="41" viewBox="0 0 41 41" fill="none" xmlns="http://www.w3.org/2000/svg">
<circle cx="20.5" cy="20.5" r="20.5" fill="#E2FFF9"/>
<path d="M26.07 13.93L24.66 15.34C25.4027 16.0835 25.9916 16.966 26.3931 17.9372C26.7946 18.9084 27.0008 19.9491 27 21C27 25.42 23.42 29 19 29C14.58 29 11 25.42 11 21C11 16.92 14.05 13.56 18 13.07V15.09C15.16 15.57 13 18.03 13 21C13 24.31 15.69 27 19 27C22.31 27 25 24.31 25 21C25 19.34 24.33 17.84 23.24 16.76L21.83 18.17C22.55 18.9 23 19.9 23 21C23 23.21 21.21 25 19 25C16.79 25 15 23.21 15 21C15 19.14 16.28 17.59 18 17.14V19.28C17.4 19.63 17 20.26 17 21C17 22.1 17.9 23 19 23C20.1 23 21 22.1 21 21C21 20.26 20.6 19.62 20 19.28V11H19C13.48 11 9 15.48 9 21C9 26.52 13.48 31 19 31C24.52 31 29 26.52 29 21C29 18.24 27.88 15.74 26.07 13.93Z" fill="#1ABC9C"/>
</svg>
