<svg width="316" height="109" viewBox="0 0 316 109" fill="none" xmlns="http://www.w3.org/2000/svg">
<rect width="316" height="109" rx="10" fill="#F6F7FE"/>
<circle cx="41.5" cy="52.5" r="26.5" fill="#008080"/>
<path d="M41.0001 39.6667C33.6481 39.6667 27.6667 45.6481 27.6667 53.0001C27.6667 60.3521 33.6481 66.3334 41.0001 66.3334C48.3521 66.3334 54.3334 60.3521 54.3334 53.0001C54.3334 45.6481 48.3521 39.6667 41.0001 39.6667ZM41.0001 63.6667C35.1187 63.6667 30.3334 58.8814 30.3334 53.0001C30.3334 47.1187 35.1187 42.3334 41.0001 42.3334C46.8814 42.3334 51.6667 47.1187 51.6667 53.0001C51.6667 58.8814 46.8814 63.6667 41.0001 63.6667Z" fill="white"/>
<path d="M38.332 55.116L35.2667 52.056L33.384 53.944L38.3347 58.884L47.276 49.9427L45.3907 48.0574L38.332 55.116Z" fill="white"/>
<path d="M88.888 41.33C84.4 41.33 80.792 38.096 80.792 33.234C80.792 28.372 84.488 25.072 88.844 25.072C93.53 25.072 95.598 28.086 96.104 30.33L92.826 31.364C92.584 30.286 91.594 28.46 88.844 28.46C86.754 28.46 84.4 29.956 84.4 33.234C84.4 36.16 86.556 37.854 88.888 37.854C91.594 37.854 92.672 36.05 92.98 34.928L96.302 35.874C95.796 38.03 93.728 41.33 88.888 41.33ZM105.09 41L102.296 35.192H101.064V41H97.5881V25.402H103.77C106.85 25.402 108.83 27.514 108.83 30.286C108.83 32.398 107.664 34.004 105.75 34.686L108.918 41H105.09ZM101.064 32.2H103.11C104.54 32.2 105.31 31.408 105.31 30.308C105.31 29.142 104.54 28.416 103.11 28.416H101.064V32.2ZM112.901 33.19C112.901 36.446 115.233 37.898 117.411 37.898C119.567 37.898 121.899 36.446 121.899 33.19C121.899 29.934 119.567 28.46 117.411 28.46C115.233 28.46 112.901 29.934 112.901 33.19ZM109.293 33.212C109.293 28.262 113.011 25.072 117.411 25.072C121.789 25.072 125.507 28.262 125.507 33.212C125.507 38.14 121.789 41.33 117.411 41.33C113.011 41.33 109.293 38.14 109.293 33.212ZM141.176 35.412L143.706 25.402H147.27L143.024 41H139.438L136.116 30.66L132.772 41H129.12L124.874 25.402H128.57L131.144 35.39L134.378 25.402H137.942L141.176 35.412ZM151.561 37.722H153.585C155.983 37.722 157.941 36.336 157.941 33.212C157.941 30.088 155.983 28.68 153.585 28.68H151.561V37.722ZM153.717 41H148.085V25.402H153.739C158.425 25.402 161.571 28.394 161.571 33.212C161.571 38.03 158.425 41 153.717 41ZM174.456 41.33C169.968 41.33 166.36 38.096 166.36 33.234C166.36 28.372 170.056 25.072 174.412 25.072C179.098 25.072 181.166 28.086 181.672 30.33L178.394 31.364C178.152 30.286 177.162 28.46 174.412 28.46C172.322 28.46 169.968 29.956 169.968 33.234C169.968 36.16 172.124 37.854 174.456 37.854C177.162 37.854 178.24 36.05 178.548 34.928L181.87 35.874C181.364 38.03 179.296 41.33 174.456 41.33ZM185.733 33.19C185.733 36.446 188.065 37.898 190.243 37.898C192.399 37.898 194.731 36.446 194.731 33.19C194.731 29.934 192.399 28.46 190.243 28.46C188.065 28.46 185.733 29.934 185.733 33.19ZM182.125 33.212C182.125 28.262 185.843 25.072 190.243 25.072C194.621 25.072 198.339 28.262 198.339 33.212C198.339 38.14 194.621 41.33 190.243 41.33C185.843 41.33 182.125 38.14 182.125 33.212ZM213.268 41H209.594L203.17 30.748V41H199.716V25.402H203.94L209.792 34.884V25.402H213.268V41ZM227.338 28.724H222.52V41H219.044V28.724H214.248V25.402H227.338V28.724ZM235.848 41L233.054 35.192H231.822V41H228.346V25.402H234.528C237.608 25.402 239.588 27.514 239.588 30.286C239.588 32.398 238.422 34.004 236.508 34.686L239.676 41H235.848ZM231.822 32.2H233.868C235.298 32.2 236.068 31.408 236.068 30.308C236.068 29.142 235.298 28.416 233.868 28.416H231.822V32.2ZM243.659 33.19C243.659 36.446 245.991 37.898 248.169 37.898C250.325 37.898 252.657 36.446 252.657 33.19C252.657 29.934 250.325 28.46 248.169 28.46C245.991 28.46 243.659 29.934 243.659 33.19ZM240.051 33.212C240.051 28.262 243.769 25.072 248.169 25.072C252.547 25.072 256.265 28.262 256.265 33.212C256.265 38.14 252.547 41.33 248.169 41.33C243.769 41.33 240.051 38.14 240.051 33.212ZM267.85 41H257.642V25.402H261.118V37.678H267.85V41Z" fill="#181818"/>
<path d="M91.256 61H89.52V56.184L89.604 53.482H89.576L87.014 61H85.432L82.884 53.482H82.856L82.954 56.184V61H81.204V51.76H84.004L85.67 56.8L86.258 58.886H86.286L86.888 56.814L88.54 51.76H91.256V61ZM99.1064 59.838C99.3024 59.838 99.4611 59.8193 99.5824 59.782L99.4424 60.944C99.1811 61.0747 98.8777 61.14 98.5324 61.14C97.6364 61.14 97.0997 60.79 96.9224 60.09C96.7171 60.4353 96.3997 60.6967 95.9704 60.874C95.5411 61.0513 95.0324 61.14 94.4444 61.14C93.7631 61.14 93.2311 60.986 92.8484 60.678C92.4657 60.37 92.2744 59.9267 92.2744 59.348C92.2744 58.2093 93.1844 57.472 95.0044 57.136L96.6844 56.814V56.478C96.6844 56.1047 96.5771 55.8107 96.3624 55.596C96.1571 55.372 95.8677 55.26 95.4944 55.26C95.0651 55.26 94.7151 55.3533 94.4444 55.54C94.1737 55.7267 93.9871 56.03 93.8844 56.45L92.3584 55.806C92.5077 55.1993 92.8437 54.7233 93.3664 54.378C93.8891 54.0327 94.5704 53.86 95.4104 53.86C96.4091 53.86 97.1884 54.0793 97.7484 54.518C98.3084 54.9473 98.5884 55.5867 98.5884 56.436V59.306C98.5884 59.4927 98.6304 59.628 98.7144 59.712C98.7984 59.796 98.9291 59.838 99.1064 59.838ZM95.0464 59.838C95.4571 59.838 95.8304 59.74 96.1664 59.544C96.5117 59.3387 96.6844 59.0633 96.6844 58.718V57.99L95.1864 58.326C94.8691 58.4007 94.6311 58.5033 94.4724 58.634C94.3231 58.7553 94.2484 58.928 94.2484 59.152C94.2484 59.376 94.3184 59.5487 94.4584 59.67C94.5984 59.782 94.7944 59.838 95.0464 59.838ZM104.219 53.86C104.975 53.86 105.582 54.0793 106.039 54.518C106.506 54.9567 106.739 55.5867 106.739 56.408V61H104.821V56.968C104.821 55.904 104.406 55.372 103.575 55.372C103.127 55.372 102.745 55.5307 102.427 55.848C102.119 56.1653 101.965 56.6507 101.965 57.304V61H100.047V54H101.769L101.825 55.246C102.059 54.7887 102.381 54.4433 102.791 54.21C103.202 53.9767 103.678 53.86 104.219 53.86ZM114.413 59.838C114.609 59.838 114.768 59.8193 114.889 59.782L114.749 60.944C114.488 61.0747 114.185 61.14 113.839 61.14C112.943 61.14 112.407 60.79 112.229 60.09C112.024 60.4353 111.707 60.6967 111.277 60.874C110.848 61.0513 110.339 61.14 109.751 61.14C109.07 61.14 108.538 60.986 108.155 60.678C107.773 60.37 107.581 59.9267 107.581 59.348C107.581 58.2093 108.491 57.472 110.311 57.136L111.991 56.814V56.478C111.991 56.1047 111.884 55.8107 111.669 55.596C111.464 55.372 111.175 55.26 110.801 55.26C110.372 55.26 110.022 55.3533 109.751 55.54C109.481 55.7267 109.294 56.03 109.191 56.45L107.665 55.806C107.815 55.1993 108.151 54.7233 108.673 54.378C109.196 54.0327 109.877 53.86 110.717 53.86C111.716 53.86 112.495 54.0793 113.055 54.518C113.615 54.9473 113.895 55.5867 113.895 56.436V59.306C113.895 59.4927 113.937 59.628 114.021 59.712C114.105 59.796 114.236 59.838 114.413 59.838ZM110.353 59.838C110.764 59.838 111.137 59.74 111.473 59.544C111.819 59.3387 111.991 59.0633 111.991 58.718V57.99L110.493 58.326C110.176 58.4007 109.938 58.5033 109.779 58.634C109.63 58.7553 109.555 58.928 109.555 59.152C109.555 59.376 109.625 59.5487 109.765 59.67C109.905 59.782 110.101 59.838 110.353 59.838ZM119.652 59.684C120.417 59.684 121.005 59.852 121.416 60.188C121.836 60.524 122.046 61.0047 122.046 61.63C122.046 62.3767 121.7 62.96 121.01 63.38C120.319 63.8 119.409 64.01 118.28 64.01C117.113 64.01 116.245 63.856 115.676 63.548C115.116 63.24 114.836 62.82 114.836 62.288C114.836 61.9707 114.943 61.6953 115.158 61.462C115.372 61.2287 115.69 61.0607 116.11 60.958C115.792 60.8273 115.54 60.6453 115.354 60.412C115.167 60.1693 115.074 59.8847 115.074 59.558C115.074 59.222 115.172 58.9327 115.368 58.69C115.564 58.4473 115.834 58.2653 116.18 58.144C115.825 57.9387 115.554 57.6773 115.368 57.36C115.181 57.0333 115.088 56.66 115.088 56.24C115.088 55.5027 115.372 54.924 115.942 54.504C116.52 54.0747 117.304 53.86 118.294 53.86C118.798 53.86 119.269 53.9207 119.708 54.042C119.829 53.4913 120.062 53.062 120.408 52.754C120.762 52.4367 121.238 52.2967 121.836 52.334L122.088 53.706C122.022 53.6967 121.924 53.692 121.794 53.692C121.448 53.692 121.159 53.7527 120.926 53.874C120.702 53.9953 120.543 54.1587 120.45 54.364C120.795 54.5693 121.056 54.8307 121.234 55.148C121.42 55.4653 121.514 55.8293 121.514 56.24C121.514 56.968 121.224 57.5467 120.646 57.976C120.076 58.396 119.292 58.606 118.294 58.606C117.836 58.606 117.416 58.564 117.034 58.48C116.67 58.5733 116.488 58.7833 116.488 59.11C116.488 59.2967 116.558 59.4413 116.698 59.544C116.838 59.6373 117.034 59.684 117.286 59.684H119.652ZM118.294 55.064C117.92 55.064 117.612 55.1713 117.37 55.386C117.136 55.6007 117.02 55.8807 117.02 56.226C117.02 56.5807 117.136 56.8653 117.37 57.08C117.612 57.2947 117.92 57.402 118.294 57.402C118.676 57.402 118.984 57.2947 119.218 57.08C119.46 56.8653 119.582 56.5807 119.582 56.226C119.582 55.8807 119.46 55.6007 119.218 55.386C118.984 55.1713 118.676 55.064 118.294 55.064ZM118.434 62.694C119.087 62.694 119.591 62.61 119.946 62.442C120.3 62.2833 120.478 62.078 120.478 61.826C120.478 61.63 120.394 61.4807 120.226 61.378C120.067 61.2847 119.801 61.238 119.428 61.238H117.524C116.749 61.238 116.362 61.448 116.362 61.868C116.362 62.1293 116.534 62.33 116.88 62.47C117.225 62.6193 117.743 62.694 118.434 62.694ZM129.067 57.472C129.067 57.7333 129.049 57.9853 129.011 58.228H124.055C124.251 59.2173 124.835 59.712 125.805 59.712C126.207 59.712 126.538 59.6373 126.799 59.488C127.061 59.3387 127.243 59.124 127.345 58.844L128.913 59.418C128.689 59.978 128.311 60.4073 127.779 60.706C127.257 60.9953 126.599 61.14 125.805 61.14C124.648 61.14 123.752 60.8227 123.117 60.188C122.483 59.544 122.165 58.648 122.165 57.5C122.165 56.352 122.473 55.4607 123.089 54.826C123.705 54.182 124.573 53.86 125.693 53.86C126.776 53.86 127.607 54.1727 128.185 54.798C128.773 55.4233 129.067 56.3147 129.067 57.472ZM125.679 55.274C125.213 55.274 124.839 55.4093 124.559 55.68C124.289 55.9507 124.116 56.352 124.041 56.884H127.303C127.229 56.3613 127.051 55.9647 126.771 55.694C126.491 55.414 126.127 55.274 125.679 55.274ZM137.419 57.542V61H135.487V57.542L132.211 51.76H134.269L135.753 54.518L136.453 55.974L137.167 54.518L138.651 51.76H140.695L137.419 57.542ZM143.023 53.86C144.152 53.86 145.029 54.182 145.655 54.826C146.289 55.47 146.607 56.3613 146.607 57.5C146.607 58.6387 146.289 59.53 145.655 60.174C145.029 60.818 144.152 61.14 143.023 61.14C141.893 61.14 141.011 60.818 140.377 60.174C139.751 59.53 139.439 58.6387 139.439 57.5C139.439 56.3613 139.751 55.47 140.377 54.826C141.011 54.182 141.893 53.86 143.023 53.86ZM143.023 55.288C142.481 55.288 142.066 55.4747 141.777 55.848C141.497 56.212 141.357 56.7627 141.357 57.5C141.357 58.2373 141.497 58.7927 141.777 59.166C142.066 59.53 142.481 59.712 143.023 59.712C143.564 59.712 143.975 59.53 144.255 59.166C144.544 58.7927 144.689 58.2373 144.689 57.5C144.689 56.7627 144.544 56.212 144.255 55.848C143.975 55.4747 143.564 55.288 143.023 55.288ZM154.202 54V61H152.494L152.424 59.796C151.976 60.692 151.159 61.14 149.974 61.14C149.218 61.14 148.616 60.9393 148.168 60.538C147.729 60.1273 147.51 59.4927 147.51 58.634V54H149.428V58.144C149.428 58.6853 149.53 59.068 149.736 59.292C149.941 59.516 150.244 59.628 150.646 59.628C151.131 59.628 151.523 59.474 151.822 59.166C152.13 58.8487 152.284 58.3773 152.284 57.752V54H154.202ZM159.482 53.86C159.808 53.86 160.06 53.9113 160.238 54.014L160 55.694C159.785 55.554 159.491 55.484 159.118 55.484C158.66 55.484 158.264 55.652 157.928 55.988C157.601 56.3147 157.438 56.7767 157.438 57.374V61H155.52V54H157.186L157.312 55.372C157.694 54.364 158.418 53.86 159.482 53.86ZM169.095 58.746H165.539L164.783 61H162.809L166.183 51.76H168.493L171.867 61H169.865L169.095 58.746ZM168.619 57.318L167.751 54.714L167.331 53.314H167.303L166.911 54.686L166.015 57.318H168.619ZM178.91 54V61H177.202L177.132 59.796C176.684 60.692 175.867 61.14 174.682 61.14C173.926 61.14 173.324 60.9393 172.876 60.538C172.437 60.1273 172.218 59.4927 172.218 58.634V54H174.136V58.144C174.136 58.6853 174.238 59.068 174.444 59.292C174.649 59.516 174.952 59.628 175.354 59.628C175.839 59.628 176.231 59.474 176.53 59.166C176.838 58.8487 176.992 58.3773 176.992 57.752V54H178.91ZM187.004 50.934V61H185.296L185.212 59.698C185.006 60.1367 184.698 60.4867 184.288 60.748C183.886 61.0093 183.424 61.14 182.902 61.14C181.968 61.14 181.236 60.8227 180.704 60.188C180.172 59.544 179.906 58.6527 179.906 57.514C179.906 56.366 180.172 55.47 180.704 54.826C181.236 54.182 181.968 53.86 182.902 53.86C183.406 53.86 183.844 53.9767 184.218 54.21C184.591 54.434 184.88 54.7467 185.086 55.148V50.934H187.004ZM183.462 59.67C183.966 59.67 184.362 59.488 184.652 59.124C184.941 58.76 185.086 58.242 185.086 57.57V57.43C185.086 56.7673 184.941 56.254 184.652 55.89C184.362 55.5167 183.966 55.33 183.462 55.33C182.948 55.33 182.547 55.5167 182.258 55.89C181.968 56.2633 181.824 56.8 181.824 57.5C181.824 58.2 181.968 58.7367 182.258 59.11C182.547 59.4833 182.948 59.67 183.462 59.67ZM189.298 52.992C188.505 52.992 188.108 52.6513 188.108 51.97C188.108 51.2793 188.505 50.934 189.298 50.934C190.092 50.934 190.488 51.2793 190.488 51.97C190.488 52.6513 190.092 52.992 189.298 52.992ZM190.25 61H188.332V54H190.25V61ZM198.121 57.472C198.121 57.7333 198.103 57.9853 198.065 58.228H193.109C193.305 59.2173 193.889 59.712 194.859 59.712C195.261 59.712 195.592 59.6373 195.853 59.488C196.115 59.3387 196.297 59.124 196.399 58.844L197.967 59.418C197.743 59.978 197.365 60.4073 196.833 60.706C196.311 60.9953 195.653 61.14 194.859 61.14C193.702 61.14 192.806 60.8227 192.171 60.188C191.537 59.544 191.219 58.648 191.219 57.5C191.219 56.352 191.527 55.4607 192.143 54.826C192.759 54.182 193.627 53.86 194.747 53.86C195.83 53.86 196.661 54.1727 197.239 54.798C197.827 55.4233 198.121 56.3147 198.121 57.472ZM194.733 55.274C194.267 55.274 193.893 55.4093 193.613 55.68C193.343 55.9507 193.17 56.352 193.095 56.884H196.357C196.283 56.3613 196.105 55.9647 195.825 55.694C195.545 55.414 195.181 55.274 194.733 55.274ZM203.204 53.86C203.96 53.86 204.566 54.0793 205.024 54.518C205.49 54.9567 205.724 55.5867 205.724 56.408V61H203.806V56.968C203.806 55.904 203.39 55.372 202.56 55.372C202.112 55.372 201.729 55.5307 201.412 55.848C201.104 56.1653 200.95 56.6507 200.95 57.304V61H199.032V54H200.754L200.81 55.246C201.043 54.7887 201.365 54.4433 201.776 54.21C202.186 53.9767 202.662 53.86 203.204 53.86ZM210.206 53.86C211.13 53.86 211.848 54.0467 212.362 54.42C212.875 54.7933 213.225 55.2927 213.412 55.918L211.62 56.562C211.452 55.7127 210.999 55.288 210.262 55.288C209.711 55.288 209.286 55.4793 208.988 55.862C208.698 56.2353 208.554 56.786 208.554 57.514C208.554 58.242 208.703 58.7927 209.002 59.166C209.3 59.53 209.716 59.712 210.248 59.712C211.069 59.712 211.554 59.2967 211.704 58.466L213.44 59.026C213.29 59.67 212.94 60.1833 212.39 60.566C211.848 60.9487 211.144 61.14 210.276 61.14C209.118 61.14 208.222 60.8227 207.588 60.188C206.953 59.544 206.636 58.648 206.636 57.5C206.636 56.352 206.948 55.4607 207.574 54.826C208.208 54.182 209.086 53.86 210.206 53.86ZM220.808 57.472C220.808 57.7333 220.79 57.9853 220.752 58.228H215.796C215.992 59.2173 216.576 59.712 217.546 59.712C217.948 59.712 218.279 59.6373 218.54 59.488C218.802 59.3387 218.984 59.124 219.086 58.844L220.654 59.418C220.43 59.978 220.052 60.4073 219.52 60.706C218.998 60.9953 218.34 61.14 217.546 61.14C216.389 61.14 215.493 60.8227 214.858 60.188C214.224 59.544 213.906 58.648 213.906 57.5C213.906 56.352 214.214 55.4607 214.83 54.826C215.446 54.182 216.314 53.86 217.434 53.86C218.517 53.86 219.348 54.1727 219.926 54.798C220.514 55.4233 220.808 56.3147 220.808 57.472ZM217.42 55.274C216.954 55.274 216.58 55.4093 216.3 55.68C216.03 55.9507 215.857 56.352 215.782 56.884H219.044C218.97 56.3613 218.792 55.9647 218.512 55.694C218.232 55.414 217.868 55.274 217.42 55.274ZM236.155 54L233.929 61H231.703L230.177 56.058L228.707 61H226.495L224.269 54H226.299L227.699 59.46L229.267 54H231.157L232.725 59.46L234.125 54H236.155ZM237.705 52.992C236.912 52.992 236.515 52.6513 236.515 51.97C236.515 51.2793 236.912 50.934 237.705 50.934C238.498 50.934 238.895 51.2793 238.895 51.97C238.895 52.6513 238.498 52.992 237.705 52.992ZM238.657 61H236.739V54H238.657V61ZM244.792 60.566C244.568 60.7433 244.283 60.8833 243.938 60.986C243.602 61.0887 243.247 61.14 242.874 61.14C241.315 61.14 240.536 60.4353 240.536 59.026V55.428H239.262V54H240.536V52.39L242.454 51.858V54H244.722V55.428H242.454V58.718C242.454 59.362 242.776 59.684 243.42 59.684C243.831 59.684 244.19 59.5533 244.498 59.292L244.792 60.566ZM249.573 53.86C250.329 53.86 250.936 54.0793 251.393 54.518C251.86 54.9567 252.093 55.5867 252.093 56.408V61H250.175V56.968C250.175 55.904 249.76 55.372 248.929 55.372C248.481 55.372 248.099 55.5307 247.781 55.848C247.473 56.1653 247.319 56.6507 247.319 57.304V61H245.401V50.934H247.319V55.19C247.534 54.742 247.833 54.4107 248.215 54.196C248.607 53.972 249.06 53.86 249.573 53.86ZM264.271 59.446V61H257.145V51.76H264.075V53.314H259.077V55.61H263.011V57.094H259.077V59.446H264.271ZM271.506 59.838C271.702 59.838 271.861 59.8193 271.982 59.782L271.842 60.944C271.581 61.0747 271.277 61.14 270.932 61.14C270.036 61.14 269.499 60.79 269.322 60.09C269.117 60.4353 268.799 60.6967 268.37 60.874C267.941 61.0513 267.432 61.14 266.844 61.14C266.163 61.14 265.631 60.986 265.248 60.678C264.865 60.37 264.674 59.9267 264.674 59.348C264.674 58.2093 265.584 57.472 267.404 57.136L269.084 56.814V56.478C269.084 56.1047 268.977 55.8107 268.762 55.596C268.557 55.372 268.267 55.26 267.894 55.26C267.465 55.26 267.115 55.3533 266.844 55.54C266.573 55.7267 266.387 56.03 266.284 56.45L264.758 55.806C264.907 55.1993 265.243 54.7233 265.766 54.378C266.289 54.0327 266.97 53.86 267.81 53.86C268.809 53.86 269.588 54.0793 270.148 54.518C270.708 54.9473 270.988 55.5867 270.988 56.436V59.306C270.988 59.4927 271.03 59.628 271.114 59.712C271.198 59.796 271.329 59.838 271.506 59.838ZM267.446 59.838C267.857 59.838 268.23 59.74 268.566 59.544C268.911 59.3387 269.084 59.0633 269.084 58.718V57.99L267.586 58.326C267.269 58.4007 267.031 58.5033 266.872 58.634C266.723 58.7553 266.648 58.928 266.648 59.152C266.648 59.376 266.718 59.5487 266.858 59.67C266.998 59.782 267.194 59.838 267.446 59.838ZM275.163 61.14C273.604 61.14 272.522 60.692 271.915 59.796L273.035 58.648C273.222 59.0493 273.488 59.334 273.833 59.502C274.188 59.6607 274.622 59.74 275.135 59.74C275.546 59.74 275.863 59.684 276.087 59.572C276.311 59.46 276.423 59.306 276.423 59.11C276.423 58.9513 276.316 58.816 276.101 58.704C275.896 58.592 275.536 58.4847 275.023 58.382C273.95 58.1673 273.194 57.8873 272.755 57.542C272.326 57.1873 272.111 56.7113 272.111 56.114C272.111 55.722 272.232 55.3533 272.475 55.008C272.718 54.6627 273.077 54.3873 273.553 54.182C274.029 53.9673 274.598 53.86 275.261 53.86C276.045 53.86 276.68 53.9813 277.165 54.224C277.65 54.4573 278.056 54.8307 278.383 55.344L277.193 56.352C276.988 55.9787 276.731 55.7033 276.423 55.526C276.124 55.3487 275.746 55.26 275.289 55.26C274.906 55.26 274.598 55.3253 274.365 55.456C274.141 55.5867 274.029 55.7453 274.029 55.932C274.029 56.128 274.141 56.2913 274.365 56.422C274.589 56.5527 274.986 56.674 275.555 56.786C276.572 56.9913 277.291 57.262 277.711 57.598C278.14 57.9247 278.355 58.382 278.355 58.97C278.355 59.6233 278.075 60.1507 277.515 60.552C276.964 60.944 276.18 61.14 275.163 61.14ZM285.695 57.472C285.695 57.7333 285.677 57.9853 285.639 58.228H280.683C280.879 59.2173 281.463 59.712 282.433 59.712C282.835 59.712 283.166 59.6373 283.427 59.488C283.689 59.3387 283.871 59.124 283.973 58.844L285.541 59.418C285.317 59.978 284.939 60.4073 284.407 60.706C283.885 60.9953 283.227 61.14 282.433 61.14C281.276 61.14 280.38 60.8227 279.745 60.188C279.111 59.544 278.793 58.648 278.793 57.5C278.793 56.352 279.101 55.4607 279.717 54.826C280.333 54.182 281.201 53.86 282.321 53.86C283.404 53.86 284.235 54.1727 284.813 54.798C285.401 55.4233 285.695 56.3147 285.695 57.472ZM282.307 55.274C281.841 55.274 281.467 55.4093 281.187 55.68C280.917 55.9507 280.744 56.352 280.669 56.884H283.931C283.857 56.3613 283.679 55.9647 283.399 55.694C283.119 55.414 282.755 55.274 282.307 55.274Z" fill="#666666"/>
<path d="M83.41 74.4C84.0767 74.4 84.6133 74.5833 85.02 74.95C85.4267 75.31 85.63 75.7967 85.63 76.41C85.63 77.0233 85.4267 77.5133 85.02 77.88C84.6133 78.24 84.0767 78.42 83.41 78.42H81.88V81H81.08V74.4H83.41ZM83.29 77.67C83.8033 77.67 84.18 77.5667 84.42 77.36C84.6667 77.1467 84.79 76.83 84.79 76.41C84.79 75.99 84.6667 75.6767 84.42 75.47C84.18 75.2567 83.8033 75.15 83.29 75.15H81.88V77.67H83.29ZM88.8935 75.9C89.1335 75.9 89.3168 75.9333 89.4435 76L89.2835 76.78C89.1235 76.6933 88.9135 76.65 88.6535 76.65C88.4402 76.65 88.2302 76.7133 88.0235 76.84C87.8235 76.96 87.6568 77.1467 87.5235 77.4C87.3968 77.6467 87.3335 77.9467 87.3335 78.3V81H86.5335V76H87.1835L87.2935 76.82C87.5735 76.2067 88.1068 75.9 88.8935 75.9ZM94.2493 78.24C94.2493 78.4267 94.236 78.6133 94.2093 78.8H90.4393C90.486 79.3067 90.6526 79.7 90.9393 79.98C91.2326 80.26 91.6093 80.4 92.0693 80.4C92.436 80.4 92.7393 80.3367 92.9793 80.21C93.226 80.0833 93.3926 79.9 93.4793 79.66L94.1493 80.01C93.9493 80.3633 93.6826 80.6333 93.3493 80.82C93.016 81.0067 92.5893 81.1 92.0693 81.1C91.316 81.1 90.7226 80.87 90.2893 80.41C89.8626 79.95 89.6493 79.3133 89.6493 78.5C89.6493 77.6867 89.8526 77.05 90.2593 76.59C90.6726 76.13 91.256 75.9 92.0093 75.9C92.476 75.9 92.8793 76.0033 93.2193 76.21C93.5593 76.4167 93.816 76.6967 93.9893 77.05C94.1626 77.4033 94.2493 77.8 94.2493 78.24ZM92.0093 76.6C91.5693 76.6 91.2126 76.73 90.9393 76.99C90.6726 77.25 90.5093 77.6167 90.4493 78.09H93.4793C93.426 77.6233 93.2726 77.26 93.0193 77C92.766 76.7333 92.4293 76.6 92.0093 76.6ZM99.2831 76L97.2031 81H96.4031L94.3231 76H95.2331L96.8131 80.19L98.4431 76H99.2831ZM104.118 78.24C104.118 78.4267 104.105 78.6133 104.078 78.8H100.308C100.355 79.3067 100.522 79.7 100.808 79.98C101.102 80.26 101.478 80.4 101.938 80.4C102.305 80.4 102.608 80.3367 102.848 80.21C103.095 80.0833 103.262 79.9 103.348 79.66L104.018 80.01C103.818 80.3633 103.552 80.6333 103.218 80.82C102.885 81.0067 102.458 81.1 101.938 81.1C101.185 81.1 100.592 80.87 100.158 80.41C99.7318 79.95 99.5184 79.3133 99.5184 78.5C99.5184 77.6867 99.7218 77.05 100.128 76.59C100.542 76.13 101.125 75.9 101.878 75.9C102.345 75.9 102.748 76.0033 103.088 76.21C103.428 76.4167 103.685 76.6967 103.858 77.05C104.032 77.4033 104.118 77.8 104.118 78.24ZM101.878 76.6C101.438 76.6 101.082 76.73 100.808 76.99C100.542 77.25 100.378 77.6167 100.318 78.09H103.348C103.295 77.6233 103.142 77.26 102.888 77C102.635 76.7333 102.298 76.6 101.878 76.6ZM107.569 75.9C108.136 75.9 108.602 76.0633 108.969 76.39C109.336 76.7167 109.519 77.1867 109.519 77.8V81H108.719V78.08C108.719 77.56 108.606 77.1833 108.379 76.95C108.159 76.7167 107.862 76.6 107.489 76.6C107.222 76.6 106.972 76.66 106.739 76.78C106.506 76.8933 106.312 77.0833 106.159 77.35C106.012 77.61 105.939 77.94 105.939 78.34V81H105.139V76H105.839L105.889 76.78C106.056 76.48 106.286 76.26 106.579 76.12C106.872 75.9733 107.202 75.9 107.569 75.9ZM113.822 80.65C113.489 80.95 113.059 81.1 112.532 81.1C112.125 81.1 111.792 80.99 111.532 80.77C111.279 80.55 111.149 80.2133 111.142 79.76V76.69H110.142V76H111.142V74.8L111.942 74.58V76H113.792V76.69H111.942V79.62C111.942 79.86 112.009 80.0433 112.142 80.17C112.282 80.29 112.465 80.35 112.692 80.35C113.012 80.35 113.295 80.2267 113.542 79.98L113.822 80.65ZM119.47 75.9C120.223 75.9 120.813 76.13 121.24 76.59C121.673 77.05 121.89 77.6867 121.89 78.5C121.89 79.3133 121.673 79.95 121.24 80.41C120.813 80.87 120.223 81.1 119.47 81.1C118.716 81.1 118.123 80.87 117.69 80.41C117.263 79.95 117.05 79.3133 117.05 78.5C117.05 77.6867 117.263 77.05 117.69 76.59C118.123 76.13 118.716 75.9 119.47 75.9ZM119.47 76.59C118.963 76.59 118.566 76.76 118.28 77.1C117.993 77.44 117.85 77.9067 117.85 78.5C117.85 79.0933 117.993 79.56 118.28 79.9C118.566 80.24 118.963 80.41 119.47 80.41C119.976 80.41 120.373 80.24 120.66 79.9C120.946 79.56 121.09 79.0933 121.09 78.5C121.09 77.9067 120.946 77.44 120.66 77.1C120.373 76.76 119.976 76.59 119.47 76.59ZM127.094 76L125.014 81H124.214L122.134 76H123.044L124.624 80.19L126.254 76H127.094ZM131.929 78.24C131.929 78.4267 131.916 78.6133 131.889 78.8H128.119C128.166 79.3067 128.332 79.7 128.619 79.98C128.912 80.26 129.289 80.4 129.749 80.4C130.116 80.4 130.419 80.3367 130.659 80.21C130.906 80.0833 131.072 79.9 131.159 79.66L131.829 80.01C131.629 80.3633 131.362 80.6333 131.029 80.82C130.696 81.0067 130.269 81.1 129.749 81.1C128.996 81.1 128.402 80.87 127.969 80.41C127.542 79.95 127.329 79.3133 127.329 78.5C127.329 77.6867 127.532 77.05 127.939 76.59C128.352 76.13 128.936 75.9 129.689 75.9C130.156 75.9 130.559 76.0033 130.899 76.21C131.239 76.4167 131.496 76.6967 131.669 77.05C131.842 77.4033 131.929 77.8 131.929 78.24ZM129.689 76.6C129.249 76.6 128.892 76.73 128.619 76.99C128.352 77.25 128.189 77.6167 128.129 78.09H131.159C131.106 77.6233 130.952 77.26 130.699 77C130.446 76.7333 130.109 76.6 129.689 76.6ZM135.31 75.9C135.55 75.9 135.733 75.9333 135.86 76L135.7 76.78C135.54 76.6933 135.33 76.65 135.07 76.65C134.856 76.65 134.646 76.7133 134.44 76.84C134.24 76.96 134.073 77.1467 133.94 77.4C133.813 77.6467 133.75 77.9467 133.75 78.3V81H132.95V76H133.6L133.71 76.82C133.99 76.2067 134.523 75.9 135.31 75.9ZM138.485 75.9C138.985 75.9 139.405 76.0167 139.745 76.25C140.092 76.4767 140.362 76.8033 140.555 77.23L139.795 77.59C139.582 76.93 139.139 76.6 138.465 76.6C137.965 76.6 137.572 76.77 137.285 77.11C137.005 77.4433 136.865 77.9067 136.865 78.5C136.865 79.0933 137.005 79.56 137.285 79.9C137.572 80.2333 137.965 80.4 138.465 80.4C138.852 80.4 139.162 80.3133 139.395 80.14C139.635 79.96 139.792 79.7033 139.865 79.37L140.605 79.63C140.432 80.0967 140.165 80.46 139.805 80.72C139.445 80.9733 139.005 81.1 138.485 81.1C137.732 81.1 137.139 80.87 136.705 80.41C136.279 79.95 136.065 79.3133 136.065 78.5C136.065 77.6867 136.279 77.05 136.705 76.59C137.139 76.13 137.732 75.9 138.485 75.9ZM143.88 75.9C144.12 75.9 144.303 75.9333 144.43 76L144.27 76.78C144.11 76.6933 143.9 76.65 143.64 76.65C143.427 76.65 143.217 76.7133 143.01 76.84C142.81 76.96 142.643 77.1467 142.51 77.4C142.383 77.6467 142.32 77.9467 142.32 78.3V81H141.52V76H142.17L142.28 76.82C142.56 76.2067 143.093 75.9 143.88 75.9ZM147.056 75.9C147.809 75.9 148.399 76.13 148.826 76.59C149.259 77.05 149.476 77.6867 149.476 78.5C149.476 79.3133 149.259 79.95 148.826 80.41C148.399 80.87 147.809 81.1 147.056 81.1C146.302 81.1 145.709 80.87 145.276 80.41C144.849 79.95 144.636 79.3133 144.636 78.5C144.636 77.6867 144.849 77.05 145.276 76.59C145.709 76.13 146.302 75.9 147.056 75.9ZM147.056 76.59C146.549 76.59 146.152 76.76 145.866 77.1C145.579 77.44 145.436 77.9067 145.436 78.5C145.436 79.0933 145.579 79.56 145.866 79.9C146.152 80.24 146.549 80.41 147.056 80.41C147.562 80.41 147.959 80.24 148.246 79.9C148.532 79.56 148.676 79.0933 148.676 78.5C148.676 77.9067 148.532 77.44 148.246 77.1C147.959 76.76 147.562 76.59 147.056 76.59ZM157.633 76L155.893 81H155.093L153.683 77.02L152.353 81H151.553L149.813 76H150.703L151.963 80.07L153.323 76H154.123L155.483 80.07L156.743 76H157.633ZM162.722 73.7V81H162.022L161.972 80.13C161.825 80.4233 161.598 80.66 161.292 80.84C160.992 81.0133 160.648 81.1 160.262 81.1C159.562 81.1 159.005 80.87 158.592 80.41C158.185 79.9433 157.982 79.3067 157.982 78.5C157.982 77.6933 158.185 77.06 158.592 76.6C159.005 76.1333 159.562 75.9 160.262 75.9C160.628 75.9 160.955 75.98 161.242 76.14C161.535 76.3 161.762 76.5133 161.922 76.78V73.7H162.722ZM160.352 80.4C160.832 80.4 161.212 80.2333 161.492 79.9C161.778 79.5667 161.922 79.12 161.922 78.56V78.44C161.922 77.88 161.778 77.4333 161.492 77.1C161.212 76.7667 160.832 76.6 160.352 76.6C159.865 76.6 159.482 76.7733 159.202 77.12C158.922 77.46 158.782 77.92 158.782 78.5C158.782 79.08 158.922 79.5433 159.202 79.89C159.482 80.23 159.865 80.4 160.352 80.4ZM164.48 75.04C164.3 75.04 164.154 74.9867 164.04 74.88C163.934 74.7667 163.88 74.62 163.88 74.44C163.88 74.26 163.934 74.1167 164.04 74.01C164.154 73.8967 164.3 73.84 164.48 73.84C164.66 73.84 164.804 73.8967 164.91 74.01C165.024 74.1167 165.08 74.26 165.08 74.44C165.08 74.62 165.024 74.7667 164.91 74.88C164.804 74.9867 164.66 75.04 164.48 75.04ZM164.88 81H164.08V76H164.88V81ZM168.667 75.9C169.233 75.9 169.7 76.0633 170.067 76.39C170.433 76.7167 170.617 77.1867 170.617 77.8V81H169.817V78.08C169.817 77.56 169.703 77.1833 169.477 76.95C169.257 76.7167 168.96 76.6 168.587 76.6C168.32 76.6 168.07 76.66 167.837 76.78C167.603 76.8933 167.41 77.0833 167.257 77.35C167.11 77.61 167.037 77.94 167.037 78.34V81H166.237V76H166.937L166.987 76.78C167.153 76.48 167.383 76.26 167.677 76.12C167.97 75.9733 168.3 75.9 168.667 75.9ZM174.718 80.36C175.191 80.36 175.561 80.4667 175.828 80.68C176.095 80.8933 176.228 81.1833 176.228 81.55C176.228 81.87 176.118 82.15 175.898 82.39C175.678 82.6367 175.378 82.8233 174.998 82.95C174.625 83.0833 174.211 83.15 173.758 83.15C172.998 83.15 172.425 83.0267 172.038 82.78C171.651 82.54 171.458 82.2233 171.458 81.83C171.458 81.6033 171.535 81.4033 171.688 81.23C171.848 81.0567 172.065 80.9333 172.338 80.86C172.131 80.76 171.965 80.6333 171.838 80.48C171.718 80.3267 171.658 80.1467 171.658 79.94C171.658 79.6933 171.725 79.49 171.858 79.33C171.991 79.1633 172.175 79.04 172.408 78.96C172.168 78.8133 171.985 78.6233 171.858 78.39C171.738 78.15 171.678 77.8833 171.678 77.59C171.678 77.2633 171.765 76.9733 171.938 76.72C172.111 76.46 172.355 76.26 172.668 76.12C172.981 75.9733 173.335 75.9 173.728 75.9C174.101 75.9 174.441 75.9667 174.748 76.1C174.935 75.42 175.405 75.08 176.158 75.08L176.338 75.78C175.685 75.78 175.288 75.9633 175.148 76.33C175.348 76.4833 175.501 76.6667 175.608 76.88C175.721 77.0933 175.778 77.33 175.778 77.59C175.778 77.9167 175.691 78.21 175.518 78.47C175.345 78.7233 175.101 78.9233 174.788 79.07C174.475 79.21 174.121 79.28 173.728 79.28C173.435 79.28 173.178 79.25 172.958 79.19C172.758 79.2367 172.615 79.31 172.528 79.41C172.441 79.51 172.398 79.6467 172.398 79.82C172.398 79.9933 172.458 80.1267 172.578 80.22C172.698 80.3133 172.858 80.36 173.058 80.36H174.718ZM173.728 76.55C173.381 76.55 173.091 76.6467 172.858 76.84C172.625 77.0333 172.508 77.2833 172.508 77.59C172.508 77.8967 172.625 78.1467 172.858 78.34C173.091 78.5333 173.381 78.63 173.728 78.63C174.075 78.63 174.365 78.5333 174.598 78.34C174.831 78.1467 174.948 77.8967 174.948 77.59C174.948 77.2833 174.831 77.0333 174.598 76.84C174.365 76.6467 174.075 76.55 173.728 76.55ZM173.848 82.48C174.355 82.48 174.755 82.3967 175.048 82.23C175.341 82.07 175.488 81.8733 175.488 81.64C175.488 81.4467 175.411 81.3 175.258 81.2C175.111 81.1 174.858 81.05 174.498 81.05H173.158C172.851 81.05 172.615 81.1033 172.448 81.21C172.281 81.3233 172.198 81.4767 172.198 81.67C172.198 81.9233 172.338 82.12 172.618 82.26C172.898 82.4067 173.308 82.48 173.848 82.48ZM177.316 79.8C177.55 79.8 177.733 79.89 177.866 80.07C178 80.25 178.066 80.4833 178.066 80.77C178.066 81.1233 177.976 81.45 177.796 81.75C177.616 82.05 177.343 82.2867 176.976 82.46L176.556 82.07C176.816 81.9833 177.033 81.8467 177.206 81.66C177.38 81.4733 177.49 81.27 177.536 81.05L177.496 81.03C177.436 81.0767 177.343 81.1 177.216 81.1C177.076 81.1 176.95 81.0467 176.836 80.94C176.723 80.8267 176.666 80.67 176.666 80.47C176.666 80.29 176.73 80.1333 176.856 80C176.983 79.8667 177.136 79.8 177.316 79.8ZM186.271 78.24C186.271 78.4267 186.257 78.6133 186.231 78.8H182.461C182.507 79.3067 182.674 79.7 182.961 79.98C183.254 80.26 183.631 80.4 184.091 80.4C184.457 80.4 184.761 80.3367 185.001 80.21C185.247 80.0833 185.414 79.9 185.501 79.66L186.171 80.01C185.971 80.3633 185.704 80.6333 185.371 80.82C185.037 81.0067 184.611 81.1 184.091 81.1C183.337 81.1 182.744 80.87 182.311 80.41C181.884 79.95 181.671 79.3133 181.671 78.5C181.671 77.6867 181.874 77.05 182.281 76.59C182.694 76.13 183.277 75.9 184.031 75.9C184.497 75.9 184.901 76.0033 185.241 76.21C185.581 76.4167 185.837 76.6967 186.011 77.05C186.184 77.4033 186.271 77.8 186.271 78.24ZM184.031 76.6C183.591 76.6 183.234 76.73 182.961 76.99C182.694 77.25 182.531 77.6167 182.471 78.09H185.501C185.447 77.6233 185.294 77.26 185.041 77C184.787 76.7333 184.451 76.6 184.031 76.6ZM189.721 75.9C190.288 75.9 190.755 76.0633 191.121 76.39C191.488 76.7167 191.671 77.1867 191.671 77.8V81H190.871V78.08C190.871 77.56 190.758 77.1833 190.531 76.95C190.311 76.7167 190.015 76.6 189.641 76.6C189.375 76.6 189.125 76.66 188.891 76.78C188.658 76.8933 188.465 77.0833 188.311 77.35C188.165 77.61 188.091 77.94 188.091 78.34V81H187.291V76H187.991L188.041 76.78C188.208 76.48 188.438 76.26 188.731 76.12C189.025 75.9733 189.355 75.9 189.721 75.9ZM195.413 75.9C195.979 75.9 196.446 76.0633 196.813 76.39C197.179 76.7167 197.363 77.1867 197.363 77.8V81H196.563V78.08C196.563 77.56 196.449 77.1833 196.223 76.95C196.003 76.7167 195.706 76.6 195.333 76.6C195.073 76.6 194.823 76.66 194.583 76.78C194.349 76.9 194.156 77.0933 194.003 77.36C193.856 77.62 193.783 77.95 193.783 78.35V81H192.983V73.7H193.783V76.75C193.949 76.4633 194.173 76.25 194.453 76.11C194.739 75.97 195.059 75.9 195.413 75.9ZM202.774 80.42C202.907 80.42 203.041 80.4033 203.174 80.37L203.124 81C202.937 81.0667 202.737 81.1 202.524 81.1C202.264 81.1 202.057 81.0433 201.904 80.93C201.757 80.8167 201.664 80.6267 201.624 80.36C201.471 80.5933 201.244 80.7767 200.944 80.91C200.651 81.0367 200.341 81.1 200.014 81.1C199.521 81.1 199.114 80.9867 198.794 80.76C198.474 80.5267 198.314 80.1933 198.314 79.76C198.314 79.38 198.481 79.0533 198.814 78.78C199.147 78.5 199.631 78.3067 200.264 78.2L201.594 77.98V77.7C201.594 77.3667 201.491 77.1 201.284 76.9C201.077 76.7 200.791 76.6 200.424 76.6C200.091 76.6 199.801 76.68 199.554 76.84C199.314 77 199.127 77.2367 198.994 77.55L198.404 77.12C198.537 76.7467 198.784 76.45 199.144 76.23C199.511 76.01 199.937 75.9 200.424 75.9C201.017 75.9 201.494 76.0433 201.854 76.33C202.214 76.6167 202.394 77.04 202.394 77.6V80.06C202.394 80.18 202.424 80.27 202.484 80.33C202.544 80.39 202.641 80.42 202.774 80.42ZM200.054 80.4C200.474 80.4 200.834 80.3 201.134 80.1C201.441 79.9 201.594 79.64 201.594 79.32V78.63L200.474 78.84C200.027 78.92 199.694 79.0367 199.474 79.19C199.254 79.3367 199.144 79.5267 199.144 79.76C199.144 79.9667 199.224 80.1267 199.384 80.24C199.544 80.3467 199.767 80.4 200.054 80.4ZM206.268 75.9C206.835 75.9 207.302 76.0633 207.668 76.39C208.035 76.7167 208.218 77.1867 208.218 77.8V81H207.418V78.08C207.418 77.56 207.305 77.1833 207.078 76.95C206.858 76.7167 206.562 76.6 206.188 76.6C205.922 76.6 205.672 76.66 205.438 76.78C205.205 76.8933 205.012 77.0833 204.858 77.35C204.712 77.61 204.638 77.94 204.638 78.34V81H203.838V76H204.538L204.588 76.78C204.755 76.48 204.985 76.26 205.278 76.12C205.572 75.9733 205.902 75.9 206.268 75.9ZM211.64 75.9C212.14 75.9 212.56 76.0167 212.9 76.25C213.246 76.4767 213.516 76.8033 213.71 77.23L212.95 77.59C212.736 76.93 212.293 76.6 211.62 76.6C211.12 76.6 210.726 76.77 210.44 77.11C210.16 77.4433 210.02 77.9067 210.02 78.5C210.02 79.0933 210.16 79.56 210.44 79.9C210.726 80.2333 211.12 80.4 211.62 80.4C212.006 80.4 212.316 80.3133 212.55 80.14C212.79 79.96 212.946 79.7033 213.02 79.37L213.76 79.63C213.586 80.0967 213.32 80.46 212.96 80.72C212.6 80.9733 212.16 81.1 211.64 81.1C210.886 81.1 210.293 80.87 209.86 80.41C209.433 79.95 209.22 79.3133 209.22 78.5C209.22 77.6867 209.433 77.05 209.86 76.59C210.293 76.13 210.886 75.9 211.64 75.9ZM218.964 78.24C218.964 78.4267 218.951 78.6133 218.924 78.8H215.154C215.201 79.3067 215.367 79.7 215.654 79.98C215.947 80.26 216.324 80.4 216.784 80.4C217.151 80.4 217.454 80.3367 217.694 80.21C217.941 80.0833 218.107 79.9 218.194 79.66L218.864 80.01C218.664 80.3633 218.397 80.6333 218.064 80.82C217.731 81.0067 217.304 81.1 216.784 81.1C216.031 81.1 215.437 80.87 215.004 80.41C214.577 79.95 214.364 79.3133 214.364 78.5C214.364 77.6867 214.567 77.05 214.974 76.59C215.387 76.13 215.971 75.9 216.724 75.9C217.191 75.9 217.594 76.0033 217.934 76.21C218.274 76.4167 218.531 76.6967 218.704 77.05C218.877 77.4033 218.964 77.8 218.964 78.24ZM216.724 76.6C216.284 76.6 215.927 76.73 215.654 76.99C215.387 77.25 215.224 77.6167 215.164 78.09H218.194C218.141 77.6233 217.987 77.26 217.734 77C217.481 76.7333 217.144 76.6 216.724 76.6ZM227.183 78.24C227.183 78.4267 227.17 78.6133 227.143 78.8H223.373C223.42 79.3067 223.586 79.7 223.873 79.98C224.166 80.26 224.543 80.4 225.003 80.4C225.37 80.4 225.673 80.3367 225.913 80.21C226.16 80.0833 226.326 79.9 226.413 79.66L227.083 80.01C226.883 80.3633 226.616 80.6333 226.283 80.82C225.95 81.0067 225.523 81.1 225.003 81.1C224.25 81.1 223.656 80.87 223.223 80.41C222.796 79.95 222.583 79.3133 222.583 78.5C222.583 77.6867 222.786 77.05 223.193 76.59C223.606 76.13 224.19 75.9 224.943 75.9C225.41 75.9 225.813 76.0033 226.153 76.21C226.493 76.4167 226.75 76.6967 226.923 77.05C227.096 77.4033 227.183 77.8 227.183 78.24ZM224.943 76.6C224.503 76.6 224.146 76.73 223.873 76.99C223.606 77.25 223.443 77.6167 223.383 78.09H226.413C226.36 77.6233 226.206 77.26 225.953 77C225.7 76.7333 225.363 76.6 224.943 76.6ZM230.633 75.9C231.2 75.9 231.667 76.0633 232.033 76.39C232.4 76.7167 232.583 77.1867 232.583 77.8V81H231.783V78.08C231.783 77.56 231.67 77.1833 231.443 76.95C231.223 76.7167 230.927 76.6 230.553 76.6C230.287 76.6 230.037 76.66 229.803 76.78C229.57 76.8933 229.377 77.0833 229.223 77.35C229.077 77.61 229.003 77.94 229.003 78.34V81H228.203V76H228.903L228.953 76.78C229.12 76.48 229.35 76.26 229.643 76.12C229.937 75.9733 230.267 75.9 230.633 75.9ZM236.685 80.36C237.158 80.36 237.528 80.4667 237.795 80.68C238.062 80.8933 238.195 81.1833 238.195 81.55C238.195 81.87 238.085 82.15 237.865 82.39C237.645 82.6367 237.345 82.8233 236.965 82.95C236.592 83.0833 236.178 83.15 235.725 83.15C234.965 83.15 234.392 83.0267 234.005 82.78C233.618 82.54 233.425 82.2233 233.425 81.83C233.425 81.6033 233.502 81.4033 233.655 81.23C233.815 81.0567 234.032 80.9333 234.305 80.86C234.098 80.76 233.932 80.6333 233.805 80.48C233.685 80.3267 233.625 80.1467 233.625 79.94C233.625 79.6933 233.692 79.49 233.825 79.33C233.958 79.1633 234.142 79.04 234.375 78.96C234.135 78.8133 233.952 78.6233 233.825 78.39C233.705 78.15 233.645 77.8833 233.645 77.59C233.645 77.2633 233.732 76.9733 233.905 76.72C234.078 76.46 234.322 76.26 234.635 76.12C234.948 75.9733 235.302 75.9 235.695 75.9C236.068 75.9 236.408 75.9667 236.715 76.1C236.902 75.42 237.372 75.08 238.125 75.08L238.305 75.78C237.652 75.78 237.255 75.9633 237.115 76.33C237.315 76.4833 237.468 76.6667 237.575 76.88C237.688 77.0933 237.745 77.33 237.745 77.59C237.745 77.9167 237.658 78.21 237.485 78.47C237.312 78.7233 237.068 78.9233 236.755 79.07C236.442 79.21 236.088 79.28 235.695 79.28C235.402 79.28 235.145 79.25 234.925 79.19C234.725 79.2367 234.582 79.31 234.495 79.41C234.408 79.51 234.365 79.6467 234.365 79.82C234.365 79.9933 234.425 80.1267 234.545 80.22C234.665 80.3133 234.825 80.36 235.025 80.36H236.685ZM235.695 76.55C235.348 76.55 235.058 76.6467 234.825 76.84C234.592 77.0333 234.475 77.2833 234.475 77.59C234.475 77.8967 234.592 78.1467 234.825 78.34C235.058 78.5333 235.348 78.63 235.695 78.63C236.042 78.63 236.332 78.5333 236.565 78.34C236.798 78.1467 236.915 77.8967 236.915 77.59C236.915 77.2833 236.798 77.0333 236.565 76.84C236.332 76.6467 236.042 76.55 235.695 76.55ZM235.815 82.48C236.322 82.48 236.722 82.3967 237.015 82.23C237.308 82.07 237.455 81.8733 237.455 81.64C237.455 81.4467 237.378 81.3 237.225 81.2C237.078 81.1 236.825 81.05 236.465 81.05H235.125C234.818 81.05 234.582 81.1033 234.415 81.21C234.248 81.3233 234.165 81.4767 234.165 81.67C234.165 81.9233 234.305 82.12 234.585 82.26C234.865 82.4067 235.275 82.48 235.815 82.48ZM242.983 80.42C243.116 80.42 243.25 80.4033 243.383 80.37L243.333 81C243.146 81.0667 242.946 81.1 242.733 81.1C242.473 81.1 242.266 81.0433 242.113 80.93C241.966 80.8167 241.873 80.6267 241.833 80.36C241.68 80.5933 241.453 80.7767 241.153 80.91C240.86 81.0367 240.55 81.1 240.223 81.1C239.73 81.1 239.323 80.9867 239.003 80.76C238.683 80.5267 238.523 80.1933 238.523 79.76C238.523 79.38 238.69 79.0533 239.023 78.78C239.356 78.5 239.84 78.3067 240.473 78.2L241.803 77.98V77.7C241.803 77.3667 241.7 77.1 241.493 76.9C241.286 76.7 241 76.6 240.633 76.6C240.3 76.6 240.01 76.68 239.763 76.84C239.523 77 239.336 77.2367 239.203 77.55L238.613 77.12C238.746 76.7467 238.993 76.45 239.353 76.23C239.72 76.01 240.146 75.9 240.633 75.9C241.226 75.9 241.703 76.0433 242.063 76.33C242.423 76.6167 242.603 77.04 242.603 77.6V80.06C242.603 80.18 242.633 80.27 242.693 80.33C242.753 80.39 242.85 80.42 242.983 80.42ZM240.263 80.4C240.683 80.4 241.043 80.3 241.343 80.1C241.65 79.9 241.803 79.64 241.803 79.32V78.63L240.683 78.84C240.236 78.92 239.903 79.0367 239.683 79.19C239.463 79.3367 239.353 79.5267 239.353 79.76C239.353 79.9667 239.433 80.1267 239.593 80.24C239.753 80.3467 239.976 80.4 240.263 80.4ZM246.837 80.36C247.311 80.36 247.681 80.4667 247.947 80.68C248.214 80.8933 248.347 81.1833 248.347 81.55C248.347 81.87 248.237 82.15 248.017 82.39C247.797 82.6367 247.497 82.8233 247.117 82.95C246.744 83.0833 246.331 83.15 245.877 83.15C245.117 83.15 244.544 83.0267 244.157 82.78C243.771 82.54 243.577 82.2233 243.577 81.83C243.577 81.6033 243.654 81.4033 243.807 81.23C243.967 81.0567 244.184 80.9333 244.457 80.86C244.251 80.76 244.084 80.6333 243.957 80.48C243.837 80.3267 243.777 80.1467 243.777 79.94C243.777 79.6933 243.844 79.49 243.977 79.33C244.111 79.1633 244.294 79.04 244.527 78.96C244.287 78.8133 244.104 78.6233 243.977 78.39C243.857 78.15 243.797 77.8833 243.797 77.59C243.797 77.2633 243.884 76.9733 244.057 76.72C244.231 76.46 244.474 76.26 244.787 76.12C245.101 75.9733 245.454 75.9 245.847 75.9C246.221 75.9 246.561 75.9667 246.867 76.1C247.054 75.42 247.524 75.08 248.277 75.08L248.457 75.78C247.804 75.78 247.407 75.9633 247.267 76.33C247.467 76.4833 247.621 76.6667 247.727 76.88C247.841 77.0933 247.897 77.33 247.897 77.59C247.897 77.9167 247.811 78.21 247.637 78.47C247.464 78.7233 247.221 78.9233 246.907 79.07C246.594 79.21 246.241 79.28 245.847 79.28C245.554 79.28 245.297 79.25 245.077 79.19C244.877 79.2367 244.734 79.31 244.647 79.41C244.561 79.51 244.517 79.6467 244.517 79.82C244.517 79.9933 244.577 80.1267 244.697 80.22C244.817 80.3133 244.977 80.36 245.177 80.36H246.837ZM245.847 76.55C245.501 76.55 245.211 76.6467 244.977 76.84C244.744 77.0333 244.627 77.2833 244.627 77.59C244.627 77.8967 244.744 78.1467 244.977 78.34C245.211 78.5333 245.501 78.63 245.847 78.63C246.194 78.63 246.484 78.5333 246.717 78.34C246.951 78.1467 247.067 77.8967 247.067 77.59C247.067 77.2833 246.951 77.0333 246.717 76.84C246.484 76.6467 246.194 76.55 245.847 76.55ZM245.967 82.48C246.474 82.48 246.874 82.3967 247.167 82.23C247.461 82.07 247.607 81.8733 247.607 81.64C247.607 81.4467 247.531 81.3 247.377 81.2C247.231 81.1 246.977 81.05 246.617 81.05H245.277C244.971 81.05 244.734 81.1033 244.567 81.21C244.401 81.3233 244.317 81.4767 244.317 81.67C244.317 81.9233 244.457 82.12 244.737 82.26C245.017 82.4067 245.427 82.48 245.967 82.48ZM253.325 78.24C253.325 78.4267 253.312 78.6133 253.285 78.8H249.515C249.562 79.3067 249.729 79.7 250.015 79.98C250.309 80.26 250.685 80.4 251.145 80.4C251.512 80.4 251.815 80.3367 252.055 80.21C252.302 80.0833 252.469 79.9 252.555 79.66L253.225 80.01C253.025 80.3633 252.759 80.6333 252.425 80.82C252.092 81.0067 251.665 81.1 251.145 81.1C250.392 81.1 249.799 80.87 249.365 80.41C248.939 79.95 248.725 79.3133 248.725 78.5C248.725 77.6867 248.929 77.05 249.335 76.59C249.749 76.13 250.332 75.9 251.085 75.9C251.552 75.9 251.955 76.0033 252.295 76.21C252.635 76.4167 252.892 76.6967 253.065 77.05C253.239 77.4033 253.325 77.8 253.325 78.24ZM251.085 76.6C250.645 76.6 250.289 76.73 250.015 76.99C249.749 77.25 249.585 77.6167 249.525 78.09H252.555C252.502 77.6233 252.349 77.26 252.095 77C251.842 76.7333 251.505 76.6 251.085 76.6ZM260.156 75.9C260.489 75.9 260.799 75.97 261.086 76.11C261.379 76.2433 261.616 76.4533 261.796 76.74C261.976 77.0267 262.066 77.38 262.066 77.8V81H261.266V77.88C261.266 77.4467 261.156 77.1267 260.936 76.92C260.723 76.7067 260.439 76.6 260.086 76.6C259.819 76.6 259.573 76.6667 259.346 76.8C259.126 76.9267 258.946 77.1167 258.806 77.37C258.673 77.6167 258.606 77.9133 258.606 78.26V81H257.806V77.88C257.806 77.4467 257.696 77.1267 257.476 76.92C257.263 76.7067 256.979 76.6 256.626 76.6C256.386 76.6 256.153 76.6633 255.926 76.79C255.699 76.91 255.513 77.1 255.366 77.36C255.219 77.62 255.146 77.9433 255.146 78.33V81H254.346V76H255.046L255.096 76.78C255.269 76.4867 255.496 76.2667 255.776 76.12C256.063 75.9733 256.369 75.9 256.696 75.9C257.063 75.9 257.399 75.9833 257.706 76.15C258.019 76.3167 258.256 76.56 258.416 76.88C258.563 76.56 258.803 76.3167 259.136 76.15C259.469 75.9833 259.809 75.9 260.156 75.9ZM267.667 78.24C267.667 78.4267 267.654 78.6133 267.627 78.8H263.857C263.904 79.3067 264.071 79.7 264.357 79.98C264.651 80.26 265.027 80.4 265.487 80.4C265.854 80.4 266.157 80.3367 266.397 80.21C266.644 80.0833 266.811 79.9 266.897 79.66L267.567 80.01C267.367 80.3633 267.101 80.6333 266.767 80.82C266.434 81.0067 266.007 81.1 265.487 81.1C264.734 81.1 264.141 80.87 263.707 80.41C263.281 79.95 263.067 79.3133 263.067 78.5C263.067 77.6867 263.271 77.05 263.677 76.59C264.091 76.13 264.674 75.9 265.427 75.9C265.894 75.9 266.297 76.0033 266.637 76.21C266.977 76.4167 267.234 76.6967 267.407 77.05C267.581 77.4033 267.667 77.8 267.667 78.24ZM265.427 76.6C264.987 76.6 264.631 76.73 264.357 76.99C264.091 77.25 263.927 77.6167 263.867 78.09H266.897C266.844 77.6233 266.691 77.26 266.437 77C266.184 76.7333 265.847 76.6 265.427 76.6ZM271.118 75.9C271.684 75.9 272.151 76.0633 272.518 76.39C272.884 76.7167 273.068 77.1867 273.068 77.8V81H272.268V78.08C272.268 77.56 272.154 77.1833 271.928 76.95C271.708 76.7167 271.411 76.6 271.038 76.6C270.771 76.6 270.521 76.66 270.288 76.78C270.054 76.8933 269.861 77.0833 269.708 77.35C269.561 77.61 269.488 77.94 269.488 78.34V81H268.688V76H269.388L269.438 76.78C269.604 76.48 269.834 76.26 270.128 76.12C270.421 75.9733 270.751 75.9 271.118 75.9ZM277.371 80.65C277.038 80.95 276.608 81.1 276.081 81.1C275.674 81.1 275.341 80.99 275.081 80.77C274.828 80.55 274.698 80.2133 274.691 79.76V76.69H273.691V76H274.691V74.8L275.491 74.58V76H277.341V76.69H275.491V79.62C275.491 79.86 275.558 80.0433 275.691 80.17C275.831 80.29 276.014 80.35 276.241 80.35C276.561 80.35 276.844 80.2267 277.091 79.98L277.371 80.65ZM278.4 79.8C278.634 79.8 278.817 79.89 278.95 80.07C279.084 80.25 279.15 80.4833 279.15 80.77C279.15 81.1233 279.06 81.45 278.88 81.75C278.7 82.05 278.427 82.2867 278.06 82.46L277.64 82.07C277.9 81.9833 278.117 81.8467 278.29 81.66C278.464 81.4733 278.574 81.27 278.62 81.05L278.58 81.03C278.52 81.0767 278.427 81.1 278.3 81.1C278.16 81.1 278.034 81.0467 277.92 80.94C277.807 80.8267 277.75 80.67 277.75 80.47C277.75 80.29 277.814 80.1333 277.94 80C278.067 79.8667 278.22 79.8 278.4 79.8ZM85.03 91.42C85.1633 91.42 85.2967 91.4033 85.43 91.37L85.38 92C85.1933 92.0667 84.9933 92.1 84.78 92.1C84.52 92.1 84.3133 92.0433 84.16 91.93C84.0133 91.8167 83.92 91.6267 83.88 91.36C83.7267 91.5933 83.5 91.7767 83.2 91.91C82.9067 92.0367 82.5967 92.1 82.27 92.1C81.7767 92.1 81.37 91.9867 81.05 91.76C80.73 91.5267 80.57 91.1933 80.57 90.76C80.57 90.38 80.7367 90.0533 81.07 89.78C81.4033 89.5 81.8867 89.3067 82.52 89.2L83.85 88.98V88.7C83.85 88.3667 83.7467 88.1 83.54 87.9C83.3333 87.7 83.0467 87.6 82.68 87.6C82.3467 87.6 82.0567 87.68 81.81 87.84C81.57 88 81.3833 88.2367 81.25 88.55L80.66 88.12C80.7933 87.7467 81.04 87.45 81.4 87.23C81.7667 87.01 82.1933 86.9 82.68 86.9C83.2733 86.9 83.75 87.0433 84.11 87.33C84.47 87.6167 84.65 88.04 84.65 88.6V91.06C84.65 91.18 84.68 91.27 84.74 91.33C84.8 91.39 84.8967 91.42 85.03 91.42ZM82.31 91.4C82.73 91.4 83.09 91.3 83.39 91.1C83.6967 90.9 83.85 90.64 83.85 90.32V89.63L82.73 89.84C82.2833 89.92 81.95 90.0367 81.73 90.19C81.51 90.3367 81.4 90.5267 81.4 90.76C81.4 90.9667 81.48 91.1267 81.64 91.24C81.8 91.3467 82.0233 91.4 82.31 91.4ZM88.5241 86.9C89.0907 86.9 89.5574 87.0633 89.9241 87.39C90.2907 87.7167 90.4741 88.1867 90.4741 88.8V92H89.6741V89.08C89.6741 88.56 89.5607 88.1833 89.3341 87.95C89.1141 87.7167 88.8174 87.6 88.4441 87.6C88.1774 87.6 87.9274 87.66 87.6941 87.78C87.4607 87.8933 87.2674 88.0833 87.1141 88.35C86.9674 88.61 86.8941 88.94 86.8941 89.34V92H86.0941V87H86.7941L86.8441 87.78C87.0107 87.48 87.2407 87.26 87.5341 87.12C87.8274 86.9733 88.1574 86.9 88.5241 86.9ZM96.2255 84.7V92H95.5255L95.4755 91.13C95.3288 91.4233 95.1021 91.66 94.7955 91.84C94.4955 92.0133 94.1521 92.1 93.7655 92.1C93.0655 92.1 92.5088 91.87 92.0955 91.41C91.6888 90.9433 91.4855 90.3067 91.4855 89.5C91.4855 88.6933 91.6888 88.06 92.0955 87.6C92.5088 87.1333 93.0655 86.9 93.7655 86.9C94.1321 86.9 94.4588 86.98 94.7455 87.14C95.0388 87.3 95.2655 87.5133 95.4255 87.78V84.7H96.2255ZM93.8555 91.4C94.3355 91.4 94.7155 91.2333 94.9955 90.9C95.2821 90.5667 95.4255 90.12 95.4255 89.56V89.44C95.4255 88.88 95.2821 88.4333 94.9955 88.1C94.7155 87.7667 94.3355 87.6 93.8555 87.6C93.3688 87.6 92.9855 87.7733 92.7055 88.12C92.4255 88.46 92.2855 88.92 92.2855 89.5C92.2855 90.08 92.4255 90.5433 92.7055 90.89C92.9855 91.23 93.3688 91.4 93.8555 91.4ZM102.603 86.9C103.103 86.9 103.523 87.0167 103.863 87.25C104.209 87.4767 104.479 87.8033 104.673 88.23L103.913 88.59C103.699 87.93 103.256 87.6 102.583 87.6C102.083 87.6 101.689 87.77 101.403 88.11C101.123 88.4433 100.983 88.9067 100.983 89.5C100.983 90.0933 101.123 90.56 101.403 90.9C101.689 91.2333 102.083 91.4 102.583 91.4C102.969 91.4 103.279 91.3133 103.513 91.14C103.753 90.96 103.909 90.7033 103.983 90.37L104.723 90.63C104.549 91.0967 104.283 91.46 103.923 91.72C103.563 91.9733 103.123 92.1 102.603 92.1C101.849 92.1 101.256 91.87 100.823 91.41C100.396 90.95 100.183 90.3133 100.183 89.5C100.183 88.6867 100.396 88.05 100.823 87.59C101.256 87.13 101.849 86.9 102.603 86.9ZM107.997 86.9C108.237 86.9 108.42 86.9333 108.547 87L108.387 87.78C108.227 87.6933 108.017 87.65 107.757 87.65C107.544 87.65 107.334 87.7133 107.127 87.84C106.927 87.96 106.76 88.1467 106.627 88.4C106.5 88.6467 106.437 88.9467 106.437 89.3V92H105.637V87H106.287L106.397 87.82C106.677 87.2067 107.21 86.9 107.997 86.9ZM113.353 89.24C113.353 89.4267 113.339 89.6133 113.313 89.8H109.543C109.589 90.3067 109.756 90.7 110.043 90.98C110.336 91.26 110.713 91.4 111.173 91.4C111.539 91.4 111.843 91.3367 112.083 91.21C112.329 91.0833 112.496 90.9 112.583 90.66L113.253 91.01C113.053 91.3633 112.786 91.6333 112.453 91.82C112.119 92.0067 111.693 92.1 111.173 92.1C110.419 92.1 109.826 91.87 109.393 91.41C108.966 90.95 108.753 90.3133 108.753 89.5C108.753 88.6867 108.956 88.05 109.363 87.59C109.776 87.13 110.359 86.9 111.113 86.9C111.579 86.9 111.983 87.0033 112.323 87.21C112.663 87.4167 112.919 87.6967 113.093 88.05C113.266 88.4033 113.353 88.8 113.353 89.24ZM111.113 87.6C110.673 87.6 110.316 87.73 110.043 87.99C109.776 88.25 109.613 88.6167 109.553 89.09H112.583C112.529 88.6233 112.376 88.26 112.123 88C111.869 87.7333 111.533 87.6 111.113 87.6ZM118.473 91.42C118.607 91.42 118.74 91.4033 118.873 91.37L118.823 92C118.637 92.0667 118.437 92.1 118.223 92.1C117.963 92.1 117.757 92.0433 117.603 91.93C117.457 91.8167 117.363 91.6267 117.323 91.36C117.17 91.5933 116.943 91.7767 116.643 91.91C116.35 92.0367 116.04 92.1 115.713 92.1C115.22 92.1 114.813 91.9867 114.493 91.76C114.173 91.5267 114.013 91.1933 114.013 90.76C114.013 90.38 114.18 90.0533 114.513 89.78C114.847 89.5 115.33 89.3067 115.963 89.2L117.293 88.98V88.7C117.293 88.3667 117.19 88.1 116.983 87.9C116.777 87.7 116.49 87.6 116.123 87.6C115.79 87.6 115.5 87.68 115.253 87.84C115.013 88 114.827 88.2367 114.693 88.55L114.103 88.12C114.237 87.7467 114.483 87.45 114.843 87.23C115.21 87.01 115.637 86.9 116.123 86.9C116.717 86.9 117.193 87.0433 117.553 87.33C117.913 87.6167 118.093 88.04 118.093 88.6V91.06C118.093 91.18 118.123 91.27 118.183 91.33C118.243 91.39 118.34 91.42 118.473 91.42ZM115.753 91.4C116.173 91.4 116.533 91.3 116.833 91.1C117.14 90.9 117.293 90.64 117.293 90.32V89.63L116.173 89.84C115.727 89.92 115.393 90.0367 115.173 90.19C114.953 90.3367 114.843 90.5267 114.843 90.76C114.843 90.9667 114.923 91.1267 115.083 91.24C115.243 91.3467 115.467 91.4 115.753 91.4ZM122.402 91.65C122.069 91.95 121.639 92.1 121.112 92.1C120.705 92.1 120.372 91.99 120.112 91.77C119.859 91.55 119.729 91.2133 119.722 90.76V87.69H118.722V87H119.722V85.8L120.522 85.58V87H122.372V87.69H120.522V90.62C120.522 90.86 120.589 91.0433 120.722 91.17C120.862 91.29 121.045 91.35 121.272 91.35C121.592 91.35 121.875 91.2267 122.122 90.98L122.402 91.65ZM127.322 89.24C127.322 89.4267 127.308 89.6133 127.282 89.8H123.512C123.558 90.3067 123.725 90.7 124.012 90.98C124.305 91.26 124.682 91.4 125.142 91.4C125.508 91.4 125.812 91.3367 126.052 91.21C126.298 91.0833 126.465 90.9 126.552 90.66L127.222 91.01C127.022 91.3633 126.755 91.6333 126.422 91.82C126.088 92.0067 125.662 92.1 125.142 92.1C124.388 92.1 123.795 91.87 123.362 91.41C122.935 90.95 122.722 90.3133 122.722 89.5C122.722 88.6867 122.925 88.05 123.332 87.59C123.745 87.13 124.328 86.9 125.082 86.9C125.548 86.9 125.952 87.0033 126.292 87.21C126.632 87.4167 126.888 87.6967 127.062 88.05C127.235 88.4033 127.322 88.8 127.322 89.24ZM125.082 87.6C124.642 87.6 124.285 87.73 124.012 87.99C123.745 88.25 123.582 88.6167 123.522 89.09H126.552C126.498 88.6233 126.345 88.26 126.092 88C125.838 87.7333 125.502 87.6 125.082 87.6ZM135.35 91.42C135.484 91.42 135.617 91.4033 135.75 91.37L135.7 92C135.514 92.0667 135.314 92.1 135.1 92.1C134.84 92.1 134.634 92.0433 134.48 91.93C134.334 91.8167 134.24 91.6267 134.2 91.36C134.047 91.5933 133.82 91.7767 133.52 91.91C133.227 92.0367 132.917 92.1 132.59 92.1C132.097 92.1 131.69 91.9867 131.37 91.76C131.05 91.5267 130.89 91.1933 130.89 90.76C130.89 90.38 131.057 90.0533 131.39 89.78C131.724 89.5 132.207 89.3067 132.84 89.2L134.17 88.98V88.7C134.17 88.3667 134.067 88.1 133.86 87.9C133.654 87.7 133.367 87.6 133 87.6C132.667 87.6 132.377 87.68 132.13 87.84C131.89 88 131.704 88.2367 131.57 88.55L130.98 88.12C131.114 87.7467 131.36 87.45 131.72 87.23C132.087 87.01 132.514 86.9 133 86.9C133.594 86.9 134.07 87.0433 134.43 87.33C134.79 87.6167 134.97 88.04 134.97 88.6V91.06C134.97 91.18 135 91.27 135.06 91.33C135.12 91.39 135.217 91.42 135.35 91.42ZM132.63 91.4C133.05 91.4 133.41 91.3 133.71 91.1C134.017 90.9 134.17 90.64 134.17 90.32V89.63L133.05 89.84C132.604 89.92 132.27 90.0367 132.05 90.19C131.83 90.3367 131.72 90.5267 131.72 90.76C131.72 90.9667 131.8 91.1267 131.96 91.24C132.12 91.3467 132.344 91.4 132.63 91.4ZM140.788 92.1C140.308 92.1 139.875 92.0067 139.488 91.82C139.102 91.6267 138.818 91.3433 138.638 90.97L139.288 90.52C139.402 90.8133 139.598 91.0333 139.878 91.18C140.158 91.3267 140.488 91.4 140.868 91.4C141.262 91.4 141.562 91.33 141.768 91.19C141.975 91.05 142.078 90.8733 142.078 90.66C142.078 90.4667 141.982 90.3133 141.788 90.2C141.595 90.08 141.255 89.9767 140.768 89.89C140.288 89.8033 139.908 89.7 139.628 89.58C139.348 89.4533 139.145 89.2967 139.018 89.11C138.892 88.9167 138.828 88.68 138.828 88.4C138.828 88.1267 138.908 87.8767 139.068 87.65C139.228 87.4233 139.458 87.2433 139.758 87.11C140.058 86.97 140.405 86.9 140.798 86.9C141.332 86.9 141.758 87 142.078 87.2C142.405 87.3933 142.638 87.6933 142.778 88.1L142.098 88.5C141.992 88.18 141.828 87.95 141.608 87.81C141.395 87.67 141.125 87.6 140.798 87.6C140.472 87.6 140.195 87.6733 139.968 87.82C139.742 87.9667 139.628 88.1367 139.628 88.33C139.628 88.55 139.725 88.72 139.918 88.84C140.118 88.96 140.472 89.0633 140.978 89.15C141.672 89.2633 142.162 89.4333 142.448 89.66C142.735 89.8867 142.878 90.2067 142.878 90.62C142.878 90.9067 142.792 91.1633 142.618 91.39C142.452 91.61 142.208 91.7833 141.888 91.91C141.575 92.0367 141.208 92.1 140.788 92.1ZM147.962 91.42C148.095 91.42 148.228 91.4033 148.362 91.37L148.312 92C148.125 92.0667 147.925 92.1 147.712 92.1C147.452 92.1 147.245 92.0433 147.092 91.93C146.945 91.8167 146.852 91.6267 146.812 91.36C146.658 91.5933 146.432 91.7767 146.132 91.91C145.838 92.0367 145.528 92.1 145.202 92.1C144.708 92.1 144.302 91.9867 143.982 91.76C143.662 91.5267 143.502 91.1933 143.502 90.76C143.502 90.38 143.668 90.0533 144.002 89.78C144.335 89.5 144.818 89.3067 145.452 89.2L146.782 88.98V88.7C146.782 88.3667 146.678 88.1 146.472 87.9C146.265 87.7 145.978 87.6 145.612 87.6C145.278 87.6 144.988 87.68 144.742 87.84C144.502 88 144.315 88.2367 144.182 88.55L143.592 88.12C143.725 87.7467 143.972 87.45 144.332 87.23C144.698 87.01 145.125 86.9 145.612 86.9C146.205 86.9 146.682 87.0433 147.042 87.33C147.402 87.6167 147.582 88.04 147.582 88.6V91.06C147.582 91.18 147.612 91.27 147.672 91.33C147.732 91.39 147.828 91.42 147.962 91.42ZM145.242 91.4C145.662 91.4 146.022 91.3 146.322 91.1C146.628 90.9 146.782 90.64 146.782 90.32V89.63L145.662 89.84C145.215 89.92 144.882 90.0367 144.662 90.19C144.442 90.3367 144.332 90.5267 144.332 90.76C144.332 90.9667 144.412 91.1267 144.572 91.24C144.732 91.3467 144.955 91.4 145.242 91.4ZM150.167 87H151.837V87.69H150.167V92H149.367V87.69H148.367V87H149.367V86.16C149.367 85.7 149.507 85.3333 149.787 85.06C150.067 84.7867 150.474 84.65 151.007 84.65C151.187 84.65 151.35 84.67 151.497 84.71C151.65 84.75 151.77 84.8067 151.857 84.88L151.647 85.53C151.487 85.43 151.297 85.38 151.077 85.38C150.47 85.38 150.167 85.6667 150.167 86.24V87ZM156.556 89.24C156.556 89.4267 156.543 89.6133 156.516 89.8H152.746C152.793 90.3067 152.959 90.7 153.246 90.98C153.539 91.26 153.916 91.4 154.376 91.4C154.743 91.4 155.046 91.3367 155.286 91.21C155.533 91.0833 155.699 90.9 155.786 90.66L156.456 91.01C156.256 91.3633 155.989 91.6333 155.656 91.82C155.323 92.0067 154.896 92.1 154.376 92.1C153.623 92.1 153.029 91.87 152.596 91.41C152.169 90.95 151.956 90.3133 151.956 89.5C151.956 88.6867 152.159 88.05 152.566 87.59C152.979 87.13 153.563 86.9 154.316 86.9C154.783 86.9 155.186 87.0033 155.526 87.21C155.866 87.4167 156.123 87.6967 156.296 88.05C156.469 88.4033 156.556 88.8 156.556 89.24ZM154.316 87.6C153.876 87.6 153.519 87.73 153.246 87.99C152.979 88.25 152.816 88.6167 152.756 89.09H155.786C155.733 88.6233 155.579 88.26 155.326 88C155.073 87.7333 154.736 87.6 154.316 87.6ZM157.976 90.8C158.21 90.8 158.393 90.89 158.526 91.07C158.66 91.25 158.726 91.4833 158.726 91.77C158.726 92.1233 158.636 92.45 158.456 92.75C158.276 93.05 158.003 93.2867 157.636 93.46L157.216 93.07C157.476 92.9833 157.693 92.8467 157.866 92.66C158.04 92.4733 158.15 92.27 158.196 92.05L158.156 92.03C158.096 92.0767 158.003 92.1 157.876 92.1C157.736 92.1 157.61 92.0467 157.496 91.94C157.383 91.8267 157.326 91.67 157.326 91.47C157.326 91.29 157.39 91.1333 157.516 91C157.643 90.8667 157.796 90.8 157.976 90.8ZM164.751 86.9C165.504 86.9 166.094 87.13 166.521 87.59C166.954 88.05 167.171 88.6867 167.171 89.5C167.171 90.3133 166.954 90.95 166.521 91.41C166.094 91.87 165.504 92.1 164.751 92.1C163.998 92.1 163.404 91.87 162.971 91.41C162.544 90.95 162.331 90.3133 162.331 89.5C162.331 88.6867 162.544 88.05 162.971 87.59C163.404 87.13 163.998 86.9 164.751 86.9ZM164.751 87.59C164.244 87.59 163.848 87.76 163.561 88.1C163.274 88.44 163.131 88.9067 163.131 89.5C163.131 90.0933 163.274 90.56 163.561 90.9C163.848 91.24 164.244 91.41 164.751 91.41C165.258 91.41 165.654 91.24 165.941 90.9C166.228 90.56 166.371 90.0933 166.371 89.5C166.371 88.9067 166.228 88.44 165.941 88.1C165.654 87.76 165.258 87.59 164.751 87.59ZM170.585 86.9C170.825 86.9 171.008 86.9333 171.135 87L170.975 87.78C170.815 87.6933 170.605 87.65 170.345 87.65C170.132 87.65 169.922 87.7133 169.715 87.84C169.515 87.96 169.348 88.1467 169.215 88.4C169.088 88.6467 169.025 88.9467 169.025 89.3V92H168.225V87H168.875L168.985 87.82C169.265 87.2067 169.798 86.9 170.585 86.9ZM174.343 91.36C174.816 91.36 175.186 91.4667 175.453 91.68C175.72 91.8933 175.853 92.1833 175.853 92.55C175.853 92.87 175.743 93.15 175.523 93.39C175.303 93.6367 175.003 93.8233 174.623 93.95C174.25 94.0833 173.836 94.15 173.383 94.15C172.623 94.15 172.05 94.0267 171.663 93.78C171.276 93.54 171.083 93.2233 171.083 92.83C171.083 92.6033 171.16 92.4033 171.313 92.23C171.473 92.0567 171.69 91.9333 171.963 91.86C171.756 91.76 171.59 91.6333 171.463 91.48C171.343 91.3267 171.283 91.1467 171.283 90.94C171.283 90.6933 171.35 90.49 171.483 90.33C171.616 90.1633 171.8 90.04 172.033 89.96C171.793 89.8133 171.61 89.6233 171.483 89.39C171.363 89.15 171.303 88.8833 171.303 88.59C171.303 88.2633 171.39 87.9733 171.563 87.72C171.736 87.46 171.98 87.26 172.293 87.12C172.606 86.9733 172.96 86.9 173.353 86.9C173.726 86.9 174.066 86.9667 174.373 87.1C174.56 86.42 175.03 86.08 175.783 86.08L175.963 86.78C175.31 86.78 174.913 86.9633 174.773 87.33C174.973 87.4833 175.126 87.6667 175.233 87.88C175.346 88.0933 175.403 88.33 175.403 88.59C175.403 88.9167 175.316 89.21 175.143 89.47C174.97 89.7233 174.726 89.9233 174.413 90.07C174.1 90.21 173.746 90.28 173.353 90.28C173.06 90.28 172.803 90.25 172.583 90.19C172.383 90.2367 172.24 90.31 172.153 90.41C172.066 90.51 172.023 90.6467 172.023 90.82C172.023 90.9933 172.083 91.1267 172.203 91.22C172.323 91.3133 172.483 91.36 172.683 91.36H174.343ZM173.353 87.55C173.006 87.55 172.716 87.6467 172.483 87.84C172.25 88.0333 172.133 88.2833 172.133 88.59C172.133 88.8967 172.25 89.1467 172.483 89.34C172.716 89.5333 173.006 89.63 173.353 89.63C173.7 89.63 173.99 89.5333 174.223 89.34C174.456 89.1467 174.573 88.8967 174.573 88.59C174.573 88.2833 174.456 88.0333 174.223 87.84C173.99 87.6467 173.7 87.55 173.353 87.55ZM173.473 93.48C173.98 93.48 174.38 93.3967 174.673 93.23C174.966 93.07 175.113 92.8733 175.113 92.64C175.113 92.4467 175.036 92.3 174.883 92.2C174.736 92.1 174.483 92.05 174.123 92.05H172.783C172.476 92.05 172.24 92.1033 172.073 92.21C171.906 92.3233 171.823 92.4767 171.823 92.67C171.823 92.9233 171.963 93.12 172.243 93.26C172.523 93.4067 172.933 93.48 173.473 93.48ZM180.641 91.42C180.775 91.42 180.908 91.4033 181.041 91.37L180.991 92C180.805 92.0667 180.605 92.1 180.391 92.1C180.131 92.1 179.925 92.0433 179.771 91.93C179.625 91.8167 179.531 91.6267 179.491 91.36C179.338 91.5933 179.111 91.7767 178.811 91.91C178.518 92.0367 178.208 92.1 177.881 92.1C177.388 92.1 176.981 91.9867 176.661 91.76C176.341 91.5267 176.181 91.1933 176.181 90.76C176.181 90.38 176.348 90.0533 176.681 89.78C177.015 89.5 177.498 89.3067 178.131 89.2L179.461 88.98V88.7C179.461 88.3667 179.358 88.1 179.151 87.9C178.945 87.7 178.658 87.6 178.291 87.6C177.958 87.6 177.668 87.68 177.421 87.84C177.181 88 176.995 88.2367 176.861 88.55L176.271 88.12C176.405 87.7467 176.651 87.45 177.011 87.23C177.378 87.01 177.805 86.9 178.291 86.9C178.885 86.9 179.361 87.0433 179.721 87.33C180.081 87.6167 180.261 88.04 180.261 88.6V91.06C180.261 91.18 180.291 91.27 180.351 91.33C180.411 91.39 180.508 91.42 180.641 91.42ZM177.921 91.4C178.341 91.4 178.701 91.3 179.001 91.1C179.308 90.9 179.461 90.64 179.461 90.32V89.63L178.341 89.84C177.895 89.92 177.561 90.0367 177.341 90.19C177.121 90.3367 177.011 90.5267 177.011 90.76C177.011 90.9667 177.091 91.1267 177.251 91.24C177.411 91.3467 177.635 91.4 177.921 91.4ZM184.135 86.9C184.702 86.9 185.169 87.0633 185.535 87.39C185.902 87.7167 186.085 88.1867 186.085 88.8V92H185.285V89.08C185.285 88.56 185.172 88.1833 184.945 87.95C184.725 87.7167 184.429 87.6 184.055 87.6C183.789 87.6 183.539 87.66 183.305 87.78C183.072 87.8933 182.879 88.0833 182.725 88.35C182.579 88.61 182.505 88.94 182.505 89.34V92H181.705V87H182.405L182.455 87.78C182.622 87.48 182.852 87.26 183.145 87.12C183.439 86.9733 183.769 86.9 184.135 86.9ZM187.797 86.04C187.617 86.04 187.47 85.9867 187.357 85.88C187.25 85.7667 187.197 85.62 187.197 85.44C187.197 85.26 187.25 85.1167 187.357 85.01C187.47 84.8967 187.617 84.84 187.797 84.84C187.977 84.84 188.12 84.8967 188.227 85.01C188.34 85.1167 188.397 85.26 188.397 85.44C188.397 85.62 188.34 85.7667 188.227 85.88C188.12 85.9867 187.977 86.04 187.797 86.04ZM188.197 92H187.397V87H188.197V92ZM189.193 91.39L191.813 88.32L192.443 87.67L191.553 87.69H189.223V87H193.333V87.61L190.713 90.68L190.093 91.33L191.063 91.31H193.413V92H189.193V91.39ZM198.607 89.24C198.607 89.4267 198.593 89.6133 198.567 89.8H194.797C194.843 90.3067 195.01 90.7 195.297 90.98C195.59 91.26 195.967 91.4 196.427 91.4C196.793 91.4 197.097 91.3367 197.337 91.21C197.583 91.0833 197.75 90.9 197.837 90.66L198.507 91.01C198.307 91.3633 198.04 91.6333 197.707 91.82C197.373 92.0067 196.947 92.1 196.427 92.1C195.673 92.1 195.08 91.87 194.647 91.41C194.22 90.95 194.007 90.3133 194.007 89.5C194.007 88.6867 194.21 88.05 194.617 87.59C195.03 87.13 195.613 86.9 196.367 86.9C196.833 86.9 197.237 87.0033 197.577 87.21C197.917 87.4167 198.173 87.6967 198.347 88.05C198.52 88.4033 198.607 88.8 198.607 89.24ZM196.367 87.6C195.927 87.6 195.57 87.73 195.297 87.99C195.03 88.25 194.867 88.6167 194.807 89.09H197.837C197.783 88.6233 197.63 88.26 197.377 88C197.123 87.7333 196.787 87.6 196.367 87.6ZM204.067 84.7V92H203.367L203.317 91.13C203.171 91.4233 202.944 91.66 202.637 91.84C202.337 92.0133 201.994 92.1 201.607 92.1C200.907 92.1 200.351 91.87 199.937 91.41C199.531 90.9433 199.327 90.3067 199.327 89.5C199.327 88.6933 199.531 88.06 199.937 87.6C200.351 87.1333 200.907 86.9 201.607 86.9C201.974 86.9 202.301 86.98 202.587 87.14C202.881 87.3 203.107 87.5133 203.267 87.78V84.7H204.067ZM201.697 91.4C202.177 91.4 202.557 91.2333 202.837 90.9C203.124 90.5667 203.267 90.12 203.267 89.56V89.44C203.267 88.88 203.124 88.4333 202.837 88.1C202.557 87.7667 202.177 87.6 201.697 87.6C201.211 87.6 200.827 87.7733 200.547 88.12C200.267 88.46 200.127 88.92 200.127 89.5C200.127 90.08 200.267 90.5433 200.547 90.89C200.827 91.23 201.211 91.4 201.697 91.4ZM212.624 89.24C212.624 89.4267 212.611 89.6133 212.584 89.8H208.814C208.861 90.3067 209.028 90.7 209.314 90.98C209.608 91.26 209.984 91.4 210.444 91.4C210.811 91.4 211.114 91.3367 211.354 91.21C211.601 91.0833 211.768 90.9 211.854 90.66L212.524 91.01C212.324 91.3633 212.058 91.6333 211.724 91.82C211.391 92.0067 210.964 92.1 210.444 92.1C209.691 92.1 209.098 91.87 208.664 91.41C208.238 90.95 208.024 90.3133 208.024 89.5C208.024 88.6867 208.228 88.05 208.634 87.59C209.048 87.13 209.631 86.9 210.384 86.9C210.851 86.9 211.254 87.0033 211.594 87.21C211.934 87.4167 212.191 87.6967 212.364 88.05C212.538 88.4033 212.624 88.8 212.624 89.24ZM210.384 87.6C209.944 87.6 209.588 87.73 209.314 87.99C209.048 88.25 208.884 88.6167 208.824 89.09H211.854C211.801 88.6233 211.648 88.26 211.394 88C211.141 87.7333 210.804 87.6 210.384 87.6ZM217.658 87L215.578 92H214.778L212.698 87H213.608L215.188 91.19L216.818 87H217.658ZM222.493 89.24C222.493 89.4267 222.48 89.6133 222.453 89.8H218.683C218.73 90.3067 218.897 90.7 219.183 90.98C219.477 91.26 219.853 91.4 220.313 91.4C220.68 91.4 220.983 91.3367 221.223 91.21C221.47 91.0833 221.637 90.9 221.723 90.66L222.393 91.01C222.193 91.3633 221.927 91.6333 221.593 91.82C221.26 92.0067 220.833 92.1 220.313 92.1C219.56 92.1 218.967 91.87 218.533 91.41C218.107 90.95 217.893 90.3133 217.893 89.5C217.893 88.6867 218.097 88.05 218.503 87.59C218.917 87.13 219.5 86.9 220.253 86.9C220.72 86.9 221.123 87.0033 221.463 87.21C221.803 87.4167 222.06 87.6967 222.233 88.05C222.407 88.4033 222.493 88.8 222.493 89.24ZM220.253 87.6C219.813 87.6 219.457 87.73 219.183 87.99C218.917 88.25 218.753 88.6167 218.693 89.09H221.723C221.67 88.6233 221.517 88.26 221.263 88C221.01 87.7333 220.673 87.6 220.253 87.6ZM225.944 86.9C226.511 86.9 226.977 87.0633 227.344 87.39C227.711 87.7167 227.894 88.1867 227.894 88.8V92H227.094V89.08C227.094 88.56 226.981 88.1833 226.754 87.95C226.534 87.7167 226.237 87.6 225.864 87.6C225.597 87.6 225.347 87.66 225.114 87.78C224.881 87.8933 224.687 88.0833 224.534 88.35C224.387 88.61 224.314 88.94 224.314 89.34V92H223.514V87H224.214L224.264 87.78C224.431 87.48 224.661 87.26 224.954 87.12C225.247 86.9733 225.577 86.9 225.944 86.9ZM232.197 91.65C231.864 91.95 231.434 92.1 230.907 92.1C230.5 92.1 230.167 91.99 229.907 91.77C229.654 91.55 229.524 91.2133 229.517 90.76V87.69H228.517V87H229.517V85.8L230.317 85.58V87H232.167V87.69H230.317V90.62C230.317 90.86 230.384 91.0433 230.517 91.17C230.657 91.29 230.84 91.35 231.067 91.35C231.387 91.35 231.67 91.2267 231.917 90.98L232.197 91.65ZM233.226 90.8C233.42 90.8 233.576 90.86 233.696 90.98C233.816 91.1 233.876 91.2567 233.876 91.45C233.876 91.6433 233.816 91.8 233.696 91.92C233.576 92.04 233.42 92.1 233.226 92.1C233.033 92.1 232.876 92.04 232.756 91.92C232.636 91.8 232.576 91.6433 232.576 91.45C232.576 91.2567 232.636 91.1 232.756 90.98C232.876 90.86 233.033 90.8 233.226 90.8Z" fill="#666666"/>
</svg>
