<svg width="41" height="41" viewBox="0 0 41 41" fill="none" xmlns="http://www.w3.org/2000/svg">
<rect width="41" height="41" rx="20.5" fill="#E2FFF9"/>
<g clip-path="url(#clip0_248_256)">
<path d="M14 27.73C13.6614 27.73 13.3714 27.61 13.13 27.37C12.8887 27.13 12.7687 26.84 12.77 26.5C12.7714 26.16 12.8914 25.87 13.13 25.63C13.3687 25.39 13.6587 25.27 14 25.27C14.3414 25.27 14.6314 25.39 14.87 25.63C15.1087 25.87 15.2287 26.16 15.23 26.5C15.2314 26.84 15.1114 27.13 14.87 27.37C14.6287 27.61 14.3387 27.73 14 27.73ZM14 21.73C13.6614 21.73 13.3714 21.61 13.13 21.37C12.8887 21.13 12.7687 20.84 12.77 20.5C12.7714 20.16 12.8914 19.87 13.13 19.63C13.3687 19.39 13.6587 19.27 14 19.27C14.3414 19.27 14.6314 19.39 14.87 19.63C15.1087 19.87 15.2287 20.16 15.23 20.5C15.2314 20.84 15.1114 21.13 14.87 21.37C14.6287 21.61 14.3387 21.73 14 21.73ZM14 15.73C13.6614 15.73 13.3714 15.61 13.13 15.37C12.8887 15.13 12.7687 14.84 12.77 14.5C12.7714 14.16 12.8914 13.87 13.13 13.63C13.3687 13.39 13.6587 13.27 14 13.27C14.3414 13.27 14.6314 13.39 14.87 13.63C15.1087 13.87 15.2287 14.16 15.23 14.5C15.2314 14.84 15.1114 15.13 14.87 15.37C14.6287 15.61 14.3387 15.73 14 15.73ZM20 15.73C19.6614 15.73 19.3714 15.61 19.13 15.37C18.8887 15.13 18.7687 14.84 18.77 14.5C18.7714 14.16 18.8914 13.87 19.13 13.63C19.3687 13.39 19.6587 13.27 20 13.27C20.3414 13.27 20.6314 13.39 20.87 13.63C21.1087 13.87 21.2287 14.16 21.23 14.5C21.2314 14.84 21.1114 15.13 20.87 15.37C20.6287 15.61 20.3387 15.73 20 15.73ZM26 15.73C25.6614 15.73 25.3714 15.61 25.13 15.37C24.8887 15.13 24.7687 14.84 24.77 14.5C24.7714 14.16 24.8914 13.87 25.13 13.63C25.3687 13.39 25.6587 13.27 26 13.27C26.3414 13.27 26.6314 13.39 26.87 13.63C27.1087 13.87 27.2287 14.16 27.23 14.5C27.2314 14.84 27.1114 15.13 26.87 15.37C26.6287 15.61 26.3387 15.73 26 15.73ZM20 21.73C19.6614 21.73 19.3714 21.61 19.13 21.37C18.8887 21.13 18.7687 20.84 18.77 20.5C18.7714 20.16 18.8914 19.87 19.13 19.63C19.3687 19.39 19.6587 19.27 20 19.27C20.3414 19.27 20.6314 19.39 20.87 19.63C21.1087 19.87 21.2287 20.16 21.23 20.5C21.2314 20.84 21.1114 21.13 20.87 21.37C20.6287 21.61 20.3387 21.73 20 21.73ZM21.23 26.923V25.85C21.23 25.748 21.249 25.649 21.287 25.553C21.3237 25.4577 21.3857 25.3664 21.473 25.279L26.563 20.214C26.6624 20.1154 26.7644 20.0487 26.869 20.014C26.9737 19.9794 27.0787 19.962 27.184 19.962C27.2987 19.962 27.4114 19.9834 27.522 20.026C27.6327 20.0694 27.733 20.1337 27.823 20.219L28.748 21.164C28.83 21.2627 28.8927 21.365 28.936 21.471C28.9787 21.5777 29 21.6844 29 21.791C29 21.897 28.9797 22.0044 28.939 22.113C28.8984 22.2217 28.8347 22.325 28.748 22.423L23.683 27.488C23.5957 27.5754 23.504 27.6377 23.408 27.675C23.3127 27.7124 23.2137 27.731 23.111 27.731H22.038C21.8094 27.731 21.6177 27.6534 21.463 27.498C21.3084 27.3427 21.231 27.151 21.231 26.923M22.115 26.846H23.065L26.533 23.373L26.063 22.898L25.608 22.409L22.115 25.896V26.846ZM26.063 22.898L25.608 22.409L26.533 23.373L26.063 22.898Z" fill="#1ABC9C"/>
</g>
<defs>
<clipPath id="clip0_248_256">
<rect width="24" height="24" fill="white" transform="translate(8 8.5)"/>
</clipPath>
</defs>
</svg>
