<svg width="41" height="41" viewBox="0 0 41 41" fill="none" xmlns="http://www.w3.org/2000/svg">
<rect width="41" height="41" rx="20.5" fill="#E2FFF9"/>
<path d="M15.73 25H16.73V20.5H15.73V25ZM23.27 25H24.27V15.5H23.27V25ZM19.5 25H20.5V22.5H19.5V25ZM19.5 20.5H20.5V18.5H19.5V20.5ZM13.616 28.5C13.1553 28.5 12.771 28.346 12.463 28.038C12.155 27.73 12.0007 27.3453 12 26.884V14.116C12 13.6553 12.1543 13.271 12.463 12.963C12.7717 12.655 13.156 12.5007 13.616 12.5H26.385C26.845 12.5 27.2293 12.6543 27.538 12.963C27.8467 13.2717 28.0007 13.656 28 14.116V26.885C28 27.345 27.846 27.7293 27.538 28.038C27.23 28.3467 26.8453 28.5007 26.384 28.5H13.616ZM13.616 27.5H26.385C26.5383 27.5 26.6793 27.436 26.808 27.308C26.9367 27.18 27.0007 27.0387 27 26.884V14.116C27 13.962 26.936 13.8207 26.808 13.692C26.68 13.5633 26.5387 13.4993 26.384 13.5H13.616C13.462 13.5 13.3207 13.564 13.192 13.692C13.0633 13.82 12.9993 13.9613 13 14.116V26.885C13 27.0383 13.064 27.1793 13.192 27.308C13.32 27.4367 13.461 27.5007 13.615 27.5" fill="#1ABC9C"/>
</svg>
