<svg width="19" height="20" viewBox="0 0 19 20" fill="none" xmlns="http://www.w3.org/2000/svg">
<path fill-rule="evenodd" clip-rule="evenodd" d="M0.849609 10.1504C0.849609 6.55525 0.849609 4.75768 1.7063 3.46294C2.08886 2.88478 2.584 2.38964 3.16216 2.00708C4.4569 1.15039 6.25447 1.15039 9.84961 1.15039C13.4447 1.15039 15.2423 1.15039 16.5371 2.00708C17.1152 2.38964 17.6104 2.88478 17.9929 3.46294C18.8496 4.75768 18.8496 6.55525 18.8496 10.1504C18.8496 13.7455 18.8496 15.5431 17.9929 16.8378C17.6104 17.416 17.1152 17.9111 16.5371 18.2937C15.2423 19.1504 13.4447 19.1504 9.84961 19.1504C6.25447 19.1504 4.4569 19.1504 3.16216 18.2937C2.584 17.9111 2.08886 17.416 1.7063 16.8378C0.849609 15.5431 0.849609 13.7455 0.849609 10.1504ZM14.5089 10.1506C14.5089 12.7239 12.4228 14.81 9.84945 14.81C7.27613 14.81 5.19004 12.7239 5.19004 10.1506C5.19004 7.5773 7.27613 5.49121 9.84945 5.49121C12.4228 5.49121 14.5089 7.5773 14.5089 10.1506ZM9.84945 13.2336C11.5521 13.2336 12.9325 11.8533 12.9325 10.1506C12.9325 8.44792 11.5521 7.06761 9.84945 7.06761C8.14675 7.06761 6.76645 8.44792 6.76645 10.1506C6.76645 11.8533 8.14675 13.2336 9.84945 13.2336ZM14.6929 6.35194C15.2975 6.35194 15.7877 5.86177 15.7877 5.25712C15.7877 4.65246 15.2975 4.16229 14.6929 4.16229C14.0882 4.16229 13.5981 4.65246 13.5981 5.25712C13.5981 5.86177 14.0882 6.35194 14.6929 6.35194Z" fill="#1ABC9C"/>
</svg>
