<svg width="19" height="19" viewBox="0 0 19 19" fill="none" xmlns="http://www.w3.org/2000/svg">
<path d="M0.849609 3.07044C0.849609 2.49323 1.05232 2.01704 1.45772 1.64187C1.86312 1.26669 2.39016 1.0791 3.0388 1.0791C3.67587 1.0791 4.1913 1.26379 4.58513 1.63321C4.99053 2.01417 5.19324 2.51055 5.19324 3.12239C5.19324 3.6765 4.99633 4.13825 4.6025 4.50767C4.19711 4.88862 3.66428 5.0791 3.00405 5.0791H2.98668C2.3496 5.0791 1.83417 4.88862 1.44034 4.50767C1.04651 4.12672 0.849609 3.64764 0.849609 3.07044ZM1.07548 18.222V6.65486H4.93262V18.222H1.07548ZM7.06969 18.222H10.9268V11.7631C10.9268 11.359 10.9732 11.0473 11.0658 10.828C11.228 10.4355 11.4741 10.1036 11.8042 9.83235C12.1344 9.56106 12.5484 9.42542 13.0465 9.42542C14.3438 9.42542 14.9925 10.297 14.9925 12.0401V18.222H18.8496V11.5899C18.8496 9.8814 18.4442 8.58559 17.6334 7.70248C16.8226 6.81936 15.7512 6.3778 14.4191 6.3778C12.9249 6.3778 11.7608 7.01849 10.9268 8.29988V8.33451H10.9095L10.9268 8.29988V6.65486H7.06969C7.09285 7.02426 7.10444 8.17288 7.10444 10.1007C7.10444 12.0286 7.09285 14.7357 7.06969 18.222Z" fill="#1ABC9C"/>
</svg>
