<svg width="41" height="41" viewBox="0 0 41 41" fill="none" xmlns="http://www.w3.org/2000/svg">
<circle cx="20.5" cy="20.5" r="20.5" fill="#E2FFF9"/>
<path d="M16 13C15.4696 13 14.9609 13.2107 14.5858 13.5858C14.2107 13.9609 14 14.4696 14 15V27C14 27.5304 14.2107 28.0391 14.5858 28.4142C14.9609 28.7893 15.4696 29 16 29H20.257C20.0023 28.6916 19.782 28.3562 19.6 28H16C15.7348 28 15.4804 27.8946 15.2929 27.7071C15.1054 27.5196 15 27.2652 15 27V15C15 14.7348 15.1054 14.4804 15.2929 14.2929C15.4804 14.1054 15.7348 14 16 14H24C24.2652 14 24.5196 14.1054 24.7071 14.2929C24.8946 14.4804 25 14.7348 25 15V20.022C25.344 20.0533 25.6773 20.115 26 20.207V15C26 14.4696 25.7893 13.9609 25.4142 13.5858C25.0391 13.2107 24.5304 13 24 13H16ZM17.75 22H20.257C20.0023 22.3084 19.782 22.6438 19.6 23H17.75C17.6837 23 17.6201 23.0263 17.5732 23.0732C17.5263 23.1201 17.5 23.1837 17.5 23.25C17.5 23.732 17.688 24.149 18.065 24.456C18.297 24.644 18.615 24.802 19.032 24.899C18.9955 25.2368 18.9898 25.5772 19.015 25.916C18.381 25.801 17.849 25.568 17.435 25.232C17.1389 24.9943 16.9008 24.6923 16.7388 24.3489C16.5767 24.0055 16.4951 23.6297 16.5 23.25C16.5 22.56 17.06 22 17.75 22ZM18.5 15C18.3674 15 18.2402 15.0527 18.1464 15.1464C18.0527 15.2402 18 15.3674 18 15.5C18 15.6326 18.0527 15.7598 18.1464 15.8536C18.2402 15.9473 18.3674 16 18.5 16H21.5C21.6326 16 21.7598 15.9473 21.8536 15.8536C21.9473 15.7598 22 15.6326 22 15.5C22 15.3674 21.9473 15.2402 21.8536 15.1464C21.7598 15.0527 21.6326 15 21.5 15H18.5ZM19 19C19 18.7348 19.1054 18.4804 19.2929 18.2929C19.4804 18.1054 19.7348 18 20 18C20.2652 18 20.5196 18.1054 20.7071 18.2929C20.8946 18.4804 21 18.7348 21 19C21 19.2652 20.8946 19.5196 20.7071 19.7071C20.5196 19.8946 20.2652 20 20 20C19.7348 20 19.4804 19.8946 19.2929 19.7071C19.1054 19.5196 19 19.2652 19 19ZM20 17C19.4696 17 18.9609 17.2107 18.5858 17.5858C18.2107 17.9609 18 18.4696 18 19C18 19.5304 18.2107 20.0391 18.5858 20.4142C18.9609 20.7893 19.4696 21 20 21C20.5304 21 21.0391 20.7893 21.4142 20.4142C21.7893 20.0391 22 19.5304 22 19C22 18.4696 21.7893 17.9609 21.4142 17.5858C21.0391 17.2107 20.5304 17 20 17ZM29 25.5C29 26.6935 28.5259 27.8381 27.682 28.682C26.8381 29.5259 25.6935 30 24.5 30C23.3065 30 22.1619 29.5259 21.318 28.682C20.4741 27.8381 20 26.6935 20 25.5C20 24.3065 20.4741 23.1619 21.318 22.318C22.1619 21.4741 23.3065 21 24.5 21C25.6935 21 26.8381 21.4741 27.682 22.318C28.5259 23.1619 29 24.3065 29 25.5ZM25 23.5C25 23.3674 24.9473 23.2402 24.8536 23.1464C24.7598 23.0527 24.6326 23 24.5 23C24.3674 23 24.2402 23.0527 24.1464 23.1464C24.0527 23.2402 24 23.3674 24 23.5V25H22.5C22.3674 25 22.2402 25.0527 22.1464 25.1464C22.0527 25.2402 22 25.3674 22 25.5C22 25.6326 22.0527 25.7598 22.1464 25.8536C22.2402 25.9473 22.3674 26 22.5 26H24V27.5C24 27.6326 24.0527 27.7598 24.1464 27.8536C24.2402 27.9473 24.3674 28 24.5 28C24.6326 28 24.7598 27.9473 24.8536 27.8536C24.9473 27.7598 25 27.6326 25 27.5V26H26.5C26.6326 26 26.7598 25.9473 26.8536 25.8536C26.9473 25.7598 27 25.6326 27 25.5C27 25.3674 26.9473 25.2402 26.8536 25.1464C26.7598 25.0527 26.6326 25 26.5 25H25V23.5Z" fill="#1ABC9C"/>
</svg>
