<svg width="41" height="41" viewBox="0 0 41 41" fill="none" xmlns="http://www.w3.org/2000/svg">
<circle cx="20.5" cy="20.5" r="20.5" fill="#E2FFF9"/>
<path d="M27.265 16.7501C27.193 16.7052 27.1108 16.6793 27.026 16.6749C26.9413 16.6705 26.8569 16.6878 26.7806 16.7251C24.0975 18.0376 22.1813 17.4226 20.1556 16.7738C18.0306 16.0932 15.8275 15.3901 12.7838 16.8763C12.6987 16.9171 12.6269 16.9811 12.5767 17.061C12.5265 17.1408 12.4999 17.2333 12.5 17.3276V24.8232C12.5 24.908 12.5216 24.9915 12.5627 25.0657C12.6038 25.1399 12.6632 25.2024 12.7351 25.2473C12.8071 25.2923 12.8893 25.3182 12.974 25.3226C13.0587 25.327 13.1431 25.3098 13.2194 25.2726C15.9025 23.9601 17.8187 24.5751 19.8475 25.2238C21.05 25.6082 22.275 26.0001 23.66 26.0001C24.7281 26.0001 25.8931 25.7676 27.2169 25.1213C27.301 25.0803 27.3718 25.0165 27.4214 24.9371C27.471 24.8578 27.4974 24.7661 27.4975 24.6726V17.177C27.4983 17.0919 27.4773 17.0081 27.4366 16.9334C27.3959 16.8587 27.3369 16.7956 27.265 16.7501ZM26.5 24.3545C23.9625 25.4901 22.1094 24.8976 20.1525 24.272C18.95 23.8876 17.725 23.4957 16.34 23.4957C15.3669 23.5004 14.4038 23.6914 13.5025 24.0582V17.6457C16.04 16.5101 17.8931 17.1026 19.85 17.7282C21.8069 18.3538 23.8212 19.0001 26.5 17.9432V24.3545ZM20 19.0001C19.6044 19.0001 19.2178 19.1174 18.8889 19.3371C18.56 19.5569 18.3036 19.8693 18.1522 20.2347C18.0009 20.6002 17.9613 21.0023 18.0384 21.3903C18.1156 21.7782 18.3061 22.1346 18.5858 22.4143C18.8655 22.694 19.2219 22.8845 19.6098 22.9616C19.9978 23.0388 20.3999 22.9992 20.7654 22.8478C21.1308 22.6965 21.4432 22.4401 21.6629 22.1112C21.8827 21.7823 22 21.3956 22 21.0001C22 20.4696 21.7893 19.9609 21.4142 19.5859C21.0391 19.2108 20.5304 19.0001 20 19.0001ZM20 22.0001C19.8022 22.0001 19.6089 21.9414 19.4444 21.8315C19.28 21.7217 19.1518 21.5655 19.0761 21.3828C19.0004 21.2 18.9806 20.999 19.0192 20.805C19.0578 20.611 19.153 20.4328 19.2929 20.293C19.4327 20.1531 19.6109 20.0579 19.8049 20.0193C19.9989 19.9807 20.2 20.0005 20.3827 20.0762C20.5654 20.1519 20.7216 20.2801 20.8315 20.4445C20.9414 20.609 21 20.8023 21 21.0001C21 21.2653 20.8946 21.5196 20.7071 21.7072C20.5196 21.8947 20.2652 22.0001 20 22.0001ZM15.5 19.0001V22.0001C15.5 22.1327 15.4473 22.2599 15.3536 22.3536C15.2598 22.4474 15.1326 22.5001 15 22.5001C14.8674 22.5001 14.7402 22.4474 14.6464 22.3536C14.5527 22.2599 14.5 22.1327 14.5 22.0001V19.0001C14.5 18.8675 14.5527 18.7403 14.6464 18.6465C14.7402 18.5528 14.8674 18.5001 15 18.5001C15.1326 18.5001 15.2598 18.5528 15.3536 18.6465C15.4473 18.7403 15.5 18.8675 15.5 19.0001ZM24.5 23.0001V20.0001C24.5 19.8675 24.5527 19.7403 24.6464 19.6465C24.7402 19.5528 24.8674 19.5001 25 19.5001C25.1326 19.5001 25.2598 19.5528 25.3536 19.6465C25.4473 19.7403 25.5 19.8675 25.5 20.0001V23.0001C25.5 23.1327 25.4473 23.2599 25.3536 23.3536C25.2598 23.4474 25.1326 23.5001 25 23.5001C24.8674 23.5001 24.7402 23.4474 24.6464 23.3536C24.5527 23.2599 24.5 23.1327 24.5 23.0001Z" fill="#1ABC9C"/>
</svg>
