<svg width="316" height="109" viewBox="0 0 316 109" fill="none" xmlns="http://www.w3.org/2000/svg">
<rect width="316" height="109" rx="10" fill="#F6F7FE"/>
<circle cx="41.5" cy="52.5" r="26.5" fill="#FF6F61"/>
<path d="M41.0001 39.6667C33.6481 39.6667 27.6667 45.6481 27.6667 53.0001C27.6667 60.3521 33.6481 66.3334 41.0001 66.3334C48.3521 66.3334 54.3334 60.3521 54.3334 53.0001C54.3334 45.6481 48.3521 39.6667 41.0001 39.6667ZM41.0001 63.6667C35.1187 63.6667 30.3334 58.8814 30.3334 53.0001C30.3334 47.1187 35.1187 42.3334 41.0001 42.3334C46.8814 42.3334 51.6667 47.1187 51.6667 53.0001C51.6667 58.8814 46.8814 63.6667 41.0001 63.6667Z" fill="white"/>
<path d="M38.332 55.116L35.2667 52.056L33.384 53.944L38.3347 58.884L47.276 49.9427L45.3907 48.0574L38.332 55.116Z" fill="white"/>
<path d="M92.43 29.23L89.306 30.11C89.196 29.384 88.602 28.152 86.71 28.152C85.412 28.152 84.576 28.966 84.576 29.824C84.576 30.572 85.038 31.122 86.116 31.32L88.206 31.716C91.176 32.266 92.716 34.18 92.716 36.402C92.716 38.844 90.67 41.33 86.952 41.33C82.64 41.33 80.792 38.536 80.572 36.336L83.762 35.566C83.894 36.996 84.862 38.25 86.996 38.25C88.36 38.25 89.196 37.59 89.196 36.622C89.196 35.83 88.558 35.258 87.524 35.06L85.39 34.664C82.75 34.158 81.144 32.398 81.144 30.088C81.144 27.14 83.74 25.072 86.732 25.072C90.626 25.072 92.1 27.404 92.43 29.23ZM103.9 41H94.0002V25.402H103.878V28.68H97.4762V31.65H103.284V34.708H97.4762V37.7H103.9V41ZM116.176 41L115.054 37.832H109.026L107.904 41H104.252L110.126 25.402H114.152L119.96 41H116.176ZM112.084 29.274L110.17 34.664H113.954L112.084 29.274ZM138.449 41H135.039V30.66L130.969 41H128.153L124.083 30.792V41H120.783V25.402H125.315L129.605 35.94L133.675 25.402H138.449V41ZM150.945 41H140.737V25.402H144.213V37.678H150.945V41ZM161.998 41H152.098V25.402H161.976V28.68H155.574V31.65H161.382V34.708H155.574V37.7H161.998V41ZM174.56 29.23L171.436 30.11C171.326 29.384 170.732 28.152 168.84 28.152C167.542 28.152 166.706 28.966 166.706 29.824C166.706 30.572 167.168 31.122 168.246 31.32L170.336 31.716C173.306 32.266 174.846 34.18 174.846 36.402C174.846 38.844 172.8 41.33 169.082 41.33C164.77 41.33 162.922 38.536 162.702 36.336L165.892 35.566C166.024 36.996 166.992 38.25 169.126 38.25C170.49 38.25 171.326 37.59 171.326 36.622C171.326 35.83 170.688 35.258 169.654 35.06L167.52 34.664C164.88 34.158 163.274 32.398 163.274 30.088C163.274 27.14 165.87 25.072 168.862 25.072C172.756 25.072 174.23 27.404 174.56 29.23ZM186.867 29.23L183.743 30.11C183.633 29.384 183.039 28.152 181.147 28.152C179.849 28.152 179.013 28.966 179.013 29.824C179.013 30.572 179.475 31.122 180.553 31.32L182.643 31.716C185.613 32.266 187.153 34.18 187.153 36.402C187.153 38.844 185.107 41.33 181.389 41.33C177.077 41.33 175.229 38.536 175.009 36.336L178.199 35.566C178.331 36.996 179.299 38.25 181.433 38.25C182.797 38.25 183.633 37.59 183.633 36.622C183.633 35.83 182.995 35.258 181.961 35.06L179.827 34.664C177.187 34.158 175.581 32.398 175.581 30.088C175.581 27.14 178.177 25.072 181.169 25.072C185.063 25.072 186.537 27.404 186.867 29.23Z" fill="#181818"/>
<path d="M88.33 59.446V61H81.204V51.76H88.134V53.314H83.136V55.61H87.07V57.094H83.136V59.446H88.33ZM91.3687 54H93.5807V55.428H91.4527V61H89.5347V55.428H88.3167V54H89.5347V53.16C89.5347 52.3947 89.7727 51.8113 90.2487 51.41C90.7247 50.9993 91.3687 50.794 92.1807 50.794C92.4887 50.794 92.7687 50.8267 93.0207 50.892C93.282 50.9573 93.4873 51.046 93.6367 51.158L93.3707 52.432C93.156 52.292 92.89 52.222 92.5727 52.222C91.77 52.222 91.3687 52.5813 91.3687 53.3V54ZM95.6452 54H97.8572V55.428H95.7292V61H93.8112V55.428H92.5932V54H93.8112V53.16C93.8112 52.3947 94.0492 51.8113 94.5252 51.41C95.0012 50.9993 95.6452 50.794 96.4572 50.794C96.7652 50.794 97.0452 50.8267 97.2972 50.892C97.5586 50.9573 97.7639 51.046 97.9132 51.158L97.6472 52.432C97.4326 52.292 97.1666 52.222 96.8492 52.222C96.0466 52.222 95.6452 52.5813 95.6452 53.3V54ZM101.405 53.86C102.535 53.86 103.412 54.182 104.037 54.826C104.672 55.47 104.989 56.3613 104.989 57.5C104.989 58.6387 104.672 59.53 104.037 60.174C103.412 60.818 102.535 61.14 101.405 61.14C100.276 61.14 99.394 60.818 98.7593 60.174C98.134 59.53 97.8213 58.6387 97.8213 57.5C97.8213 56.3613 98.134 55.47 98.7593 54.826C99.394 54.182 100.276 53.86 101.405 53.86ZM101.405 55.288C100.864 55.288 100.449 55.4747 100.159 55.848C99.8793 56.212 99.7393 56.7627 99.7393 57.5C99.7393 58.2373 99.8793 58.7927 100.159 59.166C100.449 59.53 100.864 59.712 101.405 59.712C101.947 59.712 102.357 59.53 102.637 59.166C102.927 58.7927 103.071 58.2373 103.071 57.5C103.071 56.7627 102.927 56.212 102.637 55.848C102.357 55.4747 101.947 55.288 101.405 55.288ZM109.897 53.86C110.223 53.86 110.475 53.9113 110.653 54.014L110.415 55.694C110.2 55.554 109.906 55.484 109.533 55.484C109.075 55.484 108.679 55.652 108.343 55.988C108.016 56.3147 107.853 56.7767 107.853 57.374V61H105.935V54H107.601L107.727 55.372C108.109 54.364 108.833 53.86 109.897 53.86ZM115.683 60.566C115.459 60.7433 115.174 60.8833 114.829 60.986C114.493 61.0887 114.138 61.14 113.765 61.14C112.206 61.14 111.427 60.4353 111.427 59.026V55.428H110.153V54H111.427V52.39L113.345 51.858V54H115.613V55.428H113.345V58.718C113.345 59.362 113.667 59.684 114.311 59.684C114.722 59.684 115.081 59.5533 115.389 59.292L115.683 60.566ZM118.073 58.774C118.073 59.11 118.12 59.3433 118.213 59.474C118.316 59.6047 118.498 59.67 118.759 59.67C118.918 59.67 119.053 59.6607 119.165 59.642C119.286 59.614 119.426 59.572 119.585 59.516L119.417 60.846C119.268 60.9393 119.072 61.0093 118.829 61.056C118.586 61.112 118.348 61.14 118.115 61.14C117.434 61.14 116.934 60.9767 116.617 60.65C116.309 60.314 116.155 59.782 116.155 59.054V50.934H118.073V58.774ZM126.492 57.472C126.492 57.7333 126.473 57.9853 126.436 58.228H121.48C121.676 59.2173 122.259 59.712 123.23 59.712C123.631 59.712 123.962 59.6373 124.224 59.488C124.485 59.3387 124.667 59.124 124.77 58.844L126.338 59.418C126.114 59.978 125.736 60.4073 125.204 60.706C124.681 60.9953 124.023 61.14 123.23 61.14C122.072 61.14 121.176 60.8227 120.542 60.188C119.907 59.544 119.59 58.648 119.59 57.5C119.59 56.352 119.898 55.4607 120.514 54.826C121.13 54.182 121.998 53.86 123.118 53.86C124.2 53.86 125.031 54.1727 125.61 54.798C126.198 55.4233 126.492 56.3147 126.492 57.472ZM123.104 55.274C122.637 55.274 122.264 55.4093 121.984 55.68C121.713 55.9507 121.54 56.352 121.466 56.884H124.728C124.653 56.3613 124.476 55.9647 124.196 55.694C123.916 55.414 123.552 55.274 123.104 55.274ZM130.118 61.14C128.559 61.14 127.477 60.692 126.87 59.796L127.99 58.648C128.177 59.0493 128.443 59.334 128.788 59.502C129.143 59.6607 129.577 59.74 130.09 59.74C130.501 59.74 130.818 59.684 131.042 59.572C131.266 59.46 131.378 59.306 131.378 59.11C131.378 58.9513 131.271 58.816 131.056 58.704C130.851 58.592 130.491 58.4847 129.978 58.382C128.905 58.1673 128.149 57.8873 127.71 57.542C127.281 57.1873 127.066 56.7113 127.066 56.114C127.066 55.722 127.187 55.3533 127.43 55.008C127.673 54.6627 128.032 54.3873 128.508 54.182C128.984 53.9673 129.553 53.86 130.216 53.86C131 53.86 131.635 53.9813 132.12 54.224C132.605 54.4573 133.011 54.8307 133.338 55.344L132.148 56.352C131.943 55.9787 131.686 55.7033 131.378 55.526C131.079 55.3487 130.701 55.26 130.244 55.26C129.861 55.26 129.553 55.3253 129.32 55.456C129.096 55.5867 128.984 55.7453 128.984 55.932C128.984 56.128 129.096 56.2913 129.32 56.422C129.544 56.5527 129.941 56.674 130.51 56.786C131.527 56.9913 132.246 57.262 132.666 57.598C133.095 57.9247 133.31 58.382 133.31 58.97C133.31 59.6233 133.03 60.1507 132.47 60.552C131.919 60.944 131.135 61.14 130.118 61.14ZM136.856 61.14C135.297 61.14 134.214 60.692 133.608 59.796L134.728 58.648C134.914 59.0493 135.18 59.334 135.526 59.502C135.88 59.6607 136.314 59.74 136.828 59.74C137.238 59.74 137.556 59.684 137.78 59.572C138.004 59.46 138.116 59.306 138.116 59.11C138.116 58.9513 138.008 58.816 137.794 58.704C137.588 58.592 137.229 58.4847 136.716 58.382C135.642 58.1673 134.886 57.8873 134.448 57.542C134.018 57.1873 133.804 56.7113 133.804 56.114C133.804 55.722 133.925 55.3533 134.168 55.008C134.41 54.6627 134.77 54.3873 135.246 54.182C135.722 53.9673 136.291 53.86 136.954 53.86C137.738 53.86 138.372 53.9813 138.858 54.224C139.343 54.4573 139.749 54.8307 140.076 55.344L138.886 56.352C138.68 55.9787 138.424 55.7033 138.116 55.526C137.817 55.3487 137.439 55.26 136.982 55.26C136.599 55.26 136.291 55.3253 136.058 55.456C135.834 55.5867 135.722 55.7453 135.722 55.932C135.722 56.128 135.834 56.2913 136.058 56.422C136.282 56.5527 136.678 56.674 137.248 56.786C138.265 56.9913 138.984 57.262 139.404 57.598C139.833 57.9247 140.048 58.382 140.048 58.97C140.048 59.6233 139.768 60.1507 139.208 60.552C138.657 60.944 137.873 61.14 136.856 61.14ZM148.53 51.76C149.604 51.76 150.439 52.0213 151.036 52.544C151.634 53.0573 151.932 53.7853 151.932 54.728C151.932 55.6427 151.634 56.3567 151.036 56.87C150.439 57.3833 149.604 57.64 148.53 57.64H146.584V61H144.652V51.76H148.53ZM148.236 56.142C148.834 56.142 149.272 56.0253 149.552 55.792C149.832 55.5493 149.972 55.19 149.972 54.714C149.972 54.238 149.832 53.8833 149.552 53.65C149.272 53.4167 148.834 53.3 148.236 53.3H146.584V56.142H148.236ZM154.697 58.774C154.697 59.11 154.744 59.3433 154.837 59.474C154.94 59.6047 155.122 59.67 155.383 59.67C155.542 59.67 155.677 59.6607 155.789 59.642C155.911 59.614 156.051 59.572 156.209 59.516L156.041 60.846C155.892 60.9393 155.696 61.0093 155.453 61.056C155.211 61.112 154.973 61.14 154.739 61.14C154.058 61.14 153.559 60.9767 153.241 60.65C152.933 60.314 152.779 59.782 152.779 59.054V50.934H154.697V58.774ZM162.99 59.838C163.186 59.838 163.344 59.8193 163.466 59.782L163.326 60.944C163.064 61.0747 162.761 61.14 162.416 61.14C161.52 61.14 160.983 60.79 160.806 60.09C160.6 60.4353 160.283 60.6967 159.854 60.874C159.424 61.0513 158.916 61.14 158.328 61.14C157.646 61.14 157.114 60.986 156.732 60.678C156.349 60.37 156.158 59.9267 156.158 59.348C156.158 58.2093 157.068 57.472 158.888 57.136L160.568 56.814V56.478C160.568 56.1047 160.46 55.8107 160.246 55.596C160.04 55.372 159.751 55.26 159.378 55.26C158.948 55.26 158.598 55.3533 158.328 55.54C158.057 55.7267 157.87 56.03 157.768 56.45L156.242 55.806C156.391 55.1993 156.727 54.7233 157.25 54.378C157.772 54.0327 158.454 53.86 159.294 53.86C160.292 53.86 161.072 54.0793 161.632 54.518C162.192 54.9473 162.472 55.5867 162.472 56.436V59.306C162.472 59.4927 162.514 59.628 162.598 59.712C162.682 59.796 162.812 59.838 162.99 59.838ZM158.93 59.838C159.34 59.838 159.714 59.74 160.05 59.544C160.395 59.3387 160.568 59.0633 160.568 58.718V57.99L159.07 58.326C158.752 58.4007 158.514 58.5033 158.356 58.634C158.206 58.7553 158.132 58.928 158.132 59.152C158.132 59.376 158.202 59.5487 158.342 59.67C158.482 59.782 158.678 59.838 158.93 59.838ZM168.103 53.86C168.859 53.86 169.465 54.0793 169.923 54.518C170.389 54.9567 170.623 55.5867 170.623 56.408V61H168.705V56.968C168.705 55.904 168.289 55.372 167.459 55.372C167.011 55.372 166.628 55.5307 166.311 55.848C166.003 56.1653 165.849 56.6507 165.849 57.304V61H163.931V54H165.653L165.709 55.246C165.942 54.7887 166.264 54.4433 166.675 54.21C167.085 53.9767 167.561 53.86 168.103 53.86ZM176.071 53.86C176.827 53.86 177.433 54.0793 177.891 54.518C178.357 54.9567 178.591 55.5867 178.591 56.408V61H176.673V56.968C176.673 55.904 176.257 55.372 175.427 55.372C174.979 55.372 174.596 55.5307 174.279 55.848C173.971 56.1653 173.817 56.6507 173.817 57.304V61H171.899V54H173.621L173.677 55.246C173.91 54.7887 174.232 54.4433 174.643 54.21C175.053 53.9767 175.529 53.86 176.071 53.86ZM180.833 52.992C180.039 52.992 179.643 52.6513 179.643 51.97C179.643 51.2793 180.039 50.934 180.833 50.934C181.626 50.934 182.023 51.2793 182.023 51.97C182.023 52.6513 181.626 52.992 180.833 52.992ZM181.785 61H179.867V54H181.785V61ZM187.29 53.86C188.046 53.86 188.652 54.0793 189.11 54.518C189.576 54.9567 189.81 55.5867 189.81 56.408V61H187.892V56.968C187.892 55.904 187.476 55.372 186.646 55.372C186.198 55.372 185.815 55.5307 185.498 55.848C185.19 56.1653 185.036 56.6507 185.036 57.304V61H183.118V54H184.84L184.896 55.246C185.129 54.7887 185.451 54.4433 185.862 54.21C186.272 53.9767 186.748 53.86 187.29 53.86ZM195.342 59.684C196.107 59.684 196.695 59.852 197.106 60.188C197.526 60.524 197.736 61.0047 197.736 61.63C197.736 62.3767 197.39 62.96 196.7 63.38C196.009 63.8 195.099 64.01 193.97 64.01C192.803 64.01 191.935 63.856 191.366 63.548C190.806 63.24 190.526 62.82 190.526 62.288C190.526 61.9707 190.633 61.6953 190.848 61.462C191.062 61.2287 191.38 61.0607 191.8 60.958C191.482 60.8273 191.23 60.6453 191.044 60.412C190.857 60.1693 190.764 59.8847 190.764 59.558C190.764 59.222 190.862 58.9327 191.058 58.69C191.254 58.4473 191.524 58.2653 191.87 58.144C191.515 57.9387 191.244 57.6773 191.058 57.36C190.871 57.0333 190.778 56.66 190.778 56.24C190.778 55.5027 191.062 54.924 191.632 54.504C192.21 54.0747 192.994 53.86 193.984 53.86C194.488 53.86 194.959 53.9207 195.398 54.042C195.519 53.4913 195.752 53.062 196.098 52.754C196.452 52.4367 196.928 52.2967 197.526 52.334L197.778 53.706C197.712 53.6967 197.614 53.692 197.484 53.692C197.138 53.692 196.849 53.7527 196.616 53.874C196.392 53.9953 196.233 54.1587 196.14 54.364C196.485 54.5693 196.746 54.8307 196.924 55.148C197.11 55.4653 197.204 55.8293 197.204 56.24C197.204 56.968 196.914 57.5467 196.336 57.976C195.766 58.396 194.982 58.606 193.984 58.606C193.526 58.606 193.106 58.564 192.724 58.48C192.36 58.5733 192.178 58.7833 192.178 59.11C192.178 59.2967 192.248 59.4413 192.388 59.544C192.528 59.6373 192.724 59.684 192.976 59.684H195.342ZM193.984 55.064C193.61 55.064 193.302 55.1713 193.06 55.386C192.826 55.6007 192.71 55.8807 192.71 56.226C192.71 56.5807 192.826 56.8653 193.06 57.08C193.302 57.2947 193.61 57.402 193.984 57.402C194.366 57.402 194.674 57.2947 194.908 57.08C195.15 56.8653 195.272 56.5807 195.272 56.226C195.272 55.8807 195.15 55.6007 194.908 55.386C194.674 55.1713 194.366 55.064 193.984 55.064ZM194.124 62.694C194.777 62.694 195.281 62.61 195.636 62.442C195.99 62.2833 196.168 62.078 196.168 61.826C196.168 61.63 196.084 61.4807 195.916 61.378C195.757 61.2847 195.491 61.238 195.118 61.238H193.214C192.439 61.238 192.052 61.448 192.052 61.868C192.052 62.1293 192.224 62.33 192.57 62.47C192.915 62.6193 193.433 62.694 194.124 62.694ZM209.471 61.14C208.995 61.14 208.589 61.0793 208.253 60.958C207.917 60.8367 207.534 60.5847 207.105 60.202C206.769 60.5007 206.372 60.734 205.915 60.902C205.458 61.0607 204.954 61.14 204.403 61.14C203.46 61.14 202.7 60.916 202.121 60.468C201.552 60.0107 201.267 59.3993 201.267 58.634C201.267 58.1113 201.421 57.626 201.729 57.178C202.046 56.73 202.564 56.3567 203.283 56.058C202.891 55.5913 202.625 55.1993 202.485 54.882C202.345 54.5647 202.275 54.224 202.275 53.86C202.275 53.4773 202.373 53.118 202.569 52.782C202.765 52.4367 203.054 52.1567 203.437 51.942C203.829 51.7273 204.3 51.62 204.851 51.62C205.635 51.62 206.256 51.8067 206.713 52.18C207.17 52.5533 207.399 53.062 207.399 53.706C207.399 54.2473 207.25 54.728 206.951 55.148C206.652 55.5587 206.148 55.9273 205.439 56.254C205.822 56.6833 206.083 56.982 206.223 57.15L206.573 57.542C206.9 57.9247 207.119 58.1767 207.231 58.298C207.539 57.6913 207.674 56.982 207.637 56.17L208.967 56.24C208.986 56.8 208.916 57.3273 208.757 57.822C208.608 58.3167 208.379 58.76 208.071 59.152C208.323 59.3853 208.552 59.5487 208.757 59.642C208.972 59.7353 209.205 59.782 209.457 59.782C209.569 59.782 209.653 59.7773 209.709 59.768L209.471 61.14ZM204.879 52.964C204.59 52.964 204.361 53.0527 204.193 53.23C204.034 53.398 203.955 53.622 203.955 53.902C203.955 54.1167 204.006 54.3267 204.109 54.532C204.212 54.7373 204.426 55.036 204.753 55.428C205.192 55.148 205.481 54.8867 205.621 54.644C205.761 54.392 205.831 54.1073 205.831 53.79C205.831 53.5193 205.747 53.314 205.579 53.174C205.411 53.034 205.178 52.964 204.879 52.964ZM202.933 58.536C202.933 58.9093 203.082 59.2173 203.381 59.46C203.689 59.6933 204.072 59.81 204.529 59.81C205.154 59.81 205.724 59.6607 206.237 59.362C205.892 58.998 205.551 58.6247 205.215 58.242L204.949 57.948C204.538 57.5 204.24 57.1687 204.053 56.954C203.614 57.2527 203.316 57.5187 203.157 57.752C203.008 57.976 202.933 58.2373 202.933 58.536ZM220.928 59.446V61H213.802V51.76H220.732V53.314H215.734V55.61H219.668V57.094H215.734V59.446H220.928ZM226.287 61L224.705 58.452L223.095 61H220.953L223.529 57.458L221.079 54H223.291L224.789 56.45L226.287 54H228.443L225.965 57.458L228.485 61H226.287ZM235.232 57.472C235.232 57.7333 235.214 57.9853 235.176 58.228H230.22C230.416 59.2173 231 59.712 231.97 59.712C232.372 59.712 232.703 59.6373 232.964 59.488C233.226 59.3387 233.408 59.124 233.51 58.844L235.078 59.418C234.854 59.978 234.476 60.4073 233.944 60.706C233.422 60.9953 232.764 61.14 231.97 61.14C230.813 61.14 229.917 60.8227 229.282 60.188C228.648 59.544 228.33 58.648 228.33 57.5C228.33 56.352 228.638 55.4607 229.254 54.826C229.87 54.182 230.738 53.86 231.858 53.86C232.941 53.86 233.772 54.1727 234.35 54.798C234.938 55.4233 235.232 56.3147 235.232 57.472ZM231.844 55.274C231.378 55.274 231.004 55.4093 230.724 55.68C230.454 55.9507 230.281 56.352 230.206 56.884H233.468C233.394 56.3613 233.216 55.9647 232.936 55.694C232.656 55.414 232.292 55.274 231.844 55.274ZM239.349 53.86C240.273 53.86 240.991 54.0467 241.505 54.42C242.018 54.7933 242.368 55.2927 242.555 55.918L240.763 56.562C240.595 55.7127 240.142 55.288 239.405 55.288C238.854 55.288 238.429 55.4793 238.131 55.862C237.841 56.2353 237.697 56.786 237.697 57.514C237.697 58.242 237.846 58.7927 238.145 59.166C238.443 59.53 238.859 59.712 239.391 59.712C240.212 59.712 240.697 59.2967 240.847 58.466L242.583 59.026C242.433 59.67 242.083 60.1833 241.533 60.566C240.991 60.9487 240.287 61.14 239.419 61.14C238.261 61.14 237.365 60.8227 236.731 60.188C236.096 59.544 235.779 58.648 235.779 57.5C235.779 56.352 236.091 55.4607 236.717 54.826C237.351 54.182 238.229 53.86 239.349 53.86ZM250.063 54V61H248.355L248.285 59.796C247.837 60.692 247.021 61.14 245.835 61.14C245.079 61.14 244.477 60.9393 244.029 60.538C243.591 60.1273 243.371 59.4927 243.371 58.634V54H245.289V58.144C245.289 58.6853 245.392 59.068 245.597 59.292C245.803 59.516 246.106 59.628 246.507 59.628C246.993 59.628 247.385 59.474 247.683 59.166C247.991 58.8487 248.145 58.3773 248.145 57.752V54H250.063ZM256.183 60.566C255.959 60.7433 255.675 60.8833 255.329 60.986C254.993 61.0887 254.639 61.14 254.265 61.14C252.707 61.14 251.927 60.4353 251.927 59.026V55.428H250.653V54H251.927V52.39L253.845 51.858V54H256.113V55.428H253.845V58.718C253.845 59.362 254.167 59.684 254.811 59.684C255.222 59.684 255.581 59.5533 255.889 59.292L256.183 60.566ZM257.649 52.992C256.856 52.992 256.459 52.6513 256.459 51.97C256.459 51.2793 256.856 50.934 257.649 50.934C258.443 50.934 258.839 51.2793 258.839 51.97C258.839 52.6513 258.443 52.992 257.649 52.992ZM258.601 61H256.683V54H258.601V61ZM263.155 53.86C264.284 53.86 265.161 54.182 265.787 54.826C266.421 55.47 266.739 56.3613 266.739 57.5C266.739 58.6387 266.421 59.53 265.787 60.174C265.161 60.818 264.284 61.14 263.155 61.14C262.025 61.14 261.143 60.818 260.509 60.174C259.883 59.53 259.571 58.6387 259.571 57.5C259.571 56.3613 259.883 55.47 260.509 54.826C261.143 54.182 262.025 53.86 263.155 53.86ZM263.155 55.288C262.613 55.288 262.198 55.4747 261.909 55.848C261.629 56.212 261.489 56.7627 261.489 57.5C261.489 58.2373 261.629 58.7927 261.909 59.166C262.198 59.53 262.613 59.712 263.155 59.712C263.696 59.712 264.107 59.53 264.387 59.166C264.676 58.7927 264.821 58.2373 264.821 57.5C264.821 56.7627 264.676 56.212 264.387 55.848C264.107 55.4747 263.696 55.288 263.155 55.288ZM271.856 53.86C272.612 53.86 273.218 54.0793 273.676 54.518C274.142 54.9567 274.376 55.5867 274.376 56.408V61H272.458V56.968C272.458 55.904 272.042 55.372 271.212 55.372C270.764 55.372 270.381 55.5307 270.064 55.848C269.756 56.1653 269.602 56.6507 269.602 57.304V61H267.684V54H269.406L269.462 55.246C269.695 54.7887 270.017 54.4433 270.428 54.21C270.838 53.9767 271.314 53.86 271.856 53.86Z" fill="#666666"/>
<path d="M83.2 69.3C84.38 69.3 85.23 69.7667 85.75 70.7L85.06 71.26C84.86 70.82 84.62 70.51 84.34 70.33C84.0667 70.1433 83.69 70.05 83.21 70.05C82.7033 70.05 82.3033 70.1567 82.01 70.37C81.7233 70.5767 81.58 70.8433 81.58 71.17C81.58 71.3833 81.6367 71.56 81.75 71.7C81.8633 71.84 82.05 71.9633 82.31 72.07C82.5767 72.17 82.9433 72.26 83.41 72.34C84.2833 72.4867 84.9 72.7067 85.26 73C85.6267 73.2933 85.81 73.7 85.81 74.22C85.81 74.5933 85.7033 74.9233 85.49 75.21C85.2833 75.49 84.9867 75.71 84.6 75.87C84.2133 76.0233 83.7667 76.1 83.26 76.1C82.5933 76.1 82.0233 75.97 81.55 75.71C81.0833 75.45 80.7267 75.1033 80.48 74.67L81.17 74.11C81.35 74.5033 81.6133 74.81 81.96 75.03C82.3133 75.2433 82.7533 75.35 83.28 75.35C83.8 75.35 84.2133 75.2567 84.52 75.07C84.8267 74.8767 84.98 74.6067 84.98 74.26C84.98 73.9667 84.8467 73.7333 84.58 73.56C84.3133 73.3867 83.84 73.24 83.16 73.12C82.28 72.9667 81.6567 72.7467 81.29 72.46C80.9233 72.1733 80.74 71.7733 80.74 71.26C80.74 70.9067 80.84 70.58 81.04 70.28C81.24 69.98 81.5267 69.7433 81.9 69.57C82.2733 69.39 82.7067 69.3 83.2 69.3ZM90.8386 75.42C90.9719 75.42 91.1053 75.4033 91.2386 75.37L91.1886 76C91.0019 76.0667 90.8019 76.1 90.5886 76.1C90.3286 76.1 90.1219 76.0433 89.9686 75.93C89.8219 75.8167 89.7286 75.6267 89.6886 75.36C89.5353 75.5933 89.3086 75.7767 89.0086 75.91C88.7153 76.0367 88.4053 76.1 88.0786 76.1C87.5853 76.1 87.1786 75.9867 86.8586 75.76C86.5386 75.5267 86.3786 75.1933 86.3786 74.76C86.3786 74.38 86.5453 74.0533 86.8786 73.78C87.2119 73.5 87.6953 73.3067 88.3286 73.2L89.6586 72.98V72.7C89.6586 72.3667 89.5553 72.1 89.3486 71.9C89.1419 71.7 88.8553 71.6 88.4886 71.6C88.1553 71.6 87.8653 71.68 87.6186 71.84C87.3786 72 87.1919 72.2367 87.0586 72.55L86.4686 72.12C86.6019 71.7467 86.8486 71.45 87.2086 71.23C87.5753 71.01 88.0019 70.9 88.4886 70.9C89.0819 70.9 89.5586 71.0433 89.9186 71.33C90.2786 71.6167 90.4586 72.04 90.4586 72.6V75.06C90.4586 75.18 90.4886 75.27 90.5486 75.33C90.6086 75.39 90.7053 75.42 90.8386 75.42ZM88.1186 75.4C88.5386 75.4 88.8986 75.3 89.1986 75.1C89.5053 74.9 89.6586 74.64 89.6586 74.32V73.63L88.5386 73.84C88.0919 73.92 87.7586 74.0367 87.5386 74.19C87.3186 74.3367 87.2086 74.5267 87.2086 74.76C87.2086 74.9667 87.2886 75.1267 87.4486 75.24C87.6086 75.3467 87.8319 75.4 88.1186 75.4ZM93.5097 76.84C93.3164 77.32 93.0997 77.6567 92.8597 77.85C92.6197 78.05 92.3097 78.15 91.9297 78.15C91.6764 78.15 91.463 78.1167 91.2897 78.05C91.123 77.9833 90.9697 77.8767 90.8297 77.73L91.1097 77.05C91.303 77.3167 91.573 77.45 91.9197 77.45C92.113 77.45 92.283 77.39 92.4297 77.27C92.583 77.1567 92.7164 76.9467 92.8297 76.64L93.0897 75.99L90.9997 71H91.9097L93.1597 74.26L93.4697 75.15L93.8297 74.16L94.9997 71H95.8597L93.5097 76.84ZM101.906 75.36C102.379 75.36 102.749 75.4667 103.016 75.68C103.282 75.8933 103.416 76.1833 103.416 76.55C103.416 76.87 103.306 77.15 103.086 77.39C102.866 77.6367 102.566 77.8233 102.186 77.95C101.812 78.0833 101.399 78.15 100.946 78.15C100.186 78.15 99.6122 78.0267 99.2255 77.78C98.8389 77.54 98.6455 77.2233 98.6455 76.83C98.6455 76.6033 98.7222 76.4033 98.8755 76.23C99.0355 76.0567 99.2522 75.9333 99.5255 75.86C99.3189 75.76 99.1522 75.6333 99.0255 75.48C98.9055 75.3267 98.8455 75.1467 98.8455 74.94C98.8455 74.6933 98.9122 74.49 99.0455 74.33C99.1789 74.1633 99.3622 74.04 99.5955 73.96C99.3555 73.8133 99.1722 73.6233 99.0455 73.39C98.9255 73.15 98.8655 72.8833 98.8655 72.59C98.8655 72.2633 98.9522 71.9733 99.1255 71.72C99.2989 71.46 99.5422 71.26 99.8555 71.12C100.169 70.9733 100.522 70.9 100.916 70.9C101.289 70.9 101.629 70.9667 101.936 71.1C102.122 70.42 102.592 70.08 103.346 70.08L103.526 70.78C102.872 70.78 102.476 70.9633 102.336 71.33C102.536 71.4833 102.689 71.6667 102.796 71.88C102.909 72.0933 102.966 72.33 102.966 72.59C102.966 72.9167 102.879 73.21 102.706 73.47C102.532 73.7233 102.289 73.9233 101.976 74.07C101.662 74.21 101.309 74.28 100.916 74.28C100.622 74.28 100.366 74.25 100.146 74.19C99.9455 74.2367 99.8022 74.31 99.7155 74.41C99.6289 74.51 99.5855 74.6467 99.5855 74.82C99.5855 74.9933 99.6455 75.1267 99.7655 75.22C99.8855 75.3133 100.046 75.36 100.246 75.36H101.906ZM100.916 71.55C100.569 71.55 100.279 71.6467 100.046 71.84C99.8122 72.0333 99.6955 72.2833 99.6955 72.59C99.6955 72.8967 99.8122 73.1467 100.046 73.34C100.279 73.5333 100.569 73.63 100.916 73.63C101.262 73.63 101.552 73.5333 101.786 73.34C102.019 73.1467 102.136 72.8967 102.136 72.59C102.136 72.2833 102.019 72.0333 101.786 71.84C101.552 71.6467 101.262 71.55 100.916 71.55ZM101.036 77.48C101.542 77.48 101.942 77.3967 102.236 77.23C102.529 77.07 102.676 76.8733 102.676 76.64C102.676 76.4467 102.599 76.3 102.446 76.2C102.299 76.1 102.046 76.05 101.686 76.05H100.346C100.039 76.05 99.8022 76.1033 99.6355 76.21C99.4689 76.3233 99.3855 76.4767 99.3855 76.67C99.3855 76.9233 99.5255 77.12 99.8055 77.26C100.086 77.4067 100.496 77.48 101.036 77.48ZM106.214 70.9C106.967 70.9 107.557 71.13 107.984 71.59C108.417 72.05 108.634 72.6867 108.634 73.5C108.634 74.3133 108.417 74.95 107.984 75.41C107.557 75.87 106.967 76.1 106.214 76.1C105.46 76.1 104.867 75.87 104.434 75.41C104.007 74.95 103.794 74.3133 103.794 73.5C103.794 72.6867 104.007 72.05 104.434 71.59C104.867 71.13 105.46 70.9 106.214 70.9ZM106.214 71.59C105.707 71.59 105.31 71.76 105.024 72.1C104.737 72.44 104.594 72.9067 104.594 73.5C104.594 74.0933 104.737 74.56 105.024 74.9C105.31 75.24 105.707 75.41 106.214 75.41C106.72 75.41 107.117 75.24 107.404 74.9C107.69 74.56 107.834 74.0933 107.834 73.5C107.834 72.9067 107.69 72.44 107.404 72.1C107.117 71.76 106.72 71.59 106.214 71.59ZM111.798 70.9C112.551 70.9 113.141 71.13 113.568 71.59C114.001 72.05 114.218 72.6867 114.218 73.5C114.218 74.3133 114.001 74.95 113.568 75.41C113.141 75.87 112.551 76.1 111.798 76.1C111.044 76.1 110.451 75.87 110.018 75.41C109.591 74.95 109.378 74.3133 109.378 73.5C109.378 72.6867 109.591 72.05 110.018 71.59C110.451 71.13 111.044 70.9 111.798 70.9ZM111.798 71.59C111.291 71.59 110.894 71.76 110.608 72.1C110.321 72.44 110.178 72.9067 110.178 73.5C110.178 74.0933 110.321 74.56 110.608 74.9C110.894 75.24 111.291 75.41 111.798 75.41C112.304 75.41 112.701 75.24 112.988 74.9C113.274 74.56 113.418 74.0933 113.418 73.5C113.418 72.9067 113.274 72.44 112.988 72.1C112.701 71.76 112.304 71.59 111.798 71.59ZM119.712 68.7V76H119.012L118.962 75.13C118.815 75.4233 118.588 75.66 118.282 75.84C117.982 76.0133 117.638 76.1 117.252 76.1C116.552 76.1 115.995 75.87 115.582 75.41C115.175 74.9433 114.972 74.3067 114.972 73.5C114.972 72.6933 115.175 72.06 115.582 71.6C115.995 71.1333 116.552 70.9 117.252 70.9C117.618 70.9 117.945 70.98 118.232 71.14C118.525 71.3 118.752 71.5133 118.912 71.78V68.7H119.712ZM117.342 75.4C117.822 75.4 118.202 75.2333 118.482 74.9C118.768 74.5667 118.912 74.12 118.912 73.56V73.44C118.912 72.88 118.768 72.4333 118.482 72.1C118.202 71.7667 117.822 71.6 117.342 71.6C116.855 71.6 116.472 71.7733 116.192 72.12C115.912 72.46 115.772 72.92 115.772 73.5C115.772 74.08 115.912 74.5433 116.192 74.89C116.472 75.23 116.855 75.4 117.342 75.4ZM123.531 70.9C124.231 70.9 124.784 71.1333 125.191 71.6C125.604 72.06 125.811 72.6933 125.811 73.5C125.811 74.3067 125.604 74.9433 125.191 75.41C124.784 75.87 124.231 76.1 123.531 76.1C123.144 76.1 122.797 76.0133 122.491 75.84C122.191 75.66 121.967 75.4233 121.821 75.13L121.771 76H121.071V68.7H121.871V71.78C122.031 71.5133 122.254 71.3 122.541 71.14C122.834 70.98 123.164 70.9 123.531 70.9ZM123.441 75.4C123.927 75.4 124.311 75.23 124.591 74.89C124.871 74.5433 125.011 74.08 125.011 73.5C125.011 72.92 124.871 72.46 124.591 72.12C124.311 71.7733 123.927 71.6 123.441 71.6C122.961 71.6 122.577 71.7667 122.291 72.1C122.011 72.4333 121.871 72.88 121.871 73.44V73.56C121.871 74.12 122.011 74.5667 122.291 74.9C122.577 75.2333 122.961 75.4 123.441 75.4ZM128.623 76.84C128.43 77.32 128.213 77.6567 127.973 77.85C127.733 78.05 127.423 78.15 127.043 78.15C126.79 78.15 126.576 78.1167 126.403 78.05C126.236 77.9833 126.083 77.8767 125.943 77.73L126.223 77.05C126.416 77.3167 126.686 77.45 127.033 77.45C127.226 77.45 127.396 77.39 127.543 77.27C127.696 77.1567 127.83 76.9467 127.943 76.64L128.203 75.99L126.113 71H127.023L128.273 74.26L128.583 75.15L128.943 74.16L130.113 71H130.973L128.623 76.84ZM135.865 73.24C135.865 73.4267 135.851 73.6133 135.825 73.8H132.055C132.101 74.3067 132.268 74.7 132.555 74.98C132.848 75.26 133.225 75.4 133.685 75.4C134.051 75.4 134.355 75.3367 134.595 75.21C134.841 75.0833 135.008 74.9 135.095 74.66L135.765 75.01C135.565 75.3633 135.298 75.6333 134.965 75.82C134.631 76.0067 134.205 76.1 133.685 76.1C132.931 76.1 132.338 75.87 131.905 75.41C131.478 74.95 131.265 74.3133 131.265 73.5C131.265 72.6867 131.468 72.05 131.875 71.59C132.288 71.13 132.871 70.9 133.625 70.9C134.091 70.9 134.495 71.0033 134.835 71.21C135.175 71.4167 135.431 71.6967 135.605 72.05C135.778 72.4033 135.865 72.8 135.865 73.24ZM133.625 71.6C133.185 71.6 132.828 71.73 132.555 71.99C132.288 72.25 132.125 72.6167 132.065 73.09H135.095C135.041 72.6233 134.888 72.26 134.635 72C134.381 71.7333 134.045 71.6 133.625 71.6ZM142.658 75.65C142.325 75.95 141.895 76.1 141.368 76.1C140.961 76.1 140.628 75.99 140.368 75.77C140.115 75.55 139.985 75.2133 139.978 74.76V71.69H138.978V71H139.978V69.8L140.778 69.58V71H142.628V71.69H140.778V74.62C140.778 74.86 140.845 75.0433 140.978 75.17C141.118 75.29 141.301 75.35 141.528 75.35C141.848 75.35 142.131 75.2267 142.378 74.98L142.658 75.65ZM145.397 70.9C146.151 70.9 146.741 71.13 147.167 71.59C147.601 72.05 147.817 72.6867 147.817 73.5C147.817 74.3133 147.601 74.95 147.167 75.41C146.741 75.87 146.151 76.1 145.397 76.1C144.644 76.1 144.051 75.87 143.617 75.41C143.191 74.95 142.977 74.3133 142.977 73.5C142.977 72.6867 143.191 72.05 143.617 71.59C144.051 71.13 144.644 70.9 145.397 70.9ZM145.397 71.59C144.891 71.59 144.494 71.76 144.207 72.1C143.921 72.44 143.777 72.9067 143.777 73.5C143.777 74.0933 143.921 74.56 144.207 74.9C144.494 75.24 144.891 75.41 145.397 75.41C145.904 75.41 146.301 75.24 146.587 74.9C146.874 74.56 147.017 74.0933 147.017 73.5C147.017 72.9067 146.874 72.44 146.587 72.1C146.301 71.76 145.904 71.59 145.397 71.59ZM153.89 70.9C154.39 70.9 154.81 71.0167 155.15 71.25C155.496 71.4767 155.766 71.8033 155.96 72.23L155.2 72.59C154.986 71.93 154.543 71.6 153.87 71.6C153.37 71.6 152.976 71.77 152.69 72.11C152.41 72.4433 152.27 72.9067 152.27 73.5C152.27 74.0933 152.41 74.56 152.69 74.9C152.976 75.2333 153.37 75.4 153.87 75.4C154.256 75.4 154.566 75.3133 154.8 75.14C155.04 74.96 155.196 74.7033 155.27 74.37L156.01 74.63C155.836 75.0967 155.57 75.46 155.21 75.72C154.85 75.9733 154.41 76.1 153.89 76.1C153.136 76.1 152.543 75.87 152.11 75.41C151.683 74.95 151.47 74.3133 151.47 73.5C151.47 72.6867 151.683 72.05 152.11 71.59C152.543 71.13 153.136 70.9 153.89 70.9ZM159.354 70.9C159.921 70.9 160.387 71.0633 160.754 71.39C161.121 71.7167 161.304 72.1867 161.304 72.8V76H160.504V73.08C160.504 72.56 160.391 72.1833 160.164 71.95C159.944 71.7167 159.647 71.6 159.274 71.6C159.014 71.6 158.764 71.66 158.524 71.78C158.291 71.9 158.097 72.0933 157.944 72.36C157.797 72.62 157.724 72.95 157.724 73.35V76H156.924V68.7H157.724V71.75C157.891 71.4633 158.114 71.25 158.394 71.11C158.681 70.97 159.001 70.9 159.354 70.9ZM166.716 75.42C166.849 75.42 166.982 75.4033 167.116 75.37L167.066 76C166.879 76.0667 166.679 76.1 166.466 76.1C166.206 76.1 165.999 76.0433 165.846 75.93C165.699 75.8167 165.606 75.6267 165.566 75.36C165.412 75.5933 165.186 75.7767 164.886 75.91C164.592 76.0367 164.282 76.1 163.956 76.1C163.462 76.1 163.056 75.9867 162.736 75.76C162.416 75.5267 162.256 75.1933 162.256 74.76C162.256 74.38 162.422 74.0533 162.756 73.78C163.089 73.5 163.572 73.3067 164.206 73.2L165.536 72.98V72.7C165.536 72.3667 165.432 72.1 165.226 71.9C165.019 71.7 164.732 71.6 164.366 71.6C164.032 71.6 163.742 71.68 163.496 71.84C163.256 72 163.069 72.2367 162.936 72.55L162.346 72.12C162.479 71.7467 162.726 71.45 163.086 71.23C163.452 71.01 163.879 70.9 164.366 70.9C164.959 70.9 165.436 71.0433 165.796 71.33C166.156 71.6167 166.336 72.04 166.336 72.6V75.06C166.336 75.18 166.366 75.27 166.426 75.33C166.486 75.39 166.582 75.42 166.716 75.42ZM163.996 75.4C164.416 75.4 164.776 75.3 165.076 75.1C165.382 74.9 165.536 74.64 165.536 74.32V73.63L164.416 73.84C163.969 73.92 163.636 74.0367 163.416 74.19C163.196 74.3367 163.086 74.5267 163.086 74.76C163.086 74.9667 163.166 75.1267 163.326 75.24C163.486 75.3467 163.709 75.4 163.996 75.4ZM169.89 70.9C170.643 70.9 171.233 71.13 171.66 71.59C172.093 72.05 172.31 72.6867 172.31 73.5C172.31 74.3133 172.093 74.95 171.66 75.41C171.233 75.87 170.643 76.1 169.89 76.1C169.136 76.1 168.543 75.87 168.11 75.41C167.683 74.95 167.47 74.3133 167.47 73.5C167.47 72.6867 167.683 72.05 168.11 71.59C168.543 71.13 169.136 70.9 169.89 70.9ZM169.89 71.59C169.383 71.59 168.986 71.76 168.7 72.1C168.413 72.44 168.27 72.9067 168.27 73.5C168.27 74.0933 168.413 74.56 168.7 74.9C168.986 75.24 169.383 75.41 169.89 75.41C170.396 75.41 170.793 75.24 171.08 74.9C171.366 74.56 171.51 74.0933 171.51 73.5C171.51 72.9067 171.366 72.44 171.08 72.1C170.793 71.76 170.396 71.59 169.89 71.59ZM175.064 76.1C174.584 76.1 174.15 76.0067 173.764 75.82C173.377 75.6267 173.094 75.3433 172.914 74.97L173.564 74.52C173.677 74.8133 173.874 75.0333 174.154 75.18C174.434 75.3267 174.764 75.4 175.144 75.4C175.537 75.4 175.837 75.33 176.044 75.19C176.25 75.05 176.354 74.8733 176.354 74.66C176.354 74.4667 176.257 74.3133 176.064 74.2C175.87 74.08 175.53 73.9767 175.044 73.89C174.564 73.8033 174.184 73.7 173.904 73.58C173.624 73.4533 173.42 73.2967 173.294 73.11C173.167 72.9167 173.104 72.68 173.104 72.4C173.104 72.1267 173.184 71.8767 173.344 71.65C173.504 71.4233 173.734 71.2433 174.034 71.11C174.334 70.97 174.68 70.9 175.074 70.9C175.607 70.9 176.034 71 176.354 71.2C176.68 71.3933 176.914 71.6933 177.054 72.1L176.374 72.5C176.267 72.18 176.104 71.95 175.884 71.81C175.67 71.67 175.4 71.6 175.074 71.6C174.747 71.6 174.47 71.6733 174.244 71.82C174.017 71.9667 173.904 72.1367 173.904 72.33C173.904 72.55 174 72.72 174.194 72.84C174.394 72.96 174.747 73.0633 175.254 73.15C175.947 73.2633 176.437 73.4333 176.724 73.66C177.01 73.8867 177.154 74.2067 177.154 74.62C177.154 74.9067 177.067 75.1633 176.894 75.39C176.727 75.61 176.484 75.7833 176.164 75.91C175.85 76.0367 175.484 76.1 175.064 76.1ZM178.987 72.26L178.867 73.92H178.267L178.147 72.26V69.4H178.987V72.26ZM178.567 74.8C178.76 74.8 178.917 74.86 179.037 74.98C179.157 75.1 179.217 75.2567 179.217 75.45C179.217 75.6433 179.157 75.8 179.037 75.92C178.917 76.04 178.76 76.1 178.567 76.1C178.374 76.1 178.217 76.04 178.097 75.92C177.977 75.8 177.917 75.6433 177.917 75.45C177.917 75.2567 177.977 75.1 178.097 74.98C178.217 74.86 178.374 74.8 178.567 74.8ZM186.08 69.3C186.7 69.3 187.24 69.44 187.7 69.72C188.16 69.9933 188.513 70.3867 188.76 70.9C189.013 71.4067 189.14 72.0067 189.14 72.7C189.14 73.3933 189.013 73.9967 188.76 74.51C188.513 75.0167 188.16 75.41 187.7 75.69C187.24 75.9633 186.7 76.1 186.08 76.1C185.46 76.1 184.92 75.9633 184.46 75.69C184 75.41 183.643 75.0167 183.39 74.51C183.143 73.9967 183.02 73.3933 183.02 72.7C183.02 72.0067 183.143 71.4067 183.39 70.9C183.643 70.3867 184 69.9933 184.46 69.72C184.92 69.44 185.46 69.3 186.08 69.3ZM186.08 70.05C185.393 70.05 184.85 70.2867 184.45 70.76C184.057 71.2267 183.86 71.8733 183.86 72.7C183.86 73.5267 184.057 74.1767 184.45 74.65C184.85 75.1167 185.393 75.35 186.08 75.35C186.767 75.35 187.307 75.1167 187.7 74.65C188.1 74.1767 188.3 73.5267 188.3 72.7C188.3 71.8733 188.1 71.2267 187.7 70.76C187.307 70.2867 186.767 70.05 186.08 70.05ZM194.58 71V76H193.88L193.83 75.24C193.497 75.8133 192.9 76.1 192.04 76.1C191.5 76.1 191.057 75.95 190.71 75.65C190.37 75.35 190.2 74.89 190.2 74.27V71H191V74.06C191 74.5467 191.1 74.8933 191.3 75.1C191.5 75.3 191.794 75.4 192.18 75.4C192.64 75.4 193.02 75.26 193.32 74.98C193.627 74.7 193.78 74.28 193.78 73.72V71H194.58ZM198.302 70.9C198.542 70.9 198.725 70.9333 198.852 71L198.692 71.78C198.532 71.6933 198.322 71.65 198.062 71.65C197.848 71.65 197.638 71.7133 197.432 71.84C197.232 71.96 197.065 72.1467 196.932 72.4C196.805 72.6467 196.742 72.9467 196.742 73.3V76H195.942V71H196.592L196.702 71.82C196.982 71.2067 197.515 70.9 198.302 70.9ZM203.898 76.1C203.418 76.1 202.984 76.0067 202.598 75.82C202.211 75.6267 201.928 75.3433 201.748 74.97L202.398 74.52C202.511 74.8133 202.708 75.0333 202.988 75.18C203.268 75.3267 203.598 75.4 203.978 75.4C204.371 75.4 204.671 75.33 204.878 75.19C205.084 75.05 205.188 74.8733 205.188 74.66C205.188 74.4667 205.091 74.3133 204.898 74.2C204.704 74.08 204.364 73.9767 203.878 73.89C203.398 73.8033 203.018 73.7 202.738 73.58C202.458 73.4533 202.254 73.2967 202.128 73.11C202.001 72.9167 201.938 72.68 201.938 72.4C201.938 72.1267 202.018 71.8767 202.178 71.65C202.338 71.4233 202.568 71.2433 202.868 71.11C203.168 70.97 203.514 70.9 203.908 70.9C204.441 70.9 204.868 71 205.188 71.2C205.514 71.3933 205.748 71.6933 205.888 72.1L205.208 72.5C205.101 72.18 204.938 71.95 204.718 71.81C204.504 71.67 204.234 71.6 203.908 71.6C203.581 71.6 203.304 71.6733 203.078 71.82C202.851 71.9667 202.738 72.1367 202.738 72.33C202.738 72.55 202.834 72.72 203.028 72.84C203.228 72.96 203.581 73.0633 204.088 73.15C204.781 73.2633 205.271 73.4333 205.558 73.66C205.844 73.8867 205.988 74.2067 205.988 74.62C205.988 74.9067 205.901 75.1633 205.728 75.39C205.561 75.61 205.318 75.7833 204.998 75.91C204.684 76.0367 204.318 76.1 203.898 76.1ZM210.031 75.65C209.698 75.95 209.268 76.1 208.741 76.1C208.334 76.1 208.001 75.99 207.741 75.77C207.488 75.55 207.358 75.2133 207.351 74.76V71.69H206.351V71H207.351V69.8L208.151 69.58V71H210.001V71.69H208.151V74.62C208.151 74.86 208.218 75.0433 208.351 75.17C208.491 75.29 208.674 75.35 208.901 75.35C209.221 75.35 209.504 75.2267 209.751 74.98L210.031 75.65ZM213.02 70.9C213.26 70.9 213.444 70.9333 213.57 71L213.41 71.78C213.25 71.6933 213.04 71.65 212.78 71.65C212.567 71.65 212.357 71.7133 212.15 71.84C211.95 71.96 211.784 72.1467 211.65 72.4C211.524 72.6467 211.46 72.9467 211.46 73.3V76H210.66V71H211.31L211.42 71.82C211.7 71.2067 212.234 70.9 213.02 70.9ZM218.376 73.24C218.376 73.4267 218.363 73.6133 218.336 73.8H214.566C214.613 74.3067 214.78 74.7 215.066 74.98C215.36 75.26 215.736 75.4 216.196 75.4C216.563 75.4 216.866 75.3367 217.106 75.21C217.353 75.0833 217.52 74.9 217.606 74.66L218.276 75.01C218.076 75.3633 217.81 75.6333 217.476 75.82C217.143 76.0067 216.716 76.1 216.196 76.1C215.443 76.1 214.85 75.87 214.416 75.41C213.99 74.95 213.776 74.3133 213.776 73.5C213.776 72.6867 213.98 72.05 214.386 71.59C214.8 71.13 215.383 70.9 216.136 70.9C216.603 70.9 217.006 71.0033 217.346 71.21C217.686 71.4167 217.943 71.6967 218.116 72.05C218.29 72.4033 218.376 72.8 218.376 73.24ZM216.136 71.6C215.696 71.6 215.34 71.73 215.066 71.99C214.8 72.25 214.636 72.6167 214.576 73.09H217.606C217.553 72.6233 217.4 72.26 217.146 72C216.893 71.7333 216.556 71.6 216.136 71.6ZM223.497 75.42C223.63 75.42 223.763 75.4033 223.897 75.37L223.847 76C223.66 76.0667 223.46 76.1 223.247 76.1C222.987 76.1 222.78 76.0433 222.627 75.93C222.48 75.8167 222.387 75.6267 222.347 75.36C222.193 75.5933 221.967 75.7767 221.667 75.91C221.373 76.0367 221.063 76.1 220.737 76.1C220.243 76.1 219.837 75.9867 219.517 75.76C219.197 75.5267 219.037 75.1933 219.037 74.76C219.037 74.38 219.203 74.0533 219.537 73.78C219.87 73.5 220.353 73.3067 220.987 73.2L222.317 72.98V72.7C222.317 72.3667 222.213 72.1 222.007 71.9C221.8 71.7 221.513 71.6 221.147 71.6C220.813 71.6 220.523 71.68 220.277 71.84C220.037 72 219.85 72.2367 219.717 72.55L219.127 72.12C219.26 71.7467 219.507 71.45 219.867 71.23C220.233 71.01 220.66 70.9 221.147 70.9C221.74 70.9 222.217 71.0433 222.577 71.33C222.937 71.6167 223.117 72.04 223.117 72.6V75.06C223.117 75.18 223.147 75.27 223.207 75.33C223.267 75.39 223.363 75.42 223.497 75.42ZM220.777 75.4C221.197 75.4 221.557 75.3 221.857 75.1C222.163 74.9 222.317 74.64 222.317 74.32V73.63L221.197 73.84C220.75 73.92 220.417 74.0367 220.197 74.19C219.977 74.3367 219.867 74.5267 219.867 74.76C219.867 74.9667 219.947 75.1267 220.107 75.24C220.267 75.3467 220.49 75.4 220.777 75.4ZM230.371 70.9C230.704 70.9 231.014 70.97 231.301 71.11C231.594 71.2433 231.831 71.4533 232.011 71.74C232.191 72.0267 232.281 72.38 232.281 72.8V76H231.481V72.88C231.481 72.4467 231.371 72.1267 231.151 71.92C230.938 71.7067 230.654 71.6 230.301 71.6C230.034 71.6 229.788 71.6667 229.561 71.8C229.341 71.9267 229.161 72.1167 229.021 72.37C228.888 72.6167 228.821 72.9133 228.821 73.26V76H228.021V72.88C228.021 72.4467 227.911 72.1267 227.691 71.92C227.478 71.7067 227.194 71.6 226.841 71.6C226.601 71.6 226.368 71.6633 226.141 71.79C225.914 71.91 225.728 72.1 225.581 72.36C225.434 72.62 225.361 72.9433 225.361 73.33V76H224.561V71H225.261L225.311 71.78C225.484 71.4867 225.711 71.2667 225.991 71.12C226.278 70.9733 226.584 70.9 226.911 70.9C227.278 70.9 227.614 70.9833 227.921 71.15C228.234 71.3167 228.471 71.56 228.631 71.88C228.778 71.56 229.018 71.3167 229.351 71.15C229.684 70.9833 230.024 70.9 230.371 70.9ZM234.352 74.66C234.352 74.9133 234.389 75.09 234.462 75.19C234.542 75.2833 234.685 75.33 234.892 75.33C235.032 75.33 235.152 75.32 235.252 75.3C235.359 75.28 235.482 75.2433 235.622 75.19L235.492 75.96C235.272 76.0533 235.025 76.1 234.752 76.1C234.345 76.1 234.042 75.99 233.842 75.77C233.649 75.55 233.552 75.2133 233.552 74.76V68.7H234.352V74.66ZM236.549 70.04C236.369 70.04 236.222 69.9867 236.109 69.88C236.002 69.7667 235.949 69.62 235.949 69.44C235.949 69.26 236.002 69.1167 236.109 69.01C236.222 68.8967 236.369 68.84 236.549 68.84C236.729 68.84 236.872 68.8967 236.979 69.01C237.092 69.1167 237.149 69.26 237.149 69.44C237.149 69.62 237.092 69.7667 236.979 69.88C236.872 69.9867 236.729 70.04 236.549 70.04ZM236.949 76H236.149V71H236.949V76ZM240.735 70.9C241.302 70.9 241.768 71.0633 242.135 71.39C242.502 71.7167 242.685 72.1867 242.685 72.8V76H241.885V73.08C241.885 72.56 241.772 72.1833 241.545 71.95C241.325 71.7167 241.028 71.6 240.655 71.6C240.388 71.6 240.138 71.66 239.905 71.78C239.672 71.8933 239.478 72.0833 239.325 72.35C239.178 72.61 239.105 72.94 239.105 73.34V76H238.305V71H239.005L239.055 71.78C239.222 71.48 239.452 71.26 239.745 71.12C240.038 70.9733 240.368 70.9 240.735 70.9ZM248.286 73.24C248.286 73.4267 248.273 73.6133 248.246 73.8H244.476C244.523 74.3067 244.69 74.7 244.976 74.98C245.27 75.26 245.646 75.4 246.106 75.4C246.473 75.4 246.776 75.3367 247.016 75.21C247.263 75.0833 247.43 74.9 247.516 74.66L248.186 75.01C247.986 75.3633 247.72 75.6333 247.386 75.82C247.053 76.0067 246.626 76.1 246.106 76.1C245.353 76.1 244.76 75.87 244.326 75.41C243.9 74.95 243.686 74.3133 243.686 73.5C243.686 72.6867 243.89 72.05 244.296 71.59C244.71 71.13 245.293 70.9 246.046 70.9C246.513 70.9 246.916 71.0033 247.256 71.21C247.596 71.4167 247.853 71.6967 248.026 72.05C248.2 72.4033 248.286 72.8 248.286 73.24ZM246.046 71.6C245.606 71.6 245.25 71.73 244.976 71.99C244.71 72.25 244.546 72.6167 244.486 73.09H247.516C247.463 72.6233 247.31 72.26 247.056 72C246.803 71.7333 246.466 71.6 246.046 71.6ZM253.747 68.7V76H253.047L252.997 75.13C252.85 75.4233 252.624 75.66 252.317 75.84C252.017 76.0133 251.674 76.1 251.287 76.1C250.587 76.1 250.03 75.87 249.617 75.41C249.21 74.9433 249.007 74.3067 249.007 73.5C249.007 72.6933 249.21 72.06 249.617 71.6C250.03 71.1333 250.587 70.9 251.287 70.9C251.654 70.9 251.98 70.98 252.267 71.14C252.56 71.3 252.787 71.5133 252.947 71.78V68.7H253.747ZM251.377 75.4C251.857 75.4 252.237 75.2333 252.517 74.9C252.804 74.5667 252.947 74.12 252.947 73.56V73.44C252.947 72.88 252.804 72.4333 252.517 72.1C252.237 71.7667 251.857 71.6 251.377 71.6C250.89 71.6 250.507 71.7733 250.227 72.12C249.947 72.46 249.807 72.92 249.807 73.5C249.807 74.08 249.947 74.5433 250.227 74.89C250.507 75.23 250.89 75.4 251.377 75.4ZM260.879 75.65C260.545 75.95 260.115 76.1 259.589 76.1C259.182 76.1 258.849 75.99 258.589 75.77C258.335 75.55 258.205 75.2133 258.199 74.76V71.69H257.199V71H258.199V69.8L258.999 69.58V71H260.849V71.69H258.999V74.62C258.999 74.86 259.065 75.0433 259.199 75.17C259.339 75.29 259.522 75.35 259.749 75.35C260.069 75.35 260.352 75.2267 260.599 74.98L260.879 75.65ZM263.618 70.9C264.371 70.9 264.961 71.13 265.388 71.59C265.821 72.05 266.038 72.6867 266.038 73.5C266.038 74.3133 265.821 74.95 265.388 75.41C264.961 75.87 264.371 76.1 263.618 76.1C262.865 76.1 262.271 75.87 261.838 75.41C261.411 74.95 261.198 74.3133 261.198 73.5C261.198 72.6867 261.411 72.05 261.838 71.59C262.271 71.13 262.865 70.9 263.618 70.9ZM263.618 71.59C263.111 71.59 262.715 71.76 262.428 72.1C262.141 72.44 261.998 72.9067 261.998 73.5C261.998 74.0933 262.141 74.56 262.428 74.9C262.715 75.24 263.111 75.41 263.618 75.41C264.125 75.41 264.521 75.24 264.808 74.9C265.095 74.56 265.238 74.0933 265.238 73.5C265.238 72.9067 265.095 72.44 264.808 72.1C264.521 71.76 264.125 71.59 263.618 71.59ZM269.202 70.9C269.955 70.9 270.545 71.13 270.972 71.59C271.405 72.05 271.622 72.6867 271.622 73.5C271.622 74.3133 271.405 74.95 270.972 75.41C270.545 75.87 269.955 76.1 269.202 76.1C268.449 76.1 267.855 75.87 267.422 75.41C266.995 74.95 266.782 74.3133 266.782 73.5C266.782 72.6867 266.995 72.05 267.422 71.59C267.855 71.13 268.449 70.9 269.202 70.9ZM269.202 71.59C268.695 71.59 268.299 71.76 268.012 72.1C267.725 72.44 267.582 72.9067 267.582 73.5C267.582 74.0933 267.725 74.56 268.012 74.9C268.299 75.24 268.695 75.41 269.202 75.41C269.709 75.41 270.105 75.24 270.392 74.9C270.679 74.56 270.822 74.0933 270.822 73.5C270.822 72.9067 270.679 72.44 270.392 72.1C270.105 71.76 269.709 71.59 269.202 71.59ZM273.436 74.66C273.436 74.9133 273.473 75.09 273.546 75.19C273.626 75.2833 273.769 75.33 273.976 75.33C274.116 75.33 274.236 75.32 274.336 75.3C274.443 75.28 274.566 75.2433 274.706 75.19L274.576 75.96C274.356 76.0533 274.109 76.1 273.836 76.1C273.429 76.1 273.126 75.99 272.926 75.77C272.733 75.55 272.636 75.2133 272.636 74.76V68.7H273.436V74.66ZM276.933 76.1C276.453 76.1 276.019 76.0067 275.633 75.82C275.246 75.6267 274.963 75.3433 274.783 74.97L275.433 74.52C275.546 74.8133 275.743 75.0333 276.023 75.18C276.303 75.3267 276.633 75.4 277.013 75.4C277.406 75.4 277.706 75.33 277.913 75.19C278.119 75.05 278.223 74.8733 278.223 74.66C278.223 74.4667 278.126 74.3133 277.933 74.2C277.739 74.08 277.399 73.9767 276.913 73.89C276.433 73.8033 276.053 73.7 275.773 73.58C275.493 73.4533 275.289 73.2967 275.163 73.11C275.036 72.9167 274.973 72.68 274.973 72.4C274.973 72.1267 275.053 71.8767 275.213 71.65C275.373 71.4233 275.603 71.2433 275.903 71.11C276.203 70.97 276.549 70.9 276.943 70.9C277.476 70.9 277.903 71 278.223 71.2C278.549 71.3933 278.783 71.6933 278.923 72.1L278.243 72.5C278.136 72.18 277.973 71.95 277.753 71.81C277.539 71.67 277.269 71.6 276.943 71.6C276.616 71.6 276.339 71.6733 276.113 71.82C275.886 71.9667 275.773 72.1367 275.773 72.33C275.773 72.55 275.869 72.72 276.063 72.84C276.263 72.96 276.616 73.0633 277.123 73.15C277.816 73.2633 278.306 73.4333 278.593 73.66C278.879 73.8867 279.023 74.2067 279.023 74.62C279.023 74.9067 278.936 75.1633 278.763 75.39C278.596 75.61 278.353 75.7833 278.033 75.91C277.719 76.0367 277.353 76.1 276.933 76.1ZM85.22 84.24C85.22 84.4267 85.2067 84.6133 85.18 84.8H81.41C81.4567 85.3067 81.6233 85.7 81.91 85.98C82.2033 86.26 82.58 86.4 83.04 86.4C83.4067 86.4 83.71 86.3367 83.95 86.21C84.1967 86.0833 84.3633 85.9 84.45 85.66L85.12 86.01C84.92 86.3633 84.6533 86.6333 84.32 86.82C83.9867 87.0067 83.56 87.1 83.04 87.1C82.2867 87.1 81.6933 86.87 81.26 86.41C80.8333 85.95 80.62 85.3133 80.62 84.5C80.62 83.6867 80.8233 83.05 81.23 82.59C81.6433 82.13 82.2267 81.9 82.98 81.9C83.4467 81.9 83.85 82.0033 84.19 82.21C84.53 82.4167 84.7867 82.6967 84.96 83.05C85.1333 83.4033 85.22 83.8 85.22 84.24ZM82.98 82.6C82.54 82.6 82.1833 82.73 81.91 82.99C81.6433 83.25 81.48 83.6167 81.42 84.09H84.45C84.3967 83.6233 84.2433 83.26 83.99 83C83.7367 82.7333 83.4 82.6 82.98 82.6ZM88.6705 81.9C89.2372 81.9 89.7039 82.0633 90.0705 82.39C90.4372 82.7167 90.6205 83.1867 90.6205 83.8V87H89.8205V84.08C89.8205 83.56 89.7072 83.1833 89.4805 82.95C89.2605 82.7167 88.9639 82.6 88.5905 82.6C88.3239 82.6 88.0739 82.66 87.8405 82.78C87.6072 82.8933 87.4139 83.0833 87.2605 83.35C87.1139 83.61 87.0405 83.94 87.0405 84.34V87H86.2405V82H86.9405L86.9905 82.78C87.1572 82.48 87.3872 82.26 87.6805 82.12C87.9739 81.9733 88.3039 81.9 88.6705 81.9ZM93.632 87.1C93.152 87.1 92.7186 87.0067 92.332 86.82C91.9453 86.6267 91.662 86.3433 91.482 85.97L92.132 85.52C92.2453 85.8133 92.442 86.0333 92.722 86.18C93.002 86.3267 93.332 86.4 93.712 86.4C94.1053 86.4 94.4053 86.33 94.612 86.19C94.8186 86.05 94.922 85.8733 94.922 85.66C94.922 85.4667 94.8253 85.3133 94.632 85.2C94.4386 85.08 94.0986 84.9767 93.612 84.89C93.132 84.8033 92.752 84.7 92.472 84.58C92.192 84.4533 91.9886 84.2967 91.862 84.11C91.7353 83.9167 91.672 83.68 91.672 83.4C91.672 83.1267 91.752 82.8767 91.912 82.65C92.072 82.4233 92.302 82.2433 92.602 82.11C92.902 81.97 93.2486 81.9 93.642 81.9C94.1753 81.9 94.602 82 94.922 82.2C95.2486 82.3933 95.482 82.6933 95.622 83.1L94.942 83.5C94.8353 83.18 94.672 82.95 94.452 82.81C94.2386 82.67 93.9686 82.6 93.642 82.6C93.3153 82.6 93.0386 82.6733 92.812 82.82C92.5853 82.9667 92.472 83.1367 92.472 83.33C92.472 83.55 92.5686 83.72 92.762 83.84C92.962 83.96 93.3153 84.0633 93.822 84.15C94.5153 84.2633 95.0053 84.4333 95.292 84.66C95.5786 84.8867 95.722 85.2067 95.722 85.62C95.722 85.9067 95.6353 86.1633 95.462 86.39C95.2953 86.61 95.052 86.7833 94.732 86.91C94.4186 87.0367 94.052 87.1 93.632 87.1ZM101.035 82V87H100.335L100.285 86.24C99.9521 86.8133 99.3554 87.1 98.4954 87.1C97.9554 87.1 97.5121 86.95 97.1654 86.65C96.8254 86.35 96.6554 85.89 96.6554 85.27V82H97.4554V85.06C97.4554 85.5467 97.5554 85.8933 97.7554 86.1C97.9554 86.3 98.2487 86.4 98.6354 86.4C99.0954 86.4 99.4754 86.26 99.7754 85.98C100.082 85.7 100.235 85.28 100.235 84.72V82H101.035ZM104.757 81.9C104.997 81.9 105.18 81.9333 105.307 82L105.147 82.78C104.987 82.6933 104.777 82.65 104.517 82.65C104.303 82.65 104.093 82.7133 103.887 82.84C103.687 82.96 103.52 83.1467 103.387 83.4C103.26 83.6467 103.197 83.9467 103.197 84.3V87H102.397V82H103.047L103.157 82.82C103.437 82.2067 103.97 81.9 104.757 81.9ZM110.113 84.24C110.113 84.4267 110.099 84.6133 110.073 84.8H106.303C106.349 85.3067 106.516 85.7 106.803 85.98C107.096 86.26 107.473 86.4 107.933 86.4C108.299 86.4 108.603 86.3367 108.843 86.21C109.089 86.0833 109.256 85.9 109.343 85.66L110.013 86.01C109.813 86.3633 109.546 86.6333 109.213 86.82C108.879 87.0067 108.453 87.1 107.933 87.1C107.179 87.1 106.586 86.87 106.153 86.41C105.726 85.95 105.513 85.3133 105.513 84.5C105.513 83.6867 105.716 83.05 106.123 82.59C106.536 82.13 107.119 81.9 107.873 81.9C108.339 81.9 108.743 82.0033 109.083 82.21C109.423 82.4167 109.679 82.6967 109.853 83.05C110.026 83.4033 110.113 83.8 110.113 84.24ZM107.873 82.6C107.433 82.6 107.076 82.73 106.803 82.99C106.536 83.25 106.373 83.6167 106.313 84.09H109.343C109.289 83.6233 109.136 83.26 108.883 83C108.629 82.7333 108.293 82.6 107.873 82.6ZM118.331 84.24C118.331 84.4267 118.318 84.6133 118.291 84.8H114.521C114.568 85.3067 114.735 85.7 115.021 85.98C115.315 86.26 115.691 86.4 116.151 86.4C116.518 86.4 116.821 86.3367 117.061 86.21C117.308 86.0833 117.475 85.9 117.561 85.66L118.231 86.01C118.031 86.3633 117.765 86.6333 117.431 86.82C117.098 87.0067 116.671 87.1 116.151 87.1C115.398 87.1 114.805 86.87 114.371 86.41C113.945 85.95 113.731 85.3133 113.731 84.5C113.731 83.6867 113.935 83.05 114.341 82.59C114.755 82.13 115.338 81.9 116.091 81.9C116.558 81.9 116.961 82.0033 117.301 82.21C117.641 82.4167 117.898 82.6967 118.071 83.05C118.245 83.4033 118.331 83.8 118.331 84.24ZM116.091 82.6C115.651 82.6 115.295 82.73 115.021 82.99C114.755 83.25 114.591 83.6167 114.531 84.09H117.561C117.508 83.6233 117.355 83.26 117.101 83C116.848 82.7333 116.511 82.6 116.091 82.6ZM123.365 82L121.285 87H120.485L118.405 82H119.315L120.895 86.19L122.525 82H123.365ZM128.2 84.24C128.2 84.4267 128.187 84.6133 128.16 84.8H124.39C124.437 85.3067 124.604 85.7 124.89 85.98C125.184 86.26 125.56 86.4 126.02 86.4C126.387 86.4 126.69 86.3367 126.93 86.21C127.177 86.0833 127.344 85.9 127.43 85.66L128.1 86.01C127.9 86.3633 127.634 86.6333 127.3 86.82C126.967 87.0067 126.54 87.1 126.02 87.1C125.267 87.1 124.674 86.87 124.24 86.41C123.814 85.95 123.6 85.3133 123.6 84.5C123.6 83.6867 123.804 83.05 124.21 82.59C124.624 82.13 125.207 81.9 125.96 81.9C126.427 81.9 126.83 82.0033 127.17 82.21C127.51 82.4167 127.767 82.6967 127.94 83.05C128.114 83.4033 128.2 83.8 128.2 84.24ZM125.96 82.6C125.52 82.6 125.164 82.73 124.89 82.99C124.624 83.25 124.46 83.6167 124.4 84.09H127.43C127.377 83.6233 127.224 83.26 126.97 83C126.717 82.7333 126.38 82.6 125.96 82.6ZM131.581 81.9C131.821 81.9 132.004 81.9333 132.131 82L131.971 82.78C131.811 82.6933 131.601 82.65 131.341 82.65C131.128 82.65 130.918 82.7133 130.711 82.84C130.511 82.96 130.344 83.1467 130.211 83.4C130.084 83.6467 130.021 83.9467 130.021 84.3V87H129.221V82H129.871L129.981 82.82C130.261 82.2067 130.794 81.9 131.581 81.9ZM134.703 87.84C134.51 88.32 134.293 88.6567 134.053 88.85C133.813 89.05 133.503 89.15 133.123 89.15C132.87 89.15 132.656 89.1167 132.483 89.05C132.316 88.9833 132.163 88.8767 132.023 88.73L132.303 88.05C132.496 88.3167 132.766 88.45 133.113 88.45C133.306 88.45 133.476 88.39 133.623 88.27C133.776 88.1567 133.91 87.9467 134.023 87.64L134.283 86.99L132.193 82H133.103L134.353 85.26L134.663 86.15L135.023 85.16L136.193 82H137.053L134.703 87.84ZM144.599 84.24C144.599 84.4267 144.586 84.6133 144.559 84.8H140.789C140.836 85.3067 141.002 85.7 141.289 85.98C141.582 86.26 141.959 86.4 142.419 86.4C142.786 86.4 143.089 86.3367 143.329 86.21C143.576 86.0833 143.742 85.9 143.829 85.66L144.499 86.01C144.299 86.3633 144.032 86.6333 143.699 86.82C143.366 87.0067 142.939 87.1 142.419 87.1C141.666 87.1 141.072 86.87 140.639 86.41C140.212 85.95 139.999 85.3133 139.999 84.5C139.999 83.6867 140.202 83.05 140.609 82.59C141.022 82.13 141.606 81.9 142.359 81.9C142.826 81.9 143.229 82.0033 143.569 82.21C143.909 82.4167 144.166 82.6967 144.339 83.05C144.512 83.4033 144.599 83.8 144.599 84.24ZM142.359 82.6C141.919 82.6 141.562 82.73 141.289 82.99C141.022 83.25 140.859 83.6167 140.799 84.09H143.829C143.776 83.6233 143.622 83.26 143.369 83C143.116 82.7333 142.779 82.6 142.359 82.6ZM149.633 82L147.553 87H146.753L144.673 82H145.583L147.163 86.19L148.793 82H149.633ZM154.468 84.24C154.468 84.4267 154.455 84.6133 154.428 84.8H150.658C150.705 85.3067 150.871 85.7 151.158 85.98C151.451 86.26 151.828 86.4 152.288 86.4C152.655 86.4 152.958 86.3367 153.198 86.21C153.445 86.0833 153.611 85.9 153.698 85.66L154.368 86.01C154.168 86.3633 153.901 86.6333 153.568 86.82C153.235 87.0067 152.808 87.1 152.288 87.1C151.535 87.1 150.941 86.87 150.508 86.41C150.081 85.95 149.868 85.3133 149.868 84.5C149.868 83.6867 150.071 83.05 150.478 82.59C150.891 82.13 151.475 81.9 152.228 81.9C152.695 81.9 153.098 82.0033 153.438 82.21C153.778 82.4167 154.035 82.6967 154.208 83.05C154.381 83.4033 154.468 83.8 154.468 84.24ZM152.228 82.6C151.788 82.6 151.431 82.73 151.158 82.99C150.891 83.25 150.728 83.6167 150.668 84.09H153.698C153.645 83.6233 153.491 83.26 153.238 83C152.985 82.7333 152.648 82.6 152.228 82.6ZM157.919 81.9C158.485 81.9 158.952 82.0633 159.319 82.39C159.685 82.7167 159.869 83.1867 159.869 83.8V87H159.069V84.08C159.069 83.56 158.955 83.1833 158.729 82.95C158.509 82.7167 158.212 82.6 157.839 82.6C157.572 82.6 157.322 82.66 157.089 82.78C156.855 82.8933 156.662 83.0833 156.509 83.35C156.362 83.61 156.289 83.94 156.289 84.34V87H155.489V82H156.189L156.239 82.78C156.405 82.48 156.635 82.26 156.929 82.12C157.222 81.9733 157.552 81.9 157.919 81.9ZM164.172 86.65C163.838 86.95 163.408 87.1 162.882 87.1C162.475 87.1 162.142 86.99 161.882 86.77C161.628 86.55 161.498 86.2133 161.492 85.76V82.69H160.492V82H161.492V80.8L162.292 80.58V82H164.142V82.69H162.292V85.62C162.292 85.86 162.358 86.0433 162.492 86.17C162.632 86.29 162.815 86.35 163.042 86.35C163.362 86.35 163.645 86.2267 163.892 85.98L164.172 86.65ZM172.149 79.7V87H171.449L171.399 86.13C171.253 86.4233 171.026 86.66 170.719 86.84C170.419 87.0133 170.076 87.1 169.689 87.1C168.989 87.1 168.433 86.87 168.019 86.41C167.613 85.9433 167.409 85.3067 167.409 84.5C167.409 83.6933 167.613 83.06 168.019 82.6C168.433 82.1333 168.989 81.9 169.689 81.9C170.056 81.9 170.383 81.98 170.669 82.14C170.963 82.3 171.189 82.5133 171.349 82.78V79.7H172.149ZM169.779 86.4C170.259 86.4 170.639 86.2333 170.919 85.9C171.206 85.5667 171.349 85.12 171.349 84.56V84.44C171.349 83.88 171.206 83.4333 170.919 83.1C170.639 82.7667 170.259 82.6 169.779 82.6C169.293 82.6 168.909 82.7733 168.629 83.12C168.349 83.46 168.209 83.92 168.209 84.5C168.209 85.08 168.349 85.5433 168.629 85.89C168.909 86.23 169.293 86.4 169.779 86.4ZM177.798 84.24C177.798 84.4267 177.785 84.6133 177.758 84.8H173.988C174.035 85.3067 174.201 85.7 174.488 85.98C174.781 86.26 175.158 86.4 175.618 86.4C175.985 86.4 176.288 86.3367 176.528 86.21C176.775 86.0833 176.941 85.9 177.028 85.66L177.698 86.01C177.498 86.3633 177.231 86.6333 176.898 86.82C176.565 87.0067 176.138 87.1 175.618 87.1C174.865 87.1 174.271 86.87 173.838 86.41C173.411 85.95 173.198 85.3133 173.198 84.5C173.198 83.6867 173.401 83.05 173.808 82.59C174.221 82.13 174.805 81.9 175.558 81.9C176.025 81.9 176.428 82.0033 176.768 82.21C177.108 82.4167 177.365 82.6967 177.538 83.05C177.711 83.4033 177.798 83.8 177.798 84.24ZM175.558 82.6C175.118 82.6 174.761 82.73 174.488 82.99C174.221 83.25 174.058 83.6167 173.998 84.09H177.028C176.975 83.6233 176.821 83.26 176.568 83C176.315 82.7333 175.978 82.6 175.558 82.6ZM181.732 86.65C181.399 86.95 180.969 87.1 180.442 87.1C180.036 87.1 179.702 86.99 179.442 86.77C179.189 86.55 179.059 86.2133 179.052 85.76V82.69H178.052V82H179.052V80.8L179.852 80.58V82H181.702V82.69H179.852V85.62C179.852 85.86 179.919 86.0433 180.052 86.17C180.192 86.29 180.376 86.35 180.602 86.35C180.922 86.35 181.206 86.2267 181.452 85.98L181.732 86.65ZM186.462 86.42C186.595 86.42 186.728 86.4033 186.862 86.37L186.812 87C186.625 87.0667 186.425 87.1 186.212 87.1C185.952 87.1 185.745 87.0433 185.592 86.93C185.445 86.8167 185.352 86.6267 185.312 86.36C185.158 86.5933 184.932 86.7767 184.632 86.91C184.338 87.0367 184.028 87.1 183.702 87.1C183.208 87.1 182.802 86.9867 182.482 86.76C182.162 86.5267 182.002 86.1933 182.002 85.76C182.002 85.38 182.168 85.0533 182.502 84.78C182.835 84.5 183.318 84.3067 183.952 84.2L185.282 83.98V83.7C185.282 83.3667 185.178 83.1 184.972 82.9C184.765 82.7 184.478 82.6 184.112 82.6C183.778 82.6 183.488 82.68 183.242 82.84C183.002 83 182.815 83.2367 182.682 83.55L182.092 83.12C182.225 82.7467 182.472 82.45 182.832 82.23C183.198 82.01 183.625 81.9 184.112 81.9C184.705 81.9 185.182 82.0433 185.542 82.33C185.902 82.6167 186.082 83.04 186.082 83.6V86.06C186.082 86.18 186.112 86.27 186.172 86.33C186.232 86.39 186.328 86.42 186.462 86.42ZM183.742 86.4C184.162 86.4 184.522 86.3 184.822 86.1C185.128 85.9 185.282 85.64 185.282 85.32V84.63L184.162 84.84C183.715 84.92 183.382 85.0367 183.162 85.19C182.942 85.3367 182.832 85.5267 182.832 85.76C182.832 85.9667 182.912 86.1267 183.072 86.24C183.232 86.3467 183.455 86.4 183.742 86.4ZM187.926 81.04C187.746 81.04 187.599 80.9867 187.486 80.88C187.379 80.7667 187.326 80.62 187.326 80.44C187.326 80.26 187.379 80.1167 187.486 80.01C187.599 79.8967 187.746 79.84 187.926 79.84C188.106 79.84 188.249 79.8967 188.356 80.01C188.469 80.1167 188.526 80.26 188.526 80.44C188.526 80.62 188.469 80.7667 188.356 80.88C188.249 80.9867 188.106 81.04 187.926 81.04ZM188.326 87H187.526V82H188.326V87ZM190.442 85.66C190.442 85.9133 190.479 86.09 190.552 86.19C190.632 86.2833 190.775 86.33 190.982 86.33C191.122 86.33 191.242 86.32 191.342 86.3C191.449 86.28 191.572 86.2433 191.712 86.19L191.582 86.96C191.362 87.0533 191.115 87.1 190.842 87.1C190.435 87.1 190.132 86.99 189.932 86.77C189.739 86.55 189.642 86.2133 189.642 85.76V79.7H190.442V85.66ZM195.195 81.04C195.015 81.04 194.869 80.9867 194.755 80.88C194.649 80.7667 194.595 80.62 194.595 80.44C194.595 80.26 194.649 80.1167 194.755 80.01C194.869 79.8967 195.015 79.84 195.195 79.84C195.375 79.84 195.519 79.8967 195.625 80.01C195.739 80.1167 195.795 80.26 195.795 80.44C195.795 80.62 195.739 80.7667 195.625 80.88C195.519 80.9867 195.375 81.04 195.195 81.04ZM195.595 87H194.795V82H195.595V87ZM198.651 87.1C198.171 87.1 197.738 87.0067 197.351 86.82C196.965 86.6267 196.681 86.3433 196.501 85.97L197.151 85.52C197.265 85.8133 197.461 86.0333 197.741 86.18C198.021 86.3267 198.351 86.4 198.731 86.4C199.125 86.4 199.425 86.33 199.631 86.19C199.838 86.05 199.941 85.8733 199.941 85.66C199.941 85.4667 199.845 85.3133 199.651 85.2C199.458 85.08 199.118 84.9767 198.631 84.89C198.151 84.8033 197.771 84.7 197.491 84.58C197.211 84.4533 197.008 84.2967 196.881 84.11C196.755 83.9167 196.691 83.68 196.691 83.4C196.691 83.1267 196.771 82.8767 196.931 82.65C197.091 82.4233 197.321 82.2433 197.621 82.11C197.921 81.97 198.268 81.9 198.661 81.9C199.195 81.9 199.621 82 199.941 82.2C200.268 82.3933 200.501 82.6933 200.641 83.1L199.961 83.5C199.855 83.18 199.691 82.95 199.471 82.81C199.258 82.67 198.988 82.6 198.661 82.6C198.335 82.6 198.058 82.6733 197.831 82.82C197.605 82.9667 197.491 83.1367 197.491 83.33C197.491 83.55 197.588 83.72 197.781 83.84C197.981 83.96 198.335 84.0633 198.841 84.15C199.535 84.2633 200.025 84.4333 200.311 84.66C200.598 84.8867 200.741 85.2067 200.741 85.62C200.741 85.9067 200.655 86.1633 200.481 86.39C200.315 86.61 200.071 86.7833 199.751 86.91C199.438 87.0367 199.071 87.1 198.651 87.1ZM210.443 81.9C210.776 81.9 211.086 81.97 211.373 82.11C211.666 82.2433 211.903 82.4533 212.083 82.74C212.263 83.0267 212.353 83.38 212.353 83.8V87H211.553V83.88C211.553 83.4467 211.443 83.1267 211.223 82.92C211.01 82.7067 210.726 82.6 210.373 82.6C210.106 82.6 209.86 82.6667 209.633 82.8C209.413 82.9267 209.233 83.1167 209.093 83.37C208.96 83.6167 208.893 83.9133 208.893 84.26V87H208.093V83.88C208.093 83.4467 207.983 83.1267 207.763 82.92C207.55 82.7067 207.266 82.6 206.913 82.6C206.673 82.6 206.44 82.6633 206.213 82.79C205.986 82.91 205.8 83.1 205.653 83.36C205.506 83.62 205.433 83.9433 205.433 84.33V87H204.633V82H205.333L205.383 82.78C205.556 82.4867 205.783 82.2667 206.063 82.12C206.35 81.9733 206.656 81.9 206.983 81.9C207.35 81.9 207.686 81.9833 207.993 82.15C208.306 82.3167 208.543 82.56 208.703 82.88C208.85 82.56 209.09 82.3167 209.423 82.15C209.756 81.9833 210.096 81.9 210.443 81.9ZM217.764 86.42C217.898 86.42 218.031 86.4033 218.164 86.37L218.114 87C217.928 87.0667 217.728 87.1 217.514 87.1C217.254 87.1 217.048 87.0433 216.894 86.93C216.748 86.8167 216.654 86.6267 216.614 86.36C216.461 86.5933 216.234 86.7767 215.934 86.91C215.641 87.0367 215.331 87.1 215.004 87.1C214.511 87.1 214.104 86.9867 213.784 86.76C213.464 86.5267 213.304 86.1933 213.304 85.76C213.304 85.38 213.471 85.0533 213.804 84.78C214.138 84.5 214.621 84.3067 215.254 84.2L216.584 83.98V83.7C216.584 83.3667 216.481 83.1 216.274 82.9C216.068 82.7 215.781 82.6 215.414 82.6C215.081 82.6 214.791 82.68 214.544 82.84C214.304 83 214.118 83.2367 213.984 83.55L213.394 83.12C213.528 82.7467 213.774 82.45 214.134 82.23C214.501 82.01 214.928 81.9 215.414 81.9C216.008 81.9 216.484 82.0433 216.844 82.33C217.204 82.6167 217.384 83.04 217.384 83.6V86.06C217.384 86.18 217.414 86.27 217.474 86.33C217.534 86.39 217.631 86.42 217.764 86.42ZM215.044 86.4C215.464 86.4 215.824 86.3 216.124 86.1C216.431 85.9 216.584 85.64 216.584 85.32V84.63L215.464 84.84C215.018 84.92 214.684 85.0367 214.464 85.19C214.244 85.3367 214.134 85.5267 214.134 85.76C214.134 85.9667 214.214 86.1267 214.374 86.24C214.534 86.3467 214.758 86.4 215.044 86.4ZM221.258 81.9C221.825 81.9 222.292 82.0633 222.658 82.39C223.025 82.7167 223.208 83.1867 223.208 83.8V87H222.408V84.08C222.408 83.56 222.295 83.1833 222.068 82.95C221.848 82.7167 221.552 82.6 221.178 82.6C220.912 82.6 220.662 82.66 220.428 82.78C220.195 82.8933 220.002 83.0833 219.848 83.35C219.702 83.61 219.628 83.94 219.628 84.34V87H218.828V82H219.528L219.578 82.78C219.745 82.48 219.975 82.26 220.268 82.12C220.562 81.9733 220.892 81.9 221.258 81.9ZM228.62 86.42C228.753 86.42 228.887 86.4033 229.02 86.37L228.97 87C228.783 87.0667 228.583 87.1 228.37 87.1C228.11 87.1 227.903 87.0433 227.75 86.93C227.603 86.8167 227.51 86.6267 227.47 86.36C227.317 86.5933 227.09 86.7767 226.79 86.91C226.497 87.0367 226.187 87.1 225.86 87.1C225.367 87.1 224.96 86.9867 224.64 86.76C224.32 86.5267 224.16 86.1933 224.16 85.76C224.16 85.38 224.327 85.0533 224.66 84.78C224.993 84.5 225.477 84.3067 226.11 84.2L227.44 83.98V83.7C227.44 83.3667 227.337 83.1 227.13 82.9C226.923 82.7 226.637 82.6 226.27 82.6C225.937 82.6 225.647 82.68 225.4 82.84C225.16 83 224.973 83.2367 224.84 83.55L224.25 83.12C224.383 82.7467 224.63 82.45 224.99 82.23C225.357 82.01 225.783 81.9 226.27 81.9C226.863 81.9 227.34 82.0433 227.7 82.33C228.06 82.6167 228.24 83.04 228.24 83.6V86.06C228.24 86.18 228.27 86.27 228.33 86.33C228.39 86.39 228.487 86.42 228.62 86.42ZM225.9 86.4C226.32 86.4 226.68 86.3 226.98 86.1C227.287 85.9 227.44 85.64 227.44 85.32V84.63L226.32 84.84C225.873 84.92 225.54 85.0367 225.32 85.19C225.1 85.3367 224.99 85.5267 224.99 85.76C224.99 85.9667 225.07 86.1267 225.23 86.24C225.39 86.3467 225.613 86.4 225.9 86.4ZM232.474 86.36C232.947 86.36 233.317 86.4667 233.584 86.68C233.851 86.8933 233.984 87.1833 233.984 87.55C233.984 87.87 233.874 88.15 233.654 88.39C233.434 88.6367 233.134 88.8233 232.754 88.95C232.381 89.0833 231.967 89.15 231.514 89.15C230.754 89.15 230.181 89.0267 229.794 88.78C229.407 88.54 229.214 88.2233 229.214 87.83C229.214 87.6033 229.291 87.4033 229.444 87.23C229.604 87.0567 229.821 86.9333 230.094 86.86C229.887 86.76 229.721 86.6333 229.594 86.48C229.474 86.3267 229.414 86.1467 229.414 85.94C229.414 85.6933 229.481 85.49 229.614 85.33C229.747 85.1633 229.931 85.04 230.164 84.96C229.924 84.8133 229.741 84.6233 229.614 84.39C229.494 84.15 229.434 83.8833 229.434 83.59C229.434 83.2633 229.521 82.9733 229.694 82.72C229.867 82.46 230.111 82.26 230.424 82.12C230.737 81.9733 231.091 81.9 231.484 81.9C231.857 81.9 232.197 81.9667 232.504 82.1C232.691 81.42 233.161 81.08 233.914 81.08L234.094 81.78C233.441 81.78 233.044 81.9633 232.904 82.33C233.104 82.4833 233.257 82.6667 233.364 82.88C233.477 83.0933 233.534 83.33 233.534 83.59C233.534 83.9167 233.447 84.21 233.274 84.47C233.101 84.7233 232.857 84.9233 232.544 85.07C232.231 85.21 231.877 85.28 231.484 85.28C231.191 85.28 230.934 85.25 230.714 85.19C230.514 85.2367 230.371 85.31 230.284 85.41C230.197 85.51 230.154 85.6467 230.154 85.82C230.154 85.9933 230.214 86.1267 230.334 86.22C230.454 86.3133 230.614 86.36 230.814 86.36H232.474ZM231.484 82.55C231.137 82.55 230.847 82.6467 230.614 82.84C230.381 83.0333 230.264 83.2833 230.264 83.59C230.264 83.8967 230.381 84.1467 230.614 84.34C230.847 84.5333 231.137 84.63 231.484 84.63C231.831 84.63 232.121 84.5333 232.354 84.34C232.587 84.1467 232.704 83.8967 232.704 83.59C232.704 83.2833 232.587 83.0333 232.354 82.84C232.121 82.6467 231.831 82.55 231.484 82.55ZM231.604 88.48C232.111 88.48 232.511 88.3967 232.804 88.23C233.097 88.07 233.244 87.8733 233.244 87.64C233.244 87.4467 233.167 87.3 233.014 87.2C232.867 87.1 232.614 87.05 232.254 87.05H230.914C230.607 87.05 230.371 87.1033 230.204 87.21C230.037 87.3233 229.954 87.4767 229.954 87.67C229.954 87.9233 230.094 88.12 230.374 88.26C230.654 88.4067 231.064 88.48 231.604 88.48ZM238.962 84.24C238.962 84.4267 238.949 84.6133 238.922 84.8H235.152C235.199 85.3067 235.366 85.7 235.652 85.98C235.946 86.26 236.322 86.4 236.782 86.4C237.149 86.4 237.452 86.3367 237.692 86.21C237.939 86.0833 238.106 85.9 238.192 85.66L238.862 86.01C238.662 86.3633 238.396 86.6333 238.062 86.82C237.729 87.0067 237.302 87.1 236.782 87.1C236.029 87.1 235.436 86.87 235.002 86.41C234.576 85.95 234.362 85.3133 234.362 84.5C234.362 83.6867 234.566 83.05 234.972 82.59C235.386 82.13 235.969 81.9 236.722 81.9C237.189 81.9 237.592 82.0033 237.932 82.21C238.272 82.4167 238.529 82.6967 238.702 83.05C238.876 83.4033 238.962 83.8 238.962 84.24ZM236.722 82.6C236.282 82.6 235.926 82.73 235.652 82.99C235.386 83.25 235.222 83.6167 235.162 84.09H238.192C238.139 83.6233 237.986 83.26 237.732 83C237.479 82.7333 237.142 82.6 236.722 82.6ZM244.423 79.7V87H243.723L243.673 86.13C243.526 86.4233 243.299 86.66 242.993 86.84C242.693 87.0133 242.349 87.1 241.963 87.1C241.263 87.1 240.706 86.87 240.293 86.41C239.886 85.9433 239.683 85.3067 239.683 84.5C239.683 83.6933 239.886 83.06 240.293 82.6C240.706 82.1333 241.263 81.9 241.963 81.9C242.329 81.9 242.656 81.98 242.943 82.14C243.236 82.3 243.463 82.5133 243.623 82.78V79.7H244.423ZM242.053 86.4C242.533 86.4 242.913 86.2333 243.193 85.9C243.479 85.5667 243.623 85.12 243.623 84.56V84.44C243.623 83.88 243.479 83.4333 243.193 83.1C242.913 82.7667 242.533 82.6 242.053 82.6C241.566 82.6 241.183 82.7733 240.903 83.12C240.623 83.46 240.483 83.92 240.483 84.5C240.483 85.08 240.623 85.5433 240.903 85.89C241.183 86.23 241.566 86.4 242.053 86.4ZM250.39 87.1C249.91 87.1 249.476 87.0067 249.09 86.82C248.703 86.6267 248.42 86.3433 248.24 85.97L248.89 85.52C249.003 85.8133 249.2 86.0333 249.48 86.18C249.76 86.3267 250.09 86.4 250.47 86.4C250.863 86.4 251.163 86.33 251.37 86.19C251.576 86.05 251.68 85.8733 251.68 85.66C251.68 85.4667 251.583 85.3133 251.39 85.2C251.196 85.08 250.856 84.9767 250.37 84.89C249.89 84.8033 249.51 84.7 249.23 84.58C248.95 84.4533 248.746 84.2967 248.62 84.11C248.493 83.9167 248.43 83.68 248.43 83.4C248.43 83.1267 248.51 82.8767 248.67 82.65C248.83 82.4233 249.06 82.2433 249.36 82.11C249.66 81.97 250.006 81.9 250.4 81.9C250.933 81.9 251.36 82 251.68 82.2C252.006 82.3933 252.24 82.6933 252.38 83.1L251.7 83.5C251.593 83.18 251.43 82.95 251.21 82.81C250.996 82.67 250.726 82.6 250.4 82.6C250.073 82.6 249.796 82.6733 249.57 82.82C249.343 82.9667 249.23 83.1367 249.23 83.33C249.23 83.55 249.326 83.72 249.52 83.84C249.72 83.96 250.073 84.0633 250.58 84.15C251.273 84.2633 251.763 84.4333 252.05 84.66C252.336 84.8867 252.48 85.2067 252.48 85.62C252.48 85.9067 252.393 86.1633 252.22 86.39C252.053 86.61 251.81 86.7833 251.49 86.91C251.176 87.0367 250.81 87.1 250.39 87.1ZM259.273 81.9C259.607 81.9 259.917 81.97 260.203 82.11C260.497 82.2433 260.733 82.4533 260.913 82.74C261.093 83.0267 261.183 83.38 261.183 83.8V87H260.383V83.88C260.383 83.4467 260.273 83.1267 260.053 82.92C259.84 82.7067 259.557 82.6 259.203 82.6C258.937 82.6 258.69 82.6667 258.463 82.8C258.243 82.9267 258.063 83.1167 257.923 83.37C257.79 83.6167 257.723 83.9133 257.723 84.26V87H256.923V83.88C256.923 83.4467 256.813 83.1267 256.593 82.92C256.38 82.7067 256.097 82.6 255.743 82.6C255.503 82.6 255.27 82.6633 255.043 82.79C254.817 82.91 254.63 83.1 254.483 83.36C254.337 83.62 254.263 83.9433 254.263 84.33V87H253.463V82H254.163L254.213 82.78C254.387 82.4867 254.613 82.2667 254.893 82.12C255.18 81.9733 255.487 81.9 255.813 81.9C256.18 81.9 256.517 81.9833 256.823 82.15C257.137 82.3167 257.373 82.56 257.533 82.88C257.68 82.56 257.92 82.3167 258.253 82.15C258.587 81.9833 258.927 81.9 259.273 81.9ZM264.604 81.9C265.358 81.9 265.948 82.13 266.374 82.59C266.808 83.05 267.024 83.6867 267.024 84.5C267.024 85.3133 266.808 85.95 266.374 86.41C265.948 86.87 265.358 87.1 264.604 87.1C263.851 87.1 263.258 86.87 262.824 86.41C262.398 85.95 262.184 85.3133 262.184 84.5C262.184 83.6867 262.398 83.05 262.824 82.59C263.258 82.13 263.851 81.9 264.604 81.9ZM264.604 82.59C264.098 82.59 263.701 82.76 263.414 83.1C263.128 83.44 262.984 83.9067 262.984 84.5C262.984 85.0933 263.128 85.56 263.414 85.9C263.701 86.24 264.098 86.41 264.604 86.41C265.111 86.41 265.508 86.24 265.794 85.9C266.081 85.56 266.224 85.0933 266.224 84.5C266.224 83.9067 266.081 83.44 265.794 83.1C265.508 82.76 265.111 82.59 264.604 82.59ZM270.188 81.9C270.942 81.9 271.532 82.13 271.958 82.59C272.392 83.05 272.608 83.6867 272.608 84.5C272.608 85.3133 272.392 85.95 271.958 86.41C271.532 86.87 270.942 87.1 270.188 87.1C269.435 87.1 268.842 86.87 268.408 86.41C267.982 85.95 267.768 85.3133 267.768 84.5C267.768 83.6867 267.982 83.05 268.408 82.59C268.842 82.13 269.435 81.9 270.188 81.9ZM270.188 82.59C269.682 82.59 269.285 82.76 268.998 83.1C268.712 83.44 268.568 83.9067 268.568 84.5C268.568 85.0933 268.712 85.56 268.998 85.9C269.285 86.24 269.682 86.41 270.188 86.41C270.695 86.41 271.092 86.24 271.378 85.9C271.665 85.56 271.808 85.0933 271.808 84.5C271.808 83.9067 271.665 83.44 271.378 83.1C271.092 82.76 270.695 82.59 270.188 82.59ZM276.635 86.65C276.301 86.95 275.871 87.1 275.345 87.1C274.938 87.1 274.605 86.99 274.345 86.77C274.091 86.55 273.961 86.2133 273.955 85.76V82.69H272.955V82H273.955V80.8L274.755 80.58V82H276.605V82.69H274.755V85.62C274.755 85.86 274.821 86.0433 274.955 86.17C275.095 86.29 275.278 86.35 275.505 86.35C275.825 86.35 276.108 86.2267 276.355 85.98L276.635 86.65ZM279.694 81.9C280.261 81.9 280.727 82.0633 281.094 82.39C281.461 82.7167 281.644 83.1867 281.644 83.8V87H280.844V84.08C280.844 83.56 280.731 83.1833 280.504 82.95C280.284 82.7167 279.987 82.6 279.614 82.6C279.354 82.6 279.104 82.66 278.864 82.78C278.631 82.9 278.437 83.0933 278.284 83.36C278.137 83.62 278.064 83.95 278.064 84.35V87H277.264V79.7H278.064V82.75C278.231 82.4633 278.454 82.25 278.734 82.11C279.021 81.97 279.341 81.9 279.694 81.9ZM283.715 85.66C283.715 85.9133 283.752 86.09 283.825 86.19C283.905 86.2833 284.049 86.33 284.255 86.33C284.395 86.33 284.515 86.32 284.615 86.3C284.722 86.28 284.845 86.2433 284.985 86.19L284.855 86.96C284.635 87.0533 284.389 87.1 284.115 87.1C283.709 87.1 283.405 86.99 283.205 86.77C283.012 86.55 282.915 86.2133 282.915 85.76V79.7H283.715V85.66ZM287.158 87.84C286.965 88.32 286.748 88.6567 286.508 88.85C286.268 89.05 285.958 89.15 285.578 89.15C285.325 89.15 285.111 89.1167 284.938 89.05C284.771 88.9833 284.618 88.8767 284.478 88.73L284.758 88.05C284.951 88.3167 285.221 88.45 285.568 88.45C285.761 88.45 285.931 88.39 286.078 88.27C286.231 88.1567 286.365 87.9467 286.478 87.64L286.738 86.99L284.648 82H285.558L286.808 85.26L287.118 86.15L287.478 85.16L288.648 82H289.508L287.158 87.84ZM289.768 85.8C289.961 85.8 290.118 85.86 290.238 85.98C290.358 86.1 290.418 86.2567 290.418 86.45C290.418 86.6433 290.358 86.8 290.238 86.92C290.118 87.04 289.961 87.1 289.768 87.1C289.574 87.1 289.418 87.04 289.298 86.92C289.178 86.8 289.118 86.6433 289.118 86.45C289.118 86.2567 289.178 86.1 289.298 85.98C289.418 85.86 289.574 85.8 289.768 85.8Z" fill="#666666"/>
</svg>
