<svg width="53" height="53" viewBox="0 0 53 53" fill="none" xmlns="http://www.w3.org/2000/svg">
<circle cx="26.5" cy="26.5" r="26.5" fill="#FF6F61"/>
<path d="M26.0001 13.6667C18.6481 13.6667 12.6667 19.6481 12.6667 27.0001C12.6667 34.3521 18.6481 40.3334 26.0001 40.3334C33.3521 40.3334 39.3334 34.3521 39.3334 27.0001C39.3334 19.6481 33.3521 13.6667 26.0001 13.6667ZM26.0001 37.6667C20.1187 37.6667 15.3334 32.8814 15.3334 27.0001C15.3334 21.1187 20.1187 16.3334 26.0001 16.3334C31.8814 16.3334 36.6667 21.1187 36.6667 27.0001C36.6667 32.8814 31.8814 37.6667 26.0001 37.6667Z" fill="white"/>
<path d="M23.332 29.116L20.2667 26.056L18.384 27.944L23.3347 32.884L32.276 23.9427L30.3907 22.0574L23.332 29.116Z" fill="white"/>
</svg>
