<svg width="168" height="47" viewBox="0 0 168 47" fill="none" xmlns="http://www.w3.org/2000/svg">
<rect x="1.44214" y="4" width="166.558" height="43" rx="21.5" fill="#008080"/>
<rect x="0.731892" y="0.731892" width="165.094" height="41.5362" rx="20.7681" fill="#FF6F61"/>
<rect x="0.731892" y="0.731892" width="165.094" height="41.5362" rx="20.7681" stroke="#2C3E50" stroke-width="1.46378"/>
<path d="M65.4379 18.312L63.7099 18.856C63.6352 18.4187 63.4165 18.0187 63.0539 17.656C62.6912 17.2933 62.1685 17.112 61.4859 17.112C60.9205 17.112 60.4512 17.272 60.0779 17.592C59.7152 17.912 59.5339 18.296 59.5339 18.744C59.5339 19.5227 59.9765 20.008 60.8619 20.2L62.4939 20.536C63.4752 20.728 64.2325 21.1173 64.7659 21.704C65.2992 22.2907 65.5659 22.9893 65.5659 23.8C65.5659 24.7387 65.2032 25.5493 64.4779 26.232C63.7632 26.904 62.7872 27.24 61.5499 27.24C60.2165 27.24 59.1765 26.8933 58.4299 26.2C57.6832 25.496 57.2619 24.68 57.1659 23.752L58.9579 23.24C59.0219 23.88 59.2779 24.4187 59.7259 24.856C60.1739 25.2933 60.7819 25.512 61.5499 25.512C62.2112 25.512 62.7179 25.368 63.0699 25.08C63.4325 24.7813 63.6139 24.4027 63.6139 23.944C63.6139 23.5707 63.4805 23.2507 63.2139 22.984C62.9472 22.7067 62.5739 22.5147 62.0939 22.408L60.4939 22.072C59.6085 21.8907 58.9045 21.5227 58.3819 20.968C57.8699 20.4133 57.6139 19.72 57.6139 18.888C57.6139 17.9387 57.9925 17.1227 58.7499 16.44C59.5072 15.7573 60.4139 15.416 61.4699 15.416C62.6752 15.416 63.5979 15.7093 64.2379 16.296C64.8779 16.872 65.2779 17.544 65.4379 18.312ZM68.8731 27H67.0331V19.208H68.8731V27ZM67.0971 17.32C66.8624 17.0853 66.7451 16.8027 66.7451 16.472C66.7451 16.1413 66.8624 15.8587 67.0971 15.624C67.3318 15.3787 67.6144 15.256 67.9451 15.256C68.2864 15.256 68.5744 15.3733 68.8091 15.608C69.0438 15.8427 69.1611 16.1307 69.1611 16.472C69.1611 16.8027 69.0438 17.0853 68.8091 17.32C68.5744 17.5547 68.2864 17.672 67.9451 17.672C67.6144 17.672 67.3318 17.5547 67.0971 17.32ZM70.3875 27.432L72.0995 26.984C72.1635 27.4747 72.3715 27.8747 72.7235 28.184C73.0862 28.504 73.5288 28.664 74.0515 28.664C75.5235 28.664 76.2595 27.8853 76.2595 26.328V25.512C76.0782 25.8427 75.7902 26.1147 75.3955 26.328C75.0008 26.5413 74.5368 26.648 74.0035 26.648C72.9582 26.648 72.0942 26.2907 71.4115 25.576C70.7395 24.8613 70.4035 23.9547 70.4035 22.856C70.4035 21.8 70.7395 20.904 71.4115 20.168C72.0835 19.432 72.9475 19.064 74.0035 19.064C75.1448 19.064 75.9128 19.4427 76.3075 20.2V19.208H78.0995V26.264C78.0995 27.416 77.7742 28.3707 77.1235 29.128C76.4728 29.896 75.4648 30.28 74.0995 30.28C73.0968 30.28 72.2542 30.008 71.5715 29.464C70.8888 28.92 70.4942 28.2427 70.3875 27.432ZM74.3075 25.064C74.9048 25.064 75.3848 24.8667 75.7475 24.472C76.1208 24.0667 76.3075 23.528 76.3075 22.856C76.3075 22.1947 76.1208 21.6667 75.7475 21.272C75.3742 20.8667 74.8942 20.664 74.3075 20.664C73.7102 20.664 73.2195 20.8667 72.8355 21.272C72.4622 21.6667 72.2755 22.1947 72.2755 22.856C72.2755 23.528 72.4622 24.0667 72.8355 24.472C73.2088 24.8667 73.6995 25.064 74.3075 25.064ZM81.9054 22.504V27H80.0494V19.208H81.8574V20.248C82.1027 19.8213 82.428 19.5067 82.8334 19.304C83.2494 19.0907 83.692 18.984 84.1614 18.984C85.0787 18.984 85.7774 19.272 86.2574 19.848C86.7374 20.424 86.9774 21.1653 86.9774 22.072V27H85.1214V22.392C85.1214 21.8693 84.9934 21.4533 84.7374 21.144C84.4814 20.824 84.076 20.664 83.5214 20.664C83.0094 20.664 82.6094 20.84 82.3214 21.192C82.044 21.5333 81.9054 21.9707 81.9054 22.504ZM97.6376 26.136C97.4563 26.4773 97.1576 26.744 96.7416 26.936C96.3363 27.128 95.8989 27.224 95.4296 27.224C94.5229 27.224 93.8029 26.9307 93.2696 26.344C92.7469 25.7573 92.4856 25.016 92.4856 24.12V19.208H94.3416V23.784C94.3416 24.3067 94.4696 24.7333 94.7256 25.064C94.9816 25.3947 95.3763 25.56 95.9096 25.56C96.4323 25.56 96.8323 25.4 97.1096 25.08C97.3976 24.76 97.5416 24.3387 97.5416 23.816V19.208H99.3976V25.576C99.3976 26.0453 99.4243 26.52 99.4776 27H97.7016C97.6589 26.7653 97.6376 26.4773 97.6376 26.136ZM103.32 30.04H101.48V19.208H103.272V20.264C103.475 19.912 103.795 19.6187 104.232 19.384C104.669 19.1493 105.176 19.032 105.752 19.032C106.872 19.032 107.752 19.416 108.392 20.184C109.032 20.9413 109.352 21.912 109.352 23.096C109.352 24.28 109.016 25.2613 108.344 26.04C107.672 26.808 106.787 27.192 105.688 27.192C105.155 27.192 104.68 27.0907 104.264 26.888C103.848 26.6853 103.533 26.4293 103.32 26.12V30.04ZM107.496 23.096C107.496 22.3707 107.304 21.7893 106.92 21.352C106.536 20.904 106.029 20.68 105.4 20.68C104.781 20.68 104.275 20.904 103.88 21.352C103.496 21.7893 103.304 22.3707 103.304 23.096C103.304 23.832 103.496 24.424 103.88 24.872C104.275 25.32 104.781 25.544 105.4 25.544C106.019 25.544 106.52 25.32 106.904 24.872C107.299 24.424 107.496 23.832 107.496 23.096Z" fill="white"/>
</svg>
