<svg width="316" height="109" viewBox="0 0 316 109" fill="none" xmlns="http://www.w3.org/2000/svg">
<rect width="316" height="109" rx="10" fill="#F6F7FE"/>
<circle cx="41.5" cy="52.5" r="26.5" fill="#008080"/>
<path d="M41.0001 39.6667C33.6481 39.6667 27.6667 45.6481 27.6667 53.0001C27.6667 60.3521 33.6481 66.3334 41.0001 66.3334C48.3521 66.3334 54.3334 60.3521 54.3334 53.0001C54.3334 45.6481 48.3521 39.6667 41.0001 39.6667ZM41.0001 63.6667C35.1187 63.6667 30.3334 58.8814 30.3334 53.0001C30.3334 47.1187 35.1187 42.3334 41.0001 42.3334C46.8814 42.3334 51.6667 47.1187 51.6667 53.0001C51.6667 58.8814 46.8814 63.6667 41.0001 63.6667Z" fill="white"/>
<path d="M38.332 55.116L35.2667 52.056L33.384 53.944L38.3347 58.884L47.276 49.9427L45.3907 48.0574L38.332 55.116Z" fill="white"/>
<path d="M92.43 29.23L89.306 30.11C89.196 29.384 88.602 28.152 86.71 28.152C85.412 28.152 84.576 28.966 84.576 29.824C84.576 30.572 85.038 31.122 86.116 31.32L88.206 31.716C91.176 32.266 92.716 34.18 92.716 36.402C92.716 38.844 90.67 41.33 86.952 41.33C82.64 41.33 80.792 38.536 80.572 36.336L83.762 35.566C83.894 36.996 84.862 38.25 86.996 38.25C88.36 38.25 89.196 37.59 89.196 36.622C89.196 35.83 88.558 35.258 87.524 35.06L85.39 34.664C82.75 34.158 81.144 32.398 81.144 30.088C81.144 27.14 83.74 25.072 86.732 25.072C90.626 25.072 92.1 27.404 92.43 29.23ZM111.666 41H108.256V30.66L104.186 41H101.37L97.3002 30.792V41H94.0002V25.402H98.5323L102.822 35.94L106.892 25.402H111.666V41ZM124.405 41L123.283 37.832H117.255L116.133 41H112.481L118.355 25.402H122.381L128.189 41H124.405ZM120.313 29.274L118.399 34.664H122.183L120.313 29.274ZM136.513 41L133.719 35.192H132.487V41H129.011V25.402H135.193C138.273 25.402 140.253 27.514 140.253 30.286C140.253 32.398 139.087 34.004 137.173 34.686L140.341 41H136.513ZM132.487 32.2H134.533C135.963 32.2 136.733 31.408 136.733 30.308C136.733 29.142 135.963 28.416 134.533 28.416H132.487V32.2ZM153.54 28.724H148.722V41H145.246V28.724H140.45V25.402H153.54V28.724Z" fill="#181818"/>
<path d="M84.774 51.76C86.2207 51.76 87.3407 52.1613 88.134 52.964C88.9273 53.7667 89.324 54.9053 89.324 56.38C89.324 57.8547 88.9273 58.9933 88.134 59.796C87.3407 60.5987 86.2207 61 84.774 61H81.204V51.76H84.774ZM84.676 59.46C85.5533 59.46 86.2113 59.1987 86.65 58.676C87.098 58.144 87.322 57.3787 87.322 56.38C87.322 55.3813 87.098 54.6207 86.65 54.098C86.2113 53.566 85.5533 53.3 84.676 53.3H83.136V59.46H84.676ZM96.7138 59.838C96.9098 59.838 97.0685 59.8193 97.1898 59.782L97.0498 60.944C96.7885 61.0747 96.4851 61.14 96.1398 61.14C95.2438 61.14 94.7071 60.79 94.5298 60.09C94.3245 60.4353 94.0071 60.6967 93.5778 60.874C93.1485 61.0513 92.6398 61.14 92.0518 61.14C91.3705 61.14 90.8385 60.986 90.4558 60.678C90.0731 60.37 89.8818 59.9267 89.8818 59.348C89.8818 58.2093 90.7918 57.472 92.6118 57.136L94.2918 56.814V56.478C94.2918 56.1047 94.1845 55.8107 93.9698 55.596C93.7645 55.372 93.4751 55.26 93.1018 55.26C92.6725 55.26 92.3225 55.3533 92.0518 55.54C91.7811 55.7267 91.5945 56.03 91.4918 56.45L89.9658 55.806C90.1151 55.1993 90.4511 54.7233 90.9738 54.378C91.4965 54.0327 92.1778 53.86 93.0178 53.86C94.0165 53.86 94.7958 54.0793 95.3558 54.518C95.9158 54.9473 96.1958 55.5867 96.1958 56.436V59.306C96.1958 59.4927 96.2378 59.628 96.3218 59.712C96.4058 59.796 96.5365 59.838 96.7138 59.838ZM92.6538 59.838C93.0645 59.838 93.4378 59.74 93.7738 59.544C94.1191 59.3387 94.2918 59.0633 94.2918 58.718V57.99L92.7938 58.326C92.4765 58.4007 92.2385 58.5033 92.0798 58.634C91.9305 58.7553 91.8558 58.928 91.8558 59.152C91.8558 59.376 91.9258 59.5487 92.0658 59.67C92.2058 59.782 92.4018 59.838 92.6538 59.838ZM102.183 60.566C101.959 60.7433 101.675 60.8833 101.329 60.986C100.993 61.0887 100.639 61.14 100.265 61.14C98.7068 61.14 97.9274 60.4353 97.9274 59.026V55.428H96.6534V54H97.9274V52.39L99.8454 51.858V54H102.113V55.428H99.8454V58.718C99.8454 59.362 100.167 59.684 100.811 59.684C101.222 59.684 101.581 59.5533 101.889 59.292L102.183 60.566ZM109.15 59.838C109.346 59.838 109.504 59.8193 109.626 59.782L109.486 60.944C109.224 61.0747 108.921 61.14 108.576 61.14C107.68 61.14 107.143 60.79 106.966 60.09C106.76 60.4353 106.443 60.6967 106.014 60.874C105.584 61.0513 105.076 61.14 104.488 61.14C103.806 61.14 103.274 60.986 102.892 60.678C102.509 60.37 102.318 59.9267 102.318 59.348C102.318 58.2093 103.228 57.472 105.048 57.136L106.728 56.814V56.478C106.728 56.1047 106.62 55.8107 106.406 55.596C106.2 55.372 105.911 55.26 105.538 55.26C105.108 55.26 104.758 55.3533 104.488 55.54C104.217 55.7267 104.03 56.03 103.928 56.45L102.402 55.806C102.551 55.1993 102.887 54.7233 103.41 54.378C103.932 54.0327 104.614 53.86 105.454 53.86C106.452 53.86 107.232 54.0793 107.792 54.518C108.352 54.9473 108.632 55.5867 108.632 56.436V59.306C108.632 59.4927 108.674 59.628 108.758 59.712C108.842 59.796 108.972 59.838 109.15 59.838ZM105.09 59.838C105.5 59.838 105.874 59.74 106.21 59.544C106.555 59.3387 106.728 59.0633 106.728 58.718V57.99L105.23 58.326C104.912 58.4007 104.674 58.5033 104.516 58.634C104.366 58.7553 104.292 58.928 104.292 59.152C104.292 59.376 104.362 59.5487 104.502 59.67C104.642 59.782 104.838 59.838 105.09 59.838ZM114.996 58.116H110.054V56.464H114.996V58.116ZM120.253 51.76C121.699 51.76 122.819 52.1613 123.613 52.964C124.406 53.7667 124.803 54.9053 124.803 56.38C124.803 57.8547 124.406 58.9933 123.613 59.796C122.819 60.5987 121.699 61 120.253 61H116.683V51.76H120.253ZM120.155 59.46C121.032 59.46 121.69 59.1987 122.129 58.676C122.577 58.144 122.801 57.3787 122.801 56.38C122.801 55.3813 122.577 54.6207 122.129 54.098C121.69 53.566 121.032 53.3 120.155 53.3H118.615V59.46H120.155ZM129.77 53.86C130.097 53.86 130.349 53.9113 130.526 54.014L130.288 55.694C130.073 55.554 129.779 55.484 129.406 55.484C128.949 55.484 128.552 55.652 128.216 55.988C127.889 56.3147 127.726 56.7767 127.726 57.374V61H125.808V54H127.474L127.6 55.372C127.983 54.364 128.706 53.86 129.77 53.86ZM131.98 52.992C131.187 52.992 130.79 52.6513 130.79 51.97C130.79 51.2793 131.187 50.934 131.98 50.934C132.774 50.934 133.17 51.2793 133.17 51.97C133.17 52.6513 132.774 52.992 131.98 52.992ZM132.932 61H131.014V54H132.932V61ZM140.845 54L138.185 61H135.973L133.313 54H135.371L137.093 59.656L138.857 54H140.845ZM147.65 57.472C147.65 57.7333 147.632 57.9853 147.594 58.228H142.638C142.834 59.2173 143.418 59.712 144.388 59.712C144.79 59.712 145.121 59.6373 145.382 59.488C145.644 59.3387 145.826 59.124 145.928 58.844L147.496 59.418C147.272 59.978 146.894 60.4073 146.362 60.706C145.84 60.9953 145.182 61.14 144.388 61.14C143.231 61.14 142.335 60.8227 141.7 60.188C141.066 59.544 140.748 58.648 140.748 57.5C140.748 56.352 141.056 55.4607 141.672 54.826C142.288 54.182 143.156 53.86 144.276 53.86C145.359 53.86 146.19 54.1727 146.768 54.798C147.356 55.4233 147.65 56.3147 147.65 57.472ZM144.262 55.274C143.796 55.274 143.422 55.4093 143.142 55.68C142.872 55.9507 142.699 56.352 142.624 56.884H145.886C145.812 56.3613 145.634 55.9647 145.354 55.694C145.074 55.414 144.71 55.274 144.262 55.274ZM152.733 53.86C153.489 53.86 154.095 54.0793 154.553 54.518C155.019 54.9567 155.253 55.5867 155.253 56.408V61H153.335V56.968C153.335 55.904 152.919 55.372 152.089 55.372C151.641 55.372 151.258 55.5307 150.941 55.848C150.633 56.1653 150.479 56.6507 150.479 57.304V61H148.561V54H150.283L150.339 55.246C150.572 54.7887 150.894 54.4433 151.305 54.21C151.715 53.9767 152.191 53.86 152.733 53.86ZM163.678 51.62C164.537 51.62 165.274 51.7647 165.89 52.054C166.506 52.334 167.047 52.782 167.514 53.398L166.184 54.7C165.941 54.196 165.619 53.8227 165.218 53.58C164.817 53.328 164.308 53.202 163.692 53.202C163.132 53.202 162.698 53.3093 162.39 53.524C162.091 53.7293 161.942 54.0047 161.942 54.35C161.942 54.6673 162.096 54.9193 162.404 55.106C162.712 55.2927 163.267 55.456 164.07 55.596C164.91 55.7547 165.577 55.9507 166.072 56.184C166.567 56.4173 166.926 56.7113 167.15 57.066C167.383 57.4113 167.5 57.8453 167.5 58.368C167.5 58.9373 167.337 59.432 167.01 59.852C166.693 60.2627 166.245 60.58 165.666 60.804C165.097 61.028 164.443 61.14 163.706 61.14C162.689 61.14 161.853 61 161.2 60.72C160.556 60.4307 160.033 59.9967 159.632 59.418L160.78 58.046C161.125 58.6153 161.522 59.012 161.97 59.236C162.418 59.4507 162.973 59.558 163.636 59.558C164.233 59.558 164.686 59.4647 164.994 59.278C165.311 59.0913 165.47 58.8253 165.47 58.48C165.47 58.228 165.321 58.018 165.022 57.85C164.733 57.682 164.21 57.5233 163.454 57.374C162.586 57.1967 161.891 56.9867 161.368 56.744C160.855 56.5013 160.481 56.2027 160.248 55.848C160.015 55.4933 159.898 55.0547 159.898 54.532C159.898 53.9813 160.047 53.4867 160.346 53.048C160.645 52.6 161.079 52.25 161.648 51.998C162.227 51.746 162.903 51.62 163.678 51.62ZM175.013 54V61H173.305L173.235 59.796C172.787 60.692 171.97 61.14 170.785 61.14C170.029 61.14 169.427 60.9393 168.979 60.538C168.54 60.1273 168.321 59.4927 168.321 58.634V54H170.239V58.144C170.239 58.6853 170.342 59.068 170.547 59.292C170.752 59.516 171.056 59.628 171.457 59.628C171.942 59.628 172.334 59.474 172.633 59.166C172.941 58.8487 173.095 58.3773 173.095 57.752V54H175.013ZM179.537 53.86C180.461 53.86 181.18 54.0467 181.693 54.42C182.206 54.7933 182.556 55.2927 182.743 55.918L180.951 56.562C180.783 55.7127 180.33 55.288 179.593 55.288C179.042 55.288 178.618 55.4793 178.319 55.862C178.03 56.2353 177.885 56.786 177.885 57.514C177.885 58.242 178.034 58.7927 178.333 59.166C178.632 59.53 179.047 59.712 179.579 59.712C180.4 59.712 180.886 59.2967 181.035 58.466L182.771 59.026C182.622 59.67 182.272 60.1833 181.721 60.566C181.18 60.9487 180.475 61.14 179.607 61.14C178.45 61.14 177.554 60.8227 176.919 60.188C176.284 59.544 175.967 58.648 175.967 57.5C175.967 56.352 176.28 55.4607 176.905 54.826C177.54 54.182 178.417 53.86 179.537 53.86ZM186.808 53.86C187.732 53.86 188.45 54.0467 188.964 54.42C189.477 54.7933 189.827 55.2927 190.014 55.918L188.222 56.562C188.054 55.7127 187.601 55.288 186.864 55.288C186.313 55.288 185.888 55.4793 185.59 55.862C185.3 56.2353 185.156 56.786 185.156 57.514C185.156 58.242 185.305 58.7927 185.604 59.166C185.902 59.53 186.318 59.712 186.85 59.712C187.671 59.712 188.156 59.2967 188.306 58.466L190.042 59.026C189.892 59.67 189.542 60.1833 188.992 60.566C188.45 60.9487 187.746 61.14 186.878 61.14C185.72 61.14 184.824 60.8227 184.19 60.188C183.555 59.544 183.238 58.648 183.238 57.5C183.238 56.352 183.55 55.4607 184.176 54.826C184.81 54.182 185.688 53.86 186.808 53.86ZM197.41 57.472C197.41 57.7333 197.392 57.9853 197.354 58.228H192.398C192.594 59.2173 193.178 59.712 194.148 59.712C194.55 59.712 194.881 59.6373 195.142 59.488C195.404 59.3387 195.586 59.124 195.688 58.844L197.256 59.418C197.032 59.978 196.654 60.4073 196.122 60.706C195.6 60.9953 194.942 61.14 194.148 61.14C192.991 61.14 192.095 60.8227 191.46 60.188C190.826 59.544 190.508 58.648 190.508 57.5C190.508 56.352 190.816 55.4607 191.432 54.826C192.048 54.182 192.916 53.86 194.036 53.86C195.119 53.86 195.95 54.1727 196.528 54.798C197.116 55.4233 197.41 56.3147 197.41 57.472ZM194.022 55.274C193.556 55.274 193.182 55.4093 192.902 55.68C192.632 55.9507 192.459 56.352 192.384 56.884H195.646C195.572 56.3613 195.394 55.9647 195.114 55.694C194.834 55.414 194.47 55.274 194.022 55.274ZM201.037 61.14C199.478 61.14 198.396 60.692 197.789 59.796L198.909 58.648C199.096 59.0493 199.362 59.334 199.707 59.502C200.062 59.6607 200.496 59.74 201.009 59.74C201.42 59.74 201.737 59.684 201.961 59.572C202.185 59.46 202.297 59.306 202.297 59.11C202.297 58.9513 202.19 58.816 201.975 58.704C201.77 58.592 201.41 58.4847 200.897 58.382C199.824 58.1673 199.068 57.8873 198.629 57.542C198.2 57.1873 197.985 56.7113 197.985 56.114C197.985 55.722 198.106 55.3533 198.349 55.008C198.592 54.6627 198.951 54.3873 199.427 54.182C199.903 53.9673 200.472 53.86 201.135 53.86C201.919 53.86 202.554 53.9813 203.039 54.224C203.524 54.4573 203.93 54.8307 204.257 55.344L203.067 56.352C202.862 55.9787 202.605 55.7033 202.297 55.526C201.998 55.3487 201.62 55.26 201.163 55.26C200.78 55.26 200.472 55.3253 200.239 55.456C200.015 55.5867 199.903 55.7453 199.903 55.932C199.903 56.128 200.015 56.2913 200.239 56.422C200.463 56.5527 200.86 56.674 201.429 56.786C202.446 56.9913 203.165 57.262 203.585 57.598C204.014 57.9247 204.229 58.382 204.229 58.97C204.229 59.6233 203.949 60.1507 203.389 60.552C202.838 60.944 202.054 61.14 201.037 61.14ZM207.774 61.14C206.216 61.14 205.133 60.692 204.526 59.796L205.646 58.648C205.833 59.0493 206.099 59.334 206.444 59.502C206.799 59.6607 207.233 59.74 207.746 59.74C208.157 59.74 208.474 59.684 208.698 59.572C208.922 59.46 209.034 59.306 209.034 59.11C209.034 58.9513 208.927 58.816 208.712 58.704C208.507 58.592 208.148 58.4847 207.634 58.382C206.561 58.1673 205.805 57.8873 205.366 57.542C204.937 57.1873 204.722 56.7113 204.722 56.114C204.722 55.722 204.844 55.3533 205.086 55.008C205.329 54.6627 205.688 54.3873 206.164 54.182C206.64 53.9673 207.21 53.86 207.872 53.86C208.656 53.86 209.291 53.9813 209.776 54.224C210.262 54.4573 210.668 54.8307 210.994 55.344L209.804 56.352C209.599 55.9787 209.342 55.7033 209.034 55.526C208.736 55.3487 208.358 55.26 207.9 55.26C207.518 55.26 207.21 55.3253 206.976 55.456C206.752 55.5867 206.64 55.7453 206.64 55.932C206.64 56.128 206.752 56.2913 206.976 56.422C207.2 56.5527 207.597 56.674 208.166 56.786C209.184 56.9913 209.902 57.262 210.322 57.598C210.752 57.9247 210.966 58.382 210.966 58.97C210.966 59.6233 210.686 60.1507 210.126 60.552C209.576 60.944 208.792 61.14 207.774 61.14Z" fill="#666666"/>
<path d="M85.66 75.25V76H81.08V69.4H81.88V75.25H85.66ZM90.5501 73.24C90.5501 73.4267 90.5367 73.6133 90.5101 73.8H86.7401C86.7867 74.3067 86.9534 74.7 87.2401 74.98C87.5334 75.26 87.9101 75.4 88.3701 75.4C88.7367 75.4 89.0401 75.3367 89.2801 75.21C89.5267 75.0833 89.6934 74.9 89.7801 74.66L90.4501 75.01C90.2501 75.3633 89.9834 75.6333 89.6501 75.82C89.3167 76.0067 88.8901 76.1 88.3701 76.1C87.6167 76.1 87.0234 75.87 86.5901 75.41C86.1634 74.95 85.9501 74.3133 85.9501 73.5C85.9501 72.6867 86.1534 72.05 86.5601 71.59C86.9734 71.13 87.5567 70.9 88.3101 70.9C88.7767 70.9 89.1801 71.0033 89.5201 71.21C89.8601 71.4167 90.1167 71.6967 90.2901 72.05C90.4634 72.4033 90.5501 72.8 90.5501 73.24ZM88.3101 71.6C87.8701 71.6 87.5134 71.73 87.2401 71.99C86.9734 72.25 86.8101 72.6167 86.7501 73.09H89.7801C89.7267 72.6233 89.5734 72.26 89.3201 72C89.0667 71.7333 88.7301 71.6 88.3101 71.6ZM95.5839 71L93.5039 76H92.7039L90.6239 71H91.5339L93.1139 75.19L94.7439 71H95.5839ZM100.419 73.24C100.419 73.4267 100.406 73.6133 100.379 73.8H96.6092C96.6559 74.3067 96.8226 74.7 97.1092 74.98C97.4026 75.26 97.7792 75.4 98.2392 75.4C98.6059 75.4 98.9092 75.3367 99.1492 75.21C99.3959 75.0833 99.5626 74.9 99.6492 74.66L100.319 75.01C100.119 75.3633 99.8526 75.6333 99.5192 75.82C99.1859 76.0067 98.7592 76.1 98.2392 76.1C97.4859 76.1 96.8926 75.87 96.4592 75.41C96.0326 74.95 95.8192 74.3133 95.8192 73.5C95.8192 72.6867 96.0226 72.05 96.4292 71.59C96.8426 71.13 97.4259 70.9 98.1792 70.9C98.6459 70.9 99.0492 71.0033 99.3892 71.21C99.7292 71.4167 99.9859 71.6967 100.159 72.05C100.333 72.4033 100.419 72.8 100.419 73.24ZM98.1792 71.6C97.7392 71.6 97.3826 71.73 97.1092 71.99C96.8426 72.25 96.6792 72.6167 96.6192 73.09H99.6492C99.5959 72.6233 99.4426 72.26 99.1892 72C98.9359 71.7333 98.5992 71.6 98.1792 71.6ZM103.8 70.9C104.04 70.9 104.223 70.9333 104.35 71L104.19 71.78C104.03 71.6933 103.82 71.65 103.56 71.65C103.346 71.65 103.136 71.7133 102.93 71.84C102.73 71.96 102.563 72.1467 102.43 72.4C102.303 72.6467 102.24 72.9467 102.24 73.3V76H101.44V71H102.09L102.2 71.82C102.48 71.2067 103.013 70.9 103.8 70.9ZM108.985 75.42C109.118 75.42 109.252 75.4033 109.385 75.37L109.335 76C109.148 76.0667 108.948 76.1 108.735 76.1C108.475 76.1 108.268 76.0433 108.115 75.93C107.968 75.8167 107.875 75.6267 107.835 75.36C107.682 75.5933 107.455 75.7767 107.155 75.91C106.862 76.0367 106.552 76.1 106.225 76.1C105.732 76.1 105.325 75.9867 105.005 75.76C104.685 75.5267 104.525 75.1933 104.525 74.76C104.525 74.38 104.692 74.0533 105.025 73.78C105.358 73.5 105.842 73.3067 106.475 73.2L107.805 72.98V72.7C107.805 72.3667 107.702 72.1 107.495 71.9C107.288 71.7 107.002 71.6 106.635 71.6C106.302 71.6 106.012 71.68 105.765 71.84C105.525 72 105.338 72.2367 105.205 72.55L104.615 72.12C104.748 71.7467 104.995 71.45 105.355 71.23C105.722 71.01 106.148 70.9 106.635 70.9C107.228 70.9 107.705 71.0433 108.065 71.33C108.425 71.6167 108.605 72.04 108.605 72.6V75.06C108.605 75.18 108.635 75.27 108.695 75.33C108.755 75.39 108.852 75.42 108.985 75.42ZM106.265 75.4C106.685 75.4 107.045 75.3 107.345 75.1C107.652 74.9 107.805 74.64 107.805 74.32V73.63L106.685 73.84C106.238 73.92 105.905 74.0367 105.685 74.19C105.465 74.3367 105.355 74.5267 105.355 74.76C105.355 74.9667 105.435 75.1267 105.595 75.24C105.755 75.3467 105.978 75.4 106.265 75.4ZM112.839 75.36C113.312 75.36 113.682 75.4667 113.949 75.68C114.216 75.8933 114.349 76.1833 114.349 76.55C114.349 76.87 114.239 77.15 114.019 77.39C113.799 77.6367 113.499 77.8233 113.119 77.95C112.746 78.0833 112.332 78.15 111.879 78.15C111.119 78.15 110.546 78.0267 110.159 77.78C109.772 77.54 109.579 77.2233 109.579 76.83C109.579 76.6033 109.656 76.4033 109.809 76.23C109.969 76.0567 110.186 75.9333 110.459 75.86C110.252 75.76 110.086 75.6333 109.959 75.48C109.839 75.3267 109.779 75.1467 109.779 74.94C109.779 74.6933 109.846 74.49 109.979 74.33C110.112 74.1633 110.296 74.04 110.529 73.96C110.289 73.8133 110.106 73.6233 109.979 73.39C109.859 73.15 109.799 72.8833 109.799 72.59C109.799 72.2633 109.886 71.9733 110.059 71.72C110.232 71.46 110.476 71.26 110.789 71.12C111.102 70.9733 111.456 70.9 111.849 70.9C112.222 70.9 112.562 70.9667 112.869 71.1C113.056 70.42 113.526 70.08 114.279 70.08L114.459 70.78C113.806 70.78 113.409 70.9633 113.269 71.33C113.469 71.4833 113.622 71.6667 113.729 71.88C113.842 72.0933 113.899 72.33 113.899 72.59C113.899 72.9167 113.812 73.21 113.639 73.47C113.466 73.7233 113.222 73.9233 112.909 74.07C112.596 74.21 112.242 74.28 111.849 74.28C111.556 74.28 111.299 74.25 111.079 74.19C110.879 74.2367 110.736 74.31 110.649 74.41C110.562 74.51 110.519 74.6467 110.519 74.82C110.519 74.9933 110.579 75.1267 110.699 75.22C110.819 75.3133 110.979 75.36 111.179 75.36H112.839ZM111.849 71.55C111.502 71.55 111.212 71.6467 110.979 71.84C110.746 72.0333 110.629 72.2833 110.629 72.59C110.629 72.8967 110.746 73.1467 110.979 73.34C111.212 73.5333 111.502 73.63 111.849 73.63C112.196 73.63 112.486 73.5333 112.719 73.34C112.952 73.1467 113.069 72.8967 113.069 72.59C113.069 72.2833 112.952 72.0333 112.719 71.84C112.486 71.6467 112.196 71.55 111.849 71.55ZM111.969 77.48C112.476 77.48 112.876 77.3967 113.169 77.23C113.462 77.07 113.609 76.8733 113.609 76.64C113.609 76.4467 113.532 76.3 113.379 76.2C113.232 76.1 112.979 76.05 112.619 76.05H111.279C110.972 76.05 110.736 76.1033 110.569 76.21C110.402 76.3233 110.319 76.4767 110.319 76.67C110.319 76.9233 110.459 77.12 110.739 77.26C111.019 77.4067 111.429 77.48 111.969 77.48ZM119.327 73.24C119.327 73.4267 119.314 73.6133 119.287 73.8H115.517C115.564 74.3067 115.731 74.7 116.017 74.98C116.311 75.26 116.687 75.4 117.147 75.4C117.514 75.4 117.817 75.3367 118.057 75.21C118.304 75.0833 118.471 74.9 118.557 74.66L119.227 75.01C119.027 75.3633 118.761 75.6333 118.427 75.82C118.094 76.0067 117.667 76.1 117.147 76.1C116.394 76.1 115.801 75.87 115.367 75.41C114.941 74.95 114.727 74.3133 114.727 73.5C114.727 72.6867 114.931 72.05 115.337 71.59C115.751 71.13 116.334 70.9 117.087 70.9C117.554 70.9 117.957 71.0033 118.297 71.21C118.637 71.4167 118.894 71.6967 119.067 72.05C119.241 72.4033 119.327 72.8 119.327 73.24ZM117.087 71.6C116.647 71.6 116.291 71.73 116.017 71.99C115.751 72.25 115.587 72.6167 115.527 73.09H118.557C118.504 72.6233 118.351 72.26 118.097 72C117.844 71.7333 117.507 71.6 117.087 71.6ZM123.656 70.04C123.476 70.04 123.33 69.9867 123.216 69.88C123.11 69.7667 123.056 69.62 123.056 69.44C123.056 69.26 123.11 69.1167 123.216 69.01C123.33 68.8967 123.476 68.84 123.656 68.84C123.836 68.84 123.98 68.8967 124.086 69.01C124.2 69.1167 124.256 69.26 124.256 69.44C124.256 69.62 124.2 69.7667 124.086 69.88C123.98 69.9867 123.836 70.04 123.656 70.04ZM124.056 76H123.256V71H124.056V76ZM127.842 70.9C128.409 70.9 128.876 71.0633 129.242 71.39C129.609 71.7167 129.792 72.1867 129.792 72.8V76H128.992V73.08C128.992 72.56 128.879 72.1833 128.652 71.95C128.432 71.7167 128.136 71.6 127.762 71.6C127.496 71.6 127.246 71.66 127.012 71.78C126.779 71.8933 126.586 72.0833 126.432 72.35C126.286 72.61 126.212 72.94 126.212 73.34V76H125.412V71H126.112L126.162 71.78C126.329 71.48 126.559 71.26 126.852 71.12C127.146 70.9733 127.476 70.9 127.842 70.9ZM134.095 75.65C133.762 75.95 133.332 76.1 132.805 76.1C132.399 76.1 132.065 75.99 131.805 75.77C131.552 75.55 131.422 75.2133 131.415 74.76V71.69H130.415V71H131.415V69.8L132.215 69.58V71H134.065V71.69H132.215V74.62C132.215 74.86 132.282 75.0433 132.415 75.17C132.555 75.29 132.739 75.35 132.965 75.35C133.285 75.35 133.569 75.2267 133.815 74.98L134.095 75.65ZM139.015 73.24C139.015 73.4267 139.002 73.6133 138.975 73.8H135.205C135.252 74.3067 135.418 74.7 135.705 74.98C135.998 75.26 136.375 75.4 136.835 75.4C137.202 75.4 137.505 75.3367 137.745 75.21C137.992 75.0833 138.158 74.9 138.245 74.66L138.915 75.01C138.715 75.3633 138.448 75.6333 138.115 75.82C137.782 76.0067 137.355 76.1 136.835 76.1C136.082 76.1 135.488 75.87 135.055 75.41C134.628 74.95 134.415 74.3133 134.415 73.5C134.415 72.6867 134.618 72.05 135.025 71.59C135.438 71.13 136.022 70.9 136.775 70.9C137.242 70.9 137.645 71.0033 137.985 71.21C138.325 71.4167 138.582 71.6967 138.755 72.05C138.928 72.4033 139.015 72.8 139.015 73.24ZM136.775 71.6C136.335 71.6 135.978 71.73 135.705 71.99C135.438 72.25 135.275 72.6167 135.215 73.09H138.245C138.192 72.6233 138.038 72.26 137.785 72C137.532 71.7333 137.195 71.6 136.775 71.6ZM140.795 74.66C140.795 74.9133 140.832 75.09 140.905 75.19C140.985 75.2833 141.129 75.33 141.335 75.33C141.475 75.33 141.595 75.32 141.695 75.3C141.802 75.28 141.925 75.2433 142.065 75.19L141.935 75.96C141.715 76.0533 141.469 76.1 141.195 76.1C140.789 76.1 140.485 75.99 140.285 75.77C140.092 75.55 139.995 75.2133 139.995 74.76V68.7H140.795V74.66ZM143.352 74.66C143.352 74.9133 143.389 75.09 143.462 75.19C143.542 75.2833 143.685 75.33 143.892 75.33C144.032 75.33 144.152 75.32 144.252 75.3C144.359 75.28 144.482 75.2433 144.622 75.19L144.492 75.96C144.272 76.0533 144.025 76.1 143.752 76.1C143.345 76.1 143.042 75.99 142.842 75.77C142.649 75.55 142.552 75.2133 142.552 74.76V68.7H143.352V74.66ZM145.549 70.04C145.369 70.04 145.222 69.9867 145.109 69.88C145.002 69.7667 144.949 69.62 144.949 69.44C144.949 69.26 145.002 69.1167 145.109 69.01C145.222 68.8967 145.369 68.84 145.549 68.84C145.729 68.84 145.872 68.8967 145.979 69.01C146.092 69.1167 146.149 69.26 146.149 69.44C146.149 69.62 146.092 69.7667 145.979 69.88C145.872 69.9867 145.729 70.04 145.549 70.04ZM145.949 76H145.149V71H145.949V76ZM150.095 75.36C150.568 75.36 150.938 75.4667 151.205 75.68C151.472 75.8933 151.605 76.1833 151.605 76.55C151.605 76.87 151.495 77.15 151.275 77.39C151.055 77.6367 150.755 77.8233 150.375 77.95C150.002 78.0833 149.588 78.15 149.135 78.15C148.375 78.15 147.802 78.0267 147.415 77.78C147.028 77.54 146.835 77.2233 146.835 76.83C146.835 76.6033 146.912 76.4033 147.065 76.23C147.225 76.0567 147.442 75.9333 147.715 75.86C147.508 75.76 147.342 75.6333 147.215 75.48C147.095 75.3267 147.035 75.1467 147.035 74.94C147.035 74.6933 147.102 74.49 147.235 74.33C147.368 74.1633 147.552 74.04 147.785 73.96C147.545 73.8133 147.362 73.6233 147.235 73.39C147.115 73.15 147.055 72.8833 147.055 72.59C147.055 72.2633 147.142 71.9733 147.315 71.72C147.488 71.46 147.732 71.26 148.045 71.12C148.358 70.9733 148.712 70.9 149.105 70.9C149.478 70.9 149.818 70.9667 150.125 71.1C150.312 70.42 150.782 70.08 151.535 70.08L151.715 70.78C151.062 70.78 150.665 70.9633 150.525 71.33C150.725 71.4833 150.878 71.6667 150.985 71.88C151.098 72.0933 151.155 72.33 151.155 72.59C151.155 72.9167 151.068 73.21 150.895 73.47C150.722 73.7233 150.478 73.9233 150.165 74.07C149.852 74.21 149.498 74.28 149.105 74.28C148.812 74.28 148.555 74.25 148.335 74.19C148.135 74.2367 147.992 74.31 147.905 74.41C147.818 74.51 147.775 74.6467 147.775 74.82C147.775 74.9933 147.835 75.1267 147.955 75.22C148.075 75.3133 148.235 75.36 148.435 75.36H150.095ZM149.105 71.55C148.758 71.55 148.468 71.6467 148.235 71.84C148.002 72.0333 147.885 72.2833 147.885 72.59C147.885 72.8967 148.002 73.1467 148.235 73.34C148.468 73.5333 148.758 73.63 149.105 73.63C149.452 73.63 149.742 73.5333 149.975 73.34C150.208 73.1467 150.325 72.8967 150.325 72.59C150.325 72.2833 150.208 72.0333 149.975 71.84C149.742 71.6467 149.452 71.55 149.105 71.55ZM149.225 77.48C149.732 77.48 150.132 77.3967 150.425 77.23C150.718 77.07 150.865 76.8733 150.865 76.64C150.865 76.4467 150.788 76.3 150.635 76.2C150.488 76.1 150.235 76.05 149.875 76.05H148.535C148.228 76.05 147.992 76.1033 147.825 76.21C147.658 76.3233 147.575 76.4767 147.575 76.67C147.575 76.9233 147.715 77.12 147.995 77.26C148.275 77.4067 148.685 77.48 149.225 77.48ZM156.583 73.24C156.583 73.4267 156.57 73.6133 156.543 73.8H152.773C152.82 74.3067 152.987 74.7 153.273 74.98C153.567 75.26 153.943 75.4 154.403 75.4C154.77 75.4 155.073 75.3367 155.313 75.21C155.56 75.0833 155.727 74.9 155.813 74.66L156.483 75.01C156.283 75.3633 156.017 75.6333 155.683 75.82C155.35 76.0067 154.923 76.1 154.403 76.1C153.65 76.1 153.057 75.87 152.623 75.41C152.197 74.95 151.983 74.3133 151.983 73.5C151.983 72.6867 152.187 72.05 152.593 71.59C153.007 71.13 153.59 70.9 154.343 70.9C154.81 70.9 155.213 71.0033 155.553 71.21C155.893 71.4167 156.15 71.6967 156.323 72.05C156.497 72.4033 156.583 72.8 156.583 73.24ZM154.343 71.6C153.903 71.6 153.547 71.73 153.273 71.99C153.007 72.25 152.843 72.6167 152.783 73.09H155.813C155.76 72.6233 155.607 72.26 155.353 72C155.1 71.7333 154.763 71.6 154.343 71.6ZM160.034 70.9C160.6 70.9 161.067 71.0633 161.434 71.39C161.8 71.7167 161.984 72.1867 161.984 72.8V76H161.184V73.08C161.184 72.56 161.07 72.1833 160.844 71.95C160.624 71.7167 160.327 71.6 159.954 71.6C159.687 71.6 159.437 71.66 159.204 71.78C158.97 71.8933 158.777 72.0833 158.624 72.35C158.477 72.61 158.404 72.94 158.404 73.34V76H157.604V71H158.304L158.354 71.78C158.52 71.48 158.75 71.26 159.044 71.12C159.337 70.9733 159.667 70.9 160.034 70.9ZM166.287 75.65C165.954 75.95 165.524 76.1 164.997 76.1C164.59 76.1 164.257 75.99 163.997 75.77C163.744 75.55 163.614 75.2133 163.607 74.76V71.69H162.607V71H163.607V69.8L164.407 69.58V71H166.257V71.69H164.407V74.62C164.407 74.86 164.474 75.0433 164.607 75.17C164.747 75.29 164.93 75.35 165.157 75.35C165.477 75.35 165.76 75.2267 166.007 74.98L166.287 75.65ZM170.225 70.04C170.045 70.04 169.898 69.9867 169.785 69.88C169.678 69.7667 169.625 69.62 169.625 69.44C169.625 69.26 169.678 69.1167 169.785 69.01C169.898 68.8967 170.045 68.84 170.225 68.84C170.405 68.84 170.548 68.8967 170.655 69.01C170.768 69.1167 170.825 69.26 170.825 69.44C170.825 69.62 170.768 69.7667 170.655 69.88C170.548 69.9867 170.405 70.04 170.225 70.04ZM170.625 76H169.825V71H170.625V76ZM174.411 70.9C174.977 70.9 175.444 71.0633 175.811 71.39C176.177 71.7167 176.361 72.1867 176.361 72.8V76H175.561V73.08C175.561 72.56 175.447 72.1833 175.221 71.95C175.001 71.7167 174.704 71.6 174.331 71.6C174.064 71.6 173.814 71.66 173.581 71.78C173.347 71.8933 173.154 72.0833 173.001 72.35C172.854 72.61 172.781 72.94 172.781 73.34V76H171.981V71H172.681L172.731 71.78C172.897 71.48 173.127 71.26 173.421 71.12C173.714 70.9733 174.044 70.9 174.411 70.9ZM179.372 76.1C178.892 76.1 178.459 76.0067 178.072 75.82C177.686 75.6267 177.402 75.3433 177.222 74.97L177.872 74.52C177.986 74.8133 178.182 75.0333 178.462 75.18C178.742 75.3267 179.072 75.4 179.452 75.4C179.846 75.4 180.146 75.33 180.352 75.19C180.559 75.05 180.662 74.8733 180.662 74.66C180.662 74.4667 180.566 74.3133 180.372 74.2C180.179 74.08 179.839 73.9767 179.352 73.89C178.872 73.8033 178.492 73.7 178.212 73.58C177.932 73.4533 177.729 73.2967 177.602 73.11C177.476 72.9167 177.412 72.68 177.412 72.4C177.412 72.1267 177.492 71.8767 177.652 71.65C177.812 71.4233 178.042 71.2433 178.342 71.11C178.642 70.97 178.989 70.9 179.382 70.9C179.916 70.9 180.342 71 180.662 71.2C180.989 71.3933 181.222 71.6933 181.362 72.1L180.682 72.5C180.576 72.18 180.412 71.95 180.192 71.81C179.979 71.67 179.709 71.6 179.382 71.6C179.056 71.6 178.779 71.6733 178.552 71.82C178.326 71.9667 178.212 72.1367 178.212 72.33C178.212 72.55 178.309 72.72 178.502 72.84C178.702 72.96 179.056 73.0633 179.562 73.15C180.256 73.2633 180.746 73.4333 181.032 73.66C181.319 73.8867 181.462 74.2067 181.462 74.62C181.462 74.9067 181.376 75.1633 181.202 75.39C181.036 75.61 180.792 75.7833 180.472 75.91C180.159 76.0367 179.792 76.1 179.372 76.1ZM182.846 70.04C182.666 70.04 182.519 69.9867 182.406 69.88C182.299 69.7667 182.246 69.62 182.246 69.44C182.246 69.26 182.299 69.1167 182.406 69.01C182.519 68.8967 182.666 68.84 182.846 68.84C183.026 68.84 183.169 68.8967 183.276 69.01C183.389 69.1167 183.446 69.26 183.446 69.44C183.446 69.62 183.389 69.7667 183.276 69.88C183.169 69.9867 183.026 70.04 182.846 70.04ZM183.246 76H182.446V71H183.246V76ZM187.392 75.36C187.865 75.36 188.235 75.4667 188.502 75.68C188.769 75.8933 188.902 76.1833 188.902 76.55C188.902 76.87 188.792 77.15 188.572 77.39C188.352 77.6367 188.052 77.8233 187.672 77.95C187.299 78.0833 186.885 78.15 186.432 78.15C185.672 78.15 185.099 78.0267 184.712 77.78C184.325 77.54 184.132 77.2233 184.132 76.83C184.132 76.6033 184.209 76.4033 184.362 76.23C184.522 76.0567 184.739 75.9333 185.012 75.86C184.805 75.76 184.639 75.6333 184.512 75.48C184.392 75.3267 184.332 75.1467 184.332 74.94C184.332 74.6933 184.399 74.49 184.532 74.33C184.665 74.1633 184.849 74.04 185.082 73.96C184.842 73.8133 184.659 73.6233 184.532 73.39C184.412 73.15 184.352 72.8833 184.352 72.59C184.352 72.2633 184.439 71.9733 184.612 71.72C184.785 71.46 185.029 71.26 185.342 71.12C185.655 70.9733 186.009 70.9 186.402 70.9C186.775 70.9 187.115 70.9667 187.422 71.1C187.609 70.42 188.079 70.08 188.832 70.08L189.012 70.78C188.359 70.78 187.962 70.9633 187.822 71.33C188.022 71.4833 188.175 71.6667 188.282 71.88C188.395 72.0933 188.452 72.33 188.452 72.59C188.452 72.9167 188.365 73.21 188.192 73.47C188.019 73.7233 187.775 73.9233 187.462 74.07C187.149 74.21 186.795 74.28 186.402 74.28C186.109 74.28 185.852 74.25 185.632 74.19C185.432 74.2367 185.289 74.31 185.202 74.41C185.115 74.51 185.072 74.6467 185.072 74.82C185.072 74.9933 185.132 75.1267 185.252 75.22C185.372 75.3133 185.532 75.36 185.732 75.36H187.392ZM186.402 71.55C186.055 71.55 185.765 71.6467 185.532 71.84C185.299 72.0333 185.182 72.2833 185.182 72.59C185.182 72.8967 185.299 73.1467 185.532 73.34C185.765 73.5333 186.055 73.63 186.402 73.63C186.749 73.63 187.039 73.5333 187.272 73.34C187.505 73.1467 187.622 72.8967 187.622 72.59C187.622 72.2833 187.505 72.0333 187.272 71.84C187.039 71.6467 186.749 71.55 186.402 71.55ZM186.522 77.48C187.029 77.48 187.429 77.3967 187.722 77.23C188.015 77.07 188.162 76.8733 188.162 76.64C188.162 76.4467 188.085 76.3 187.932 76.2C187.785 76.1 187.532 76.05 187.172 76.05H185.832C185.525 76.05 185.289 76.1033 185.122 76.21C184.955 76.3233 184.872 76.4767 184.872 76.67C184.872 76.9233 185.012 77.12 185.292 77.26C185.572 77.4067 185.982 77.48 186.522 77.48ZM192.02 70.9C192.587 70.9 193.053 71.0633 193.42 71.39C193.787 71.7167 193.97 72.1867 193.97 72.8V76H193.17V73.08C193.17 72.56 193.057 72.1833 192.83 71.95C192.61 71.7167 192.313 71.6 191.94 71.6C191.68 71.6 191.43 71.66 191.19 71.78C190.957 71.9 190.763 72.0933 190.61 72.36C190.463 72.62 190.39 72.95 190.39 73.35V76H189.59V68.7H190.39V71.75C190.557 71.4633 190.78 71.25 191.06 71.11C191.347 70.97 191.667 70.9 192.02 70.9ZM198.273 75.65C197.94 75.95 197.51 76.1 196.983 76.1C196.577 76.1 196.243 75.99 195.983 75.77C195.73 75.55 195.6 75.2133 195.593 74.76V71.69H194.593V71H195.593V69.8L196.393 69.58V71H198.243V71.69H196.393V74.62C196.393 74.86 196.46 75.0433 196.593 75.17C196.733 75.29 196.917 75.35 197.143 75.35C197.463 75.35 197.747 75.2267 197.993 74.98L198.273 75.65ZM200.603 76.1C200.123 76.1 199.689 76.0067 199.303 75.82C198.916 75.6267 198.633 75.3433 198.453 74.97L199.103 74.52C199.216 74.8133 199.413 75.0333 199.693 75.18C199.973 75.3267 200.303 75.4 200.683 75.4C201.076 75.4 201.376 75.33 201.583 75.19C201.789 75.05 201.893 74.8733 201.893 74.66C201.893 74.4667 201.796 74.3133 201.603 74.2C201.409 74.08 201.069 73.9767 200.583 73.89C200.103 73.8033 199.723 73.7 199.443 73.58C199.163 73.4533 198.959 73.2967 198.833 73.11C198.706 72.9167 198.643 72.68 198.643 72.4C198.643 72.1267 198.723 71.8767 198.883 71.65C199.043 71.4233 199.273 71.2433 199.573 71.11C199.873 70.97 200.219 70.9 200.613 70.9C201.146 70.9 201.573 71 201.893 71.2C202.219 71.3933 202.453 71.6933 202.593 72.1L201.913 72.5C201.806 72.18 201.643 71.95 201.423 71.81C201.209 71.67 200.939 71.6 200.613 71.6C200.286 71.6 200.009 71.6733 199.783 71.82C199.556 71.9667 199.443 72.1367 199.443 72.33C199.443 72.55 199.539 72.72 199.733 72.84C199.933 72.96 200.286 73.0633 200.793 73.15C201.486 73.2633 201.976 73.4333 202.263 73.66C202.549 73.8867 202.693 74.2067 202.693 74.62C202.693 74.9067 202.606 75.1633 202.433 75.39C202.266 75.61 202.023 75.7833 201.703 75.91C201.389 76.0367 201.023 76.1 200.603 76.1ZM209.449 75.65C209.116 75.95 208.686 76.1 208.159 76.1C207.752 76.1 207.419 75.99 207.159 75.77C206.906 75.55 206.776 75.2133 206.769 74.76V71.69H205.769V71H206.769V69.8L207.569 69.58V71H209.419V71.69H207.569V74.62C207.569 74.86 207.636 75.0433 207.769 75.17C207.909 75.29 208.092 75.35 208.319 75.35C208.639 75.35 208.922 75.2267 209.169 74.98L209.449 75.65ZM212.188 70.9C212.942 70.9 213.532 71.13 213.958 71.59C214.392 72.05 214.608 72.6867 214.608 73.5C214.608 74.3133 214.392 74.95 213.958 75.41C213.532 75.87 212.942 76.1 212.188 76.1C211.435 76.1 210.842 75.87 210.408 75.41C209.982 74.95 209.768 74.3133 209.768 73.5C209.768 72.6867 209.982 72.05 210.408 71.59C210.842 71.13 211.435 70.9 212.188 70.9ZM212.188 71.59C211.682 71.59 211.285 71.76 210.998 72.1C210.712 72.44 210.568 72.9067 210.568 73.5C210.568 74.0933 210.712 74.56 210.998 74.9C211.285 75.24 211.682 75.41 212.188 75.41C212.695 75.41 213.092 75.24 213.378 74.9C213.665 74.56 213.808 74.0933 213.808 73.5C213.808 72.9067 213.665 72.44 213.378 72.1C213.092 71.76 212.695 71.59 212.188 71.59ZM220.681 70.9C221.434 70.9 222.024 71.13 222.451 71.59C222.884 72.05 223.101 72.6867 223.101 73.5C223.101 74.3133 222.884 74.95 222.451 75.41C222.024 75.87 221.434 76.1 220.681 76.1C219.927 76.1 219.334 75.87 218.901 75.41C218.474 74.95 218.261 74.3133 218.261 73.5C218.261 72.6867 218.474 72.05 218.901 71.59C219.334 71.13 219.927 70.9 220.681 70.9ZM220.681 71.59C220.174 71.59 219.777 71.76 219.491 72.1C219.204 72.44 219.061 72.9067 219.061 73.5C219.061 74.0933 219.204 74.56 219.491 74.9C219.777 75.24 220.174 75.41 220.681 75.41C221.187 75.41 221.584 75.24 221.871 74.9C222.157 74.56 222.301 74.0933 222.301 73.5C222.301 72.9067 222.157 72.44 221.871 72.1C221.584 71.76 221.187 71.59 220.681 71.59ZM226.615 70.9C227.315 70.9 227.868 71.1333 228.275 71.6C228.688 72.06 228.895 72.6933 228.895 73.5C228.895 74.3067 228.688 74.9433 228.275 75.41C227.868 75.87 227.315 76.1 226.615 76.1C226.248 76.1 225.918 76.02 225.625 75.86C225.338 75.7 225.115 75.4867 224.955 75.22V78.1H224.155V71H224.855L224.905 71.87C225.051 71.5767 225.275 71.3433 225.575 71.17C225.881 70.99 226.228 70.9 226.615 70.9ZM226.525 75.4C227.011 75.4 227.395 75.23 227.675 74.89C227.955 74.5433 228.095 74.08 228.095 73.5C228.095 72.92 227.955 72.46 227.675 72.12C227.395 71.7733 227.011 71.6 226.525 71.6C226.045 71.6 225.661 71.7667 225.375 72.1C225.095 72.4333 224.955 72.88 224.955 73.44V73.56C224.955 74.12 225.095 74.5667 225.375 74.9C225.661 75.2333 226.045 75.4 226.525 75.4ZM232.926 75.65C232.592 75.95 232.162 76.1 231.636 76.1C231.229 76.1 230.896 75.99 230.636 75.77C230.382 75.55 230.252 75.2133 230.246 74.76V71.69H229.246V71H230.246V69.8L231.046 69.58V71H232.896V71.69H231.046V74.62C231.046 74.86 231.112 75.0433 231.246 75.17C231.386 75.29 231.569 75.35 231.796 75.35C232.116 75.35 232.399 75.2267 232.646 74.98L232.926 75.65ZM233.955 70.04C233.775 70.04 233.628 69.9867 233.515 69.88C233.408 69.7667 233.355 69.62 233.355 69.44C233.355 69.26 233.408 69.1167 233.515 69.01C233.628 68.8967 233.775 68.84 233.955 68.84C234.135 68.84 234.278 68.8967 234.385 69.01C234.498 69.1167 234.555 69.26 234.555 69.44C234.555 69.62 234.498 69.7667 234.385 69.88C234.278 69.9867 234.135 70.04 233.955 70.04ZM234.355 76H233.555V71H234.355V76ZM241.521 70.9C241.855 70.9 242.165 70.97 242.451 71.11C242.745 71.2433 242.981 71.4533 243.161 71.74C243.341 72.0267 243.431 72.38 243.431 72.8V76H242.631V72.88C242.631 72.4467 242.521 72.1267 242.301 71.92C242.088 71.7067 241.805 71.6 241.451 71.6C241.185 71.6 240.938 71.6667 240.711 71.8C240.491 71.9267 240.311 72.1167 240.171 72.37C240.038 72.6167 239.971 72.9133 239.971 73.26V76H239.171V72.88C239.171 72.4467 239.061 72.1267 238.841 71.92C238.628 71.7067 238.345 71.6 237.991 71.6C237.751 71.6 237.518 71.6633 237.291 71.79C237.065 71.91 236.878 72.1 236.731 72.36C236.585 72.62 236.511 72.9433 236.511 73.33V76H235.711V71H236.411L236.461 71.78C236.635 71.4867 236.861 71.2667 237.141 71.12C237.428 70.9733 237.735 70.9 238.061 70.9C238.428 70.9 238.765 70.9833 239.071 71.15C239.385 71.3167 239.621 71.56 239.781 71.88C239.928 71.56 240.168 71.3167 240.501 71.15C240.835 70.9833 241.175 70.9 241.521 70.9ZM245.143 70.04C244.963 70.04 244.816 69.9867 244.703 69.88C244.596 69.7667 244.543 69.62 244.543 69.44C244.543 69.26 244.596 69.1167 244.703 69.01C244.816 68.8967 244.963 68.84 245.143 68.84C245.323 68.84 245.466 68.8967 245.573 69.01C245.686 69.1167 245.743 69.26 245.743 69.44C245.743 69.62 245.686 69.7667 245.573 69.88C245.466 69.9867 245.323 70.04 245.143 70.04ZM245.543 76H244.743V71H245.543V76ZM246.539 75.39L249.159 72.32L249.789 71.67L248.899 71.69H246.569V71H250.679V71.61L248.059 74.68L247.439 75.33L248.409 75.31H250.759V76H246.539V75.39ZM255.952 73.24C255.952 73.4267 255.939 73.6133 255.912 73.8H252.142C252.189 74.3067 252.356 74.7 252.642 74.98C252.936 75.26 253.312 75.4 253.772 75.4C254.139 75.4 254.442 75.3367 254.682 75.21C254.929 75.0833 255.096 74.9 255.182 74.66L255.852 75.01C255.652 75.3633 255.386 75.6333 255.052 75.82C254.719 76.0067 254.292 76.1 253.772 76.1C253.019 76.1 252.426 75.87 251.992 75.41C251.566 74.95 251.352 74.3133 251.352 73.5C251.352 72.6867 251.556 72.05 251.962 71.59C252.376 71.13 252.959 70.9 253.712 70.9C254.179 70.9 254.582 71.0033 254.922 71.21C255.262 71.4167 255.519 71.6967 255.692 72.05C255.866 72.4033 255.952 72.8 255.952 73.24ZM253.712 71.6C253.272 71.6 252.916 71.73 252.642 71.99C252.376 72.25 252.212 72.6167 252.152 73.09H255.182C255.129 72.6233 254.976 72.26 254.722 72C254.469 71.7333 254.132 71.6 253.712 71.6ZM264.171 73.24C264.171 73.4267 264.158 73.6133 264.131 73.8H260.361C260.408 74.3067 260.575 74.7 260.861 74.98C261.155 75.26 261.531 75.4 261.991 75.4C262.358 75.4 262.661 75.3367 262.901 75.21C263.148 75.0833 263.315 74.9 263.401 74.66L264.071 75.01C263.871 75.3633 263.605 75.6333 263.271 75.82C262.938 76.0067 262.511 76.1 261.991 76.1C261.238 76.1 260.645 75.87 260.211 75.41C259.785 74.95 259.571 74.3133 259.571 73.5C259.571 72.6867 259.775 72.05 260.181 71.59C260.595 71.13 261.178 70.9 261.931 70.9C262.398 70.9 262.801 71.0033 263.141 71.21C263.481 71.4167 263.738 71.6967 263.911 72.05C264.085 72.4033 264.171 72.8 264.171 73.24ZM261.931 71.6C261.491 71.6 261.135 71.73 260.861 71.99C260.595 72.25 260.431 72.6167 260.371 73.09H263.401C263.348 72.6233 263.195 72.26 262.941 72C262.688 71.7333 262.351 71.6 261.931 71.6ZM269.205 71L267.125 76H266.325L264.245 71H265.155L266.735 75.19L268.365 71H269.205ZM274.04 73.24C274.04 73.4267 274.027 73.6133 274 73.8H270.23C270.277 74.3067 270.444 74.7 270.73 74.98C271.024 75.26 271.4 75.4 271.86 75.4C272.227 75.4 272.53 75.3367 272.77 75.21C273.017 75.0833 273.184 74.9 273.27 74.66L273.94 75.01C273.74 75.3633 273.474 75.6333 273.14 75.82C272.807 76.0067 272.38 76.1 271.86 76.1C271.107 76.1 270.514 75.87 270.08 75.41C269.654 74.95 269.44 74.3133 269.44 73.5C269.44 72.6867 269.644 72.05 270.05 71.59C270.464 71.13 271.047 70.9 271.8 70.9C272.267 70.9 272.67 71.0033 273.01 71.21C273.35 71.4167 273.607 71.6967 273.78 72.05C273.954 72.4033 274.04 72.8 274.04 73.24ZM271.8 71.6C271.36 71.6 271.004 71.73 270.73 71.99C270.464 72.25 270.3 72.6167 270.24 73.09H273.27C273.217 72.6233 273.064 72.26 272.81 72C272.557 71.7333 272.22 71.6 271.8 71.6ZM277.491 70.9C278.058 70.9 278.524 71.0633 278.891 71.39C279.258 71.7167 279.441 72.1867 279.441 72.8V76H278.641V73.08C278.641 72.56 278.528 72.1833 278.301 71.95C278.081 71.7167 277.784 71.6 277.411 71.6C277.144 71.6 276.894 71.66 276.661 71.78C276.428 71.8933 276.234 72.0833 276.081 72.35C275.934 72.61 275.861 72.94 275.861 73.34V76H275.061V71H275.761L275.811 71.78C275.978 71.48 276.208 71.26 276.501 71.12C276.794 70.9733 277.124 70.9 277.491 70.9ZM283.744 75.65C283.411 75.95 282.981 76.1 282.454 76.1C282.047 76.1 281.714 75.99 281.454 75.77C281.201 75.55 281.071 75.2133 281.064 74.76V71.69H280.064V71H281.064V69.8L281.864 69.58V71H283.714V71.69H281.864V74.62C281.864 74.86 281.931 75.0433 282.064 75.17C282.204 75.29 282.387 75.35 282.614 75.35C282.934 75.35 283.217 75.2267 283.464 74.98L283.744 75.65ZM86.74 81.9C87.0733 81.9 87.3833 81.97 87.67 82.11C87.9633 82.2433 88.2 82.4533 88.38 82.74C88.56 83.0267 88.65 83.38 88.65 83.8V87H87.85V83.88C87.85 83.4467 87.74 83.1267 87.52 82.92C87.3067 82.7067 87.0233 82.6 86.67 82.6C86.4033 82.6 86.1567 82.6667 85.93 82.8C85.71 82.9267 85.53 83.1167 85.39 83.37C85.2567 83.6167 85.19 83.9133 85.19 84.26V87H84.39V83.88C84.39 83.4467 84.28 83.1267 84.06 82.92C83.8467 82.7067 83.5633 82.6 83.21 82.6C82.97 82.6 82.7367 82.6633 82.51 82.79C82.2833 82.91 82.0967 83.1 81.95 83.36C81.8033 83.62 81.73 83.9433 81.73 84.33V87H80.93V82H81.63L81.68 82.78C81.8533 82.4867 82.08 82.2667 82.36 82.12C82.6467 81.9733 82.9533 81.9 83.28 81.9C83.6467 81.9 83.9833 81.9833 84.29 82.15C84.6033 82.3167 84.84 82.56 85 82.88C85.1467 82.56 85.3867 82.3167 85.72 82.15C86.0533 81.9833 86.3933 81.9 86.74 81.9ZM94.0613 86.42C94.1946 86.42 94.3279 86.4033 94.4613 86.37L94.4113 87C94.2246 87.0667 94.0246 87.1 93.8113 87.1C93.5513 87.1 93.3446 87.0433 93.1913 86.93C93.0446 86.8167 92.9513 86.6267 92.9113 86.36C92.7579 86.5933 92.5313 86.7767 92.2313 86.91C91.9379 87.0367 91.6279 87.1 91.3013 87.1C90.8079 87.1 90.4013 86.9867 90.0813 86.76C89.7613 86.5267 89.6013 86.1933 89.6013 85.76C89.6013 85.38 89.7679 85.0533 90.1013 84.78C90.4346 84.5 90.9179 84.3067 91.5513 84.2L92.8813 83.98V83.7C92.8813 83.3667 92.7779 83.1 92.5713 82.9C92.3646 82.7 92.0779 82.6 91.7113 82.6C91.3779 82.6 91.0879 82.68 90.8413 82.84C90.6013 83 90.4146 83.2367 90.2812 83.55L89.6912 83.12C89.8246 82.7467 90.0713 82.45 90.4313 82.23C90.7979 82.01 91.2246 81.9 91.7113 81.9C92.3046 81.9 92.7813 82.0433 93.1413 82.33C93.5013 82.6167 93.6813 83.04 93.6813 83.6V86.06C93.6813 86.18 93.7113 86.27 93.7713 86.33C93.8313 86.39 93.9279 86.42 94.0613 86.42ZM91.3413 86.4C91.7613 86.4 92.1213 86.3 92.4213 86.1C92.7279 85.9 92.8813 85.64 92.8813 85.32V84.63L91.7613 84.84C91.3146 84.92 90.9813 85.0367 90.7613 85.19C90.5413 85.3367 90.4313 85.5267 90.4313 85.76C90.4313 85.9667 90.5113 86.1267 90.6713 86.24C90.8313 86.3467 91.0546 86.4 91.3413 86.4ZM97.4853 81.9C97.7253 81.9 97.9086 81.9333 98.0353 82L97.8753 82.78C97.7153 82.6933 97.5053 82.65 97.2453 82.65C97.032 82.65 96.822 82.7133 96.6153 82.84C96.4153 82.96 96.2486 83.1467 96.1153 83.4C95.9886 83.6467 95.9253 83.9467 95.9253 84.3V87H95.1253V82H95.7753L95.8853 82.82C96.1653 82.2067 96.6986 81.9 97.4853 81.9ZM100.567 84.53L99.5073 85.59V87H98.7073V79.7H99.5073V84.59L102.097 82H103.097L101.147 83.95L103.217 87H102.247L100.567 84.53ZM107.995 84.24C107.995 84.4267 107.982 84.6133 107.955 84.8H104.185C104.232 85.3067 104.399 85.7 104.685 85.98C104.979 86.26 105.355 86.4 105.815 86.4C106.182 86.4 106.485 86.3367 106.725 86.21C106.972 86.0833 107.139 85.9 107.225 85.66L107.895 86.01C107.695 86.3633 107.429 86.6333 107.095 86.82C106.762 87.0067 106.335 87.1 105.815 87.1C105.062 87.1 104.469 86.87 104.035 86.41C103.609 85.95 103.395 85.3133 103.395 84.5C103.395 83.6867 103.599 83.05 104.005 82.59C104.419 82.13 105.002 81.9 105.755 81.9C106.222 81.9 106.625 82.0033 106.965 82.21C107.305 82.4167 107.562 82.6967 107.735 83.05C107.909 83.4033 107.995 83.8 107.995 84.24ZM105.755 82.6C105.315 82.6 104.959 82.73 104.685 82.99C104.419 83.25 104.255 83.6167 104.195 84.09H107.225C107.172 83.6233 107.019 83.26 106.765 83C106.512 82.7333 106.175 82.6 105.755 82.6ZM111.929 86.65C111.596 86.95 111.166 87.1 110.639 87.1C110.233 87.1 109.899 86.99 109.639 86.77C109.386 86.55 109.256 86.2133 109.249 85.76V82.69H108.249V82H109.249V80.8L110.049 80.58V82H111.899V82.69H110.049V85.62C110.049 85.86 110.116 86.0433 110.249 86.17C110.389 86.29 110.573 86.35 110.799 86.35C111.119 86.35 111.403 86.2267 111.649 85.98L111.929 86.65ZM112.959 81.04C112.779 81.04 112.632 80.9867 112.519 80.88C112.412 80.7667 112.359 80.62 112.359 80.44C112.359 80.26 112.412 80.1167 112.519 80.01C112.632 79.8967 112.779 79.84 112.959 79.84C113.139 79.84 113.282 79.8967 113.389 80.01C113.502 80.1167 113.559 80.26 113.559 80.44C113.559 80.62 113.502 80.7667 113.389 80.88C113.282 80.9867 113.139 81.04 112.959 81.04ZM113.359 87H112.559V82H113.359V87ZM117.145 81.9C117.712 81.9 118.178 82.0633 118.545 82.39C118.912 82.7167 119.095 83.1867 119.095 83.8V87H118.295V84.08C118.295 83.56 118.182 83.1833 117.955 82.95C117.735 82.7167 117.438 82.6 117.065 82.6C116.798 82.6 116.548 82.66 116.315 82.78C116.082 82.8933 115.888 83.0833 115.735 83.35C115.588 83.61 115.515 83.94 115.515 84.34V87H114.715V82H115.415L115.465 82.78C115.632 82.48 115.862 82.26 116.155 82.12C116.448 81.9733 116.778 81.9 117.145 81.9ZM123.197 86.36C123.67 86.36 124.04 86.4667 124.307 86.68C124.573 86.8933 124.707 87.1833 124.707 87.55C124.707 87.87 124.597 88.15 124.377 88.39C124.157 88.6367 123.857 88.8233 123.477 88.95C123.103 89.0833 122.69 89.15 122.237 89.15C121.477 89.15 120.903 89.0267 120.517 88.78C120.13 88.54 119.937 88.2233 119.937 87.83C119.937 87.6033 120.013 87.4033 120.167 87.23C120.327 87.0567 120.543 86.9333 120.817 86.86C120.61 86.76 120.443 86.6333 120.317 86.48C120.197 86.3267 120.137 86.1467 120.137 85.94C120.137 85.6933 120.203 85.49 120.337 85.33C120.47 85.1633 120.653 85.04 120.887 84.96C120.647 84.8133 120.463 84.6233 120.337 84.39C120.217 84.15 120.157 83.8833 120.157 83.59C120.157 83.2633 120.243 82.9733 120.417 82.72C120.59 82.46 120.833 82.26 121.147 82.12C121.46 81.9733 121.813 81.9 122.207 81.9C122.58 81.9 122.92 81.9667 123.227 82.1C123.413 81.42 123.883 81.08 124.637 81.08L124.817 81.78C124.163 81.78 123.767 81.9633 123.627 82.33C123.827 82.4833 123.98 82.6667 124.087 82.88C124.2 83.0933 124.257 83.33 124.257 83.59C124.257 83.9167 124.17 84.21 123.997 84.47C123.823 84.7233 123.58 84.9233 123.267 85.07C122.953 85.21 122.6 85.28 122.207 85.28C121.913 85.28 121.657 85.25 121.437 85.19C121.237 85.2367 121.093 85.31 121.007 85.41C120.92 85.51 120.877 85.6467 120.877 85.82C120.877 85.9933 120.937 86.1267 121.057 86.22C121.177 86.3133 121.337 86.36 121.537 86.36H123.197ZM122.207 82.55C121.86 82.55 121.57 82.6467 121.337 82.84C121.103 83.0333 120.987 83.2833 120.987 83.59C120.987 83.8967 121.103 84.1467 121.337 84.34C121.57 84.5333 121.86 84.63 122.207 84.63C122.553 84.63 122.843 84.5333 123.077 84.34C123.31 84.1467 123.427 83.8967 123.427 83.59C123.427 83.2833 123.31 83.0333 123.077 82.84C122.843 82.6467 122.553 82.55 122.207 82.55ZM122.327 88.48C122.833 88.48 123.233 88.3967 123.527 88.23C123.82 88.07 123.967 87.8733 123.967 87.64C123.967 87.4467 123.89 87.3 123.737 87.2C123.59 87.1 123.337 87.05 122.977 87.05H121.637C121.33 87.05 121.093 87.1033 120.927 87.21C120.76 87.3233 120.677 87.4767 120.677 87.67C120.677 87.9233 120.817 88.12 121.097 88.26C121.377 88.4067 121.787 88.48 122.327 88.48ZM125.795 85.8C126.028 85.8 126.212 85.89 126.345 86.07C126.478 86.25 126.545 86.4833 126.545 86.77C126.545 87.1233 126.455 87.45 126.275 87.75C126.095 88.05 125.822 88.2867 125.455 88.46L125.035 88.07C125.295 87.9833 125.512 87.8467 125.685 87.66C125.858 87.4733 125.968 87.27 126.015 87.05L125.975 87.03C125.915 87.0767 125.822 87.1 125.695 87.1C125.555 87.1 125.428 87.0467 125.315 86.94C125.202 86.8267 125.145 86.67 125.145 86.47C125.145 86.29 125.208 86.1333 125.335 86C125.462 85.8667 125.615 85.8 125.795 85.8ZM132.159 87.1C131.679 87.1 131.246 87.0067 130.859 86.82C130.473 86.6267 130.189 86.3433 130.009 85.97L130.659 85.52C130.773 85.8133 130.969 86.0333 131.249 86.18C131.529 86.3267 131.859 86.4 132.239 86.4C132.633 86.4 132.933 86.33 133.139 86.19C133.346 86.05 133.449 85.8733 133.449 85.66C133.449 85.4667 133.353 85.3133 133.159 85.2C132.966 85.08 132.626 84.9767 132.139 84.89C131.659 84.8033 131.279 84.7 130.999 84.58C130.719 84.4533 130.516 84.2967 130.389 84.11C130.263 83.9167 130.199 83.68 130.199 83.4C130.199 83.1267 130.279 82.8767 130.439 82.65C130.599 82.4233 130.829 82.2433 131.129 82.11C131.429 81.97 131.776 81.9 132.169 81.9C132.703 81.9 133.129 82 133.449 82.2C133.776 82.3933 134.009 82.6933 134.149 83.1L133.469 83.5C133.363 83.18 133.199 82.95 132.979 82.81C132.766 82.67 132.496 82.6 132.169 82.6C131.843 82.6 131.566 82.6733 131.339 82.82C131.113 82.9667 130.999 83.1367 130.999 83.33C130.999 83.55 131.096 83.72 131.289 83.84C131.489 83.96 131.843 84.0633 132.349 84.15C133.043 84.2633 133.533 84.4333 133.819 84.66C134.106 84.8867 134.249 85.2067 134.249 85.62C134.249 85.9067 134.163 86.1633 133.989 86.39C133.823 86.61 133.579 86.7833 133.259 86.91C132.946 87.0367 132.579 87.1 132.159 87.1ZM139.333 86.42C139.466 86.42 139.599 86.4033 139.733 86.37L139.683 87C139.496 87.0667 139.296 87.1 139.083 87.1C138.823 87.1 138.616 87.0433 138.463 86.93C138.316 86.8167 138.223 86.6267 138.183 86.36C138.029 86.5933 137.803 86.7767 137.503 86.91C137.209 87.0367 136.899 87.1 136.573 87.1C136.079 87.1 135.673 86.9867 135.353 86.76C135.033 86.5267 134.873 86.1933 134.873 85.76C134.873 85.38 135.039 85.0533 135.373 84.78C135.706 84.5 136.189 84.3067 136.823 84.2L138.153 83.98V83.7C138.153 83.3667 138.049 83.1 137.843 82.9C137.636 82.7 137.349 82.6 136.983 82.6C136.649 82.6 136.359 82.68 136.113 82.84C135.873 83 135.686 83.2367 135.553 83.55L134.963 83.12C135.096 82.7467 135.343 82.45 135.703 82.23C136.069 82.01 136.496 81.9 136.983 81.9C137.576 81.9 138.053 82.0433 138.413 82.33C138.773 82.6167 138.953 83.04 138.953 83.6V86.06C138.953 86.18 138.983 86.27 139.043 86.33C139.103 86.39 139.199 86.42 139.333 86.42ZM136.613 86.4C137.033 86.4 137.393 86.3 137.693 86.1C137.999 85.9 138.153 85.64 138.153 85.32V84.63L137.033 84.84C136.586 84.92 136.253 85.0367 136.033 85.19C135.813 85.3367 135.703 85.5267 135.703 85.76C135.703 85.9667 135.783 86.1267 135.943 86.24C136.103 86.3467 136.326 86.4 136.613 86.4ZM141.157 85.66C141.157 85.9133 141.193 86.09 141.267 86.19C141.347 86.2833 141.49 86.33 141.697 86.33C141.837 86.33 141.957 86.32 142.057 86.3C142.163 86.28 142.287 86.2433 142.427 86.19L142.297 86.96C142.077 87.0533 141.83 87.1 141.557 87.1C141.15 87.1 140.847 86.99 140.647 86.77C140.453 86.55 140.357 86.2133 140.357 85.76V79.7H141.157V85.66ZM147.243 84.24C147.243 84.4267 147.23 84.6133 147.203 84.8H143.433C143.48 85.3067 143.647 85.7 143.933 85.98C144.227 86.26 144.603 86.4 145.063 86.4C145.43 86.4 145.733 86.3367 145.973 86.21C146.22 86.0833 146.387 85.9 146.473 85.66L147.143 86.01C146.943 86.3633 146.677 86.6333 146.343 86.82C146.01 87.0067 145.583 87.1 145.063 87.1C144.31 87.1 143.717 86.87 143.283 86.41C142.857 85.95 142.643 85.3133 142.643 84.5C142.643 83.6867 142.847 83.05 143.253 82.59C143.667 82.13 144.25 81.9 145.003 81.9C145.47 81.9 145.873 82.0033 146.213 82.21C146.553 82.4167 146.81 82.6967 146.983 83.05C147.157 83.4033 147.243 83.8 147.243 84.24ZM145.003 82.6C144.563 82.6 144.207 82.73 143.933 82.99C143.667 83.25 143.503 83.6167 143.443 84.09H146.473C146.42 83.6233 146.267 83.26 146.013 83C145.76 82.7333 145.423 82.6 145.003 82.6ZM149.964 87.1C149.484 87.1 149.051 87.0067 148.664 86.82C148.277 86.6267 147.994 86.3433 147.814 85.97L148.464 85.52C148.577 85.8133 148.774 86.0333 149.054 86.18C149.334 86.3267 149.664 86.4 150.044 86.4C150.437 86.4 150.737 86.33 150.944 86.19C151.151 86.05 151.254 85.8733 151.254 85.66C151.254 85.4667 151.157 85.3133 150.964 85.2C150.771 85.08 150.431 84.9767 149.944 84.89C149.464 84.8033 149.084 84.7 148.804 84.58C148.524 84.4533 148.321 84.2967 148.194 84.11C148.067 83.9167 148.004 83.68 148.004 83.4C148.004 83.1267 148.084 82.8767 148.244 82.65C148.404 82.4233 148.634 82.2433 148.934 82.11C149.234 81.97 149.581 81.9 149.974 81.9C150.507 81.9 150.934 82 151.254 82.2C151.581 82.3933 151.814 82.6933 151.954 83.1L151.274 83.5C151.167 83.18 151.004 82.95 150.784 82.81C150.571 82.67 150.301 82.6 149.974 82.6C149.647 82.6 149.371 82.6733 149.144 82.82C148.917 82.9667 148.804 83.1367 148.804 83.33C148.804 83.55 148.901 83.72 149.094 83.84C149.294 83.96 149.647 84.0633 150.154 84.15C150.847 84.2633 151.337 84.4333 151.624 84.66C151.911 84.8867 152.054 85.2067 152.054 85.62C152.054 85.9067 151.967 86.1633 151.794 86.39C151.627 86.61 151.384 86.7833 151.064 86.91C150.751 87.0367 150.384 87.1 149.964 87.1ZM153.437 85.8C153.671 85.8 153.854 85.89 153.987 86.07C154.121 86.25 154.187 86.4833 154.187 86.77C154.187 87.1233 154.097 87.45 153.917 87.75C153.737 88.05 153.464 88.2867 153.097 88.46L152.677 88.07C152.937 87.9833 153.154 87.8467 153.327 87.66C153.501 87.4733 153.611 87.27 153.657 87.05L153.617 87.03C153.557 87.0767 153.464 87.1 153.337 87.1C153.197 87.1 153.071 87.0467 152.957 86.94C152.844 86.8267 152.787 86.67 152.787 86.47C152.787 86.29 152.851 86.1333 152.977 86C153.104 85.8667 153.257 85.8 153.437 85.8ZM162.202 86.42C162.335 86.42 162.469 86.4033 162.602 86.37L162.552 87C162.365 87.0667 162.165 87.1 161.952 87.1C161.692 87.1 161.485 87.0433 161.332 86.93C161.185 86.8167 161.092 86.6267 161.052 86.36C160.899 86.5933 160.672 86.7767 160.372 86.91C160.079 87.0367 159.769 87.1 159.442 87.1C158.949 87.1 158.542 86.9867 158.222 86.76C157.902 86.5267 157.742 86.1933 157.742 85.76C157.742 85.38 157.909 85.0533 158.242 84.78C158.575 84.5 159.059 84.3067 159.692 84.2L161.022 83.98V83.7C161.022 83.3667 160.919 83.1 160.712 82.9C160.505 82.7 160.219 82.6 159.852 82.6C159.519 82.6 159.229 82.68 158.982 82.84C158.742 83 158.555 83.2367 158.422 83.55L157.832 83.12C157.965 82.7467 158.212 82.45 158.572 82.23C158.939 82.01 159.365 81.9 159.852 81.9C160.445 81.9 160.922 82.0433 161.282 82.33C161.642 82.6167 161.822 83.04 161.822 83.6V86.06C161.822 86.18 161.852 86.27 161.912 86.33C161.972 86.39 162.069 86.42 162.202 86.42ZM159.482 86.4C159.902 86.4 160.262 86.3 160.562 86.1C160.869 85.9 161.022 85.64 161.022 85.32V84.63L159.902 84.84C159.455 84.92 159.122 85.0367 158.902 85.19C158.682 85.3367 158.572 85.5267 158.572 85.76C158.572 85.9667 158.652 86.1267 158.812 86.24C158.972 86.3467 159.195 86.4 159.482 86.4ZM165.696 81.9C166.263 81.9 166.729 82.0633 167.096 82.39C167.463 82.7167 167.646 83.1867 167.646 83.8V87H166.846V84.08C166.846 83.56 166.733 83.1833 166.506 82.95C166.286 82.7167 165.989 82.6 165.616 82.6C165.349 82.6 165.099 82.66 164.866 82.78C164.633 82.8933 164.439 83.0833 164.286 83.35C164.139 83.61 164.066 83.94 164.066 84.34V87H163.266V82H163.966L164.016 82.78C164.183 82.48 164.413 82.26 164.706 82.12C164.999 81.9733 165.329 81.9 165.696 81.9ZM173.397 79.7V87H172.697L172.647 86.13C172.501 86.4233 172.274 86.66 171.967 86.84C171.667 87.0133 171.324 87.1 170.937 87.1C170.237 87.1 169.681 86.87 169.267 86.41C168.861 85.9433 168.657 85.3067 168.657 84.5C168.657 83.6933 168.861 83.06 169.267 82.6C169.681 82.1333 170.237 81.9 170.937 81.9C171.304 81.9 171.631 81.98 171.917 82.14C172.211 82.3 172.437 82.5133 172.597 82.78V79.7H173.397ZM171.027 86.4C171.507 86.4 171.887 86.2333 172.167 85.9C172.454 85.5667 172.597 85.12 172.597 84.56V84.44C172.597 83.88 172.454 83.4333 172.167 83.1C171.887 82.7667 171.507 82.6 171.027 82.6C170.541 82.6 170.157 82.7733 169.877 83.12C169.597 83.46 169.457 83.92 169.457 84.5C169.457 85.08 169.597 85.5433 169.877 85.89C170.157 86.23 170.541 86.4 171.027 86.4ZM180.454 86.36C180.928 86.36 181.298 86.4667 181.564 86.68C181.831 86.8933 181.964 87.1833 181.964 87.55C181.964 87.87 181.854 88.15 181.634 88.39C181.414 88.6367 181.114 88.8233 180.734 88.95C180.361 89.0833 179.948 89.15 179.494 89.15C178.734 89.15 178.161 89.0267 177.774 88.78C177.388 88.54 177.194 88.2233 177.194 87.83C177.194 87.6033 177.271 87.4033 177.424 87.23C177.584 87.0567 177.801 86.9333 178.074 86.86C177.868 86.76 177.701 86.6333 177.574 86.48C177.454 86.3267 177.394 86.1467 177.394 85.94C177.394 85.6933 177.461 85.49 177.594 85.33C177.728 85.1633 177.911 85.04 178.144 84.96C177.904 84.8133 177.721 84.6233 177.594 84.39C177.474 84.15 177.414 83.8833 177.414 83.59C177.414 83.2633 177.501 82.9733 177.674 82.72C177.848 82.46 178.091 82.26 178.404 82.12C178.718 81.9733 179.071 81.9 179.464 81.9C179.838 81.9 180.178 81.9667 180.484 82.1C180.671 81.42 181.141 81.08 181.894 81.08L182.074 81.78C181.421 81.78 181.024 81.9633 180.884 82.33C181.084 82.4833 181.238 82.6667 181.344 82.88C181.458 83.0933 181.514 83.33 181.514 83.59C181.514 83.9167 181.428 84.21 181.254 84.47C181.081 84.7233 180.838 84.9233 180.524 85.07C180.211 85.21 179.858 85.28 179.464 85.28C179.171 85.28 178.914 85.25 178.694 85.19C178.494 85.2367 178.351 85.31 178.264 85.41C178.178 85.51 178.134 85.6467 178.134 85.82C178.134 85.9933 178.194 86.1267 178.314 86.22C178.434 86.3133 178.594 86.36 178.794 86.36H180.454ZM179.464 82.55C179.118 82.55 178.828 82.6467 178.594 82.84C178.361 83.0333 178.244 83.2833 178.244 83.59C178.244 83.8967 178.361 84.1467 178.594 84.34C178.828 84.5333 179.118 84.63 179.464 84.63C179.811 84.63 180.101 84.5333 180.334 84.34C180.568 84.1467 180.684 83.8967 180.684 83.59C180.684 83.2833 180.568 83.0333 180.334 82.84C180.101 82.6467 179.811 82.55 179.464 82.55ZM179.584 88.48C180.091 88.48 180.491 88.3967 180.784 88.23C181.078 88.07 181.224 87.8733 181.224 87.64C181.224 87.4467 181.148 87.3 180.994 87.2C180.848 87.1 180.594 87.05 180.234 87.05H178.894C178.588 87.05 178.351 87.1033 178.184 87.21C178.018 87.3233 177.934 87.4767 177.934 87.67C177.934 87.9233 178.074 88.12 178.354 88.26C178.634 88.4067 179.044 88.48 179.584 88.48ZM186.983 82V87H186.283L186.233 86.24C185.899 86.8133 185.303 87.1 184.443 87.1C183.903 87.1 183.459 86.95 183.113 86.65C182.773 86.35 182.603 85.89 182.603 85.27V82H183.403V85.06C183.403 85.5467 183.503 85.8933 183.703 86.1C183.903 86.3 184.196 86.4 184.583 86.4C185.043 86.4 185.423 86.26 185.723 85.98C186.029 85.7 186.183 85.28 186.183 84.72V82H186.983ZM192.634 84.24C192.634 84.4267 192.621 84.6133 192.594 84.8H188.824C188.871 85.3067 189.037 85.7 189.324 85.98C189.617 86.26 189.994 86.4 190.454 86.4C190.821 86.4 191.124 86.3367 191.364 86.21C191.611 86.0833 191.777 85.9 191.864 85.66L192.534 86.01C192.334 86.3633 192.067 86.6333 191.734 86.82C191.401 87.0067 190.974 87.1 190.454 87.1C189.701 87.1 189.107 86.87 188.674 86.41C188.247 85.95 188.034 85.3133 188.034 84.5C188.034 83.6867 188.237 83.05 188.644 82.59C189.057 82.13 189.641 81.9 190.394 81.9C190.861 81.9 191.264 82.0033 191.604 82.21C191.944 82.4167 192.201 82.6967 192.374 83.05C192.547 83.4033 192.634 83.8 192.634 84.24ZM190.394 82.6C189.954 82.6 189.597 82.73 189.324 82.99C189.057 83.25 188.894 83.6167 188.834 84.09H191.864C191.811 83.6233 191.657 83.26 191.404 83C191.151 82.7333 190.814 82.6 190.394 82.6ZM195.355 87.1C194.875 87.1 194.441 87.0067 194.055 86.82C193.668 86.6267 193.385 86.3433 193.205 85.97L193.855 85.52C193.968 85.8133 194.165 86.0333 194.445 86.18C194.725 86.3267 195.055 86.4 195.435 86.4C195.828 86.4 196.128 86.33 196.335 86.19C196.541 86.05 196.645 85.8733 196.645 85.66C196.645 85.4667 196.548 85.3133 196.355 85.2C196.161 85.08 195.821 84.9767 195.335 84.89C194.855 84.8033 194.475 84.7 194.195 84.58C193.915 84.4533 193.711 84.2967 193.585 84.11C193.458 83.9167 193.395 83.68 193.395 83.4C193.395 83.1267 193.475 82.8767 193.635 82.65C193.795 82.4233 194.025 82.2433 194.325 82.11C194.625 81.97 194.971 81.9 195.365 81.9C195.898 81.9 196.325 82 196.645 82.2C196.971 82.3933 197.205 82.6933 197.345 83.1L196.665 83.5C196.558 83.18 196.395 82.95 196.175 82.81C195.961 82.67 195.691 82.6 195.365 82.6C195.038 82.6 194.761 82.6733 194.535 82.82C194.308 82.9667 194.195 83.1367 194.195 83.33C194.195 83.55 194.291 83.72 194.485 83.84C194.685 83.96 195.038 84.0633 195.545 84.15C196.238 84.2633 196.728 84.4333 197.015 84.66C197.301 84.8867 197.445 85.2067 197.445 85.62C197.445 85.9067 197.358 86.1633 197.185 86.39C197.018 86.61 196.775 86.7833 196.455 86.91C196.141 87.0367 195.775 87.1 195.355 87.1ZM201.488 86.65C201.155 86.95 200.725 87.1 200.198 87.1C199.791 87.1 199.458 86.99 199.198 86.77C198.945 86.55 198.815 86.2133 198.808 85.76V82.69H197.808V82H198.808V80.8L199.608 80.58V82H201.458V82.69H199.608V85.62C199.608 85.86 199.675 86.0433 199.808 86.17C199.948 86.29 200.131 86.35 200.358 86.35C200.678 86.35 200.961 86.2267 201.208 85.98L201.488 86.65ZM209.316 84.24C209.316 84.4267 209.302 84.6133 209.276 84.8H205.506C205.552 85.3067 205.719 85.7 206.006 85.98C206.299 86.26 206.676 86.4 207.136 86.4C207.502 86.4 207.806 86.3367 208.046 86.21C208.292 86.0833 208.459 85.9 208.546 85.66L209.216 86.01C209.016 86.3633 208.749 86.6333 208.416 86.82C208.082 87.0067 207.656 87.1 207.136 87.1C206.382 87.1 205.789 86.87 205.356 86.41C204.929 85.95 204.716 85.3133 204.716 84.5C204.716 83.6867 204.919 83.05 205.326 82.59C205.739 82.13 206.322 81.9 207.076 81.9C207.542 81.9 207.946 82.0033 208.286 82.21C208.626 82.4167 208.882 82.6967 209.056 83.05C209.229 83.4033 209.316 83.8 209.316 84.24ZM207.076 82.6C206.636 82.6 206.279 82.73 206.006 82.99C205.739 83.25 205.576 83.6167 205.516 84.09H208.546C208.492 83.6233 208.339 83.26 208.086 83C207.832 82.7333 207.496 82.6 207.076 82.6ZM213.241 87L211.861 85.07L210.441 87H209.511L211.431 84.48L209.631 82H210.631L211.951 83.85L213.251 82H214.191L212.381 84.45L214.221 87H213.241ZM217.443 81.9C218.143 81.9 218.696 82.1333 219.103 82.6C219.516 83.06 219.723 83.6933 219.723 84.5C219.723 85.3067 219.516 85.9433 219.103 86.41C218.696 86.87 218.143 87.1 217.443 87.1C217.076 87.1 216.746 87.02 216.453 86.86C216.166 86.7 215.943 86.4867 215.783 86.22V89.1H214.983V82H215.683L215.733 82.87C215.879 82.5767 216.103 82.3433 216.403 82.17C216.709 81.99 217.056 81.9 217.443 81.9ZM217.353 86.4C217.839 86.4 218.223 86.23 218.503 85.89C218.783 85.5433 218.923 85.08 218.923 84.5C218.923 83.92 218.783 83.46 218.503 83.12C218.223 82.7733 217.839 82.6 217.353 82.6C216.873 82.6 216.489 82.7667 216.203 83.1C215.923 83.4333 215.783 83.88 215.783 84.44V84.56C215.783 85.12 215.923 85.5667 216.203 85.9C216.489 86.2333 216.873 86.4 217.353 86.4ZM225.072 84.24C225.072 84.4267 225.058 84.6133 225.032 84.8H221.262C221.308 85.3067 221.475 85.7 221.762 85.98C222.055 86.26 222.432 86.4 222.892 86.4C223.258 86.4 223.562 86.3367 223.802 86.21C224.048 86.0833 224.215 85.9 224.302 85.66L224.972 86.01C224.772 86.3633 224.505 86.6333 224.172 86.82C223.838 87.0067 223.412 87.1 222.892 87.1C222.138 87.1 221.545 86.87 221.112 86.41C220.685 85.95 220.472 85.3133 220.472 84.5C220.472 83.6867 220.675 83.05 221.082 82.59C221.495 82.13 222.078 81.9 222.832 81.9C223.298 81.9 223.702 82.0033 224.042 82.21C224.382 82.4167 224.638 82.6967 224.812 83.05C224.985 83.4033 225.072 83.8 225.072 84.24ZM222.832 82.6C222.392 82.6 222.035 82.73 221.762 82.99C221.495 83.25 221.332 83.6167 221.272 84.09H224.302C224.248 83.6233 224.095 83.26 223.842 83C223.588 82.7333 223.252 82.6 222.832 82.6ZM228.452 81.9C228.692 81.9 228.875 81.9333 229.002 82L228.842 82.78C228.682 82.6933 228.472 82.65 228.212 82.65C227.999 82.65 227.789 82.7133 227.582 82.84C227.382 82.96 227.215 83.1467 227.082 83.4C226.955 83.6467 226.892 83.9467 226.892 84.3V87H226.092V82H226.742L226.852 82.82C227.132 82.2067 227.665 81.9 228.452 81.9ZM230.074 81.04C229.894 81.04 229.747 80.9867 229.634 80.88C229.527 80.7667 229.474 80.62 229.474 80.44C229.474 80.26 229.527 80.1167 229.634 80.01C229.747 79.8967 229.894 79.84 230.074 79.84C230.254 79.84 230.397 79.8967 230.504 80.01C230.617 80.1167 230.674 80.26 230.674 80.44C230.674 80.62 230.617 80.7667 230.504 80.88C230.397 80.9867 230.254 81.04 230.074 81.04ZM230.474 87H229.674V82H230.474V87ZM236.12 84.24C236.12 84.4267 236.107 84.6133 236.08 84.8H232.31C232.357 85.3067 232.524 85.7 232.81 85.98C233.104 86.26 233.48 86.4 233.94 86.4C234.307 86.4 234.61 86.3367 234.85 86.21C235.097 86.0833 235.264 85.9 235.35 85.66L236.02 86.01C235.82 86.3633 235.554 86.6333 235.22 86.82C234.887 87.0067 234.46 87.1 233.94 87.1C233.187 87.1 232.594 86.87 232.16 86.41C231.734 85.95 231.52 85.3133 231.52 84.5C231.52 83.6867 231.724 83.05 232.13 82.59C232.544 82.13 233.127 81.9 233.88 81.9C234.347 81.9 234.75 82.0033 235.09 82.21C235.43 82.4167 235.687 82.6967 235.86 83.05C236.034 83.4033 236.12 83.8 236.12 84.24ZM233.88 82.6C233.44 82.6 233.084 82.73 232.81 82.99C232.544 83.25 232.38 83.6167 232.32 84.09H235.35C235.297 83.6233 235.144 83.26 234.89 83C234.637 82.7333 234.3 82.6 233.88 82.6ZM239.571 81.9C240.138 81.9 240.604 82.0633 240.971 82.39C241.338 82.7167 241.521 83.1867 241.521 83.8V87H240.721V84.08C240.721 83.56 240.608 83.1833 240.381 82.95C240.161 82.7167 239.864 82.6 239.491 82.6C239.224 82.6 238.974 82.66 238.741 82.78C238.508 82.8933 238.314 83.0833 238.161 83.35C238.014 83.61 237.941 83.94 237.941 84.34V87H237.141V82H237.841L237.891 82.78C238.058 82.48 238.288 82.26 238.581 82.12C238.874 81.9733 239.204 81.9 239.571 81.9ZM244.942 81.9C245.442 81.9 245.862 82.0167 246.202 82.25C246.549 82.4767 246.819 82.8033 247.012 83.23L246.252 83.59C246.039 82.93 245.596 82.6 244.922 82.6C244.422 82.6 244.029 82.77 243.742 83.11C243.462 83.4433 243.322 83.9067 243.322 84.5C243.322 85.0933 243.462 85.56 243.742 85.9C244.029 86.2333 244.422 86.4 244.922 86.4C245.309 86.4 245.619 86.3133 245.852 86.14C246.092 85.96 246.249 85.7033 246.322 85.37L247.062 85.63C246.889 86.0967 246.622 86.46 246.262 86.72C245.902 86.9733 245.462 87.1 244.942 87.1C244.189 87.1 243.596 86.87 243.162 86.41C242.736 85.95 242.522 85.3133 242.522 84.5C242.522 83.6867 242.736 83.05 243.162 82.59C243.596 82.13 244.189 81.9 244.942 81.9ZM252.267 84.24C252.267 84.4267 252.254 84.6133 252.227 84.8H248.457C248.504 85.3067 248.67 85.7 248.957 85.98C249.25 86.26 249.627 86.4 250.087 86.4C250.454 86.4 250.757 86.3367 250.997 86.21C251.244 86.0833 251.41 85.9 251.497 85.66L252.167 86.01C251.967 86.3633 251.7 86.6333 251.367 86.82C251.034 87.0067 250.607 87.1 250.087 87.1C249.334 87.1 248.74 86.87 248.307 86.41C247.88 85.95 247.667 85.3133 247.667 84.5C247.667 83.6867 247.87 83.05 248.277 82.59C248.69 82.13 249.274 81.9 250.027 81.9C250.494 81.9 250.897 82.0033 251.237 82.21C251.577 82.4167 251.834 82.6967 252.007 83.05C252.18 83.4033 252.267 83.8 252.267 84.24ZM250.027 82.6C249.587 82.6 249.23 82.73 248.957 82.99C248.69 83.25 248.527 83.6167 248.467 84.09H251.497C251.444 83.6233 251.29 83.26 251.037 83C250.784 82.7333 250.447 82.6 250.027 82.6ZM253.687 85.8C253.881 85.8 254.037 85.86 254.157 85.98C254.277 86.1 254.337 86.2567 254.337 86.45C254.337 86.6433 254.277 86.8 254.157 86.92C254.037 87.04 253.881 87.1 253.687 87.1C253.494 87.1 253.337 87.04 253.217 86.92C253.097 86.8 253.037 86.6433 253.037 86.45C253.037 86.2567 253.097 86.1 253.217 85.98C253.337 85.86 253.494 85.8 253.687 85.8Z" fill="#666666"/>
</svg>
