<svg width="41" height="41" viewBox="0 0 41 41" fill="none" xmlns="http://www.w3.org/2000/svg">
<rect width="41" height="41" rx="20.5" fill="#E2FFF9"/>
<path d="M28 22.5002V28.5002H20V22.5002H22V20.5002H26V22.5002H28ZM23 22.5002H25V21.5002H23V22.5002ZM27 25.5002H26V26.5002H25V25.5002H23V26.5002H22V25.5002H21V27.5002H27V25.5002ZM27 23.5002H21V24.5002H27V23.5002ZM24.2266 19.5002C23.9453 19.1825 23.612 18.9377 23.2266 18.7659C22.8411 18.594 22.4323 18.5055 22 18.5002C21.5833 18.5002 21.1953 18.5784 20.8359 18.7346C20.4766 18.8909 20.1589 19.1044 19.8828 19.3752C19.6068 19.6461 19.3906 19.9664 19.2344 20.3362C19.0781 20.706 19 21.094 19 21.5002C19 21.9794 18.8932 22.4299 18.6797 22.8518C18.4661 23.2737 18.1641 23.6278 17.7734 23.9143C18.0078 24.0341 18.2266 24.1721 18.4297 24.3284C18.6328 24.4846 18.8229 24.6617 19 24.8596V27.5002C19 27.0888 18.9219 26.7008 18.7656 26.3362C18.6094 25.9716 18.3958 25.6539 18.125 25.3831C17.8542 25.1122 17.5339 24.8961 17.1641 24.7346C16.7943 24.5732 16.4062 24.495 16 24.5002C15.5833 24.5002 15.1953 24.5784 14.8359 24.7346C14.4766 24.8909 14.1589 25.1044 13.8828 25.3752C13.6068 25.6461 13.3906 25.9664 13.2344 26.3362C13.0781 26.706 13 27.094 13 27.5002H12C12 27.12 12.0521 26.7528 12.1562 26.3987C12.2604 26.0445 12.4089 25.7086 12.6016 25.3909C12.7943 25.0732 13.0286 24.7919 13.3047 24.5471C13.5807 24.3023 13.888 24.0914 14.2266 23.9143C13.8411 23.6331 13.5417 23.2815 13.3281 22.8596C13.1146 22.4377 13.0052 21.9846 13 21.5002C13 21.0888 13.0781 20.7008 13.2344 20.3362C13.3906 19.9716 13.6042 19.6539 13.875 19.3831C14.1458 19.1122 14.4635 18.8961 14.8281 18.7346C15.1927 18.5732 15.5833 18.495 16 18.5002C16.4792 18.5002 16.9297 18.607 17.3516 18.8206C17.7734 19.0341 18.1276 19.3362 18.4141 19.7268C18.612 19.3362 18.8646 18.9872 19.1719 18.6799C19.4792 18.3726 19.8307 18.1174 20.2266 17.9143C19.8411 17.6331 19.5417 17.2815 19.3281 16.8596C19.1146 16.4377 19.0052 15.9846 19 15.5002C19 15.0888 19.0781 14.7008 19.2344 14.3362C19.3906 13.9716 19.6042 13.6539 19.875 13.3831C20.1458 13.1122 20.4635 12.8961 20.8281 12.7346C21.1927 12.5732 21.5833 12.495 22 12.5002C22.4115 12.5002 22.7995 12.5784 23.1641 12.7346C23.5286 12.8909 23.8464 13.1044 24.1172 13.3752C24.388 13.6461 24.6042 13.9664 24.7656 14.3362C24.9271 14.706 25.0052 15.094 25 15.5002C25 15.9794 24.8932 16.4299 24.6797 16.8518C24.4661 17.2737 24.1641 17.6278 23.7734 17.9143C24.1276 18.0914 24.4479 18.3127 24.7344 18.5784C25.0208 18.844 25.263 19.1513 25.4609 19.5002H24.2266ZM16 23.5002C16.276 23.5002 16.5339 23.4482 16.7734 23.344C17.013 23.2398 17.2266 23.0966 17.4141 22.9143C17.6016 22.732 17.7448 22.5211 17.8438 22.2815C17.9427 22.0419 17.9948 21.7815 18 21.5002C18 21.2242 17.9479 20.9664 17.8438 20.7268C17.7396 20.4872 17.5964 20.2737 17.4141 20.0862C17.2318 19.8987 17.0208 19.7555 16.7812 19.6565C16.5417 19.5575 16.2812 19.5055 16 19.5002C15.724 19.5002 15.4661 19.5523 15.2266 19.6565C14.987 19.7607 14.7734 19.9039 14.5859 20.0862C14.3984 20.2685 14.2552 20.4794 14.1562 20.719C14.0573 20.9586 14.0052 21.219 14 21.5002C14 21.7763 14.0521 22.0341 14.1562 22.2737C14.2604 22.5133 14.4036 22.7268 14.5859 22.9143C14.7682 23.1018 14.9792 23.245 15.2188 23.344C15.4583 23.443 15.7188 23.495 16 23.5002ZM20 15.5002C20 15.7763 20.0521 16.0341 20.1562 16.2737C20.2604 16.5133 20.4036 16.7268 20.5859 16.9143C20.7682 17.1018 20.9792 17.245 21.2188 17.344C21.4583 17.443 21.7188 17.495 22 17.5002C22.276 17.5002 22.5339 17.4482 22.7734 17.344C23.013 17.2398 23.2266 17.0966 23.4141 16.9143C23.6016 16.732 23.7448 16.5211 23.8438 16.2815C23.9427 16.0419 23.9948 15.7815 24 15.5002C24 15.2242 23.9479 14.9664 23.8438 14.7268C23.7396 14.4872 23.5964 14.2737 23.4141 14.0862C23.2318 13.8987 23.0208 13.7555 22.7812 13.6565C22.5417 13.5575 22.2812 13.5055 22 13.5002C21.724 13.5002 21.4661 13.5523 21.2266 13.6565C20.987 13.7607 20.7734 13.9039 20.5859 14.0862C20.3984 14.2685 20.2552 14.4794 20.1562 14.719C20.0573 14.9586 20.0052 15.219 20 15.5002Z" fill="#1ABC9C"/>
</svg>
