<svg width="316" height="109" viewBox="0 0 316 109" fill="none" xmlns="http://www.w3.org/2000/svg">
<rect width="316" height="109" rx="10" fill="#F6F7FE"/>
<circle cx="41.5" cy="52.5" r="26.5" fill="#FF6F61"/>
<path d="M41.0001 39.6667C33.6481 39.6667 27.6667 45.6481 27.6667 53.0001C27.6667 60.3521 33.6481 66.3334 41.0001 66.3334C48.3521 66.3334 54.3334 60.3521 54.3334 53.0001C54.3334 45.6481 48.3521 39.6667 41.0001 39.6667ZM41.0001 63.6667C35.1187 63.6667 30.3334 58.8814 30.3334 53.0001C30.3334 47.1187 35.1187 42.3334 41.0001 42.3334C46.8814 42.3334 51.6667 47.1187 51.6667 53.0001C51.6667 58.8814 46.8814 63.6667 41.0001 63.6667Z" fill="white"/>
<path d="M38.332 55.116L35.2667 52.056L33.384 53.944L38.3347 58.884L47.276 49.9427L45.3907 48.0574L38.332 55.116Z" fill="white"/>
<path d="M92.43 29.23L89.306 30.11C89.196 29.384 88.602 28.152 86.71 28.152C85.412 28.152 84.576 28.966 84.576 29.824C84.576 30.572 85.038 31.122 86.116 31.32L88.206 31.716C91.176 32.266 92.716 34.18 92.716 36.402C92.716 38.844 90.67 41.33 86.952 41.33C82.64 41.33 80.792 38.536 80.572 36.336L83.762 35.566C83.894 36.996 84.862 38.25 86.996 38.25C88.36 38.25 89.196 37.59 89.196 36.622C89.196 35.83 88.558 35.258 87.524 35.06L85.39 34.664C82.75 34.158 81.144 32.398 81.144 30.088C81.144 27.14 83.74 25.072 86.732 25.072C90.626 25.072 92.1 27.404 92.43 29.23ZM105.793 28.724H100.975V41H97.4988V28.724H92.7028V25.402H105.793V28.724ZM114.303 41L111.509 35.192H110.277V41H106.801V25.402H112.983C116.063 25.402 118.043 27.514 118.043 30.286C118.043 32.398 116.877 34.004 114.963 34.686L118.131 41H114.303ZM110.277 32.2H112.323C113.753 32.2 114.523 31.408 114.523 30.308C114.523 29.142 113.753 28.416 112.323 28.416H110.277V32.2ZM129.415 41H119.515V25.402H129.393V28.68H122.991V31.65H128.799V34.708H122.991V37.7H129.415V41ZM141.977 29.23L138.853 30.11C138.743 29.384 138.149 28.152 136.257 28.152C134.959 28.152 134.123 28.966 134.123 29.824C134.123 30.572 134.585 31.122 135.663 31.32L137.753 31.716C140.723 32.266 142.263 34.18 142.263 36.402C142.263 38.844 140.217 41.33 136.499 41.33C132.187 41.33 130.339 38.536 130.119 36.336L133.309 35.566C133.441 36.996 134.409 38.25 136.543 38.25C137.907 38.25 138.743 37.59 138.743 36.622C138.743 35.83 138.105 35.258 137.071 35.06L134.937 34.664C132.297 34.158 130.691 32.398 130.691 30.088C130.691 27.14 133.287 25.072 136.279 25.072C140.173 25.072 141.647 27.404 141.977 29.23ZM154.284 29.23L151.16 30.11C151.05 29.384 150.456 28.152 148.564 28.152C147.266 28.152 146.43 28.966 146.43 29.824C146.43 30.572 146.892 31.122 147.97 31.32L150.06 31.716C153.03 32.266 154.57 34.18 154.57 36.402C154.57 38.844 152.524 41.33 148.806 41.33C144.494 41.33 142.646 38.536 142.426 36.336L145.616 35.566C145.748 36.996 146.716 38.25 148.85 38.25C150.214 38.25 151.05 37.59 151.05 36.622C151.05 35.83 150.412 35.258 149.378 35.06L147.244 34.664C144.604 34.158 142.998 32.398 142.998 30.088C142.998 27.14 145.594 25.072 148.586 25.072C152.48 25.072 153.954 27.404 154.284 29.23ZM161.728 35.874H155.128V32.86H161.728V35.874ZM166.803 41H163.305V25.402H173.359V28.702H166.781V32.002H172.567V35.17H166.803V41ZM182.21 41L179.416 35.192H178.184V41H174.708V25.402H180.89C183.97 25.402 185.95 27.514 185.95 30.286C185.95 32.398 184.784 34.004 182.87 34.686L186.038 41H182.21ZM178.184 32.2H180.23C181.66 32.2 182.43 31.408 182.43 30.308C182.43 29.142 181.66 28.416 180.23 28.416H178.184V32.2ZM197.323 41H187.423V25.402H197.301V28.68H190.899V31.65H196.707V34.708H190.899V37.7H197.323V41ZM209.049 41H199.149V25.402H209.027V28.68H202.625V31.65H208.433V34.708H202.625V37.7H209.049V41Z" fill="#181818"/>
<path d="M86.454 58.746H82.898L82.142 61H80.168L83.542 51.76H85.852L89.226 61H87.224L86.454 58.746ZM85.978 57.318L85.11 54.714L84.69 53.314H84.662L84.27 54.686L83.374 57.318H85.978ZM96.2685 54V61H94.5605L94.4905 59.796C94.0425 60.692 93.2259 61.14 92.0405 61.14C91.2845 61.14 90.6825 60.9393 90.2345 60.538C89.7959 60.1273 89.5765 59.4927 89.5765 58.634V54H91.4945V58.144C91.4945 58.6853 91.5972 59.068 91.8025 59.292C92.0079 59.516 92.3112 59.628 92.7125 59.628C93.1979 59.628 93.5899 59.474 93.8885 59.166C94.1965 58.8487 94.3505 58.3773 94.3505 57.752V54H96.2685ZM102.389 60.566C102.165 60.7433 101.88 60.8833 101.535 60.986C101.199 61.0887 100.844 61.14 100.471 61.14C98.9118 61.14 98.1325 60.4353 98.1325 59.026V55.428H96.8585V54H98.1325V52.39L100.051 51.858V54H102.319V55.428H100.051V58.718C100.051 59.362 100.373 59.684 101.017 59.684C101.427 59.684 101.787 59.5533 102.095 59.292L102.389 60.566ZM106.108 53.86C107.238 53.86 108.115 54.182 108.74 54.826C109.375 55.47 109.692 56.3613 109.692 57.5C109.692 58.6387 109.375 59.53 108.74 60.174C108.115 60.818 107.238 61.14 106.108 61.14C104.979 61.14 104.097 60.818 103.462 60.174C102.837 59.53 102.524 58.6387 102.524 57.5C102.524 56.3613 102.837 55.47 103.462 54.826C104.097 54.182 104.979 53.86 106.108 53.86ZM106.108 55.288C105.567 55.288 105.152 55.4747 104.862 55.848C104.582 56.212 104.442 56.7627 104.442 57.5C104.442 58.2373 104.582 58.7927 104.862 59.166C105.152 59.53 105.567 59.712 106.108 59.712C106.65 59.712 107.06 59.53 107.34 59.166C107.63 58.7927 107.774 58.2373 107.774 57.5C107.774 56.7627 107.63 56.212 107.34 55.848C107.06 55.4747 106.65 55.288 106.108 55.288ZM119.402 53.86C120.12 53.86 120.713 54.0793 121.18 54.518C121.656 54.9567 121.894 55.5867 121.894 56.408V61H119.976V56.786C119.976 56.3007 119.868 55.946 119.654 55.722C119.439 55.4887 119.145 55.372 118.772 55.372C118.324 55.372 117.955 55.5353 117.666 55.862C117.376 56.1887 117.232 56.646 117.232 57.234V61H115.314V56.786C115.314 56.3007 115.206 55.946 114.992 55.722C114.777 55.4887 114.478 55.372 114.096 55.372C113.676 55.372 113.312 55.5353 113.004 55.862C112.705 56.1793 112.556 56.6553 112.556 57.29V61H110.638V54H112.36L112.416 55.246C112.649 54.7887 112.966 54.4433 113.368 54.21C113.778 53.9767 114.236 53.86 114.74 53.86C115.262 53.86 115.724 53.9813 116.126 54.224C116.536 54.4667 116.835 54.8167 117.022 55.274C117.246 54.8167 117.572 54.4667 118.002 54.224C118.431 53.9813 118.898 53.86 119.402 53.86ZM129.57 59.838C129.766 59.838 129.925 59.8193 130.046 59.782L129.906 60.944C129.645 61.0747 129.341 61.14 128.996 61.14C128.1 61.14 127.563 60.79 127.386 60.09C127.181 60.4353 126.863 60.6967 126.434 60.874C126.005 61.0513 125.496 61.14 124.908 61.14C124.227 61.14 123.695 60.986 123.312 60.678C122.929 60.37 122.738 59.9267 122.738 59.348C122.738 58.2093 123.648 57.472 125.468 57.136L127.148 56.814V56.478C127.148 56.1047 127.041 55.8107 126.826 55.596C126.621 55.372 126.331 55.26 125.958 55.26C125.529 55.26 125.179 55.3533 124.908 55.54C124.637 55.7267 124.451 56.03 124.348 56.45L122.822 55.806C122.971 55.1993 123.307 54.7233 123.83 54.378C124.353 54.0327 125.034 53.86 125.874 53.86C126.873 53.86 127.652 54.0793 128.212 54.518C128.772 54.9473 129.052 55.5867 129.052 56.436V59.306C129.052 59.4927 129.094 59.628 129.178 59.712C129.262 59.796 129.393 59.838 129.57 59.838ZM125.51 59.838C125.921 59.838 126.294 59.74 126.63 59.544C126.975 59.3387 127.148 59.0633 127.148 58.718V57.99L125.65 58.326C125.333 58.4007 125.095 58.5033 124.936 58.634C124.787 58.7553 124.712 58.928 124.712 59.152C124.712 59.376 124.782 59.5487 124.922 59.67C125.062 59.782 125.258 59.838 125.51 59.838ZM135.04 60.566C134.816 60.7433 134.531 60.8833 134.186 60.986C133.85 61.0887 133.495 61.14 133.122 61.14C131.563 61.14 130.784 60.4353 130.784 59.026V55.428H129.51V54H130.784V52.39L132.702 51.858V54H134.97V55.428H132.702V58.718C132.702 59.362 133.024 59.684 133.668 59.684C134.078 59.684 134.438 59.5533 134.746 59.292L135.04 60.566ZM142.078 57.472C142.078 57.7333 142.059 57.9853 142.022 58.228H137.066C137.262 59.2173 137.845 59.712 138.816 59.712C139.217 59.712 139.548 59.6373 139.81 59.488C140.071 59.3387 140.253 59.124 140.356 58.844L141.924 59.418C141.7 59.978 141.322 60.4073 140.79 60.706C140.267 60.9953 139.609 61.14 138.816 61.14C137.658 61.14 136.762 60.8227 136.128 60.188C135.493 59.544 135.176 58.648 135.176 57.5C135.176 56.352 135.484 55.4607 136.1 54.826C136.716 54.182 137.584 53.86 138.704 53.86C139.786 53.86 140.617 54.1727 141.196 54.798C141.784 55.4233 142.078 56.3147 142.078 57.472ZM138.69 55.274C138.223 55.274 137.85 55.4093 137.57 55.68C137.299 55.9507 137.126 56.352 137.052 56.884H140.314C140.239 56.3613 140.062 55.9647 139.782 55.694C139.502 55.414 139.138 55.274 138.69 55.274ZM149.764 50.934V61H148.056L147.972 59.698C147.767 60.1367 147.459 60.4867 147.048 60.748C146.647 61.0093 146.185 61.14 145.662 61.14C144.729 61.14 143.996 60.8227 143.464 60.188C142.932 59.544 142.666 58.6527 142.666 57.514C142.666 56.366 142.932 55.47 143.464 54.826C143.996 54.182 144.729 53.86 145.662 53.86C146.166 53.86 146.605 53.9767 146.978 54.21C147.351 54.434 147.641 54.7467 147.846 55.148V50.934H149.764ZM146.222 59.67C146.726 59.67 147.123 59.488 147.412 59.124C147.701 58.76 147.846 58.242 147.846 57.57V57.43C147.846 56.7673 147.701 56.254 147.412 55.89C147.123 55.5167 146.726 55.33 146.222 55.33C145.709 55.33 145.307 55.5167 145.018 55.89C144.729 56.2633 144.584 56.8 144.584 57.5C144.584 58.2 144.729 58.7367 145.018 59.11C145.307 59.4833 145.709 59.67 146.222 59.67ZM162.344 61.14C161.868 61.14 161.462 61.0793 161.126 60.958C160.79 60.8367 160.407 60.5847 159.978 60.202C159.642 60.5007 159.245 60.734 158.788 60.902C158.331 61.0607 157.827 61.14 157.276 61.14C156.333 61.14 155.573 60.916 154.994 60.468C154.425 60.0107 154.14 59.3993 154.14 58.634C154.14 58.1113 154.294 57.626 154.602 57.178C154.919 56.73 155.437 56.3567 156.156 56.058C155.764 55.5913 155.498 55.1993 155.358 54.882C155.218 54.5647 155.148 54.224 155.148 53.86C155.148 53.4773 155.246 53.118 155.442 52.782C155.638 52.4367 155.927 52.1567 156.31 51.942C156.702 51.7273 157.173 51.62 157.724 51.62C158.508 51.62 159.129 51.8067 159.586 52.18C160.043 52.5533 160.272 53.062 160.272 53.706C160.272 54.2473 160.123 54.728 159.824 55.148C159.525 55.5587 159.021 55.9273 158.312 56.254C158.695 56.6833 158.956 56.982 159.096 57.15L159.446 57.542C159.773 57.9247 159.992 58.1767 160.104 58.298C160.412 57.6913 160.547 56.982 160.51 56.17L161.84 56.24C161.859 56.8 161.789 57.3273 161.63 57.822C161.481 58.3167 161.252 58.76 160.944 59.152C161.196 59.3853 161.425 59.5487 161.63 59.642C161.845 59.7353 162.078 59.782 162.33 59.782C162.442 59.782 162.526 59.7773 162.582 59.768L162.344 61.14ZM157.752 52.964C157.463 52.964 157.234 53.0527 157.066 53.23C156.907 53.398 156.828 53.622 156.828 53.902C156.828 54.1167 156.879 54.3267 156.982 54.532C157.085 54.7373 157.299 55.036 157.626 55.428C158.065 55.148 158.354 54.8867 158.494 54.644C158.634 54.392 158.704 54.1073 158.704 53.79C158.704 53.5193 158.62 53.314 158.452 53.174C158.284 53.034 158.051 52.964 157.752 52.964ZM155.806 58.536C155.806 58.9093 155.955 59.2173 156.254 59.46C156.562 59.6933 156.945 59.81 157.402 59.81C158.027 59.81 158.597 59.6607 159.11 59.362C158.765 58.998 158.424 58.6247 158.088 58.242L157.822 57.948C157.411 57.5 157.113 57.1687 156.926 56.954C156.487 57.2527 156.189 57.5187 156.03 57.752C155.881 57.976 155.806 58.2373 155.806 58.536ZM174.613 51.76V61H172.681V57.108H168.607V61H166.675V51.76H168.607V55.554H172.681V51.76H174.613ZM182.472 59.838C182.668 59.838 182.827 59.8193 182.948 59.782L182.808 60.944C182.547 61.0747 182.243 61.14 181.898 61.14C181.002 61.14 180.465 60.79 180.288 60.09C180.083 60.4353 179.765 60.6967 179.336 60.874C178.907 61.0513 178.398 61.14 177.81 61.14C177.129 61.14 176.597 60.986 176.214 60.678C175.831 60.37 175.64 59.9267 175.64 59.348C175.64 58.2093 176.55 57.472 178.37 57.136L180.05 56.814V56.478C180.05 56.1047 179.943 55.8107 179.728 55.596C179.523 55.372 179.233 55.26 178.86 55.26C178.431 55.26 178.081 55.3533 177.81 55.54C177.539 55.7267 177.353 56.03 177.25 56.45L175.724 55.806C175.873 55.1993 176.209 54.7233 176.732 54.378C177.255 54.0327 177.936 53.86 178.776 53.86C179.775 53.86 180.554 54.0793 181.114 54.518C181.674 54.9473 181.954 55.5867 181.954 56.436V59.306C181.954 59.4927 181.996 59.628 182.08 59.712C182.164 59.796 182.295 59.838 182.472 59.838ZM178.412 59.838C178.823 59.838 179.196 59.74 179.532 59.544C179.877 59.3387 180.05 59.0633 180.05 58.718V57.99L178.552 58.326C178.235 58.4007 177.997 58.5033 177.838 58.634C177.689 58.7553 177.614 58.928 177.614 59.152C177.614 59.376 177.684 59.5487 177.824 59.67C177.964 59.782 178.16 59.838 178.412 59.838ZM186.129 61.14C184.57 61.14 183.488 60.692 182.881 59.796L184.001 58.648C184.188 59.0493 184.454 59.334 184.799 59.502C185.154 59.6607 185.588 59.74 186.101 59.74C186.512 59.74 186.829 59.684 187.053 59.572C187.277 59.46 187.389 59.306 187.389 59.11C187.389 58.9513 187.282 58.816 187.067 58.704C186.862 58.592 186.502 58.4847 185.989 58.382C184.916 58.1673 184.16 57.8873 183.721 57.542C183.292 57.1873 183.077 56.7113 183.077 56.114C183.077 55.722 183.198 55.3533 183.441 55.008C183.684 54.6627 184.043 54.3873 184.519 54.182C184.995 53.9673 185.564 53.86 186.227 53.86C187.011 53.86 187.646 53.9813 188.131 54.224C188.616 54.4573 189.022 54.8307 189.349 55.344L188.159 56.352C187.954 55.9787 187.697 55.7033 187.389 55.526C187.09 55.3487 186.712 55.26 186.255 55.26C185.872 55.26 185.564 55.3253 185.331 55.456C185.107 55.5867 184.995 55.7453 184.995 55.932C184.995 56.128 185.107 56.2913 185.331 56.422C185.555 56.5527 185.952 56.674 186.521 56.786C187.538 56.9913 188.257 57.262 188.677 57.598C189.106 57.9247 189.321 58.382 189.321 58.97C189.321 59.6233 189.041 60.1507 188.481 60.552C187.93 60.944 187.146 61.14 186.129 61.14ZM192.867 61.14C191.308 61.14 190.225 60.692 189.619 59.796L190.739 58.648C190.925 59.0493 191.191 59.334 191.537 59.502C191.891 59.6607 192.325 59.74 192.839 59.74C193.249 59.74 193.567 59.684 193.791 59.572C194.015 59.46 194.127 59.306 194.127 59.11C194.127 58.9513 194.019 58.816 193.805 58.704C193.599 58.592 193.24 58.4847 192.727 58.382C191.653 58.1673 190.897 57.8873 190.459 57.542C190.029 57.1873 189.815 56.7113 189.815 56.114C189.815 55.722 189.936 55.3533 190.179 55.008C190.421 54.6627 190.781 54.3873 191.257 54.182C191.733 53.9673 192.302 53.86 192.965 53.86C193.749 53.86 194.383 53.9813 194.869 54.224C195.354 54.4573 195.76 54.8307 196.087 55.344L194.897 56.352C194.691 55.9787 194.435 55.7033 194.127 55.526C193.828 55.3487 193.45 55.26 192.993 55.26C192.61 55.26 192.302 55.3253 192.069 55.456C191.845 55.5867 191.733 55.7453 191.733 55.932C191.733 56.128 191.845 56.2913 192.069 56.422C192.293 56.5527 192.689 56.674 193.259 56.786C194.276 56.9913 194.995 57.262 195.415 57.598C195.844 57.9247 196.059 58.382 196.059 58.97C196.059 59.6233 195.779 60.1507 195.219 60.552C194.668 60.944 193.884 61.14 192.867 61.14ZM198.778 58.774C198.778 59.11 198.825 59.3433 198.918 59.474C199.021 59.6047 199.203 59.67 199.464 59.67C199.623 59.67 199.758 59.6607 199.87 59.642C199.991 59.614 200.131 59.572 200.29 59.516L200.122 60.846C199.973 60.9393 199.777 61.0093 199.534 61.056C199.291 61.112 199.053 61.14 198.82 61.14C198.139 61.14 197.639 60.9767 197.322 60.65C197.014 60.314 196.86 59.782 196.86 59.054V50.934H198.778V58.774ZM207.197 57.472C207.197 57.7333 207.178 57.9853 207.141 58.228H202.185C202.381 59.2173 202.964 59.712 203.935 59.712C204.336 59.712 204.667 59.6373 204.929 59.488C205.19 59.3387 205.372 59.124 205.475 58.844L207.043 59.418C206.819 59.978 206.441 60.4073 205.909 60.706C205.386 60.9953 204.728 61.14 203.935 61.14C202.777 61.14 201.881 60.8227 201.247 60.188C200.612 59.544 200.295 58.648 200.295 57.5C200.295 56.352 200.603 55.4607 201.219 54.826C201.835 54.182 202.703 53.86 203.823 53.86C204.905 53.86 205.736 54.1727 206.315 54.798C206.903 55.4233 207.197 56.3147 207.197 57.472ZM203.809 55.274C203.342 55.274 202.969 55.4093 202.689 55.68C202.418 55.9507 202.245 56.352 202.171 56.884H205.433C205.358 56.3613 205.181 55.9647 204.901 55.694C204.621 55.414 204.257 55.274 203.809 55.274ZM213.217 58.116H208.275V56.464H213.217V58.116ZM216.836 53.314V55.652H220.77V57.22H216.836V61H214.904V51.76H221.82V53.314H216.836ZM226.187 53.86C226.513 53.86 226.765 53.9113 226.943 54.014L226.705 55.694C226.49 55.554 226.196 55.484 225.823 55.484C225.365 55.484 224.969 55.652 224.633 55.988C224.306 56.3147 224.143 56.7767 224.143 57.374V61H222.225V54H223.891L224.017 55.372C224.399 54.364 225.123 53.86 226.187 53.86ZM233.832 57.472C233.832 57.7333 233.814 57.9853 233.776 58.228H228.82C229.016 59.2173 229.6 59.712 230.57 59.712C230.972 59.712 231.303 59.6373 231.564 59.488C231.826 59.3387 232.008 59.124 232.11 58.844L233.678 59.418C233.454 59.978 233.076 60.4073 232.544 60.706C232.022 60.9953 231.364 61.14 230.57 61.14C229.413 61.14 228.517 60.8227 227.882 60.188C227.248 59.544 226.93 58.648 226.93 57.5C226.93 56.352 227.238 55.4607 227.854 54.826C228.47 54.182 229.338 53.86 230.458 53.86C231.541 53.86 232.372 54.1727 232.95 54.798C233.538 55.4233 233.832 56.3147 233.832 57.472ZM230.444 55.274C229.978 55.274 229.604 55.4093 229.324 55.68C229.054 55.9507 228.881 56.352 228.806 56.884H232.068C231.994 56.3613 231.816 55.9647 231.536 55.694C231.256 55.414 230.892 55.274 230.444 55.274ZM241.281 57.472C241.281 57.7333 241.262 57.9853 241.225 58.228H236.269C236.465 59.2173 237.048 59.712 238.019 59.712C238.42 59.712 238.751 59.6373 239.013 59.488C239.274 59.3387 239.456 59.124 239.559 58.844L241.127 59.418C240.903 59.978 240.525 60.4073 239.993 60.706C239.47 60.9953 238.812 61.14 238.019 61.14C236.861 61.14 235.965 60.8227 235.331 60.188C234.696 59.544 234.379 58.648 234.379 57.5C234.379 56.352 234.687 55.4607 235.303 54.826C235.919 54.182 236.787 53.86 237.907 53.86C238.989 53.86 239.82 54.1727 240.399 54.798C240.987 55.4233 241.281 56.3147 241.281 57.472ZM237.893 55.274C237.426 55.274 237.053 55.4093 236.773 55.68C236.502 55.9507 236.329 56.352 236.255 56.884H239.517C239.442 56.3613 239.265 55.9647 238.985 55.694C238.705 55.414 238.341 55.274 237.893 55.274Z" fill="#666666"/>
<path d="M81.88 70.15V72.28H84.86V73.03H81.88V76H81.08V69.4H85.7V70.15H81.88ZM88.4834 70.9C88.7234 70.9 88.9067 70.9333 89.0334 71L88.8734 71.78C88.7134 71.6933 88.5034 71.65 88.2434 71.65C88.03 71.65 87.82 71.7133 87.6134 71.84C87.4134 71.96 87.2467 72.1467 87.1134 72.4C86.9867 72.6467 86.9234 72.9467 86.9234 73.3V76H86.1234V71H86.7734L86.8834 71.82C87.1634 71.2067 87.6967 70.9 88.4834 70.9ZM91.6591 70.9C92.4125 70.9 93.0025 71.13 93.4291 71.59C93.8625 72.05 94.0791 72.6867 94.0791 73.5C94.0791 74.3133 93.8625 74.95 93.4291 75.41C93.0025 75.87 92.4125 76.1 91.6591 76.1C90.9058 76.1 90.3125 75.87 89.8791 75.41C89.4525 74.95 89.2391 74.3133 89.2391 73.5C89.2391 72.6867 89.4525 72.05 89.8791 71.59C90.3125 71.13 90.9058 70.9 91.6591 70.9ZM91.6591 71.59C91.1525 71.59 90.7558 71.76 90.4691 72.1C90.1825 72.44 90.0391 72.9067 90.0391 73.5C90.0391 74.0933 90.1825 74.56 90.4691 74.9C90.7558 75.24 91.1525 75.41 91.6591 75.41C92.1658 75.41 92.5625 75.24 92.8491 74.9C93.1358 74.56 93.2791 74.0933 93.2791 73.5C93.2791 72.9067 93.1358 72.44 92.8491 72.1C92.5625 71.76 92.1658 71.59 91.6591 71.59ZM100.943 70.9C101.276 70.9 101.586 70.97 101.873 71.11C102.166 71.2433 102.403 71.4533 102.583 71.74C102.763 72.0267 102.853 72.38 102.853 72.8V76H102.053V72.88C102.053 72.4467 101.943 72.1267 101.723 71.92C101.51 71.7067 101.226 71.6 100.873 71.6C100.606 71.6 100.36 71.6667 100.133 71.8C99.9131 71.9267 99.7331 72.1167 99.5931 72.37C99.4598 72.6167 99.3931 72.9133 99.3931 73.26V76H98.5931V72.88C98.5931 72.4467 98.4831 72.1267 98.2631 71.92C98.0498 71.7067 97.7665 71.6 97.4131 71.6C97.1731 71.6 96.9398 71.6633 96.7131 71.79C96.4865 71.91 96.2998 72.1 96.1531 72.36C96.0065 72.62 95.9331 72.9433 95.9331 73.33V76H95.1331V71H95.8331L95.8831 71.78C96.0565 71.4867 96.2831 71.2667 96.5631 71.12C96.8498 70.9733 97.1565 70.9 97.4831 70.9C97.8498 70.9 98.1865 70.9833 98.4931 71.15C98.8065 71.3167 99.0431 71.56 99.2031 71.88C99.3498 71.56 99.5898 71.3167 99.9231 71.15C100.256 70.9833 100.596 70.9 100.943 70.9ZM109.183 70.9C109.683 70.9 110.103 71.0167 110.443 71.25C110.789 71.4767 111.059 71.8033 111.253 72.23L110.493 72.59C110.279 71.93 109.836 71.6 109.163 71.6C108.663 71.6 108.269 71.77 107.983 72.11C107.703 72.4433 107.563 72.9067 107.563 73.5C107.563 74.0933 107.703 74.56 107.983 74.9C108.269 75.2333 108.663 75.4 109.163 75.4C109.549 75.4 109.859 75.3133 110.093 75.14C110.333 74.96 110.489 74.7033 110.563 74.37L111.303 74.63C111.129 75.0967 110.863 75.46 110.503 75.72C110.143 75.9733 109.703 76.1 109.183 76.1C108.429 76.1 107.836 75.87 107.403 75.41C106.976 74.95 106.763 74.3133 106.763 73.5C106.763 72.6867 106.976 72.05 107.403 71.59C107.836 71.13 108.429 70.9 109.183 70.9ZM114.647 70.9C115.214 70.9 115.68 71.0633 116.047 71.39C116.414 71.7167 116.597 72.1867 116.597 72.8V76H115.797V73.08C115.797 72.56 115.684 72.1833 115.457 71.95C115.237 71.7167 114.94 71.6 114.567 71.6C114.307 71.6 114.057 71.66 113.817 71.78C113.584 71.9 113.39 72.0933 113.237 72.36C113.09 72.62 113.017 72.95 113.017 73.35V76H112.217V68.7H113.017V71.75C113.184 71.4633 113.407 71.25 113.687 71.11C113.974 70.97 114.294 70.9 114.647 70.9ZM122.199 73.24C122.199 73.4267 122.185 73.6133 122.159 73.8H118.389C118.435 74.3067 118.602 74.7 118.889 74.98C119.182 75.26 119.559 75.4 120.019 75.4C120.385 75.4 120.689 75.3367 120.929 75.21C121.175 75.0833 121.342 74.9 121.429 74.66L122.099 75.01C121.899 75.3633 121.632 75.6333 121.299 75.82C120.965 76.0067 120.539 76.1 120.019 76.1C119.265 76.1 118.672 75.87 118.239 75.41C117.812 74.95 117.599 74.3133 117.599 73.5C117.599 72.6867 117.802 72.05 118.209 71.59C118.622 71.13 119.205 70.9 119.959 70.9C120.425 70.9 120.829 71.0033 121.169 71.21C121.509 71.4167 121.765 71.6967 121.939 72.05C122.112 72.4033 122.199 72.8 122.199 73.24ZM119.959 71.6C119.519 71.6 119.162 71.73 118.889 71.99C118.622 72.25 118.459 72.6167 118.399 73.09H121.429C121.375 72.6233 121.222 72.26 120.969 72C120.715 71.7333 120.379 71.6 119.959 71.6ZM125.329 70.9C125.829 70.9 126.249 71.0167 126.589 71.25C126.936 71.4767 127.206 71.8033 127.399 72.23L126.639 72.59C126.426 71.93 125.982 71.6 125.309 71.6C124.809 71.6 124.416 71.77 124.129 72.11C123.849 72.4433 123.709 72.9067 123.709 73.5C123.709 74.0933 123.849 74.56 124.129 74.9C124.416 75.2333 124.809 75.4 125.309 75.4C125.696 75.4 126.006 75.3133 126.239 75.14C126.479 74.96 126.636 74.7033 126.709 74.37L127.449 74.63C127.276 75.0967 127.009 75.46 126.649 75.72C126.289 75.9733 125.849 76.1 125.329 76.1C124.576 76.1 123.982 75.87 123.549 75.41C123.122 74.95 122.909 74.3133 122.909 73.5C122.909 72.6867 123.122 72.05 123.549 71.59C123.982 71.13 124.576 70.9 125.329 70.9ZM130.224 73.53L129.164 74.59V76H128.364V68.7H129.164V73.59L131.754 71H132.754L130.804 72.95L132.874 76H131.904L130.224 73.53ZM136.27 73.8H132.97V72.97H136.27V73.8ZM137.998 70.04C137.818 70.04 137.671 69.9867 137.558 69.88C137.451 69.7667 137.398 69.62 137.398 69.44C137.398 69.26 137.451 69.1167 137.558 69.01C137.671 68.8967 137.818 68.84 137.998 68.84C138.178 68.84 138.321 68.8967 138.428 69.01C138.541 69.1167 138.598 69.26 138.598 69.44C138.598 69.62 138.541 69.7667 138.428 69.88C138.321 69.9867 138.178 70.04 137.998 70.04ZM138.398 76H137.598V71H138.398V76ZM142.184 70.9C142.751 70.9 143.218 71.0633 143.584 71.39C143.951 71.7167 144.134 72.1867 144.134 72.8V76H143.334V73.08C143.334 72.56 143.221 72.1833 142.994 71.95C142.774 71.7167 142.478 71.6 142.104 71.6C141.838 71.6 141.588 71.66 141.354 71.78C141.121 71.8933 140.928 72.0833 140.774 72.35C140.628 72.61 140.554 72.94 140.554 73.34V76H139.754V71H140.454L140.504 71.78C140.671 71.48 140.901 71.26 141.194 71.12C141.488 70.9733 141.818 70.9 142.184 70.9ZM147.146 76.1C146.666 76.1 146.232 76.0067 145.846 75.82C145.459 75.6267 145.176 75.3433 144.996 74.97L145.646 74.52C145.759 74.8133 145.956 75.0333 146.236 75.18C146.516 75.3267 146.846 75.4 147.226 75.4C147.619 75.4 147.919 75.33 148.126 75.19C148.332 75.05 148.436 74.8733 148.436 74.66C148.436 74.4667 148.339 74.3133 148.146 74.2C147.952 74.08 147.612 73.9767 147.126 73.89C146.646 73.8033 146.266 73.7 145.986 73.58C145.706 73.4533 145.502 73.2967 145.376 73.11C145.249 72.9167 145.186 72.68 145.186 72.4C145.186 72.1267 145.266 71.8767 145.426 71.65C145.586 71.4233 145.816 71.2433 146.116 71.11C146.416 70.97 146.762 70.9 147.156 70.9C147.689 70.9 148.116 71 148.436 71.2C148.762 71.3933 148.996 71.6933 149.136 72.1L148.456 72.5C148.349 72.18 148.186 71.95 147.966 71.81C147.752 71.67 147.482 71.6 147.156 71.6C146.829 71.6 146.552 71.6733 146.326 71.82C146.099 71.9667 145.986 72.1367 145.986 72.33C145.986 72.55 146.082 72.72 146.276 72.84C146.476 72.96 146.829 73.0633 147.336 73.15C148.029 73.2633 148.519 73.4333 148.806 73.66C149.092 73.8867 149.236 74.2067 149.236 74.62C149.236 74.9067 149.149 75.1633 148.976 75.39C148.809 75.61 148.566 75.7833 148.246 75.91C147.932 76.0367 147.566 76.1 147.146 76.1ZM155.992 75.65C155.659 75.95 155.229 76.1 154.702 76.1C154.295 76.1 153.962 75.99 153.702 75.77C153.449 75.55 153.319 75.2133 153.312 74.76V71.69H152.312V71H153.312V69.8L154.112 69.58V71H155.962V71.69H154.112V74.62C154.112 74.86 154.179 75.0433 154.312 75.17C154.452 75.29 154.635 75.35 154.862 75.35C155.182 75.35 155.465 75.2267 155.712 74.98L155.992 75.65ZM158.731 70.9C159.485 70.9 160.075 71.13 160.501 71.59C160.935 72.05 161.151 72.6867 161.151 73.5C161.151 74.3133 160.935 74.95 160.501 75.41C160.075 75.87 159.485 76.1 158.731 76.1C157.978 76.1 157.385 75.87 156.951 75.41C156.525 74.95 156.311 74.3133 156.311 73.5C156.311 72.6867 156.525 72.05 156.951 71.59C157.385 71.13 157.978 70.9 158.731 70.9ZM158.731 71.59C158.225 71.59 157.828 71.76 157.541 72.1C157.255 72.44 157.111 72.9067 157.111 73.5C157.111 74.0933 157.255 74.56 157.541 74.9C157.828 75.24 158.225 75.41 158.731 75.41C159.238 75.41 159.635 75.24 159.921 74.9C160.208 74.56 160.351 74.0933 160.351 73.5C160.351 72.9067 160.208 72.44 159.921 72.1C159.635 71.76 159.238 71.59 158.731 71.59ZM167.224 70.9C167.724 70.9 168.144 71.0167 168.484 71.25C168.83 71.4767 169.1 71.8033 169.294 72.23L168.534 72.59C168.32 71.93 167.877 71.6 167.204 71.6C166.704 71.6 166.31 71.77 166.024 72.11C165.744 72.4433 165.604 72.9067 165.604 73.5C165.604 74.0933 165.744 74.56 166.024 74.9C166.31 75.2333 166.704 75.4 167.204 75.4C167.59 75.4 167.9 75.3133 168.134 75.14C168.374 74.96 168.53 74.7033 168.604 74.37L169.344 74.63C169.17 75.0967 168.904 75.46 168.544 75.72C168.184 75.9733 167.744 76.1 167.224 76.1C166.47 76.1 165.877 75.87 165.444 75.41C165.017 74.95 164.804 74.3133 164.804 73.5C164.804 72.6867 165.017 72.05 165.444 71.59C165.877 71.13 166.47 70.9 167.224 70.9ZM172.618 70.9C172.858 70.9 173.041 70.9333 173.168 71L173.008 71.78C172.848 71.6933 172.638 71.65 172.378 71.65C172.165 71.65 171.955 71.7133 171.748 71.84C171.548 71.96 171.381 72.1467 171.248 72.4C171.121 72.6467 171.058 72.9467 171.058 73.3V76H170.258V71H170.908L171.018 71.82C171.298 71.2067 171.831 70.9 172.618 70.9ZM175.794 70.9C176.547 70.9 177.137 71.13 177.564 71.59C177.997 72.05 178.214 72.6867 178.214 73.5C178.214 74.3133 177.997 74.95 177.564 75.41C177.137 75.87 176.547 76.1 175.794 76.1C175.041 76.1 174.447 75.87 174.014 75.41C173.587 74.95 173.374 74.3133 173.374 73.5C173.374 72.6867 173.587 72.05 174.014 71.59C174.447 71.13 175.041 70.9 175.794 70.9ZM175.794 71.59C175.287 71.59 174.891 71.76 174.604 72.1C174.317 72.44 174.174 72.9067 174.174 73.5C174.174 74.0933 174.317 74.56 174.604 74.9C174.891 75.24 175.287 75.41 175.794 75.41C176.301 75.41 176.697 75.24 176.984 74.9C177.271 74.56 177.414 74.0933 177.414 73.5C177.414 72.9067 177.271 72.44 176.984 72.1C176.697 71.76 176.301 71.59 175.794 71.59ZM186.372 71L184.632 76H183.832L182.422 72.02L181.092 76H180.292L178.552 71H179.442L180.702 75.07L182.062 71H182.862L184.222 75.07L185.482 71H186.372ZM191.46 68.7V76H190.76L190.71 75.13C190.563 75.4233 190.337 75.66 190.03 75.84C189.73 76.0133 189.387 76.1 189 76.1C188.3 76.1 187.743 75.87 187.33 75.41C186.923 74.9433 186.72 74.3067 186.72 73.5C186.72 72.6933 186.923 72.06 187.33 71.6C187.743 71.1333 188.3 70.9 189 70.9C189.367 70.9 189.693 70.98 189.98 71.14C190.273 71.3 190.5 71.5133 190.66 71.78V68.7H191.46ZM189.09 75.4C189.57 75.4 189.95 75.2333 190.23 74.9C190.517 74.5667 190.66 74.12 190.66 73.56V73.44C190.66 72.88 190.517 72.4333 190.23 72.1C189.95 71.7667 189.57 71.6 189.09 71.6C188.603 71.6 188.22 71.7733 187.94 72.12C187.66 72.46 187.52 72.92 187.52 73.5C187.52 74.08 187.66 74.5433 187.94 74.89C188.22 75.23 188.603 75.4 189.09 75.4ZM197.837 70.9C198.337 70.9 198.757 71.0167 199.097 71.25C199.444 71.4767 199.714 71.8033 199.907 72.23L199.147 72.59C198.934 71.93 198.49 71.6 197.817 71.6C197.317 71.6 196.924 71.77 196.637 72.11C196.357 72.4433 196.217 72.9067 196.217 73.5C196.217 74.0933 196.357 74.56 196.637 74.9C196.924 75.2333 197.317 75.4 197.817 75.4C198.204 75.4 198.514 75.3133 198.747 75.14C198.987 74.96 199.144 74.7033 199.217 74.37L199.957 74.63C199.784 75.0967 199.517 75.46 199.157 75.72C198.797 75.9733 198.357 76.1 197.837 76.1C197.084 76.1 196.49 75.87 196.057 75.41C195.63 74.95 195.417 74.3133 195.417 73.5C195.417 72.6867 195.63 72.05 196.057 71.59C196.49 71.13 197.084 70.9 197.837 70.9ZM202.981 70.9C203.735 70.9 204.325 71.13 204.751 71.59C205.185 72.05 205.401 72.6867 205.401 73.5C205.401 74.3133 205.185 74.95 204.751 75.41C204.325 75.87 203.735 76.1 202.981 76.1C202.228 76.1 201.635 75.87 201.201 75.41C200.775 74.95 200.561 74.3133 200.561 73.5C200.561 72.6867 200.775 72.05 201.201 71.59C201.635 71.13 202.228 70.9 202.981 70.9ZM202.981 71.59C202.475 71.59 202.078 71.76 201.791 72.1C201.505 72.44 201.361 72.9067 201.361 73.5C201.361 74.0933 201.505 74.56 201.791 74.9C202.078 75.24 202.475 75.41 202.981 75.41C203.488 75.41 203.885 75.24 204.171 74.9C204.458 74.56 204.601 74.0933 204.601 73.5C204.601 72.9067 204.458 72.44 204.171 72.1C203.885 71.76 203.488 71.59 202.981 71.59ZM208.885 70.9C209.452 70.9 209.919 71.0633 210.285 71.39C210.652 71.7167 210.835 72.1867 210.835 72.8V76H210.035V73.08C210.035 72.56 209.922 72.1833 209.695 71.95C209.475 71.7167 209.179 71.6 208.805 71.6C208.539 71.6 208.289 71.66 208.055 71.78C207.822 71.8933 207.629 72.0833 207.475 72.35C207.329 72.61 207.255 72.94 207.255 73.34V76H206.455V71H207.155L207.205 71.78C207.372 71.48 207.602 71.26 207.895 71.12C208.189 70.9733 208.519 70.9 208.885 70.9ZM215.138 75.65C214.805 75.95 214.375 76.1 213.848 76.1C213.442 76.1 213.108 75.99 212.848 75.77C212.595 75.55 212.465 75.2133 212.458 74.76V71.69H211.458V71H212.458V69.8L213.258 69.58V71H215.108V71.69H213.258V74.62C213.258 74.86 213.325 75.0433 213.458 75.17C213.598 75.29 213.782 75.35 214.008 75.35C214.328 75.35 214.612 75.2267 214.858 74.98L215.138 75.65ZM218.128 70.9C218.368 70.9 218.551 70.9333 218.678 71L218.518 71.78C218.358 71.6933 218.148 71.65 217.888 71.65C217.675 71.65 217.465 71.7133 217.258 71.84C217.058 71.96 216.891 72.1467 216.758 72.4C216.631 72.6467 216.568 72.9467 216.568 73.3V76H215.768V71H216.418L216.528 71.82C216.808 71.2067 217.341 70.9 218.128 70.9ZM221.304 70.9C222.057 70.9 222.647 71.13 223.074 71.59C223.507 72.05 223.724 72.6867 223.724 73.5C223.724 74.3133 223.507 74.95 223.074 75.41C222.647 75.87 222.057 76.1 221.304 76.1C220.55 76.1 219.957 75.87 219.524 75.41C219.097 74.95 218.884 74.3133 218.884 73.5C218.884 72.6867 219.097 72.05 219.524 71.59C219.957 71.13 220.55 70.9 221.304 70.9ZM221.304 71.59C220.797 71.59 220.4 71.76 220.114 72.1C219.827 72.44 219.684 72.9067 219.684 73.5C219.684 74.0933 219.827 74.56 220.114 74.9C220.4 75.24 220.797 75.41 221.304 75.41C221.81 75.41 222.207 75.24 222.494 74.9C222.78 74.56 222.924 74.0933 222.924 73.5C222.924 72.9067 222.78 72.44 222.494 72.1C222.207 71.76 221.81 71.59 221.304 71.59ZM225.538 74.66C225.538 74.9133 225.574 75.09 225.648 75.19C225.728 75.2833 225.871 75.33 226.078 75.33C226.218 75.33 226.338 75.32 226.438 75.3C226.544 75.28 226.668 75.2433 226.808 75.19L226.678 75.96C226.458 76.0533 226.211 76.1 225.938 76.1C225.531 76.1 225.228 75.99 225.028 75.77C224.834 75.55 224.738 75.2133 224.738 74.76V68.7H225.538V74.66ZM227.734 74.8C227.968 74.8 228.151 74.89 228.284 75.07C228.418 75.25 228.484 75.4833 228.484 75.77C228.484 76.1233 228.394 76.45 228.214 76.75C228.034 77.05 227.761 77.2867 227.394 77.46L226.974 77.07C227.234 76.9833 227.451 76.8467 227.624 76.66C227.798 76.4733 227.908 76.27 227.954 76.05L227.914 76.03C227.854 76.0767 227.761 76.1 227.634 76.1C227.494 76.1 227.368 76.0467 227.254 75.94C227.141 75.8267 227.084 75.67 227.084 75.47C227.084 75.29 227.148 75.1333 227.274 75C227.401 74.8667 227.554 74.8 227.734 74.8ZM234.509 70.9C235.262 70.9 235.852 71.13 236.279 71.59C236.712 72.05 236.929 72.6867 236.929 73.5C236.929 74.3133 236.712 74.95 236.279 75.41C235.852 75.87 235.262 76.1 234.509 76.1C233.755 76.1 233.162 75.87 232.729 75.41C232.302 74.95 232.089 74.3133 232.089 73.5C232.089 72.6867 232.302 72.05 232.729 71.59C233.162 71.13 233.755 70.9 234.509 70.9ZM234.509 71.59C234.002 71.59 233.605 71.76 233.319 72.1C233.032 72.44 232.889 72.9067 232.889 73.5C232.889 74.0933 233.032 74.56 233.319 74.9C233.605 75.24 234.002 75.41 234.509 75.41C235.015 75.41 235.412 75.24 235.699 74.9C235.985 74.56 236.129 74.0933 236.129 73.5C236.129 72.9067 235.985 72.44 235.699 72.1C235.412 71.76 235.015 71.59 234.509 71.59ZM242.313 71V76H241.613L241.563 75.24C241.229 75.8133 240.633 76.1 239.773 76.1C239.233 76.1 238.789 75.95 238.443 75.65C238.103 75.35 237.933 74.89 237.933 74.27V71H238.733V74.06C238.733 74.5467 238.833 74.8933 239.033 75.1C239.233 75.3 239.526 75.4 239.913 75.4C240.373 75.4 240.753 75.26 241.053 74.98C241.359 74.7 241.513 74.28 241.513 73.72V71H242.313ZM246.034 70.9C246.274 70.9 246.457 70.9333 246.584 71L246.424 71.78C246.264 71.6933 246.054 71.65 245.794 71.65C245.581 71.65 245.371 71.7133 245.164 71.84C244.964 71.96 244.797 72.1467 244.664 72.4C244.537 72.6467 244.474 72.9467 244.474 73.3V76H243.674V71H244.324L244.434 71.82C244.714 71.2067 245.247 70.9 246.034 70.9ZM251.63 76.1C251.15 76.1 250.717 76.0067 250.33 75.82C249.943 75.6267 249.66 75.3433 249.48 74.97L250.13 74.52C250.243 74.8133 250.44 75.0333 250.72 75.18C251 75.3267 251.33 75.4 251.71 75.4C252.103 75.4 252.403 75.33 252.61 75.19C252.817 75.05 252.92 74.8733 252.92 74.66C252.92 74.4667 252.823 74.3133 252.63 74.2C252.437 74.08 252.097 73.9767 251.61 73.89C251.13 73.8033 250.75 73.7 250.47 73.58C250.19 73.4533 249.987 73.2967 249.86 73.11C249.733 72.9167 249.67 72.68 249.67 72.4C249.67 72.1267 249.75 71.8767 249.91 71.65C250.07 71.4233 250.3 71.2433 250.6 71.11C250.9 70.97 251.247 70.9 251.64 70.9C252.173 70.9 252.6 71 252.92 71.2C253.247 71.3933 253.48 71.6933 253.62 72.1L252.94 72.5C252.833 72.18 252.67 71.95 252.45 71.81C252.237 71.67 251.967 71.6 251.64 71.6C251.313 71.6 251.037 71.6733 250.81 71.82C250.583 71.9667 250.47 72.1367 250.47 72.33C250.47 72.55 250.567 72.72 250.76 72.84C250.96 72.96 251.313 73.0633 251.82 73.15C252.513 73.2633 253.003 73.4333 253.29 73.66C253.577 73.8867 253.72 74.2067 253.72 74.62C253.72 74.9067 253.633 75.1633 253.46 75.39C253.293 75.61 253.05 75.7833 252.73 75.91C252.417 76.0367 252.05 76.1 251.63 76.1ZM256.301 76.84C256.107 77.32 255.891 77.6567 255.651 77.85C255.411 78.05 255.101 78.15 254.721 78.15C254.467 78.15 254.254 78.1167 254.081 78.05C253.914 77.9833 253.761 77.8767 253.621 77.73L253.901 77.05C254.094 77.3167 254.364 77.45 254.711 77.45C254.904 77.45 255.074 77.39 255.221 77.27C255.374 77.1567 255.507 76.9467 255.621 76.64L255.881 75.99L253.791 71H254.701L255.951 74.26L256.261 75.15L256.621 74.16L257.791 71H258.651L256.301 76.84ZM260.825 76.1C260.345 76.1 259.912 76.0067 259.525 75.82C259.139 75.6267 258.855 75.3433 258.675 74.97L259.325 74.52C259.439 74.8133 259.635 75.0333 259.915 75.18C260.195 75.3267 260.525 75.4 260.905 75.4C261.299 75.4 261.599 75.33 261.805 75.19C262.012 75.05 262.115 74.8733 262.115 74.66C262.115 74.4667 262.019 74.3133 261.825 74.2C261.632 74.08 261.292 73.9767 260.805 73.89C260.325 73.8033 259.945 73.7 259.665 73.58C259.385 73.4533 259.182 73.2967 259.055 73.11C258.929 72.9167 258.865 72.68 258.865 72.4C258.865 72.1267 258.945 71.8767 259.105 71.65C259.265 71.4233 259.495 71.2433 259.795 71.11C260.095 70.97 260.442 70.9 260.835 70.9C261.369 70.9 261.795 71 262.115 71.2C262.442 71.3933 262.675 71.6933 262.815 72.1L262.135 72.5C262.029 72.18 261.865 71.95 261.645 71.81C261.432 71.67 261.162 71.6 260.835 71.6C260.509 71.6 260.232 71.6733 260.005 71.82C259.779 71.9667 259.665 72.1367 259.665 72.33C259.665 72.55 259.762 72.72 259.955 72.84C260.155 72.96 260.509 73.0633 261.015 73.15C261.709 73.2633 262.199 73.4333 262.485 73.66C262.772 73.8867 262.915 74.2067 262.915 74.62C262.915 74.9067 262.829 75.1633 262.655 75.39C262.489 75.61 262.245 75.7833 261.925 75.91C261.612 76.0367 261.245 76.1 260.825 76.1ZM266.959 75.65C266.625 75.95 266.195 76.1 265.669 76.1C265.262 76.1 264.929 75.99 264.669 75.77C264.415 75.55 264.285 75.2133 264.279 74.76V71.69H263.279V71H264.279V69.8L265.079 69.58V71H266.929V71.69H265.079V74.62C265.079 74.86 265.145 75.0433 265.279 75.17C265.419 75.29 265.602 75.35 265.829 75.35C266.149 75.35 266.432 75.2267 266.679 74.98L266.959 75.65ZM271.878 73.24C271.878 73.4267 271.865 73.6133 271.838 73.8H268.068C268.115 74.3067 268.282 74.7 268.568 74.98C268.862 75.26 269.238 75.4 269.698 75.4C270.065 75.4 270.368 75.3367 270.608 75.21C270.855 75.0833 271.022 74.9 271.108 74.66L271.778 75.01C271.578 75.3633 271.312 75.6333 270.978 75.82C270.645 76.0067 270.218 76.1 269.698 76.1C268.945 76.1 268.352 75.87 267.918 75.41C267.492 74.95 267.278 74.3133 267.278 73.5C267.278 72.6867 267.482 72.05 267.888 71.59C268.302 71.13 268.885 70.9 269.638 70.9C270.105 70.9 270.508 71.0033 270.848 71.21C271.188 71.4167 271.445 71.6967 271.618 72.05C271.792 72.4033 271.878 72.8 271.878 73.24ZM269.638 71.6C269.198 71.6 268.842 71.73 268.568 71.99C268.302 72.25 268.138 72.6167 268.078 73.09H271.108C271.055 72.6233 270.902 72.26 270.648 72C270.395 71.7333 270.058 71.6 269.638 71.6ZM278.709 70.9C279.042 70.9 279.352 70.97 279.639 71.11C279.932 71.2433 280.169 71.4533 280.349 71.74C280.529 72.0267 280.619 72.38 280.619 72.8V76H279.819V72.88C279.819 72.4467 279.709 72.1267 279.489 71.92C279.275 71.7067 278.992 71.6 278.639 71.6C278.372 71.6 278.125 71.6667 277.899 71.8C277.679 71.9267 277.499 72.1167 277.359 72.37C277.225 72.6167 277.159 72.9133 277.159 73.26V76H276.359V72.88C276.359 72.4467 276.249 72.1267 276.029 71.92C275.815 71.7067 275.532 71.6 275.179 71.6C274.939 71.6 274.705 71.6633 274.479 71.79C274.252 71.91 274.065 72.1 273.919 72.36C273.772 72.62 273.699 72.9433 273.699 73.33V76H272.899V71H273.599L273.649 71.78C273.822 71.4867 274.049 71.2667 274.329 71.12C274.615 70.9733 274.922 70.9 275.249 70.9C275.615 70.9 275.952 70.9833 276.259 71.15C276.572 71.3167 276.809 71.56 276.969 71.88C277.115 71.56 277.355 71.3167 277.689 71.15C278.022 70.9833 278.362 70.9 278.709 70.9ZM83.99 86.65C83.6567 86.95 83.2267 87.1 82.7 87.1C82.2933 87.1 81.96 86.99 81.7 86.77C81.4467 86.55 81.3167 86.2133 81.31 85.76V82.69H80.31V82H81.31V80.8L82.11 80.58V82H83.96V82.69H82.11V85.62C82.11 85.86 82.1767 86.0433 82.31 86.17C82.45 86.29 82.6333 86.35 82.86 86.35C83.18 86.35 83.4633 86.2267 83.71 85.98L83.99 86.65ZM88.7195 86.42C88.8528 86.42 88.9861 86.4033 89.1195 86.37L89.0695 87C88.8828 87.0667 88.6828 87.1 88.4695 87.1C88.2095 87.1 88.0028 87.0433 87.8495 86.93C87.7028 86.8167 87.6095 86.6267 87.5695 86.36C87.4161 86.5933 87.1895 86.7767 86.8895 86.91C86.5961 87.0367 86.2861 87.1 85.9595 87.1C85.4661 87.1 85.0595 86.9867 84.7395 86.76C84.4195 86.5267 84.2595 86.1933 84.2595 85.76C84.2595 85.38 84.4261 85.0533 84.7595 84.78C85.0928 84.5 85.5761 84.3067 86.2095 84.2L87.5395 83.98V83.7C87.5395 83.3667 87.4361 83.1 87.2295 82.9C87.0228 82.7 86.7361 82.6 86.3695 82.6C86.0361 82.6 85.7461 82.68 85.4995 82.84C85.2595 83 85.0728 83.2367 84.9395 83.55L84.3495 83.12C84.4828 82.7467 84.7295 82.45 85.0895 82.23C85.4561 82.01 85.8828 81.9 86.3695 81.9C86.9628 81.9 87.4395 82.0433 87.7995 82.33C88.1595 82.6167 88.3395 83.04 88.3395 83.6V86.06C88.3395 86.18 88.3695 86.27 88.4295 86.33C88.4895 86.39 88.5861 86.42 88.7195 86.42ZM85.9995 86.4C86.4195 86.4 86.7795 86.3 87.0795 86.1C87.3861 85.9 87.5395 85.64 87.5395 85.32V84.63L86.4195 84.84C85.9728 84.92 85.6395 85.0367 85.4195 85.19C85.1995 85.3367 85.0895 85.5267 85.0895 85.76C85.0895 85.9667 85.1695 86.1267 85.3295 86.24C85.4895 86.3467 85.7128 86.4 85.9995 86.4ZM91.6435 84.53L90.5835 85.59V87H89.7835V79.7H90.5835V84.59L93.1735 82H94.1735L92.2235 83.95L94.2935 87H93.3235L91.6435 84.53ZM99.0716 84.24C99.0716 84.4267 99.0582 84.6133 99.0316 84.8H95.2616C95.3082 85.3067 95.4749 85.7 95.7616 85.98C96.0549 86.26 96.4316 86.4 96.8916 86.4C97.2582 86.4 97.5616 86.3367 97.8016 86.21C98.0482 86.0833 98.2149 85.9 98.3016 85.66L98.9716 86.01C98.7716 86.3633 98.5049 86.6333 98.1716 86.82C97.8382 87.0067 97.4116 87.1 96.8916 87.1C96.1382 87.1 95.5449 86.87 95.1116 86.41C94.6849 85.95 94.4716 85.3133 94.4716 84.5C94.4716 83.6867 94.6749 83.05 95.0816 82.59C95.4949 82.13 96.0782 81.9 96.8316 81.9C97.2982 81.9 97.7016 82.0033 98.0416 82.21C98.3816 82.4167 98.6382 82.6967 98.8116 83.05C98.9849 83.4033 99.0716 83.8 99.0716 84.24ZM96.8316 82.6C96.3916 82.6 96.0349 82.73 95.7616 82.99C95.4949 83.25 95.3316 83.6167 95.2716 84.09H98.3016C98.2482 83.6233 98.0949 83.26 97.8416 83C97.5882 82.7333 97.2516 82.6 96.8316 82.6ZM101.792 87.1C101.312 87.1 100.879 87.0067 100.492 86.82C100.105 86.6267 99.8221 86.3433 99.6421 85.97L100.292 85.52C100.405 85.8133 100.602 86.0333 100.882 86.18C101.162 86.3267 101.492 86.4 101.872 86.4C102.265 86.4 102.565 86.33 102.772 86.19C102.979 86.05 103.082 85.8733 103.082 85.66C103.082 85.4667 102.985 85.3133 102.792 85.2C102.599 85.08 102.259 84.9767 101.772 84.89C101.292 84.8033 100.912 84.7 100.632 84.58C100.352 84.4533 100.149 84.2967 100.022 84.11C99.8954 83.9167 99.8321 83.68 99.8321 83.4C99.8321 83.1267 99.9121 82.8767 100.072 82.65C100.232 82.4233 100.462 82.2433 100.762 82.11C101.062 81.97 101.409 81.9 101.802 81.9C102.335 81.9 102.762 82 103.082 82.2C103.409 82.3933 103.642 82.6933 103.782 83.1L103.102 83.5C102.995 83.18 102.832 82.95 102.612 82.81C102.399 82.67 102.129 82.6 101.802 82.6C101.475 82.6 101.199 82.6733 100.972 82.82C100.745 82.9667 100.632 83.1367 100.632 83.33C100.632 83.55 100.729 83.72 100.922 83.84C101.122 83.96 101.475 84.0633 101.982 84.15C102.675 84.2633 103.165 84.4333 103.452 84.66C103.739 84.8867 103.882 85.2067 103.882 85.62C103.882 85.9067 103.795 86.1633 103.622 86.39C103.455 86.61 103.212 86.7833 102.892 86.91C102.579 87.0367 102.212 87.1 101.792 87.1ZM110.638 86.65C110.305 86.95 109.875 87.1 109.348 87.1C108.942 87.1 108.608 86.99 108.348 86.77C108.095 86.55 107.965 86.2133 107.958 85.76V82.69H106.958V82H107.958V80.8L108.758 80.58V82H110.608V82.69H108.758V85.62C108.758 85.86 108.825 86.0433 108.958 86.17C109.098 86.29 109.282 86.35 109.508 86.35C109.828 86.35 110.112 86.2267 110.358 85.98L110.638 86.65ZM113.698 81.9C114.265 81.9 114.731 82.0633 115.098 82.39C115.465 82.7167 115.648 83.1867 115.648 83.8V87H114.848V84.08C114.848 83.56 114.735 83.1833 114.508 82.95C114.288 82.7167 113.991 82.6 113.618 82.6C113.358 82.6 113.108 82.66 112.868 82.78C112.635 82.9 112.441 83.0933 112.288 83.36C112.141 83.62 112.068 83.95 112.068 84.35V87H111.268V79.7H112.068V82.75C112.235 82.4633 112.458 82.25 112.738 82.11C113.025 81.97 113.345 81.9 113.698 81.9ZM121.249 84.24C121.249 84.4267 121.236 84.6133 121.209 84.8H117.439C117.486 85.3067 117.653 85.7 117.939 85.98C118.233 86.26 118.609 86.4 119.069 86.4C119.436 86.4 119.739 86.3367 119.979 86.21C120.226 86.0833 120.393 85.9 120.479 85.66L121.149 86.01C120.949 86.3633 120.683 86.6333 120.349 86.82C120.016 87.0067 119.589 87.1 119.069 87.1C118.316 87.1 117.723 86.87 117.289 86.41C116.863 85.95 116.649 85.3133 116.649 84.5C116.649 83.6867 116.853 83.05 117.259 82.59C117.673 82.13 118.256 81.9 119.009 81.9C119.476 81.9 119.879 82.0033 120.219 82.21C120.559 82.4167 120.816 82.6967 120.989 83.05C121.163 83.4033 121.249 83.8 121.249 84.24ZM119.009 82.6C118.569 82.6 118.213 82.73 117.939 82.99C117.673 83.25 117.509 83.6167 117.449 84.09H120.479C120.426 83.6233 120.273 83.26 120.019 83C119.766 82.7333 119.429 82.6 119.009 82.6ZM127.638 81.9C128.338 81.9 128.891 82.1333 129.298 82.6C129.711 83.06 129.918 83.6933 129.918 84.5C129.918 85.3067 129.711 85.9433 129.298 86.41C128.891 86.87 128.338 87.1 127.638 87.1C127.251 87.1 126.905 87.0133 126.598 86.84C126.298 86.66 126.075 86.4233 125.928 86.13L125.878 87H125.178V79.7H125.978V82.78C126.138 82.5133 126.361 82.3 126.648 82.14C126.941 81.98 127.271 81.9 127.638 81.9ZM127.548 86.4C128.035 86.4 128.418 86.23 128.698 85.89C128.978 85.5433 129.118 85.08 129.118 84.5C129.118 83.92 128.978 83.46 128.698 83.12C128.418 82.7733 128.035 82.6 127.548 82.6C127.068 82.6 126.685 82.7667 126.398 83.1C126.118 83.4333 125.978 83.88 125.978 84.44V84.56C125.978 85.12 126.118 85.5667 126.398 85.9C126.685 86.2333 127.068 86.4 127.548 86.4ZM135.307 82V87H134.607L134.557 86.24C134.224 86.8133 133.627 87.1 132.767 87.1C132.227 87.1 131.784 86.95 131.437 86.65C131.097 86.35 130.927 85.89 130.927 85.27V82H131.727V85.06C131.727 85.5467 131.827 85.8933 132.027 86.1C132.227 86.3 132.52 86.4 132.907 86.4C133.367 86.4 133.747 86.26 134.047 85.98C134.354 85.7 134.507 85.28 134.507 84.72V82H135.307ZM139.028 81.9C139.268 81.9 139.452 81.9333 139.578 82L139.418 82.78C139.258 82.6933 139.048 82.65 138.788 82.65C138.575 82.65 138.365 82.7133 138.158 82.84C137.958 82.96 137.792 83.1467 137.658 83.4C137.532 83.6467 137.468 83.9467 137.468 84.3V87H136.668V82H137.318L137.428 82.82C137.708 82.2067 138.242 81.9 139.028 81.9ZM144.534 79.7V87H143.834L143.784 86.13C143.637 86.4233 143.411 86.66 143.104 86.84C142.804 87.0133 142.461 87.1 142.074 87.1C141.374 87.1 140.817 86.87 140.404 86.41C139.997 85.9433 139.794 85.3067 139.794 84.5C139.794 83.6933 139.997 83.06 140.404 82.6C140.817 82.1333 141.374 81.9 142.074 81.9C142.441 81.9 142.767 81.98 143.054 82.14C143.347 82.3 143.574 82.5133 143.734 82.78V79.7H144.534ZM142.164 86.4C142.644 86.4 143.024 86.2333 143.304 85.9C143.591 85.5667 143.734 85.12 143.734 84.56V84.44C143.734 83.88 143.591 83.4333 143.304 83.1C143.024 82.7667 142.644 82.6 142.164 82.6C141.677 82.6 141.294 82.7733 141.014 83.12C140.734 83.46 140.594 83.92 140.594 84.5C140.594 85.08 140.734 85.5433 141.014 85.89C141.294 86.23 141.677 86.4 142.164 86.4ZM150.183 84.24C150.183 84.4267 150.17 84.6133 150.143 84.8H146.373C146.42 85.3067 146.586 85.7 146.873 85.98C147.166 86.26 147.543 86.4 148.003 86.4C148.37 86.4 148.673 86.3367 148.913 86.21C149.16 86.0833 149.326 85.9 149.413 85.66L150.083 86.01C149.883 86.3633 149.616 86.6333 149.283 86.82C148.95 87.0067 148.523 87.1 148.003 87.1C147.25 87.1 146.656 86.87 146.223 86.41C145.796 85.95 145.583 85.3133 145.583 84.5C145.583 83.6867 145.786 83.05 146.193 82.59C146.606 82.13 147.19 81.9 147.943 81.9C148.41 81.9 148.813 82.0033 149.153 82.21C149.493 82.4167 149.75 82.6967 149.923 83.05C150.096 83.4033 150.183 83.8 150.183 84.24ZM147.943 82.6C147.503 82.6 147.146 82.73 146.873 82.99C146.606 83.25 146.443 83.6167 146.383 84.09H149.413C149.36 83.6233 149.206 83.26 148.953 83C148.7 82.7333 148.363 82.6 147.943 82.6ZM153.633 81.9C154.2 81.9 154.667 82.0633 155.033 82.39C155.4 82.7167 155.583 83.1867 155.583 83.8V87H154.783V84.08C154.783 83.56 154.67 83.1833 154.443 82.95C154.223 82.7167 153.927 82.6 153.553 82.6C153.287 82.6 153.037 82.66 152.803 82.78C152.57 82.8933 152.377 83.0833 152.223 83.35C152.077 83.61 152.003 83.94 152.003 84.34V87H151.203V82H151.903L151.953 82.78C152.12 82.48 152.35 82.26 152.643 82.12C152.937 81.9733 153.267 81.9 153.633 81.9ZM161.913 81.9C162.666 81.9 163.256 82.13 163.683 82.59C164.116 83.05 164.333 83.6867 164.333 84.5C164.333 85.3133 164.116 85.95 163.683 86.41C163.256 86.87 162.666 87.1 161.913 87.1C161.16 87.1 160.566 86.87 160.133 86.41C159.706 85.95 159.493 85.3133 159.493 84.5C159.493 83.6867 159.706 83.05 160.133 82.59C160.566 82.13 161.16 81.9 161.913 81.9ZM161.913 82.59C161.406 82.59 161.01 82.76 160.723 83.1C160.436 83.44 160.293 83.9067 160.293 84.5C160.293 85.0933 160.436 85.56 160.723 85.9C161.01 86.24 161.406 86.41 161.913 86.41C162.42 86.41 162.816 86.24 163.103 85.9C163.39 85.56 163.533 85.0933 163.533 84.5C163.533 83.9067 163.39 83.44 163.103 83.1C162.816 82.76 162.42 82.59 161.913 82.59ZM166.489 82H168.159V82.69H166.489V87H165.689V82.69H164.689V82H165.689V81.16C165.689 80.7 165.829 80.3333 166.109 80.06C166.389 79.7867 166.796 79.65 167.329 79.65C167.509 79.65 167.672 79.67 167.819 79.71C167.972 79.75 168.092 79.8067 168.179 79.88L167.969 80.53C167.809 80.43 167.619 80.38 167.399 80.38C166.792 80.38 166.489 80.6667 166.489 81.24V82ZM169.212 82H170.882V82.69H169.212V87H168.412V82.69H167.412V82H168.412V81.16C168.412 80.7 168.552 80.3333 168.832 80.06C169.112 79.7867 169.518 79.65 170.052 79.65C170.232 79.65 170.395 79.67 170.542 79.71C170.695 79.75 170.815 79.8067 170.902 79.88L170.692 80.53C170.532 80.43 170.342 80.38 170.122 80.38C169.515 80.38 169.212 80.6667 169.212 81.24V82ZM175.601 87.84C175.408 88.32 175.191 88.6567 174.951 88.85C174.711 89.05 174.401 89.15 174.021 89.15C173.768 89.15 173.555 89.1167 173.381 89.05C173.215 88.9833 173.061 88.8767 172.921 88.73L173.201 88.05C173.395 88.3167 173.665 88.45 174.011 88.45C174.205 88.45 174.375 88.39 174.521 88.27C174.675 88.1567 174.808 87.9467 174.921 87.64L175.181 86.99L173.091 82H174.001L175.251 85.26L175.561 86.15L175.921 85.16L177.091 82H177.951L175.601 87.84ZM180.663 81.9C181.416 81.9 182.006 82.13 182.433 82.59C182.866 83.05 183.083 83.6867 183.083 84.5C183.083 85.3133 182.866 85.95 182.433 86.41C182.006 86.87 181.416 87.1 180.663 87.1C179.91 87.1 179.316 86.87 178.883 86.41C178.456 85.95 178.243 85.3133 178.243 84.5C178.243 83.6867 178.456 83.05 178.883 82.59C179.316 82.13 179.91 81.9 180.663 81.9ZM180.663 82.59C180.156 82.59 179.76 82.76 179.473 83.1C179.186 83.44 179.043 83.9067 179.043 84.5C179.043 85.0933 179.186 85.56 179.473 85.9C179.76 86.24 180.156 86.41 180.663 86.41C181.17 86.41 181.566 86.24 181.853 85.9C182.14 85.56 182.283 85.0933 182.283 84.5C182.283 83.9067 182.14 83.44 181.853 83.1C181.566 82.76 181.17 82.59 180.663 82.59ZM188.467 82V87H187.767L187.717 86.24C187.384 86.8133 186.787 87.1 185.927 87.1C185.387 87.1 184.944 86.95 184.597 86.65C184.257 86.35 184.087 85.89 184.087 85.27V82H184.887V85.06C184.887 85.5467 184.987 85.8933 185.187 86.1C185.387 86.3 185.68 86.4 186.067 86.4C186.527 86.4 186.907 86.26 187.207 85.98C187.514 85.7 187.667 85.28 187.667 84.72V82H188.467ZM192.188 81.9C192.428 81.9 192.612 81.9333 192.738 82L192.578 82.78C192.418 82.6933 192.208 82.65 191.948 82.65C191.735 82.65 191.525 82.7133 191.318 82.84C191.118 82.96 190.952 83.1467 190.818 83.4C190.692 83.6467 190.628 83.9467 190.628 84.3V87H189.828V82H190.478L190.588 82.82C190.868 82.2067 191.402 81.9 192.188 81.9ZM197.784 87.1C197.304 87.1 196.871 87.0067 196.484 86.82C196.098 86.6267 195.814 86.3433 195.634 85.97L196.284 85.52C196.398 85.8133 196.594 86.0333 196.874 86.18C197.154 86.3267 197.484 86.4 197.864 86.4C198.258 86.4 198.558 86.33 198.764 86.19C198.971 86.05 199.074 85.8733 199.074 85.66C199.074 85.4667 198.978 85.3133 198.784 85.2C198.591 85.08 198.251 84.9767 197.764 84.89C197.284 84.8033 196.904 84.7 196.624 84.58C196.344 84.4533 196.141 84.2967 196.014 84.11C195.888 83.9167 195.824 83.68 195.824 83.4C195.824 83.1267 195.904 82.8767 196.064 82.65C196.224 82.4233 196.454 82.2433 196.754 82.11C197.054 81.97 197.401 81.9 197.794 81.9C198.328 81.9 198.754 82 199.074 82.2C199.401 82.3933 199.634 82.6933 199.774 83.1L199.094 83.5C198.988 83.18 198.824 82.95 198.604 82.81C198.391 82.67 198.121 82.6 197.794 82.6C197.468 82.6 197.191 82.6733 196.964 82.82C196.738 82.9667 196.624 83.1367 196.624 83.33C196.624 83.55 196.721 83.72 196.914 83.84C197.114 83.96 197.468 84.0633 197.974 84.15C198.668 84.2633 199.158 84.4333 199.444 84.66C199.731 84.8867 199.874 85.2067 199.874 85.62C199.874 85.9067 199.788 86.1633 199.614 86.39C199.448 86.61 199.204 86.7833 198.884 86.91C198.571 87.0367 198.204 87.1 197.784 87.1ZM203.288 81.9C203.854 81.9 204.321 82.0633 204.688 82.39C205.054 82.7167 205.238 83.1867 205.238 83.8V87H204.438V84.08C204.438 83.56 204.324 83.1833 204.098 82.95C203.878 82.7167 203.581 82.6 203.208 82.6C202.948 82.6 202.698 82.66 202.458 82.78C202.224 82.9 202.031 83.0933 201.878 83.36C201.731 83.62 201.658 83.95 201.658 84.35V87H200.858V79.7H201.658V82.75C201.824 82.4633 202.048 82.25 202.328 82.11C202.614 81.97 202.934 81.9 203.288 81.9ZM208.659 81.9C209.412 81.9 210.002 82.13 210.429 82.59C210.862 83.05 211.079 83.6867 211.079 84.5C211.079 85.3133 210.862 85.95 210.429 86.41C210.002 86.87 209.412 87.1 208.659 87.1C207.906 87.1 207.312 86.87 206.879 86.41C206.452 85.95 206.239 85.3133 206.239 84.5C206.239 83.6867 206.452 83.05 206.879 82.59C207.312 82.13 207.906 81.9 208.659 81.9ZM208.659 82.59C208.152 82.59 207.756 82.76 207.469 83.1C207.182 83.44 207.039 83.9067 207.039 84.5C207.039 85.0933 207.182 85.56 207.469 85.9C207.756 86.24 208.152 86.41 208.659 86.41C209.166 86.41 209.562 86.24 209.849 85.9C210.136 85.56 210.279 85.0933 210.279 84.5C210.279 83.9067 210.136 83.44 209.849 83.1C209.562 82.76 209.166 82.59 208.659 82.59ZM216.463 82V87H215.763L215.713 86.24C215.38 86.8133 214.783 87.1 213.923 87.1C213.383 87.1 212.94 86.95 212.593 86.65C212.253 86.35 212.083 85.89 212.083 85.27V82H212.883V85.06C212.883 85.5467 212.983 85.8933 213.183 86.1C213.383 86.3 213.676 86.4 214.063 86.4C214.523 86.4 214.903 86.26 215.203 85.98C215.51 85.7 215.663 85.28 215.663 84.72V82H216.463ZM218.585 85.66C218.585 85.9133 218.621 86.09 218.695 86.19C218.775 86.2833 218.918 86.33 219.125 86.33C219.265 86.33 219.385 86.32 219.485 86.3C219.591 86.28 219.715 86.2433 219.855 86.19L219.725 86.96C219.505 87.0533 219.258 87.1 218.985 87.1C218.578 87.1 218.275 86.99 218.075 86.77C217.881 86.55 217.785 86.2133 217.785 85.76V79.7H218.585V85.66ZM224.821 79.7V87H224.121L224.071 86.13C223.925 86.4233 223.698 86.66 223.391 86.84C223.091 87.0133 222.748 87.1 222.361 87.1C221.661 87.1 221.105 86.87 220.691 86.41C220.285 85.9433 220.081 85.3067 220.081 84.5C220.081 83.6933 220.285 83.06 220.691 82.6C221.105 82.1333 221.661 81.9 222.361 81.9C222.728 81.9 223.055 81.98 223.341 82.14C223.635 82.3 223.861 82.5133 224.021 82.78V79.7H224.821ZM222.451 86.4C222.931 86.4 223.311 86.2333 223.591 85.9C223.878 85.5667 224.021 85.12 224.021 84.56V84.44C224.021 83.88 223.878 83.4333 223.591 83.1C223.311 82.7667 222.931 82.6 222.451 82.6C221.965 82.6 221.581 82.7733 221.301 83.12C221.021 83.46 220.881 83.92 220.881 84.5C220.881 85.08 221.021 85.5433 221.301 85.89C221.581 86.23 221.965 86.4 222.451 86.4ZM230.47 84.24C230.47 84.4267 230.457 84.6133 230.43 84.8H226.66C226.707 85.3067 226.873 85.7 227.16 85.98C227.453 86.26 227.83 86.4 228.29 86.4C228.657 86.4 228.96 86.3367 229.2 86.21C229.447 86.0833 229.613 85.9 229.7 85.66L230.37 86.01C230.17 86.3633 229.903 86.6333 229.57 86.82C229.237 87.0067 228.81 87.1 228.29 87.1C227.537 87.1 226.943 86.87 226.51 86.41C226.083 85.95 225.87 85.3133 225.87 84.5C225.87 83.6867 226.073 83.05 226.48 82.59C226.893 82.13 227.477 81.9 228.23 81.9C228.697 81.9 229.1 82.0033 229.44 82.21C229.78 82.4167 230.037 82.6967 230.21 83.05C230.383 83.4033 230.47 83.8 230.47 84.24ZM228.23 82.6C227.79 82.6 227.433 82.73 227.16 82.99C226.893 83.25 226.73 83.6167 226.67 84.09H229.7C229.647 83.6233 229.493 83.26 229.24 83C228.987 82.7333 228.65 82.6 228.23 82.6ZM233.851 81.9C234.091 81.9 234.274 81.9333 234.401 82L234.241 82.78C234.081 82.6933 233.871 82.65 233.611 82.65C233.397 82.65 233.187 82.7133 232.981 82.84C232.781 82.96 232.614 83.1467 232.481 83.4C232.354 83.6467 232.291 83.9467 232.291 84.3V87H231.491V82H232.141L232.251 82.82C232.531 82.2067 233.064 81.9 233.851 81.9ZM236.558 87.1C236.078 87.1 235.644 87.0067 235.258 86.82C234.871 86.6267 234.588 86.3433 234.408 85.97L235.058 85.52C235.171 85.8133 235.368 86.0333 235.648 86.18C235.928 86.3267 236.258 86.4 236.638 86.4C237.031 86.4 237.331 86.33 237.538 86.19C237.744 86.05 237.848 85.8733 237.848 85.66C237.848 85.4667 237.751 85.3133 237.558 85.2C237.364 85.08 237.024 84.9767 236.538 84.89C236.058 84.8033 235.678 84.7 235.398 84.58C235.118 84.4533 234.914 84.2967 234.788 84.11C234.661 83.9167 234.598 83.68 234.598 83.4C234.598 83.1267 234.678 82.8767 234.838 82.65C234.998 82.4233 235.228 82.2433 235.528 82.11C235.828 81.97 236.174 81.9 236.568 81.9C237.101 81.9 237.528 82 237.848 82.2C238.174 82.3933 238.408 82.6933 238.548 83.1L237.868 83.5C237.761 83.18 237.598 82.95 237.378 82.81C237.164 82.67 236.894 82.6 236.568 82.6C236.241 82.6 235.964 82.6733 235.738 82.82C235.511 82.9667 235.398 83.1367 235.398 83.33C235.398 83.55 235.494 83.72 235.688 83.84C235.888 83.96 236.241 84.0633 236.748 84.15C237.441 84.2633 237.931 84.4333 238.218 84.66C238.504 84.8867 238.648 85.2067 238.648 85.62C238.648 85.9067 238.561 86.1633 238.388 86.39C238.221 86.61 237.978 86.7833 237.658 86.91C237.344 87.0367 236.978 87.1 236.558 87.1ZM240.031 85.8C240.225 85.8 240.381 85.86 240.501 85.98C240.621 86.1 240.681 86.2567 240.681 86.45C240.681 86.6433 240.621 86.8 240.501 86.92C240.381 87.04 240.225 87.1 240.031 87.1C239.838 87.1 239.681 87.04 239.561 86.92C239.441 86.8 239.381 86.6433 239.381 86.45C239.381 86.2567 239.441 86.1 239.561 85.98C239.681 85.86 239.838 85.8 240.031 85.8Z" fill="#666666"/>
</svg>
