<svg width="19" height="16" viewBox="0 0 19 16" fill="none" xmlns="http://www.w3.org/2000/svg">
<path d="M12.8767 0.851874V0.848633H13.7207L14.029 0.910225C14.2346 0.950211 14.4213 1.00261 14.589 1.06745C14.7567 1.13228 14.9191 1.20792 15.0759 1.29436C15.2328 1.3808 15.3751 1.46888 15.5028 1.55856C15.6294 1.64717 15.743 1.74118 15.8437 1.84059C15.9432 1.94108 16.0985 1.96701 16.3095 1.91839C16.5205 1.86976 16.7477 1.80222 16.9912 1.71578C17.2346 1.62934 17.4754 1.53209 17.7135 1.42403C17.9515 1.31597 18.0965 1.24736 18.1485 1.21818C18.1993 1.18794 18.2264 1.17173 18.2296 1.16956L18.2328 1.1647L18.2491 1.15659L18.2653 1.14849L18.2815 1.14038L18.2978 1.13228L18.301 1.12742L18.3059 1.12418L18.3108 1.12093L18.314 1.11607L18.3302 1.11121L18.3465 1.10797L18.3432 1.13228L18.3383 1.15659L18.3302 1.18091L18.3221 1.20522L18.314 1.22143L18.3059 1.23763L18.2978 1.26195C18.2924 1.27816 18.287 1.29976 18.2815 1.32678C18.2761 1.3538 18.2247 1.46185 18.1273 1.65095C18.03 1.84005 17.9082 2.03185 17.7621 2.22635C17.6161 2.42085 17.4851 2.56779 17.3694 2.66722C17.2525 2.76771 17.1751 2.83794 17.1373 2.87793C17.0994 2.91898 17.0534 2.9568 16.9993 2.99138L16.9181 3.04487L16.9019 3.05298L16.8857 3.06108L16.8824 3.06594L16.8776 3.06918L16.8727 3.07243L16.8694 3.07729L16.8532 3.08539L16.837 3.0935L16.8338 3.09836L16.8289 3.1016L16.824 3.10484L16.8208 3.10971L16.8175 3.11457L16.8126 3.11781L16.8078 3.12105L16.8045 3.12591H16.8857L17.3401 3.02866C17.6431 2.96383 17.9326 2.88549 18.2085 2.79364L18.6467 2.64777L18.6954 2.63156L18.7198 2.62345L18.736 2.61535L18.7522 2.60725L18.7685 2.59914L18.7847 2.59104L18.8171 2.58617L18.8496 2.58293V2.61535L18.8415 2.61859L18.8334 2.62345L18.8301 2.62832L18.8253 2.63156L18.8204 2.6348L18.8171 2.63966L18.8139 2.64452L18.809 2.64777L18.8042 2.65101L18.8009 2.65587L18.7977 2.66073L18.7928 2.66397L18.7847 2.68018L18.7766 2.69639L18.7717 2.69963C18.7695 2.70287 18.7008 2.79471 18.5656 2.97518C18.4303 3.15671 18.3573 3.24855 18.3465 3.25072C18.3356 3.25396 18.3205 3.27017 18.301 3.29934C18.2826 3.32959 18.1679 3.45008 17.9569 3.66079C17.7459 3.8715 17.5393 4.05897 17.3369 4.22322C17.1335 4.38855 17.0307 4.59169 17.0285 4.83266C17.0253 5.07254 17.0128 5.34378 16.9912 5.64632C16.9695 5.94888 16.929 6.27574 16.8694 6.62693C16.8099 6.97812 16.718 7.37522 16.5935 7.81825C16.4691 8.26127 16.3176 8.6935 16.1391 9.11492C15.9605 9.53634 15.7739 9.91453 15.5791 10.2495C15.3843 10.5845 15.2058 10.8681 15.0435 11.1005C14.8812 11.3328 14.7162 11.5516 14.5484 11.7569C14.3807 11.9622 14.1687 12.1934 13.9122 12.4506C13.6547 12.7067 13.514 12.8472 13.4902 12.872C13.4653 12.8958 13.3593 12.9844 13.1721 13.1378C12.986 13.2924 12.7858 13.4469 12.5715 13.6014C12.3584 13.7549 12.1625 13.8829 11.984 13.9855C11.8054 14.0882 11.5901 14.2054 11.338 14.3373C11.087 14.4702 10.8153 14.5934 10.5232 14.7068C10.231 14.8203 9.92265 14.9256 9.59803 15.0229C9.27341 15.1201 8.95962 15.1958 8.65664 15.2498C8.35368 15.3038 8.01012 15.3498 7.62598 15.3876L7.04979 15.4443V15.4524H5.99479V15.4443L5.85682 15.4362C5.76486 15.4308 5.68911 15.4254 5.62959 15.42C5.57009 15.4146 5.34555 15.3849 4.95601 15.3308C4.56647 15.2768 4.2608 15.2228 4.03897 15.1688C3.81716 15.1147 3.48712 15.0121 3.04889 14.8608C2.61066 14.7095 2.23572 14.5566 1.92409 14.4021C1.61355 14.2487 1.41878 14.1514 1.33978 14.1104C1.26187 14.0704 1.17423 14.0207 1.07684 13.9612L0.930764 13.8721L0.927534 13.8672L0.922648 13.864L0.917779 13.8607L0.914533 13.8559L0.898302 13.8478L0.882071 13.8397L0.878841 13.8348L0.873956 13.8316L0.869086 13.8283L0.86584 13.8235L0.86261 13.8186L0.857725 13.8154H0.849609V13.7829L0.86584 13.7862L0.882071 13.791L0.95511 13.7992C1.0038 13.8045 1.13636 13.8127 1.35277 13.8235C1.56919 13.8343 1.79911 13.8343 2.04258 13.8235C2.28604 13.8127 2.53492 13.7883 2.78919 13.7505C3.04348 13.7127 3.34375 13.6479 3.69001 13.556C4.03627 13.4642 4.3544 13.355 4.6444 13.2286C4.9333 13.1011 5.13888 13.006 5.26117 12.9433C5.38235 12.8818 5.56738 12.7672 5.81625 12.5997L6.18956 12.3485L6.1928 12.3436L6.19767 12.3404L6.20256 12.3372L6.20579 12.3323L6.20903 12.3274L6.2139 12.3242L6.21879 12.3209L6.22202 12.3161L6.23825 12.3112L6.25448 12.308L6.25772 12.2918L6.26259 12.2756L6.26748 12.2723L6.27071 12.2675L6.14086 12.2594C6.0543 12.254 5.97044 12.2485 5.88928 12.2431C5.80813 12.2377 5.68099 12.2134 5.50786 12.1702C5.33474 12.127 5.14809 12.0621 4.9479 11.9757C4.74772 11.8893 4.55295 11.7866 4.36359 11.6677C4.17424 11.5489 4.03735 11.45 3.95295 11.3711C3.86963 11.2933 3.76142 11.1831 3.62833 11.0405C3.49632 10.8968 3.38162 10.7493 3.28424 10.598C3.18685 10.4467 3.0938 10.2722 3.00508 10.0745L2.87035 9.77947L2.86223 9.75515L2.85412 9.73084L2.84925 9.71463L2.846 9.69842L2.87035 9.70167L2.8947 9.70653L3.07323 9.73084C3.19227 9.74705 3.37893 9.75245 3.6332 9.74705C3.88749 9.74165 4.06332 9.73084 4.1607 9.71463C4.25809 9.69842 4.3176 9.68761 4.33924 9.68222L4.3717 9.67411L4.41228 9.66601L4.45286 9.6579L4.4561 9.65304L4.46097 9.6498L4.46586 9.64656L4.46909 9.64169L4.43662 9.63359L4.40416 9.62549L4.3717 9.61738L4.33924 9.60928L4.30678 9.60117C4.28514 9.59578 4.24728 9.58496 4.19316 9.56876C4.13906 9.55255 3.99299 9.49311 3.75493 9.39046C3.51689 9.28782 3.32752 9.18786 3.18685 9.09061C3.04583 8.99308 2.91137 8.88641 2.78433 8.7713C2.65772 8.6546 2.51869 8.5044 2.36719 8.32071C2.21571 8.13702 2.08046 7.9236 1.96142 7.68048C1.8424 7.43735 1.75313 7.20504 1.69361 6.98352C1.63433 6.7633 1.59522 6.53816 1.57677 6.31087L1.54754 5.97049L1.56377 5.97373L1.58 5.97859L1.59623 5.9867L1.61246 5.9948L1.62869 6.00291L1.64492 6.01101L1.8965 6.12447C2.06423 6.20011 2.27252 6.26495 2.52139 6.31897C2.77027 6.37299 2.91904 6.40272 2.96773 6.40812L3.04077 6.41622H3.18685L3.18362 6.41136L3.17873 6.40812L3.17387 6.40487L3.17062 6.40001L3.16739 6.39515L3.1625 6.39191L3.15763 6.38867L3.15439 6.3838L3.13816 6.3757L3.12193 6.3676L3.1187 6.36273L3.11381 6.35949L3.10894 6.35625L3.1057 6.35139L3.08947 6.34328L3.07323 6.33518L3.07 6.33032C3.06676 6.32815 3.02022 6.29357 2.9304 6.22658C2.84167 6.15851 2.74862 6.07045 2.65123 5.96239C2.55385 5.85432 2.45646 5.74087 2.35908 5.62201C2.26151 5.50288 2.17461 5.37542 2.09938 5.24111C2.02365 5.10605 1.94357 4.93422 1.85917 4.72568C1.77585 4.51822 1.71255 4.30913 1.66927 4.09842C1.626 3.88771 1.60165 3.67971 1.59623 3.4744C1.59082 3.26908 1.59623 3.0935 1.61246 2.94762C1.62869 2.80175 1.66115 2.63696 1.70984 2.45327C1.75854 2.26958 1.82888 2.07507 1.92084 1.86976L2.05881 1.5618L2.06692 1.53749L2.07504 1.51318L2.07992 1.50994L2.08315 1.50507L2.0864 1.50021L2.09127 1.49697L2.09615 1.50021L2.09938 1.50507L2.10263 1.50994L2.1075 1.51318L2.11238 1.51642L2.11561 1.52128L2.11886 1.52614L2.12373 1.52939L2.13185 1.54559L2.13996 1.5618L2.14485 1.56504L2.14808 1.56991L2.36719 1.81303C2.51327 1.97512 2.6864 2.15612 2.88658 2.35601C3.08677 2.55591 3.19768 2.65965 3.21931 2.66722C3.24096 2.67586 3.268 2.7007 3.30047 2.74177C3.33293 2.78176 3.44114 2.87739 3.62508 3.02866C3.80904 3.17994 4.0498 3.35554 4.34736 3.55544C4.64493 3.75534 4.97495 3.95254 5.33744 4.14704C5.69994 4.34154 6.08948 4.51713 6.50606 4.67382C6.92265 4.8305 7.21481 4.93315 7.38252 4.98178C7.55025 5.0304 7.83699 5.09253 8.24276 5.16817C8.64853 5.24382 8.95422 5.29244 9.1598 5.31405C9.36539 5.33566 9.50607 5.34809 9.5818 5.35133L9.69542 5.35457L9.69219 5.33026L9.6873 5.30594L9.65484 5.10334C9.6332 4.96828 9.62238 4.77917 9.62238 4.53605C9.62238 4.29292 9.64132 4.06871 9.67919 3.8634C9.71707 3.65808 9.77388 3.45008 9.84961 3.23937C9.92536 3.02866 9.99949 2.85955 10.072 2.73205C10.1456 2.60562 10.2419 2.46137 10.3609 2.29929C10.4799 2.1372 10.6341 1.96972 10.8235 1.79682C11.0128 1.62393 11.2292 1.46995 11.4727 1.33489C11.7162 1.19982 11.9407 1.09716 12.1463 1.02693C12.3519 0.956694 12.525 0.91076 12.6657 0.889154C12.8063 0.867548 12.8767 0.855116 12.8767 0.851874Z" fill="#1ABC9C"/>
</svg>
