<svg width="21" height="16" viewBox="0 0 21 16" fill="none" xmlns="http://www.w3.org/2000/svg">
<path d="M11.2882 15.1306L7.22605 15.0546C5.9108 15.0282 4.59228 15.081 3.30282 14.8069C1.34126 14.3974 1.20229 12.3895 1.05688 10.7053C0.856519 8.33741 0.934085 5.92659 1.31219 3.57852C1.52565 2.261 2.36568 1.47483 3.66476 1.38928C8.05011 1.07881 12.4646 1.1156 16.8403 1.26045C17.3024 1.27373 17.7677 1.3463 18.2234 1.42892C20.4727 1.83183 20.5275 4.10723 20.6733 6.02269C20.8187 7.95791 20.7573 9.90307 20.4794 11.8251C20.2564 13.4165 19.8298 14.7511 18.0294 14.8799C15.7737 15.0484 13.5697 15.184 11.3076 15.1408C11.3077 15.1306 11.2947 15.1306 11.2882 15.1306ZM8.90006 11.1016C10.6 10.1042 12.2674 9.12338 13.9576 8.13266C12.2545 7.13525 10.5902 6.15446 8.90006 5.16374V11.1016Z" fill="#1ABC9C"/>
</svg>
